<?xml version="1.0" standalone="no"?>
<!DOCTYPE svg PUBLIC "-//W3C//DTD SVG 1.1//EN" "http://www.w3.org/Graphics/SVG/1.1/DTD/svg11.dtd" >
<svg xmlns="http://www.w3.org/2000/svg" xmlns:xlink="http://www.w3.org/1999/xlink" version="1.1">
<metadata>
Created by FontForge 20170731 at Mon Jun 10 11:08:55 2019
 By Aleksey,,,
Copyright 2019 The Gayathri Project Authors (https://gitlab.com/smc/fonts/gayathri)
</metadata>
<defs>
<font id="Gayathri-Regular" horiz-adv-x="1887" >
  <font-face 
    font-family="Gayathri"
    font-weight="400"
    font-stretch="normal"
    units-per-em="2048"
    panose-1="0 0 5 3 0 0 0 0 0 0"
    ascent="1638"
    descent="-410"
    x-height="976"
    cap-height="1381"
    bbox="-1549.66 -1173 4030 2036"
    underline-thickness="100"
    underline-position="-750"
    unicode-range="U+0020-25CC"
  />
<missing-glyph horiz-adv-x="692" 
d="M45 1v1118h561v-1118h-561zM102 55h450v1008h-450v-1008z" />
    <glyph glyph-name=".notdef" horiz-adv-x="692" 
d="M45 1v1118h561v-1118h-561zM102 55h450v1008h-450v-1008z" />
    <glyph glyph-name=".null" horiz-adv-x="0" 
 />
    <glyph glyph-name="nonmarkingreturn" horiz-adv-x="682" 
 />
    <glyph glyph-name="space" unicode=" " horiz-adv-x="500" 
 />
    <glyph glyph-name="exclam" unicode="!" horiz-adv-x="415" 
d="M206 323q-70 0 -71 45l-35 950q-2 63 109 63q108 0 106 -63l-35 -950q-1 -47 -74 -45zM208 191q107 0 107 -108q0 -107 -107 -107q-108 0 -108 107q0 108 108 108z" />
    <glyph glyph-name="quotedbl" unicode="&#x22;" horiz-adv-x="628" 
d="M346 1199q-5 68 90 68q94 0 90 -68l-29 -408q-3 -46 -62 -46q-57 0 -60 46zM100 1196q-5 68 90 68q94 0 90 -68l-29 -408q-3 -46 -62 -46q-57 0 -60 46z" />
    <glyph glyph-name="numbersign" unicode="#" horiz-adv-x="1349" 
d="M816 12q-7 -36 -71 -36q-72 0 -72 35q0 5 3 20l67 356h-262l-71 -375q-7 -36 -77 -36q-68 0 -66 38q-5 -15 3 17l67 356h-156q-81 0 -81 45q0 46 81 46h174l74 390h-179q-82 0 -82 46t82 46h196l73 385q6 36 79 36q63 0 63 -34q0 -4 -2 -14l-69 -373h262l73 385
q7 36 73 36q70 0 70 -35q0 -5 -2 -13l-71 -373h173q81 0 81 -46t-81 -46h-190l-74 -390h195q82 0 82 -46q0 -45 -82 -45h-212zM760 478l75 390h-263l-74 -390h262z" />
    <glyph glyph-name="dollar" unicode="$" horiz-adv-x="1142" 
d="M571 -220q-50 0 -50 25v167q-150 16 -255 100q-119 97 -160 263q-6 22 -6 29q0 43 80 43q74 0 82 -40q34 -161 137 -243q52 -42 122 -57v554q-161 35 -260 121q-122 106 -122 260q0 153 121 259q108 93 261 110v84q0 25 50 25t50 -25v-82q151 -10 256 -98
q102 -87 131 -228q4 -14 4 -20q0 -44 -81 -44q-74 0 -82 41q-24 130 -108 201q-55 46 -120 55v-511q190 -27 299 -124q122 -109 122 -271q0 -145 -112 -264q-122 -126 -309 -139v-166q0 -25 -50 -25zM521 788v488q-70 -17 -124 -64q-95 -83 -95 -207q0 -84 66 -141
q57 -49 153 -76zM621 63q114 16 186.5 113t72.5 197q0 188 -259 231v-541z" />
    <glyph glyph-name="percent" unicode="%" horiz-adv-x="1684" 
d="M428 659q-164 0 -246 113.5t-82 249.5q-1 136 81 247.5t247 111.5q164 0 246 -113.5t82 -249.5t-82 -247.5t-246 -111.5zM533 0q-13 -24 -56 -24q-61 0 -61 33q0 8 7 17l728 1331q14 24 58 24q59 0 59 -33l-7 -18zM428 748q82 0 123.5 85.5t41.5 186.5q0 271 -165 271
q-167 0 -165 -271q0 -272 165 -272zM1256 -24q-165 0 -246.5 113.5t-81.5 249.5q0 137 82 248t246 111t246 -112.5t82 -248.5t-81.5 -248.5t-246.5 -112.5zM1256 66q165 0 165 271q0 272 -165 272t-165 -272q0 -271 165 -271z" />
    <glyph glyph-name="ampersand" unicode="&#x26;" horiz-adv-x="1316" 
d="M1133 -24q-49 0 -72 26l-137 160q-173 -186 -417 -186q-153 0 -280 89t-127 256q0 160 101 259t227 173q-61 75 -135 170.5t-74 195.5q0 133 114.5 197.5t229.5 64.5q127 0 232 -68t105 -209q0 -130 -89 -218.5t-190 -150.5q65 -79 138 -165.5t142 -169.5q45 115 47 239
q0 47 82 45q80 0 80 -45q0 -192 -102 -364l195 -229q13 -15 13 -25q0 -45 -83 -45zM547 826q190 121 190 278q0 186 -174 186q-181 0 -181 -171q0 -79 58 -156t107 -137zM505 67q188 0 327 203q-76 90 -163.5 193t-167.5 200q-94 -58 -166 -138t-72 -199q0 -259 242 -259z
" />
    <glyph glyph-name="quotesingle" unicode="'" horiz-adv-x="380" 
d="M100 1334q-5 68 90 68q94 0 90 -68l-29 -408q-3 -46 -62 -46q-57 0 -60 46z" />
    <glyph glyph-name="parenleft" unicode="(" horiz-adv-x="679" 
d="M497 -380q-48 0 -71 24q-326 343 -326 870q0 515 326 862q23 24 71 24q82 0 82 -46q0 -12 -9 -21q-307 -325 -307 -819q0 -506 306 -827q10 -11 10 -21q0 -46 -82 -46z" />
    <glyph glyph-name="parenright" unicode=")" horiz-adv-x="679" 
d="M182 -380q48 0 71 24q326 343 326 870q0 515 -326 862q-23 24 -71 24q-82 0 -82 -46q0 -12 9 -21q307 -325 307 -819q0 -506 -306 -827q-10 -11 -10 -21q0 -46 82 -46z" />
    <glyph glyph-name="asterisk" unicode="*" horiz-adv-x="639" 
d="M78 1146q3 0 13 -2l183 -46l13 194q1 24 32 24t32 -24l14 -193l186 46q6 2 9 2q29 0 29 -39q0 -17 -16 -24l-179 -72l102 -164q4 -7 4 -14q0 -13 -15 -25q-13 -9 -22 -9q-10 0 -19 10l-124 148l-125 -149q-6 -9 -18 -9q-11 0 -22 8q-16 11 -16 26q0 6 4 13l103 164
l-180 73q-16 6 -16 23q0 39 28 39z" />
    <glyph glyph-name="plus" unicode="+" horiz-adv-x="1050" 
d="M181 379q-81 0 -81 46t81 46h263v333q0 46 81 46t81 -46v-333h263q81 0 81 -46t-81 -46h-263v-334q0 -45 -81 -45t-81 45v334h-263z" />
    <glyph glyph-name="comma" unicode="," horiz-adv-x="391" 
d="M269 -66q-30 -48 -72 -72q-32 -20 -71 -20q-26 0 -26 14q0 6 11 10q44 17 70 62q21 36 24 72q-6 -1 -18 -1q-107 0 -107 107t107 107q54 0 87 -36q37 -38 37 -102q0 -77 -42 -141z" />
    <glyph glyph-name="hyphen" unicode="-" horiz-adv-x="813" 
d="M182 450q-82 0 -82 46q0 45 82 45h450q81 0 81 -45q0 -46 -81 -46h-450z" />
    <glyph glyph-name="period" unicode="." horiz-adv-x="415" 
d="M207 215q108 0 108 -107q0 -108 -108 -108q-107 0 -107 108q0 107 107 107z" />
    <glyph glyph-name="slash" unicode="/" horiz-adv-x="848" 
d="M159 -23q-59 0 -59 28q0 4 2 10l527 1342q9 23 60 23q59 0 59 -28q0 -3 -5 -18l-524 -1334q-9 -23 -60 -23z" />
    <glyph glyph-name="zero" unicode="0" horiz-adv-x="1128" 
d="M564 -24q-242 0 -363 219.5t-121 482.5t121 483t363 220t363 -219.5t121 -483.5q0 -263 -121 -482.5t-363 -219.5zM564 1290q-157 0 -236 -191t-79 -421q0 -229 79 -420t236 -191q158 0 236.5 191t78.5 420q0 230 -78.5 421t-236.5 191z" />
    <glyph glyph-name="one" unicode="1" horiz-adv-x="617" 
d="M435 -24q-81 0 -81 47v1016q-102 -86 -219 -86q-85 0 -85 44q0 37 61 45q83 12 150 86q74 81 91 206q7 47 83 47q82 0 82 -46v-1312q0 -47 -82 -47z" />
    <glyph glyph-name="two" unicode="2" horiz-adv-x="1119" 
d="M931 0h-749q-82 0 -82 46q0 198 67 311q48 80 120.5 123t151.5 83q138 68 277 164t139 258q0 305 -289 305q-110 0 -184 -58q-113 -87 -113 -238q0 -8 1 -15.5t1 -15.5q0 -45 -80 -45q-74 0 -81 41q-3 20 -3 41q0 212 197 320q108 61 262 61q176 0 314.5 -106t138.5 -293
q0 -190 -157.5 -299.5t-314.5 -188.5q-64 -31 -126 -66t-100 -100q-51 -87 -57 -237h667q81 0 81 -45q0 -46 -81 -46z" />
    <glyph glyph-name="three" unicode="3" horiz-adv-x="1109" 
d="M569 -23q-184 0 -326.5 96.5t-142.5 297.5q0 46 81 46q82 0 82 -46q0 -303 306 -303q284 0 278 302q-5 243 -217 286q-31 6 -66 6l-62 -1q-81 0 -81 46q0 41 77 45q44 2 65 5q32 3 66 14q180 59 180 244q-2 276 -286 276q-271 0 -260 -290l1 -23q1 -46 -82 -46
q-79 0 -81 44v27q0 379 433 379q167 0 302 -93t135 -276q0 -199 -197 -297q110 -45 173 -137q61 -90 61 -211q0 -119 -62 -211q-123 -180 -377 -180z" />
    <glyph glyph-name="four" unicode="4" horiz-adv-x="1156" 
d="M859 23q0 -47 -82 -47q-81 0 -81 47v316h-564q-82 0 -82 46q0 8 7 18l642 945q22 33 78 33q82 0 82 -47v-903h165q82 0 82 -46t-82 -46h-165v-316zM210 431h486v715z" />
    <glyph glyph-name="five" unicode="5" horiz-adv-x="1133" 
d="M1033 418q0 -206 -137.5 -324t-335.5 -118q-371 0 -456 316q-4 18 -4 21q0 43 81 43q71 0 81 -40q58 -249 297 -249q147 0 229 106.5t82 244.5q0 137 -81.5 244t-228.5 107q-163 0 -253 -140q-28 -43 -81 -43q-82 0 -82 47q0 12 1 19l88 660q5 45 81 45h593q81 0 81 -46
q0 -45 -81 -45h-517l-61 -456q109 51 231 51q188 0 330.5 -115t142.5 -328z" />
    <glyph glyph-name="six" unicode="6" horiz-adv-x="1157" 
d="M601 -24q-227 0 -352 145q-89 104 -125 277q-24 114 -24 271q0 161 34 288q114 424 494 424q321 0 399 -289q4 -12 4 -19q1 -44 -82 -44q-72 0 -80 39q-53 222 -241 222q-140 0 -220.5 -113.5t-112.5 -232.5q-29 -110 -34 -242q115 167 340 167q192 0 315 -111
q141 -124 141 -335q0 -168 -92 -283q-129 -164 -364 -164zM601 67q144 0 218.5 112t74.5 244q0 131 -74.5 243t-218.5 112q-143 0 -218 -112t-75 -243q0 -132 75 -244t218 -112z" />
    <glyph glyph-name="seven" unicode="7" horiz-adv-x="1066" 
d="M462 -24q-87 -3 -84 47q19 407 138 722q102 268 294 521h-678q-82 0 -82 45q0 46 82 46h802q34 0 59 -13q23 -12 23 -32q0 -12 -9 -22q-224 -276 -332 -563q-112 -296 -134 -707q-2 -44 -79 -44z" />
    <glyph glyph-name="eight" unicode="8" horiz-adv-x="1149" 
d="M1011 1023q0 -215 -210 -311q248 -100 248 -347q0 -196 -150 -292.5t-325 -96.5q-174 0 -324 96.5t-150 292.5q0 247 248 347q-210 96 -210 311q0 181 138 269.5t298 88.5q161 0 299 -88.5t138 -269.5zM848 1023q0 267 -274 267q-273 0 -273 -267t274 -267q273 0 273 267
zM886 365q0 298 -311 298q-312 0 -312 -298t311 -298q312 0 312 298z" />
    <glyph glyph-name="nine" unicode="9" horiz-adv-x="1157" 
d="M556 1381q227 0 352 -145q89 -104 125 -277q24 -114 24 -271q0 -161 -34 -288q-114 -424 -494 -424q-321 0 -399 289q-4 12 -4 19q-1 44 82 44q72 0 80 -39q53 -222 241 -222q140 0 220.5 113.5t112.5 232.5q29 110 34 242q-115 -167 -340 -167q-192 0 -315 111
q-141 124 -141 335q0 168 92 283q129 164 364 164zM556 1290q-144 0 -218.5 -112t-74.5 -244q0 -131 74.5 -243t218.5 -112q143 0 218 112t75 243q0 132 -75 244t-218 112z" />
    <glyph glyph-name="colon" unicode=":" horiz-adv-x="415" 
d="M207 856q108 0 108 -107q0 -108 -108 -108q-107 0 -107 108q0 107 107 107zM207 365q108 0 108 -107q0 -108 -108 -108q-107 0 -107 108q0 107 107 107z" />
    <glyph glyph-name="semicolon" unicode=";" horiz-adv-x="431" 
d="M208 704q107 0 107 -108q0 -107 -107 -107q-108 0 -108 107q0 108 108 108zM289 -66q-30 -48 -72 -72q-32 -20 -71 -20q-26 0 -26 14q0 6 11 10q44 17 70 62q21 36 24 72q-6 -2 -18 -2q-107 0 -107 108q0 107 107 107q53 0 87 -36q37 -38 37 -102q0 -77 -42 -141z" />
    <glyph glyph-name="less" unicode="&#x3c;" horiz-adv-x="1196" 
d="M1014 80q-31 0 -54 12l-834 427q-26 14 -26 34q0 19 26 33l834 427q23 12 54 12q37 0 61 -15q21 -13 21 -30q0 -20 -26 -34l-769 -393l769 -394q26 -14 26 -34q0 -16 -21 -30q-24 -15 -61 -15z" />
    <glyph glyph-name="equal" unicode="=" horiz-adv-x="1068" 
d="M182 700q-82 0 -82 46q0 45 82 45h704q82 0 82 -45q0 -46 -82 -46h-704zM182 380q-82 0 -82 45q0 46 82 46h704q82 0 82 -46q0 -45 -82 -45h-704z" />
    <glyph glyph-name="greater" unicode="&#x3e;" horiz-adv-x="1196" 
d="M182 80q31 0 54 12l834 427q26 14 26 34q0 19 -26 33l-834 427q-23 12 -54 12q-37 0 -61 -15q-21 -13 -21 -30q0 -20 26 -34l769 -393l-769 -394q-26 -14 -26 -34q0 -16 21 -30q24 -15 61 -15z" />
    <glyph glyph-name="question" unicode="?" horiz-adv-x="1096" 
d="M624 307q3 -46 -82 -46q-79 0 -81 44l-2 49q-4 115 45 194q36 58 164 178q68 63 117 129.5t49 165.5q2 269 -277 269q-148 0 -224 -92q-71 -85 -71 -213q0 -46 -81 -46t-81 46q0 149 86 251q121 145 371 145q164 0 301.5 -90.5t137.5 -269.5q0 -114 -55 -191.5
t-134 -150.5q-119 -111 -151 -164q-38 -62 -34 -160zM541 191q107 0 107 -108q0 -107 -107 -107t-107 107q0 108 107 108z" />
    <glyph glyph-name="at" unicode="@" horiz-adv-x="1947" 
d="M948 -403q-288 0 -509 153q-339 235 -339 711q0 409 244 657q253 259 654 259q374 0 611 -228q238 -226 238 -618q0 -231 -116 -391q-117 -164 -312 -164q-166 0 -205 126q-99 -127 -273 -127q-207 0 -315.5 135t-108.5 320q0 187 106 335t311 148q215 0 316 -154l15 110
q5 41 82 41q85 0 80 -41l-84 -570q-7 -49 -7 -84q0 -148 90 -148q77 0 154 107q105 145 105 357q0 365 -217 572q-189 183 -470 183q-303 0 -512 -212q-224 -228 -224 -612q-2 -441 304 -654q170 -120 383 -120q105 0 212 34q18 6 41 6q47 0 70 -23q11 -11 11 -22
q0 -28 -41 -40q-146 -46 -294 -46zM937 67q133 0 196 135.5t63 247.5q0 122 -59.5 247t-199.5 125q-132 1 -194.5 -137t-62.5 -248q0 -122 60 -246t197 -124z" />
    <glyph glyph-name="A" unicode="A" horiz-adv-x="1373" 
d="M1348 20q0 -44 -92 -44q-71 0 -86 35l-187 430h-653l-188 -442q-11 -23 -56 -23q-61 0 -61 30q0 1 2 9l567 1333q13 33 94 33q70 0 86 -35l568 -1308q6 -14 6 -18zM944 532l-291 670l-285 -670h576z" />
    <glyph glyph-name="B" unicode="B" horiz-adv-x="1265" 
d="M742 1357q154 0 268.5 -101.5t114.5 -260.5q0 -194 -167 -301q232 -93 232 -332q0 -160 -118 -261t-273 -101h-617q-82 0 -82 46v1265q0 46 82 46h560zM263 724h479q99 0 159.5 90t60.5 181q0 90 -61 180.5t-159 90.5h-479v-542zM263 633v-542h536q101 0 164.5 88.5
t63.5 182.5t-63.5 182.5t-164.5 88.5h-536z" />
    <glyph glyph-name="C" unicode="C" horiz-adv-x="1342" 
d="M1211 454q81 0 81 -47q0 -15 -12 -57q-53 -183 -225.5 -278.5t-356.5 -95.5q-307 0 -477.5 195t-170.5 498q0 307 171 509.5t491 202.5q188 0 360 -101t212 -294q6 -22 6 -34q0 -49 -82 -49q-76 0 -81 42q-45 345 -415 345q-254 0 -377 -193.5t-123 -420.5
q0 -223 116.5 -416t369.5 -193q152 0 279.5 96t152.5 250q7 41 81 41z" />
    <glyph glyph-name="D" unicode="D" horiz-adv-x="1315" 
d="M181 1357h466q297 0 457.5 -203t160.5 -478q1 -277 -159.5 -476.5t-458.5 -199.5h-466q-81 0 -81 45v1267q0 45 81 45zM647 1266h-384v-1175h384q233 0 345 190.5t111 394.5q0 202 -111.5 396t-344.5 194z" />
    <glyph glyph-name="E" unicode="E" horiz-adv-x="1243" 
d="M100 1312q0 45 81 45h906q81 0 81 -45q0 -46 -81 -46h-824v-541h705q82 0 82 -46t-82 -46h-705v-542h824q81 0 81 -46q0 -45 -81 -45h-906q-81 0 -81 45v1267z" />
    <glyph glyph-name="F" unicode="F" horiz-adv-x="1153" 
d="M263 21q0 -45 -82 -45q-81 0 -81 45v1291q0 45 81 45h841q81 0 81 -45q0 -46 -81 -46h-759v-549h640q82 0 82 -45q0 -46 -82 -46h-640v-605z" />
    <glyph glyph-name="G" unicode="G" horiz-adv-x="1451" 
d="M750 -24q-700 0 -700 704q0 317 194.5 509t510.5 192q189 0 377 -96t235 -293q7 -28 7 -44q0 -45 -81 -45q-77 0 -82 42q-23 164 -160.5 254.5t-292.5 90.5q-262 0 -404 -184t-142 -430q0 -247 135.5 -428.5t400.5 -180.5q165 0 301 97q165 117 165 247v182h-466
q-82 0 -82 46t82 46h547q81 0 81 -46v-228q0 -80 -69 -170t-131 -134q-186 -131 -426 -131z" />
    <glyph glyph-name="H" unicode="H" horiz-adv-x="1346" 
d="M263 21q0 -45 -81 -45q-82 0 -82 45v1315q0 45 82 45q81 0 81 -45v-612h820v612q0 45 81 45q82 0 82 -45v-1315q0 -45 -82 -45q-81 0 -81 45v612h-820v-612z" />
    <glyph glyph-name="I" unicode="I" horiz-adv-x="263" 
d="M213 21q0 -45 -81 -45q-82 0 -82 45v1315q0 45 82 45q81 0 81 -45v-1315z" />
    <glyph glyph-name="J" unicode="J" horiz-adv-x="926" 
d="M25 331q0 46 82 46q81 0 81 -46q0 -264 236 -264q239 0 239 270v999q0 45 81 45q82 0 82 -45v-999q0 -174 -121 -267.5t-281 -93.5q-158 0 -278.5 92t-120.5 263z" />
    <glyph glyph-name="K" unicode="K" horiz-adv-x="1227" 
d="M1102 -24q-70 0 -93 33l-505 681l-242 -226v-447q0 -41 -82 -41q-81 0 -81 41v1323q0 41 81 41q82 0 82 -41v-728l807 751q19 18 60 18q14 0 34 -4q38 -9 38 -31q0 -7 -9 -16l-560 -522l564 -765q7 -10 7 -18q0 -28 -49 -41q-25 -8 -52 -8z" />
    <glyph glyph-name="L" unicode="L" horiz-adv-x="1059" 
d="M100 1336q0 45 82 45q81 0 81 -45v-1245h689q82 0 82 -46q0 -45 -82 -45h-770q-82 0 -82 45v1291z" />
    <glyph glyph-name="M" unicode="M" horiz-adv-x="1549" 
d="M1368 -24q-82 0 -82 44v1037l-420 -1047q-13 -34 -88 -34t-90 34l-470 1063v-1069q0 -28 -59 -28t-59 28v1331q0 46 100 46q68 0 84 -34l521 -1184l477 1184q14 34 84 34q83 2 83 -46v-1315q0 -44 -81 -44z" />
    <glyph glyph-name="N" unicode="N" horiz-adv-x="1358" 
d="M1157 -24q-67 0 -91 32l-848 1157v-1158q0 -31 -59 -31t-59 31v1318q0 56 100 56q68 0 92 -32l848 -1157v1157q0 32 59 32t59 -32v-1319q0 -54 -101 -54z" />
    <glyph glyph-name="O" unicode="O" horiz-adv-x="1446" 
d="M723 1381q311 0 492 -203t181 -499q0 -297 -181 -500t-492 -203t-492 203t-181 500q0 296 181 499t492 203zM723 1290q-252 0 -381 -192.5t-129 -418.5t129 -419t381 -193t381 193t129 419t-129 418.5t-381 192.5z" />
    <glyph glyph-name="P" unicode="P" horiz-adv-x="1272" 
d="M263 22q0 -46 -81 -46q-82 0 -82 46v1289q0 46 82 46h629q157 0 284 -99.5t127 -266.5q0 -166 -127 -266t-284 -100h-548v-603zM263 1266v-550h548q106 0 177 87t71 188t-71 188t-177 87h-548z" />
    <glyph glyph-name="Q" unicode="Q" horiz-adv-x="1479" 
d="M1348 -24q-103 0 -223 122q-165 -122 -402 -122q-311 0 -492 203t-181 500q0 296 181 499t492 203t492 -203t181 -499q0 -288 -169 -487q70 -96 166 -133q36 -13 36 -38q0 -14 -14 -25q-24 -20 -67 -20zM723 67q193 0 326 130q-70 110 -130.5 192.5t-211.5 99.5
q-66 7 -66 45q-1 45 84 45q261 0 419 -256q89 158 89 356q0 226 -129 418.5t-381 192.5t-381 -192.5t-129 -418.5t129 -419t381 -193z" />
    <glyph glyph-name="R" unicode="R" horiz-adv-x="1343" 
d="M181 -24q-81 0 -81 46v1289q0 46 81 46h619q158 0 289.5 -98.5t131.5 -267.5q0 -146 -105 -243.5t-242 -117.5q60 -50 98.5 -121t72.5 -149q41 -91 90 -176.5t131 -127.5q27 -14 27 -34q0 -17 -21 -30q-24 -15 -60 -15q-33 0 -54 11q-111 56 -168 152.5t-103 198.5
q-48 108 -104 197t-161 89h-359v-603q0 -46 -82 -46zM800 716q258 0 258 275t-258 275h-537v-550h537z" />
    <glyph glyph-name="S" unicode="S" horiz-adv-x="1240" 
d="M1190 390q0 -193 -178.5 -303.5t-393.5 -110.5q-181 0 -354.5 85.5t-209.5 281.5q-4 22 -4 27q0 44 84 44q68 0 78 -39q81 -311 413 -308q134 2 268 81.5t134 232.5q0 110 -133 172q-98 46 -247 62q-90 9 -189.5 29.5t-182.5 63.5q-190 98 -190 301q0 202 188 287t355 85
t318.5 -77t199.5 -248q6 -21 6 -26q0 -41 -85 -41q-68 0 -78 40q-60 261 -360 261q-126 0 -253.5 -65.5t-127.5 -214.5q0 -105 147 -170q68 -29 143 -44t125 -20q99 -10 201 -32t180 -72q146 -96 146 -282z" />
    <glyph glyph-name="T" unicode="T" horiz-adv-x="1225" 
d="M694 33q0 -45 -81 -45q-82 0 -82 45v1245h-425q-81 0 -81 46q0 45 81 45h1013q81 0 81 -45q0 -46 -81 -46h-425v-1245z" />
    <glyph glyph-name="U" unicode="U" horiz-adv-x="1309" 
d="M1046 1335q0 46 82 46q81 0 81 -46v-906q0 -215 -181.5 -334t-375.5 -119q-192 0 -372 120t-180 333v906q0 46 81 46q82 0 82 -46v-906q0 -154 121 -258t268 -104q149 -1 271.5 103t122.5 259v906z" />
    <glyph glyph-name="V" unicode="V" horiz-adv-x="1337" 
d="M664 -24q-69 0 -83 34l-552 1315q-4 10 -4 14q0 42 88 42q67 0 82 -34l497 -1185l503 1196q10 23 59 23q58 0 58 -29q0 -4 -3 -10l-559 -1330q-15 -36 -86 -36z" />
    <glyph glyph-name="W" unicode="W" horiz-adv-x="1877" 
d="M1398 13q-12 -37 -93 -37q-72 0 -82 37l-285 1101l-281 -1100q-9 -38 -89 -38q-74 0 -85 35l-455 1310q-3 9 -3 16q0 44 86 44q72 0 85 -38l392 -1134l290 1136q9 36 88 36q75 0 85 -39l294 -1133l390 1148q9 24 58 24q59 0 59 -26q0 -7 -3 -15z" />
    <glyph glyph-name="X" unicode="X" horiz-adv-x="1252" 
d="M88 -24q-6 0 -22 2q-41 8 -41 30q0 5 5 12l514 642l-509 658q-7 8 -7 17q0 29 59 41q14 3 32 3q62 0 84 -29l439 -568l462 577q16 20 60 20q16 0 23 -2q40 -6 40 -30q0 -5 -5 -12l-512 -640l510 -659q7 -10 7 -18q0 -29 -59 -40q-15 -4 -30 -4q-64 0 -86 28l-441 570
l-463 -578q-16 -20 -60 -20z" />
    <glyph glyph-name="Y" unicode="Y" horiz-adv-x="1256" 
d="M628 -24q-81 0 -81 45v623l-515 676q-7 8 -7 18q0 43 94 43q60 0 82 -29l455 -598l451 606q15 21 61 21q63 0 63 -32q0 -6 -4 -11l-517 -695v-622q0 -45 -82 -45z" />
    <glyph glyph-name="Z" unicode="Z" horiz-adv-x="1278" 
d="M1163 0h-1048q-26 0 -50 8q-40 13 -40 37q0 9 7 17l995 1205h-889q-89 0 -89 45t89 45h1023q30 0 54 -9q35 -13 35 -36q0 -10 -6 -17l-995 -1205h914q90 0 90 -45t-90 -45z" />
    <glyph glyph-name="bracketleft" unicode="[" horiz-adv-x="774" 
d="M593 -309q81 0 81 -46q0 -45 -81 -45h-412q-81 0 -81 45v1690q0 45 81 45h412q81 0 81 -45q0 -46 -81 -46h-330v-1598h330z" />
    <glyph glyph-name="backslash" unicode="\" horiz-adv-x="848" 
d="M689 -23q59 0 59 28q0 4 -2 10l-527 1342q-9 23 -60 23q-59 0 -59 -28q0 -3 5 -18l524 -1334q9 -23 60 -23z" />
    <glyph glyph-name="bracketright" unicode="]" horiz-adv-x="774" 
d="M181 -309q-81 0 -81 -46q0 -45 81 -45h412q81 0 81 45v1690q0 45 -81 45h-412q-81 0 -81 -45q0 -46 81 -46h330v-1598h-330z" />
    <glyph glyph-name="asciicircum" unicode="^" horiz-adv-x="768" 
d="M668 1107q0 -27 -60 -27q-42 0 -53 21l-171 352l-171 -352q-10 -21 -53 -21q-60 0 -60 27q0 6 2 8l226 466q10 22 56 22q45 0 56 -22l226 -466q2 -2 2 -8z" />
    <glyph glyph-name="underscore" unicode="_" horiz-adv-x="1275" 
d="M181 0q-81 0 -81 46q0 45 81 45h913q81 0 81 -45q0 -46 -81 -46h-913z" />
    <glyph glyph-name="grave" unicode="`" horiz-adv-x="489" 
d="M427 1080q-13 0 -26 10l-380 280q-21 15 -21 42q0 28 24 61q32 41 70 41q20 0 35 -14l339 -316q21 -21 21 -38q0 -18 -18 -41q-20 -25 -44 -25z" />
    <glyph glyph-name="a" unicode="a" horiz-adv-x="1106" 
d="M1000 -24q-117 0 -155 143q-126 -143 -372 -143q-151 0 -259 61q-139 77 -139 225q0 107 60 172q61 66 160.5 84.5t196.5 18.5q32 0 72.5 -2t82.5 -2q125 0 178 33v101q0 242 -280 242q-105 0 -186 -53q-92 -60 -92 -144q0 -46 -81 -46t-81 46q2 117 130 203
q127 85 310 85q155 0 299 -76t144 -257v-439q0 -74 19 -117q18 -38 52 -58q22 -13 22 -31q0 -46 -81 -46zM473 67q118 0 235 71t117 204v114q-65 -14 -157 -14q-46 0 -92 2.5t-92 2.5q-60 1 -125 -11.5t-98 -71.5q-25 -44 -25 -99q2 -97 71 -149q62 -49 166 -49z" />
    <glyph glyph-name="b" unicode="b" horiz-adv-x="1134" 
d="M592 1001q229 0 360.5 -147t131.5 -365q0 -217 -131.5 -364.5t-360.5 -147.5q-224 0 -329 150v-106q0 -45 -81 -45q-82 0 -82 45v1315q0 45 82 45q81 0 81 -45v-485q105 150 329 150zM592 910q-166 0 -247.5 -137.5t-81.5 -283.5q0 -145 81.5 -283t247.5 -138
q167 0 248 138t81 283q0 146 -81 283.5t-248 137.5z" />
    <glyph glyph-name="c" unicode="c" horiz-adv-x="1084" 
d="M953 342q81 0 81 -43q0 -58 -53 -134q-134 -189 -420 -189q-511 0 -511 506q-2 518 522 518q275 0 403 -177q57 -76 57 -143q0 -46 -81 -46q-76 0 -81 42q-32 233 -296 233q-181 0 -271 -131t-90 -296q0 -163 89 -289t266 -126q262 0 304 234q7 41 81 41z" />
    <glyph glyph-name="d" unicode="d" horiz-adv-x="1134" 
d="M542 1001q224 0 329 -150v485q0 45 81 45q82 0 82 -45v-1315q0 -45 -82 -45q-81 0 -81 45v106q-105 -150 -329 -150q-229 0 -360.5 147.5t-131.5 364.5q0 218 131.5 365t360.5 147zM542 910q-166 0 -247.5 -137.5t-81.5 -283.5q0 -145 81.5 -283t247.5 -138
q167 0 248 138t81 283q0 146 -81 283.5t-248 137.5z" />
    <glyph glyph-name="e" unicode="e" horiz-adv-x="1146" 
d="M570 -24q-225 0 -372.5 137.5t-147.5 366.5q0 232 149.5 376t378.5 144q215 0 366.5 -117t151.5 -344q0 -54 -81 -54h-803q0 -160 92.5 -289t266.5 -129q127 0 227 68q108 72 117 165q5 43 80 43q82 0 82 -45q0 -32 -22 -78q-40 -84 -132 -144q-150 -100 -353 -100z
M932 577q-25 332 -354 332q-294 0 -357 -332h711z" />
    <glyph glyph-name="f" unicode="f" horiz-adv-x="766" 
d="M317 -24q-82 0 -82 46v888h-129q-81 0 -81 45q0 46 81 46h129v111q0 267 316 269q60 0 120 -11q70 -12 70 -45q0 -46 -83 -46q-26 0 -52 5.5t-55 5.5q-153 -1 -153 -178v-111h191q82 0 82 -46q0 -45 -82 -45h-191v-888q0 -46 -81 -46z" />
    <glyph glyph-name="g" unicode="g" horiz-adv-x="1132" 
d="M1032 30q0 -227 -153.5 -330.5t-359.5 -103.5q-117 0 -255.5 40t-206.5 140q-6 9 -6 17q0 44 83 44q54 0 75 -29q46 -67 139 -94t172 -27q350 0 350 343v95q-110 -148 -328 -148q-229 0 -360.5 147.5t-131.5 364.5q0 218 131.5 365t360.5 147q214 0 328 -152l1 106
q0 46 81 46q80 0 80 -46v-925zM542 68q167 0 248 138t81 283q0 146 -81 283.5t-248 137.5q-166 0 -247.5 -137.5t-81.5 -283.5q0 -145 81.5 -283t247.5 -138z" />
    <glyph glyph-name="h" unicode="h" horiz-adv-x="1070" 
d="M938 -24q-81 0 -81 45v531q0 178 -89 267t-197 89q-308 2 -308 -386v-501q0 -45 -81 -45q-82 0 -82 45v1315q0 45 82 45q81 0 81 -45v-495q89 160 320 160q194 0 315.5 -129t121.5 -320v-531q0 -45 -82 -45z" />
    <glyph glyph-name="i" unicode="i" horiz-adv-x="330" 
d="M165 1293q90 0 90 -90t-90 -90t-90 90t90 90zM83 955q0 45 82 45t82 -45v-933q0 -46 -82 -46t-82 46v933z" />
    <glyph glyph-name="j" unicode="j" horiz-adv-x="639" 
d="M449 1111q-90 0 -90 90t90 90t90 -90t-90 -90zM214 -407q-59 0 -120 11q-69 12 -69 44q0 47 83 47q26 0 52 -5.5t54 -5.5q153 1 153 178v1090q0 46 82 46q81 0 81 -46v-1090q0 -267 -316 -269z" />
    <glyph glyph-name="k" unicode="k" horiz-adv-x="1068" 
d="M944 -24q-66 0 -92 29l-432 468l-158 -135v-316q0 -46 -81 -46q-82 0 -82 46v1314q0 45 82 45q81 0 81 -45v-859l591 505q19 18 59 18q19 0 36 -5q36 -9 36 -31q0 -8 -10 -17l-431 -369l491 -531q10 -12 10 -21q0 -24 -36 -38q-29 -12 -64 -12z" />
    <glyph glyph-name="l" unicode="l" horiz-adv-x="313" 
d="M75 1336q0 45 82 45q81 0 81 -45v-1315q0 -45 -81 -45q-82 0 -82 45v1315z" />
    <glyph glyph-name="m" unicode="m" horiz-adv-x="1725" 
d="M1543 -24q-81 0 -81 45v533q0 127 -57 239.5t-203 112.5q-145 0 -201 -113.5t-56 -238.5v-533q0 -45 -82 -45q-81 0 -81 45v533q0 127 -55 239.5t-202 112.5q-145 0 -203.5 -126.5t-58.5 -257.5v-500q0 -46 -81 -46q-82 0 -82 46v933q0 45 82 45q81 0 81 -45v-110
q85 155 294 155q206 0 318 -167q100 167 328 167q422 0 422 -446v-533q0 -45 -82 -45z" />
    <glyph glyph-name="n" unicode="n" horiz-adv-x="1120" 
d="M938 -25q-81 0 -81 46v530q0 131 -70.5 243.5t-217.5 112.5q-306 0 -306 -385v-501q0 -46 -81 -46q-82 0 -82 46v933q0 46 82 46q81 0 81 -46v-113q89 160 320 160q160 1 298.5 -112.5t138.5 -337.5v-530q0 -46 -82 -46z" />
    <glyph glyph-name="o" unicode="o" horiz-adv-x="1150" 
d="M575 1000q231 0 378 -142t147 -370t-147 -370t-378 -142t-378 142t-147 370t147 370t378 142zM575 909q-175 0 -268.5 -131t-93.5 -290t93.5 -290t268.5 -131t268.5 131t93.5 290t-93.5 290t-268.5 131z" />
    <glyph glyph-name="p" unicode="p" horiz-adv-x="1134" 
d="M592 -24q-224 0 -329 150v-485q0 -45 -81 -45q-82 0 -82 45v1315q0 45 82 45q81 0 81 -45v-106q105 150 329 150q229 0 360.5 -147t131.5 -365q0 -217 -131.5 -364.5t-360.5 -147.5zM592 67q167 0 248 138t81 283q0 146 -81 283.5t-248 137.5q-166 0 -247.5 -137.5
t-81.5 -283.5q0 -145 81.5 -283t247.5 -138z" />
    <glyph glyph-name="q" unicode="q" horiz-adv-x="1134" 
d="M542 -26q224 0 329 150v-485q0 -45 81 -45q82 0 82 45v1315q0 45 -82 45q-81 0 -81 -45v-106q-105 150 -329 150q-229 0 -360.5 -147.5t-131.5 -364.5q0 -218 131.5 -365t360.5 -147zM542 65q-166 0 -247.5 137.5t-81.5 283.5q0 145 81.5 283t247.5 138q167 0 248 -138
t81 -283q0 -146 -81 -283.5t-248 -137.5z" />
    <glyph glyph-name="r" unicode="r" horiz-adv-x="764" 
d="M182 -24q-82 0 -82 46v932q0 46 82 46q81 0 81 -46v-111q72 157 262 157q112 0 194 -54q20 -13 20 -32q0 -23 -27 -43q-21 -15 -47 -15q-35 0 -65 25.5t-95 25.5q-143 0 -192.5 -137t-49.5 -256v-492q0 -46 -81 -46z" />
    <glyph glyph-name="s" unicode="s" horiz-adv-x="956" 
d="M481 -24q-135 0 -266.5 60.5t-160.5 205.5q-4 18 -4 27q0 44 83 44q69 0 79 -39q54 -207 269 -207q90 0 176.5 54t86.5 157q0 66 -94 107q-62 28 -164 43q-74 11 -149 24t-142 58q-121 82 -121 211q0 149 143 214t267 65q123 0 238 -56t152 -181q5 -17 5 -24
q0 -42 -82 -42q-71 0 -80 38q-43 174 -233 174q-81 0 -164 -45.5t-83 -139.5q0 -65 105 -107q66 -27 161 -42q71 -10 144 -24.5t141 -58.5q118 -77 118 -208q0 -161 -142.5 -234.5t-282.5 -73.5z" />
    <glyph glyph-name="t" unicode="t" horiz-adv-x="769" 
d="M554 -24q-316 2 -316 269v664h-132q-81 0 -81 45q0 46 81 46h132v335q0 46 82 46q81 0 81 -46v-335h188q82 0 82 -46q0 -45 -82 -45h-188v-664q0 -177 153 -178q29 0 55 5.5t52 5.5q83 0 83 -46q0 -33 -70 -45q-60 -11 -120 -11z" />
    <glyph glyph-name="u" unicode="u" horiz-adv-x="1120" 
d="M182 1001q81 0 81 -46v-530q0 -131 70.5 -243.5t217.5 -112.5q306 0 306 385v501q0 46 81 46q82 0 82 -46v-933q0 -46 -82 -46q-81 0 -81 46v113q-89 -160 -320 -160q-160 -1 -298.5 112.5t-138.5 337.5v530q0 46 82 46z" />
    <glyph glyph-name="v" unicode="v" horiz-adv-x="1036" 
d="M604 10q-13 -34 -90 -34q-68 0 -83 34l-402 932q-4 7 -4 15q0 43 88 43q68 0 81 -34l350 -811l350 822q10 23 56 23q61 0 61 -29q0 -4 -4 -14z" />
    <glyph glyph-name="w" unicode="w" horiz-adv-x="1601" 
d="M1109 -24q-74 0 -84 37l-223 751l-231 -750q-13 -38 -88 -38q-71 0 -84 35l-371 934q-3 6 -3 13q0 42 87 42q68 0 83 -35l309 -779l240 777q11 36 88 36q74 0 84 -36l231 -776l312 789q9 24 58 24q59 0 59 -27q0 -3 -4 -15l-374 -945q-15 -37 -89 -37z" />
    <glyph glyph-name="x" unicode="x" horiz-adv-x="1005" 
d="M90 -24q-13 0 -33 5q-30 8 -30 25q0 7 7 17l385 448l-387 467q-7 8 -7 17q0 23 38 36q27 9 51 9q61 0 85 -28l318 -384l338 392q17 20 55 20q20 0 41 -7q27 -10 27 -26q0 -7 -5 -12l-387 -450l387 -467q7 -8 7 -17q0 -22 -35 -35q-29 -10 -56 -10q-59 0 -83 28l-318 384
l-338 -392q-17 -20 -60 -20z" />
    <glyph glyph-name="y" unicode="y" horiz-adv-x="1120" 
d="M1020 33q0 -231 -151 -332t-332 -101q-304 0 -426 179q-6 9 -6 17q0 44 80 44q59 0 78 -29q83 -121 278 -121q316 0 316 343v78q-101 -131 -297 -131q-460 0 -460 449v530q0 46 82 46q81 0 81 -46v-530q0 -135 75.5 -246.5t221.5 -111.5q140 0 218.5 114t78.5 246v528
q0 46 81 46q82 0 82 -46v-926z" />
    <glyph glyph-name="z" unicode="z" horiz-adv-x="1009" 
d="M902 0h-779q-29 0 -58 11q-40 13 -40 37q0 8 8 18l723 819h-626q-81 0 -81 45q0 46 81 46h760q31 0 59 -12q34 -13 34 -35q0 -8 -8 -18l-723 -820h650q82 0 82 -45q0 -46 -82 -46z" />
    <glyph glyph-name="braceleft" unicode="{" horiz-adv-x="648" 
d="M518 -370h-34q-142 0 -210 63q-55 52 -55 120v520q0 142 -90 142q-79 0 -79 45t79 45q90 0 90 142v520q0 68 55 120q68 63 210 63h34q80 0 80 -45t-80 -45q-12 0 -24 1t-24 1q-36 0 -59 -20q-32 -30 -32 -75v-470q0 -199 -74 -237q74 -38 74 -237v-470q0 -46 32 -75
q22 -21 61 -19l46 1q80 2 80 -45q0 -45 -80 -45z" />
    <glyph glyph-name="bar" unicode="|" horiz-adv-x="315" 
d="M215 -401q0 -29 -57 -29q-58 0 -58 29v1722q0 29 58 29q57 0 57 -29v-1722z" />
    <glyph glyph-name="braceright" unicode="}" horiz-adv-x="649" 
d="M131 -370h34q142 0 210 63q55 52 55 120v520q0 142 90 142q79 0 79 45t-79 45q-90 0 -90 142v520q0 68 -55 120q-68 63 -210 63h-34q-80 0 -80 -45t80 -45q12 0 24 1t24 1q36 0 59 -20q32 -30 32 -75v-470q0 -199 74 -237q-74 -38 -74 -237v-470q0 -46 -32 -75
q-22 -21 -61 -19l-46 1q-80 2 -80 -45q0 -45 80 -45z" />
    <glyph glyph-name="asciitilde" unicode="~" horiz-adv-x="1275" 
d="M891 1060q-109 0 -181 44t-148 114q-114 106 -170 106q-61 0 -93 -79t-37 -128q-5 -43 -80 -43q-83 0 -82 46q2 121 84 207q84 88 211 88q107 0 176 -46.5t130 -103.5q35 -33 86 -73.5t103 -40.5q63 0 91 92.5t32 129.5q5 43 80 43q82 0 82 -45q0 -119 -72 -214
q-73 -97 -212 -97z" />
    <glyph glyph-name="uni00A0" unicode="&#xa0;" horiz-adv-x="500" 
 />
    <glyph glyph-name="pound" unicode="&#xa3;" horiz-adv-x="1235" 
d="M151 -24q-28 0 -47 8q-34 14 -34 38q0 14 15 26q97 77 176.5 178.5t79.5 234.5q0 66 -27 163h-183q-81 0 -81 46q0 45 81 45h155q-22 66 -39.5 134t-17.5 141q0 181 136 286t305 105q310 0 405 -312q11 -37 11 -50q0 -44 -83 -44q-70 0 -79 40q-19 98 -81.5 186.5
t-175.5 88.5q-118 0 -197.5 -93t-78.5 -207q0 -71 19 -139t41 -136h319q81 0 81 -45q0 -46 -81 -46h-291q25 -88 25 -163q0 -158 -121 -307q45 5 82 5q110 0 203 -40t193 -40q92 0 187 52q23 12 55 12q34 0 60 -14q22 -13 22 -31q0 -20 -25 -33q-156 -83 -293 -83
q-117 0 -215 43t-187 43q-116 0 -254 -78q-25 -14 -60 -14z" />
    <glyph glyph-name="yen" unicode="&#xa5;" horiz-adv-x="1064" 
d="M532 -24q-82 0 -82 45v355h-282q-81 0 -81 46t81 46h282v171h-282q-81 0 -81 45q0 46 81 46h232l-343 586q-7 12 -7 21q0 44 87 44q71 0 87 -29l335 -599l332 607q12 21 58 21q65 0 65 -32q0 -6 -6 -16l-345 -603h231q82 0 82 -46q0 -45 -82 -45h-281v-171h281
q82 0 82 -46t-82 -46h-281v-355q0 -45 -81 -45z" />
    <glyph glyph-name="dieresis" unicode="&#xa8;" horiz-adv-x="646" 
d="M188 1295q107 0 107 -108q0 -107 -107 -107q-108 0 -108 107q0 108 108 108zM458 1295q108 0 108 -108q0 -107 -108 -107q-107 0 -107 107q0 108 107 108z" />
    <glyph glyph-name="copyright" unicode="&#xa9;" horiz-adv-x="1308" 
d="M654 -24q-226 0 -390 135.5t-164 376.5q0 242 164 377t390 135t390 -135t164 -377q0 -241 -164 -376.5t-390 -135.5zM654 50q421 0 421 438t-421 438t-421 -438t421 -438zM924 383q49 0 49 -27q0 -7 -1 -11q-44 -207 -303 -207q-334 0 -334 348q0 352 339 352
q262 0 297 -208q1 -4 1 -11q0 -26 -47 -26q-50 0 -54 25q-22 164 -195 164q-122 0 -181.5 -92.5t-59.5 -202.5q0 -105 56 -199t176 -94q179 0 206 164q4 25 51 25z" />
    <glyph glyph-name="guillemotleft" unicode="&#xab;" horiz-adv-x="942" 
d="M784 380q-32 0 -48 16l-314 295q-8 7 -8 16t8 17l314 294q16 16 48 16q15 0 30 -5q28 -8 28 -28q0 -8 -8 -16l-296 -278l296 -278q8 -8 8 -16q0 -20 -28 -28q-15 -5 -30 -5zM470 380q-32 0 -48 16l-314 295q-8 7 -8 16t8 17l314 294q16 16 48 16q15 0 30 -5q28 -7 28 -27
q0 -9 -8 -17l-296 -278l296 -278q8 -8 8 -16q0 -20 -28 -28q-15 -5 -30 -5z" />
    <glyph glyph-name="uni00AD" unicode="&#xad;" horiz-adv-x="40" 
 />
    <glyph glyph-name="registered" unicode="&#xae;" horiz-adv-x="1308" 
d="M654 -24q-226 0 -390 135.5t-164 376.5q0 242 164 377t390 135t390 -135t164 -377q0 -241 -164 -376.5t-390 -135.5zM654 50q421 0 421 438t-421 438t-421 -438t421 -438zM883 183q-15 0 -31 7q-66 32 -122 154q-15 34 -39.5 77.5t-69.5 43.5h-150v-257q0 -25 -45 -25
q-44 0 -44 25v560q0 25 44 25h274q195 0 195 -164q0 -130 -149 -160q34 -31 71 -113q49 -108 95 -130q14 -6 14 -18q0 -10 -11 -17q-14 -8 -32 -8zM700 514q105 0 105 115t-105 115h-229v-230h229z" />
    <glyph glyph-name="macron" unicode="&#xaf;" horiz-adv-x="629" 
d="M50 1314q0 71 48 71h425q56 0 56 -71q0 -70 -56 -70h-417q-56 0 -56 70z" />
    <glyph glyph-name="degree" unicode="&#xb0;" horiz-adv-x="593" 
d="M593 1347q0 -267 -296 -267q-297 0 -297 267q0 268 297 268q296 0 296 -268zM460 1347q0 193 -163 193q-164 0 -164 -193q0 -192 164 -192q163 0 163 192z" />
    <glyph glyph-name="two_super" unicode="&#xb2;" horiz-adv-x="453" 
d="M398 1000h-346q-52 0 -52 30q0 94 31 146q27 45 130 98q102 50 137 83q48 46 49 107q0 44 -26 80q-35 50 -92 50q-44 0 -72 -23q-48 -37 -48 -110v-9q0 -29 -52 -29q-48 0 -53 26q-1 6 -1 19q0 103 95 155q55 30 131 30q117 0 181 -75q43 -49 43 -118q0 -85 -90 -154
q-43 -33 -132 -76q-80 -39 -100 -73q-21 -36 -25 -98h292q52 0 52 -29q0 -30 -52 -30z" />
    <glyph glyph-name="three_super" unicode="&#xb3;" horiz-adv-x="457" 
d="M235 1000q-235 0 -235 194q0 30 53 30t53 -30q0 -134 129 -134q116 0 116 133q0 132 -116 129l-31 -1q-53 0 -53 30q0 27 50 30q34 3 35 3q97 17 97 112q0 121 -122 121q-44 0 -75 -37q-29 -36 -29 -91v-11q0 -29 -52 -29t-54 28q-1 5 -1 16q0 78 57 129q62 55 157 55
q225 2 225 -181q0 -91 -85 -140q103 -51 103 -163q0 -193 -222 -193z" />
    <glyph glyph-name="acute" unicode="&#xb4;" horiz-adv-x="569" 
d="M142 1080q-24 0 -44 25q-18 23 -18 41q0 17 21 38l339 316q15 14 35 14q38 0 70 -41q24 -33 24 -61q0 -27 -21 -42l-380 -280q-13 -10 -26 -10z" />
    <glyph glyph-name="paragraph" unicode="&#xb6;" horiz-adv-x="1051" 
d="M839 5q0 -29 -58 -29q-57 0 -57 29v1285h-282v-1285q0 -29 -58 -29q-57 0 -57 29v800q-227 52 -227 285q0 291 285 291h485q81 0 81 -45q0 -46 -81 -46h-31v-1285z" />
    <glyph glyph-name="cedilla" unicode="&#xb8;" horiz-adv-x="436" 
d="M178 -790q-124 0 -172 45q-6 6 -6 13q0 17 29 24q11 3 26 3q21 0 47 -12q38 -18 76 -18q148 0 148 95q0 86 -123 86q-22 0 -39 8q-16 6 -16 18q0 3 5 18l53 152q8 22 54 22q54 0 55 -24q0 -4 -4 -16l-45 -129q170 -26 170 -135q0 -87 -95.5 -118.5t-162.5 -31.5z" />
    <glyph glyph-name="one_super" unicode="&#xb9;" horiz-adv-x="249" 
d="M66 1460q-61 -6 -66 26q-4 25 40 31q33 6 61 37q33 37 41 93q4 30 54 30q53 0 53 -30v-617q0 -30 -53 -30t-53 30v455q-29 -18 -77 -25z" />
    <glyph glyph-name="guillemotright" unicode="&#xbb;" horiz-adv-x="942" 
d="M158 380q32 0 48 16l314 295q8 7 8 16t-8 17l-314 294q-16 16 -48 16q-15 0 -30 -5q-28 -8 -28 -28q0 -8 8 -16l296 -278l-296 -278q-8 -8 -8 -16q0 -20 28 -28q15 -5 30 -5zM472 380q32 0 48 16l314 295q8 7 8 16t-8 17l-314 294q-16 16 -48 16q-15 0 -30 -5
q-28 -7 -28 -27q0 -9 8 -17l296 -278l-296 -278q-8 -8 -8 -16q0 -20 28 -28q15 -5 30 -5z" />
    <glyph glyph-name="questiondown" unicode="&#xbf;" horiz-adv-x="1096" 
d="M472 957q-3 46 82 46q79 0 81 -44l2 -49q4 -115 -45 -194q-36 -58 -164 -178q-68 -63 -117 -129.5t-49 -165.5q-2 -269 277 -269q148 0 224 92q71 85 71 213q0 46 81 46t81 -46q0 -149 -86 -251q-121 -145 -371 -145q-164 0 -301.5 90.5t-137.5 269.5q0 114 55 191.5
t134 150.5q119 111 151 164q38 62 34 160zM555 1073q-107 0 -107 108q0 107 107 107t107 -107q0 -108 -107 -108z" />
    <glyph glyph-name="Agrave" unicode="&#xc0;" horiz-adv-x="1373" 
d="M1348 20q0 -44 -92 -44q-71 0 -86 35l-187 430h-653l-188 -442q-11 -23 -56 -23q-61 0 -61 30q0 1 2 9l567 1333q13 33 94 33q70 0 86 -35l568 -1308q6 -14 6 -18zM944 532l-291 670l-285 -670h576zM627 1470q-13 0 -26 10l-380 280q-21 15 -21 42q0 28 24 61
q32 41 70 41q20 0 35 -14l339 -316q21 -21 21 -38q0 -18 -18 -41q-20 -25 -44 -25z" />
    <glyph glyph-name="Aacute" unicode="&#xc1;" horiz-adv-x="1373" 
d="M1348 20q0 -44 -92 -44q-71 0 -86 35l-187 430h-653l-188 -442q-11 -23 -56 -23q-61 0 -61 30q0 1 2 9l567 1333q13 33 94 33q70 0 86 -35l568 -1308q6 -14 6 -18zM944 532l-291 670l-285 -670h576zM662 1459q-24 0 -44 25q-18 23 -18 41q0 17 21 38l339 316q15 14 35 14
q38 0 70 -41q24 -33 24 -61q0 -27 -21 -42l-380 -280q-13 -10 -26 -10z" />
    <glyph glyph-name="Acircumflex" unicode="&#xc2;" horiz-adv-x="1373" 
d="M1348 20q0 -44 -92 -44q-71 0 -86 35l-187 430h-653l-188 -442q-11 -23 -56 -23q-61 0 -61 30q0 1 2 9l567 1333q13 33 94 33q70 0 86 -35l568 -1308q6 -14 6 -18zM944 532l-291 670l-285 -670h576zM968 1497q0 -27 -60 -27q-42 0 -53 21l-171 352l-171 -352
q-10 -21 -53 -21q-60 0 -60 27q0 6 2 8l226 466q10 22 56 22q45 0 56 -22l226 -466q2 -2 2 -8z" />
    <glyph glyph-name="Atilde" unicode="&#xc3;" horiz-adv-x="1373" 
d="M1348 20q0 -44 -92 -44q-71 0 -86 35l-187 430h-653l-188 -442q-11 -23 -56 -23q-61 0 -61 30q0 1 2 9l567 1333q13 33 94 33q70 0 86 -35l568 -1308q6 -14 6 -18zM944 532l-291 670l-285 -670h576zM991 1460q-109 0 -181 44t-148 114q-114 106 -170 106q-61 0 -93 -79
t-37 -128q-5 -43 -80 -43q-83 0 -82 46q2 121 84 207q84 88 211 88q107 0 176 -46.5t130 -103.5q35 -33 86 -73.5t103 -40.5q63 0 91 92.5t32 129.5q5 43 80 43q82 0 82 -45q0 -119 -72 -214q-73 -97 -212 -97z" />
    <glyph glyph-name="Adieresis" unicode="&#xc4;" horiz-adv-x="1373" 
d="M1348 20q0 -44 -92 -44q-71 0 -86 35l-187 430h-653l-188 -442q-11 -23 -56 -23q-61 0 -61 30q0 1 2 9l567 1333q13 33 94 33q70 0 86 -35l568 -1308q6 -14 6 -18zM944 532l-291 670l-285 -670h576zM587 1679q107 0 107 -108q0 -107 -107 -107q-108 0 -108 107
q0 108 108 108zM857 1679q108 0 108 -108q0 -107 -108 -107q-107 0 -107 107q0 108 107 108z" />
    <glyph glyph-name="Aring" unicode="&#xc5;" horiz-adv-x="1373" 
d="M1348 20q0 -44 -92 -44q-71 0 -86 35l-187 430h-653l-188 -442q-11 -23 -56 -23q-61 0 -61 30q0 1 2 9l567 1333q13 33 94 33q70 0 86 -35l568 -1308q6 -14 6 -18zM944 532l-291 670l-285 -670h576zM974 1731q0 -267 -296 -267q-297 0 -297 267q0 268 297 268
q296 0 296 -268zM841 1731q0 193 -163 193q-164 0 -164 -193q0 -192 164 -192q163 0 163 192z" />
    <glyph glyph-name="AE" unicode="&#xc6;" horiz-adv-x="2014" 
d="M83 -24q-58 0 -58 27q0 3 4 15l566 1306q14 33 89 33h1174q81 0 81 -46q0 -45 -81 -45h-824v-542h705q82 0 82 -45q0 -46 -82 -46h-705v-542h824q81 0 81 -47q0 -45 -81 -45h-906q-81 0 -81 45v397h-540l-188 -443q-10 -22 -60 -22zM871 532v734h-184l-318 -734h502z" />
    <glyph glyph-name="Ccedilla" unicode="&#xc7;" horiz-adv-x="1342" 
d="M1211 452q81 0 81 -47q0 -15 -12 -57q-49 -170 -203 -264.5t-326 -107.5l-32 -92q170 -26 170 -135q0 -87 -95.5 -118.5t-162.5 -31.5q-124 0 -172 45q-6 6 -6 13q0 17 29 24q11 3 26 3q21 0 47 -12q38 -18 76 -18q148 0 148 95q0 86 -123 86q-22 0 -39 8q-16 6 -16 18
q0 3 5 18l34 97q-280 20 -435 211t-155 480q0 307 171 509.5t491 202.5q188 0 360 -101t212 -294q6 -22 6 -34q0 -49 -82 -49q-76 0 -81 42q-45 345 -415 345q-254 0 -377 -193.5t-123 -420.5q0 -223 116.5 -416t369.5 -193q152 0 279.5 96t152.5 250q7 41 81 41z" />
    <glyph glyph-name="Egrave" unicode="&#xc8;" horiz-adv-x="1243" 
d="M100 1312q0 45 81 45h906q81 0 81 -45q0 -46 -81 -46h-824v-541h705q82 0 82 -46t-82 -46h-705v-542h824q81 0 81 -46q0 -45 -81 -45h-906q-81 0 -81 45v1267zM727 1414q-13 0 -26 10l-380 280q-21 15 -21 42q0 28 24 61q32 41 70 41q20 0 35 -14l339 -316q21 -21 21 -38
q0 -18 -18 -41q-20 -25 -44 -25z" />
    <glyph glyph-name="Eacute" unicode="&#xc9;" horiz-adv-x="1243" 
d="M100 1312q0 45 81 45h906q81 0 81 -45q0 -46 -81 -46h-824v-541h705q82 0 82 -46t-82 -46h-705v-542h824q81 0 81 -46q0 -45 -81 -45h-906q-81 0 -81 45v1267zM587 1420q-24 0 -44 25q-18 23 -18 41q0 17 21 38l339 316q15 14 35 14q38 0 70 -41q24 -33 24 -61
q0 -27 -21 -42l-380 -280q-13 -10 -26 -10z" />
    <glyph glyph-name="Ecircumflex" unicode="&#xca;" horiz-adv-x="1243" 
d="M100 1312q0 45 81 45h906q81 0 81 -45q0 -46 -81 -46h-824v-541h705q82 0 82 -46t-82 -46h-705v-542h824q81 0 81 -46q0 -45 -81 -45h-906q-81 0 -81 45v1267zM908 1443q0 -27 -60 -27q-42 0 -53 21l-171 352l-171 -352q-10 -21 -53 -21q-60 0 -60 27q0 6 2 8l226 466
q10 22 56 22q45 0 56 -22l226 -466q2 -2 2 -8z" />
    <glyph glyph-name="Edieresis" unicode="&#xcb;" horiz-adv-x="1243" 
d="M100 1312q0 45 81 45h906q81 0 81 -45q0 -46 -81 -46h-824v-541h705q82 0 82 -46t-82 -46h-705v-542h824q81 0 81 -46q0 -45 -81 -45h-906q-81 0 -81 45v1267zM548 1729q107 0 107 -108q0 -107 -107 -107q-108 0 -108 107q0 108 108 108zM818 1729q108 0 108 -108
q0 -107 -108 -107q-107 0 -107 107q0 108 107 108z" />
    <glyph glyph-name="Igrave" unicode="&#xcc;" horiz-adv-x="263" 
d="M213 21q0 -45 -81 -45q-82 0 -82 45v1315q0 45 82 45q81 0 81 -45v-1315zM122 1451q-13 0 -26 10l-380 280q-21 15 -21 42q0 28 24 61q32 41 70 41q20 0 35 -14l339 -316q21 -21 21 -38q0 -18 -18 -41q-20 -25 -44 -25z" />
    <glyph glyph-name="Iacute" unicode="&#xcd;" horiz-adv-x="263" 
d="M50 21q0 -45 81 -45q82 0 82 45v1315q0 45 -82 45q-81 0 -81 -45v-1315zM141 1451q13 0 26 10l380 280q21 15 21 42q0 28 -24 61q-32 41 -70 41q-20 0 -35 -14l-339 -316q-21 -21 -21 -38q0 -18 18 -41q20 -25 44 -25z" />
    <glyph glyph-name="Icircumflex" unicode="&#xce;" horiz-adv-x="263" 
d="M213 21q0 -45 -81 -45q-82 0 -82 45v1315q0 45 82 45q81 0 81 -45v-1315zM417 1441q0 -27 -60 -27q-42 0 -53 21l-171 352l-171 -352q-10 -21 -53 -21q-60 0 -60 27q0 6 2 8l226 466q10 22 56 22q45 0 56 -22l226 -466q2 -2 2 -8z" />
    <glyph glyph-name="Idieresis" unicode="&#xcf;" horiz-adv-x="263" 
d="M213 21q0 -45 -81 -45q-82 0 -82 45v1315q0 45 82 45q81 0 81 -45v-1315zM30 1728q107 0 107 -108q0 -107 -107 -107q-108 0 -108 107q0 108 108 108zM300 1728q108 0 108 -108q0 -107 -108 -107q-107 0 -107 107q0 108 107 108z" />
    <glyph glyph-name="Eth" unicode="&#xd0;" horiz-adv-x="1550" 
d="M852 0h-466q-81 0 -81 45v588h-144q-81 0 -81 45q0 46 81 46h144v588q0 45 81 45h466q298 0 458 -203t160 -478q0 -280 -161 -478t-457 -198zM852 91q233 0 344.5 190.5t111.5 394.5q0 202 -111.5 396t-344.5 194h-384v-542h143q82 0 82 -46q0 -45 -82 -45h-143v-542h384
z" />
    <glyph glyph-name="Ntilde" unicode="&#xd1;" horiz-adv-x="1358" 
d="M932 1448q-109 0 -181 44t-148 114q-114 106 -170 106q-61 0 -93 -79t-37 -128q-5 -43 -80 -43q-83 0 -82 46q2 121 84 207q84 88 211 88q107 0 176 -46.5t130 -103.5q35 -33 86 -73.5t103 -40.5q63 0 91 92.5t32 129.5q5 43 80 43q82 0 82 -45q0 -119 -72 -214
q-73 -97 -212 -97zM1157 -24q-67 0 -91 32l-848 1157v-1158q0 -31 -59 -31t-59 31v1318q0 56 100 56q68 0 92 -32l848 -1157v1157q0 32 59 32t59 -32v-1319q0 -54 -101 -54z" />
    <glyph glyph-name="Ograve" unicode="&#xd2;" horiz-adv-x="1446" 
d="M738 1458q24 0 44 25q18 23 18 41q0 17 -21 38l-339 316q-15 14 -35 14q-38 0 -70 -41q-24 -33 -24 -61q0 -27 21 -42l380 -280q13 -10 26 -10zM723 1381q-311 0 -492 -203t-181 -499q0 -297 181 -500t492 -203t492 203t181 500q0 296 -181 499t-492 203zM723 1290
q252 0 381 -192.5t129 -418.5t-129 -419t-381 -193t-381 193t-129 419t129 418.5t381 192.5z" />
    <glyph glyph-name="Oacute" unicode="&#xd3;" horiz-adv-x="1446" 
d="M708 1458q-24 0 -44 25q-18 23 -18 41q0 17 21 38l339 316q15 14 35 14q38 0 70 -41q24 -33 24 -61q0 -27 -21 -42l-380 -280q-13 -10 -26 -10zM723 1381q311 0 492 -203t181 -499q0 -297 -181 -500t-492 -203t-492 203t-181 500q0 296 181 499t492 203zM723 1290
q-252 0 -381 -192.5t-129 -418.5t129 -419t381 -193t381 193t129 419t-129 418.5t-381 192.5z" />
    <glyph glyph-name="Ocircumflex" unicode="&#xd4;" horiz-adv-x="1446" 
d="M1007 1491q0 -27 -60 -27q-42 0 -53 21l-171 352l-171 -352q-10 -21 -53 -21q-60 0 -60 27q0 6 2 8l226 466q10 22 56 22q45 0 56 -22l226 -466q2 -2 2 -8zM723 1381q311 0 492 -203t181 -499q0 -297 -181 -500t-492 -203t-492 203t-181 500q0 296 181 499t492 203z
M723 1290q-252 0 -381 -192.5t-129 -418.5t129 -419t381 -193t381 193t129 419t-129 418.5t-381 192.5z" />
    <glyph glyph-name="Otilde" unicode="&#xd5;" horiz-adv-x="1446" 
d="M723 1381q311 0 492 -203t181 -499q0 -297 -181 -500t-492 -203t-492 203t-181 500q0 296 181 499t492 203zM723 1290q-252 0 -381 -192.5t-129 -418.5t129 -419t381 -193t381 193t129 419t-129 418.5t-381 192.5zM991 1414q-109 0 -181 44t-148 114q-114 106 -170 106
q-61 0 -93 -79t-37 -128q-5 -43 -80 -43q-83 0 -82 46q2 121 84 207q84 88 211 88q107 0 176 -46.5t130 -103.5q35 -33 86 -73.5t103 -40.5q63 0 91 92.5t32 129.5q5 43 80 43q82 0 82 -45q0 -119 -72 -214q-73 -97 -212 -97z" />
    <glyph glyph-name="Odieresis" unicode="&#xd6;" horiz-adv-x="1446" 
d="M615 1679q107 0 107 -108q0 -107 -107 -107q-108 0 -108 107q0 108 108 108zM885 1679q108 0 108 -108q0 -107 -108 -107q-107 0 -107 107q0 108 107 108zM723 1381q311 0 492 -203t181 -499q0 -297 -181 -500t-492 -203t-492 203t-181 500q0 296 181 499t492 203z
M723 1290q-252 0 -381 -192.5t-129 -418.5t129 -419t381 -193t381 193t129 419t-129 418.5t-381 192.5z" />
    <glyph glyph-name="multiply" unicode="&#xd7;" horiz-adv-x="920" 
d="M760 120q-35 0 -52 17l-248 248l-248 -248q-17 -17 -52 -17q-19 0 -36 7q-24 9 -24 27q0 8 8 16l283 283l-283 284q-8 8 -8 16q0 20 31 30q15 4 29 4q35 0 52 -17l248 -248l248 248q17 17 52 17q14 0 32 -5q28 -11 28 -29q0 -8 -8 -16l-283 -284l284 -288q7 -7 7 -13
q0 -16 -27 -26q-16 -6 -33 -6z" />
    <glyph glyph-name="Oslash" unicode="&#xd8;" horiz-adv-x="1506" 
d="M753 -24q-148 0 -273 51l-11 -21q-16 -30 -70 -30q-79 0 -79 42q0 7 3 13l34 63q-277 197 -277 585q0 296 181 499t492 203q149 0 274 -51l11 21q14 30 71 30q78 0 78 -42q0 -7 -3 -13l-35 -64q277 -194 277 -583q0 -297 -181 -500t-492 -203zM418 206l558 1030
q-102 54 -223 54q-252 0 -381 -192.5t-129 -418.5q0 -295 175 -473zM753 67q252 0 381 193t129 419q0 292 -174 472l-558 -1030q100 -54 222 -54z" />
    <glyph glyph-name="Ugrave" unicode="&#xd9;" horiz-adv-x="1309" 
d="M1046 1335q0 46 82 46q81 0 81 -46v-906q0 -215 -181.5 -334t-375.5 -119q-192 0 -372 120t-180 333v906q0 46 81 46q82 0 82 -46v-906q0 -154 121 -258t268 -104q149 -1 271.5 103t122.5 259v906zM657 1464q-13 0 -26 10l-380 280q-21 15 -21 42q0 28 24 61q32 41 70 41
q20 0 35 -14l339 -316q21 -21 21 -38q0 -18 -18 -41q-20 -25 -44 -25z" />
    <glyph glyph-name="Uacute" unicode="&#xda;" horiz-adv-x="1309" 
d="M1046 1335q0 46 82 46q81 0 81 -46v-906q0 -215 -181.5 -334t-375.5 -119q-192 0 -372 120t-180 333v906q0 46 81 46q82 0 82 -46v-906q0 -154 121 -258t268 -104q149 -1 271.5 103t122.5 259v906zM627 1459q-24 0 -44 25q-18 23 -18 41q0 17 21 38l339 316q15 14 35 14
q38 0 70 -41q24 -33 24 -61q0 -27 -21 -42l-380 -280q-13 -10 -26 -10z" />
    <glyph glyph-name="Ucircumflex" unicode="&#xdb;" horiz-adv-x="1309" 
d="M1046 1335q0 46 82 46q81 0 81 -46v-906q0 -215 -181.5 -334t-375.5 -119q-192 0 -372 120t-180 333v906q0 46 81 46q82 0 82 -46v-906q0 -154 121 -258t268 -104q149 -1 271.5 103t122.5 259v906zM938 1491q0 -27 -60 -27q-42 0 -53 21l-171 352l-171 -352
q-10 -21 -53 -21q-60 0 -60 27q0 6 2 8l226 466q10 22 56 22q45 0 56 -22l226 -466q2 -2 2 -8z" />
    <glyph glyph-name="Udieresis" unicode="&#xdc;" horiz-adv-x="1309" 
d="M554 1689q107 0 107 -108q0 -107 -107 -107q-108 0 -108 107q0 108 108 108zM824 1689q108 0 108 -108q0 -107 -108 -107q-107 0 -107 107q0 108 107 108zM1046 1335q0 46 82 46q81 0 81 -46v-906q0 -215 -181.5 -334t-375.5 -119q-192 0 -372 120t-180 333v906
q0 46 81 46q82 0 82 -46v-906q0 -154 121 -258t268 -104q149 -1 271.5 103t122.5 259v906z" />
    <glyph glyph-name="Yacute" unicode="&#xdd;" horiz-adv-x="1256" 
d="M646 1440q-24 0 -44 25q-18 23 -18 41q0 17 21 38l339 316q15 14 35 14q38 0 70 -41q24 -33 24 -61q0 -27 -21 -42l-380 -280q-13 -10 -26 -10zM628 -24q-81 0 -81 45v623l-515 676q-7 8 -7 18q0 43 94 43q60 0 82 -29l455 -598l451 606q15 21 61 21q63 0 63 -32
q0 -6 -4 -11l-517 -695v-622q0 -45 -82 -45z" />
    <glyph glyph-name="Thorn" unicode="&#xde;" horiz-adv-x="1272" 
d="M100 1318q0 46 82 46q81 0 81 -46v-277h548q157 0 284 -99.5t127 -266.5q0 -166 -127 -266t-284 -100h-548v-287q0 -46 -81 -46q-82 0 -82 46v1296zM263 950v-550h548q106 0 177 87t71 188q0 102 -71 188.5t-177 86.5h-548z" />
    <glyph glyph-name="germandbls" unicode="&#xdf;" horiz-adv-x="1139" 
d="M132 -24q-82 0 -82 46v961q0 398 428 398q128 0 251 -65t123 -214q0 -119 -77 -205t-77 -171q0 -124 195.5 -208.5t195.5 -276.5q0 -136 -120.5 -200t-236.5 -64q-141 0 -237 63q-116 75 -116 179q0 45 80 45q75 0 82 -41q13 -82 79 -123q49 -32 112 -32q194 0 194 171
q0 164 -196.5 248t-196.5 237q0 101 77 186.5t77 194.5q0 184 -209 184q-264 0 -264 -306v-961q0 -46 -82 -46z" />
    <glyph glyph-name="agrave" unicode="&#xe0;" horiz-adv-x="1106" 
d="M1000 -24q-117 0 -155 143q-126 -143 -372 -143q-151 0 -259 61q-139 77 -139 225q0 107 60 172q61 66 160.5 84.5t196.5 18.5q32 0 72.5 -2t82.5 -2q125 0 178 33v101q0 242 -280 242q-105 0 -186 -53q-92 -60 -92 -144q0 -46 -81 -46t-81 46q2 117 130 203
q127 85 310 85q155 0 299 -76t144 -257v-439q0 -74 19 -117q18 -38 52 -58q22 -13 22 -31q0 -46 -81 -46zM473 67q118 0 235 71t117 204v114q-65 -14 -157 -14q-46 0 -92 2.5t-92 2.5q-60 1 -125 -11.5t-98 -71.5q-25 -44 -25 -99q2 -97 71 -149q62 -49 166 -49zM558 1230
q24 0 44 25q18 23 18 41q0 17 -21 38l-339 316q-15 14 -35 14q-38 0 -70 -41q-24 -33 -24 -61q0 -27 21 -42l380 -280q13 -10 26 -10z" />
    <glyph glyph-name="aacute" unicode="&#xe1;" horiz-adv-x="1106" 
d="M574 1224q-24 0 -44 25q-18 23 -18 41q0 17 21 38l339 316q15 14 35 14q38 0 70 -41q24 -33 24 -61q0 -27 -21 -42l-380 -280q-13 -10 -26 -10zM1000 -24q-117 0 -155 143q-126 -143 -372 -143q-151 0 -259 61q-139 77 -139 225q0 107 60 172q61 66 160.5 84.5
t196.5 18.5q32 0 72.5 -2t82.5 -2q125 0 178 33v101q0 242 -280 242q-105 0 -186 -53q-92 -60 -92 -144q0 -46 -81 -46t-81 46q2 117 130 203q127 85 310 85q155 0 299 -76t144 -257v-439q0 -74 19 -117q18 -38 52 -58q22 -13 22 -31q0 -46 -81 -46zM473 67q118 0 235 71
t117 204v114q-65 -14 -157 -14q-46 0 -92 2.5t-92 2.5q-60 1 -125 -11.5t-98 -71.5q-25 -44 -25 -99q2 -97 71 -149q62 -49 166 -49z" />
    <glyph glyph-name="acircumflex" unicode="&#xe2;" horiz-adv-x="1106" 
d="M1000 -24q-117 0 -155 143q-126 -143 -372 -143q-151 0 -259 61q-139 77 -139 225q0 107 60 172q61 66 160.5 84.5t196.5 18.5q32 0 72.5 -2t82.5 -2q125 0 178 33v101q0 242 -280 242q-105 0 -186 -53q-92 -60 -92 -144q0 -46 -81 -46t-81 46q2 117 130 203
q127 85 310 85q155 0 299 -76t144 -257v-439q0 -74 19 -117q18 -38 52 -58q22 -13 22 -31q0 -46 -81 -46zM473 67q118 0 235 71t117 204v114q-65 -14 -157 -14q-46 0 -92 2.5t-92 2.5q-60 1 -125 -11.5t-98 -71.5q-25 -44 -25 -99q2 -97 71 -149q62 -49 166 -49zM848 1107
q0 -27 -60 -27q-42 0 -53 21l-171 352l-171 -352q-10 -21 -53 -21q-60 0 -60 27q0 6 2 8l226 466q10 22 56 22q45 0 56 -22l226 -466q2 -2 2 -8z" />
    <glyph glyph-name="atilde" unicode="&#xe3;" horiz-adv-x="1106" 
d="M1000 -24q-117 0 -155 143q-126 -143 -372 -143q-151 0 -259 61q-139 77 -139 225q0 107 60 172q61 66 160.5 84.5t196.5 18.5q32 0 72.5 -2t82.5 -2q125 0 178 33v101q0 242 -280 242q-105 0 -186 -53q-92 -60 -92 -144q0 -46 -81 -46t-81 46q2 117 130 203
q127 85 310 85q155 0 299 -76t144 -257v-439q0 -74 19 -117q18 -38 52 -58q22 -13 22 -31q0 -46 -81 -46zM473 67q118 0 235 71t117 204v114q-65 -14 -157 -14q-46 0 -92 2.5t-92 2.5q-60 1 -125 -11.5t-98 -71.5q-25 -44 -25 -99q2 -97 71 -149q62 -49 166 -49zM811 1060
q-109 0 -181 44t-148 114q-114 106 -170 106q-61 0 -93 -79t-37 -128q-5 -43 -80 -43q-83 0 -82 46q2 121 84 207q84 88 211 88q107 0 176 -46.5t130 -103.5q35 -33 86 -73.5t103 -40.5q63 0 91 92.5t32 129.5q5 43 80 43q82 0 82 -45q0 -119 -72 -214q-73 -97 -212 -97z
" />
    <glyph glyph-name="adieresis" unicode="&#xe4;" horiz-adv-x="1106" 
d="M456.647 1314q109.645 0 109.645 -108q0 -107 -109.645 -107q-110.67 0 -110.67 107q0 108 110.67 108zM733.321 1314q110.67 0 110.67 -108q0 -107 -110.67 -107q-109.645 0 -109.645 107q0 108 109.645 108zM1000 -24q-117 0 -155 143q-126 -143 -372 -143
q-151 0 -259 61q-139 77 -139 225q0 107 60 172q61 66 160.5 84.5t196.5 18.5q32 0 72.5 -2t82.5 -2q125 0 178 33v101q0 242 -280 242q-105 0 -186 -53q-92 -60 -92 -144q0 -46 -81 -46t-81 46q2 117 130 203q127 85 310 85q155 0 299 -76t144 -257v-439q0 -74 19 -117
q18 -38 52 -58q22 -13 22 -31q0 -46 -81 -46zM473 67q118 0 235 71t117 204v114q-65 -14 -157 -14q-46 0 -92 2.5t-92 2.5q-60 1 -125 -11.5t-98 -71.5q-25 -44 -25 -99q2 -97 71 -149q62 -49 166 -49z" />
    <glyph glyph-name="aring" unicode="&#xe5;" horiz-adv-x="1106" 
d="M1000 -24q-117 0 -155 143q-126 -143 -372 -143q-151 0 -259 61q-139 77 -139 225q0 107 60 172q61 66 160.5 84.5t196.5 18.5q32 0 72.5 -2t82.5 -2q125 0 178 33v101q0 242 -280 242q-105 0 -186 -53q-92 -60 -92 -144q0 -46 -81 -46t-81 46q2 117 130 203
q127 85 310 85q155 0 299 -76t144 -257v-439q0 -74 19 -117q18 -38 52 -58q22 -13 22 -31q0 -46 -81 -46zM473 67q118 0 235 71t117 204v114q-65 -14 -157 -14q-46 0 -92 2.5t-92 2.5q-60 1 -125 -11.5t-98 -71.5q-25 -44 -25 -99q2 -97 71 -149q62 -49 166 -49zM853 1347
q0 -267 -296 -267q-297 0 -297 267q0 268 297 268q296 0 296 -268zM720 1347q0 193 -163 193q-164 0 -164 -193q0 -192 164 -192q163 0 163 192z" />
    <glyph glyph-name="ae" unicode="&#xe6;" horiz-adv-x="1882" 
d="M943 827q144 173 390 173q207 0 353 -117t146 -344q0 -54 -78 -54h-773q0 -160 89.5 -289t256.5 -129q121 0 218 68q102 72 113 165q4 43 77 43q79 0 79 -45q0 -32 -22 -78q-37 -83 -127 -144q-144 -100 -339 -100q-267 0 -407 194q-51 -55 -119 -101q-142 -93 -328 -93
q-136 0 -240 52q-157 77 -157 234q0 152 121 219q104 60 290 56l166 -4q115 -3 173 33v101q0 242 -281 242q-105 0 -186 -53q-89 -59 -91 -144q0 -46 -82 -46q-81 0 -81 46q2 117 130 203q127 85 310 85q108 0 223 -38.5t176 -134.5zM1674 577q-23 332 -341 332
q-282 0 -343 -332h684zM472 67q118 0 235.5 71t117.5 204v114q-66 -14 -163 -14q-48 0 -96.5 2.5t-95.5 2.5q-115 0 -169 -38q-65 -46 -65 -140q0 -104 71 -155q65 -47 165 -47z" />
    <glyph glyph-name="ccedilla" unicode="&#xe7;" horiz-adv-x="1084" 
d="M953 342q81 0 81 -43q0 -58 -53 -134q-134 -189 -420 -189q-511 0 -511 506q-2 518 522 518q275 0 403 -177q57 -76 57 -143q0 -46 -81 -46q-76 0 -81 42q-32 233 -296 233q-181 0 -271 -131t-90 -296q0 -163 89 -289t266 -126q262 0 304 234q7 41 81 41zM458 -454
q-124 0 -172 45q-6 6 -6 13q0 17 29 24q11 3 26 3q21 0 47 -12q38 -18 76 -18q148 0 148 95q0 86 -123 86q-22 0 -39 8q-16 6 -16 18q0 3 5 18l53 152q8 22 54 22q54 0 55 -24q0 -4 -4 -16l-45 -129q170 -26 170 -135q0 -87 -95.5 -118.5t-162.5 -31.5z" />
    <glyph glyph-name="egrave" unicode="&#xe8;" horiz-adv-x="1146" 
d="M585 1100q-13 0 -26 10l-380 280q-21 15 -21 42q0 28 24 61q32 41 70 41q20 0 35 -14l339 -316q21 -21 21 -38q0 -18 -18 -41q-20 -25 -44 -25zM570 -24q-225 0 -372.5 137.5t-147.5 366.5q0 232 149.5 376t378.5 144q215 0 366.5 -117t151.5 -344q0 -54 -81 -54h-803
q0 -160 92.5 -289t266.5 -129q127 0 227 68q108 72 117 165q5 43 80 43q82 0 82 -45q0 -32 -22 -78q-40 -84 -132 -144q-150 -100 -353 -100zM932 577q-25 332 -354 332q-294 0 -357 -332h711z" />
    <glyph glyph-name="eacute" unicode="&#xe9;" horiz-adv-x="1146" 
d="M570 1234q-24 0 -44 25q-18 23 -18 41q0 17 21 38l339 316q15 14 35 14q38 0 70 -41q24 -33 24 -61q0 -27 -21 -42l-380 -280q-13 -10 -26 -10zM570 -24q-225 0 -372.5 137.5t-147.5 366.5q0 232 149.5 376t378.5 144q215 0 366.5 -117t151.5 -344q0 -54 -81 -54h-803
q0 -160 92.5 -289t266.5 -129q127 0 227 68q108 72 117 165q5 43 80 43q82 0 82 -45q0 -32 -22 -78q-40 -84 -132 -144q-150 -100 -353 -100zM932 577q-25 332 -354 332q-294 0 -357 -332h711z" />
    <glyph glyph-name="ecircumflex" unicode="&#xea;" horiz-adv-x="1146" 
d="M570 -24q-225 0 -372.5 137.5t-147.5 366.5q0 232 149.5 376t378.5 144q215 0 366.5 -117t151.5 -344q0 -54 -81 -54h-803q0 -160 92.5 -289t266.5 -129q127 0 227 68q108 72 117 165q5 43 80 43q82 0 82 -45q0 -32 -22 -78q-40 -84 -132 -144q-150 -100 -353 -100z
M932 577q-25 332 -354 332q-294 0 -357 -332h711zM868 1107q0 -27 -60 -27q-42 0 -53 21l-171 352l-171 -352q-10 -21 -53 -21q-60 0 -60 27q0 6 2 8l226 466q10 22 56 22q45 0 56 -22l226 -466q2 -2 2 -8z" />
    <glyph glyph-name="edieresis" unicode="&#xeb;" horiz-adv-x="1146" 
d="M474 1316q107 0 107 -108q0 -107 -107 -107q-108 0 -108 107q0 108 108 108zM744 1316q108 0 108 -108q0 -107 -108 -107q-107 0 -107 107q0 108 107 108zM570 -24q-225 0 -372.5 137.5t-147.5 366.5q0 232 149.5 376t378.5 144q215 0 366.5 -117t151.5 -344
q0 -54 -81 -54h-803q0 -160 92.5 -289t266.5 -129q127 0 227 68q108 72 117 165q5 43 80 43q82 0 82 -45q0 -32 -22 -78q-40 -84 -132 -144q-150 -100 -353 -100zM932 577q-25 332 -354 332q-294 0 -357 -332h711z" />
    <glyph glyph-name="igrave" unicode="&#xec;" horiz-adv-x="568" 
d="M327 1111q-13 0 -26 10l-380 280q-21 15 -21 42q0 28 24 61q32 41 70 41q20 0 35 -14l339 -316q21 -21 21 -38q0 -18 -18 -41q-20 -25 -44 -25zM245 955q0 45 82 45q81 0 81 -45v-934q0 -45 -81 -45q-82 0 -82 45v934z" />
    <glyph glyph-name="iacute" unicode="&#xed;" horiz-adv-x="392" 
d="M131 1111q13 0 26 10l380 280q21 15 21 42q0 28 -24 61q-32 41 -70 41q-20 0 -35 -14l-339 -316q-21 -21 -21 -38q0 -18 18 -41q20 -25 44 -25zM213 955q0 45 -82 45q-81 0 -81 -45v-934q0 -45 81 -45q82 0 82 45v934z" />
    <glyph glyph-name="icircumflex" unicode="&#xee;" horiz-adv-x="568" 
d="M205 955q0 45 82 45q81 0 81 -45v-934q0 -45 -81 -45q-82 0 -82 45v934zM568 1067q0 -27 -60 -27q-42 0 -53 21l-171 352l-171 -352q-10 -21 -53 -21q-60 0 -60 27q0 6 2 8l226 466q10 22 56 22q45 0 56 -22l226 -466q2 -2 2 -8z" />
    <glyph glyph-name="idieresis" unicode="&#xef;" horiz-adv-x="313" 
d="M57 1314q107 0 107 -108q0 -107 -107 -107q-108 0 -108 107q0 108 108 108zM327 1314q108 0 108 -108q0 -107 -108 -107q-107 0 -107 107q0 108 107 108zM75 955q0 45 82 45q81 0 81 -45v-934q0 -45 -81 -45q-82 0 -82 45v934z" />
    <glyph glyph-name="eth" unicode="&#xf0;" horiz-adv-x="1210" 
d="M605 -24q-229 0 -377 141.5t-148 373.5t148 373.5t377 141.5q132 0 240 -49q-57 103 -144 201l-137 -72q-24 -12 -55 -12q-34 0 -59 14q-22 12 -22 31q0 18 25 33l168 88q-33 31 -82 69q-15 13 -15 26q0 23 35 37q23 9 47 9q42 0 66 -20q61 -51 69 -58l125 65
q25 13 56 13q34 0 59 -15q22 -12 22 -31t-26 -32l-153 -80q115 -125 184 -254q122 -226 122 -478q0 -232 -147.5 -373.5t-377.5 -141.5zM605 67q175 0 268.5 131.5t93.5 292.5t-93.5 292.5t-268.5 131.5t-268.5 -131.5t-93.5 -292.5t93.5 -292.5t268.5 -131.5z" />
    <glyph glyph-name="ntilde" unicode="&#xf1;" horiz-adv-x="1120" 
d="M938 -25q-81 0 -81 46v530q0 131 -70.5 243.5t-217.5 112.5q-306 0 -306 -385v-501q0 -46 -81 -46q-82 0 -82 46v933q0 46 82 46q81 0 81 -46v-113q89 160 320 160q160 1 298.5 -112.5t138.5 -337.5v-530q0 -46 -82 -46zM814 1060q-109 0 -181 44t-148 114
q-114 106 -170 106q-61 0 -93 -79t-37 -128q-5 -43 -80 -43q-83 0 -82 46q2 121 84 207q84 88 211 88q107 0 176 -46.5t130 -103.5q35 -33 86 -73.5t103 -40.5q63 0 91 92.5t32 129.5q5 43 80 43q82 0 82 -45q0 -119 -72 -214q-73 -97 -212 -97z" />
    <glyph glyph-name="ograve" unicode="&#xf2;" horiz-adv-x="1150" 
d="M566 1051q-13 0 -26 10l-380 280q-21 15 -21 42q0 28 24 61q32 41 70 41q20 0 35 -14l339 -316q21 -21 21 -38q0 -18 -18 -41q-20 -25 -44 -25zM575 1000q231 0 378 -142t147 -370t-147 -370t-378 -142t-378 142t-147 370t147 370t378 142zM575 909q-175 0 -268.5 -131
t-93.5 -290t93.5 -290t268.5 -131t268.5 131t93.5 290t-93.5 290t-268.5 131z" />
    <glyph glyph-name="oacute" unicode="&#xf3;" horiz-adv-x="1150" 
d="M584 1051q13 0 26 10l380 280q21 15 21 42q0 28 -24 61q-32 41 -70 41q-20 0 -35 -14l-339 -316q-21 -21 -21 -38q0 -18 18 -41q20 -25 44 -25zM575 1000q-231 0 -378 -142t-147 -370t147 -370t378 -142t378 142t147 370t-147 370t-378 142zM575 909q175 0 268.5 -131
t93.5 -290t-93.5 -290t-268.5 -131t-268.5 131t-93.5 290t93.5 290t268.5 131z" />
    <glyph glyph-name="ocircumflex" unicode="&#xf4;" horiz-adv-x="1150" 
d="M851 1076q0 -27 -60 -27q-42 0 -53 21l-171 352l-171 -352q-10 -21 -53 -21q-60 0 -60 27q0 6 2 8l226 466q10 22 56 22q45 0 56 -22l226 -466q2 -2 2 -8zM575 1000q231 0 378 -142t147 -370t-147 -370t-378 -142t-378 142t-147 370t147 370t378 142zM575 909
q-175 0 -268.5 -131t-93.5 -290t93.5 -290t268.5 -131t268.5 131t93.5 290t-93.5 290t-268.5 131z" />
    <glyph glyph-name="otilde" unicode="&#xf5;" horiz-adv-x="1150" 
d="M575 1000q231 0 378 -142t147 -370t-147 -370t-378 -142t-378 142t-147 370t147 370t378 142zM575 909q-175 0 -268.5 -131t-93.5 -290t93.5 -290t268.5 -131t268.5 131t93.5 290t-93.5 290t-268.5 131zM828 1060q-109 0 -181 44t-148 114q-114 106 -170 106
q-61 0 -93 -79t-37 -128q-5 -43 -80 -43q-83 0 -82 46q2 121 84 207q84 88 211 88q107 0 176 -46.5t130 -103.5q35 -33 86 -73.5t103 -40.5q63 0 91 92.5t32 129.5q5 43 80 43q82 0 82 -45q0 -119 -72 -214q-73 -97 -212 -97z" />
    <glyph glyph-name="odieresis" unicode="&#xf6;" horiz-adv-x="1150" 
d="M475 1265q107 0 107 -108q0 -107 -107 -107q-108 0 -108 107q0 108 108 108zM745 1265q108 0 108 -108q0 -107 -108 -107q-107 0 -107 107q0 108 107 108zM575 1000q231 0 378 -142t147 -370t-147 -370t-378 -142t-378 142t-147 370t147 370t378 142zM575 909
q-175 0 -268.5 -131t-93.5 -290t93.5 -290t268.5 -131t268.5 131t93.5 290t-93.5 290t-268.5 131z" />
    <glyph glyph-name="divide" unicode="&#xf7;" horiz-adv-x="963" 
d="M482 856q90 0 90 -90t-90 -90q-91 0 -91 90t91 90zM131 507q-81 0 -81 46t81 46h701q81 0 81 -46t-81 -46h-701zM482 430q90 0 90 -90t-90 -90q-91 0 -91 90t91 90z" />
    <glyph glyph-name="oslash" unicode="&#xf8;" horiz-adv-x="1308" 
d="M654 -24q-107 0 -200 30q-15 -30 -60 -30q-60 0 -60 29q0 5 2 8l19 35q-255 138 -255 440q0 242 164 377t390 135q107 0 200 -30q15 30 61 30q59 0 59 -29q0 -5 -2 -8l-19 -35q255 -138 255 -440q0 -241 -164 -376.5t-390 -135.5zM400 131l414 766q-73 29 -160 29
q-421 0 -421 -438q0 -233 167 -357zM654 50q421 0 421 438q0 233 -167 357l-414 -766q73 -29 160 -29z" />
    <glyph glyph-name="ugrave" unicode="&#xf9;" horiz-adv-x="1120" 
d="M606 1048q-13 0 -26 10l-380 280q-21 15 -21 42q0 28 24 61q32 41 70 41q20 0 35 -14l339 -316q21 -21 21 -38q0 -18 -18 -41q-20 -25 -44 -25zM182 1001q81 0 81 -46v-530q0 -131 70.5 -243.5t217.5 -112.5q306 0 306 385v501q0 46 81 46q82 0 82 -46v-933
q0 -46 -82 -46q-81 0 -81 46v113q-89 -160 -320 -160q-160 -1 -298.5 112.5t-138.5 337.5v530q0 46 82 46z" />
    <glyph glyph-name="uacute" unicode="&#xfa;" horiz-adv-x="1120" 
d="M558 1178q-24 0 -44 25q-18 23 -18 41q0 17 21 38l339 316q15 14 35 14q38 0 70 -41q24 -33 24 -61q0 -27 -21 -42l-380 -280q-13 -10 -26 -10zM182 1001q81 0 81 -46v-530q0 -131 70.5 -243.5t217.5 -112.5q306 0 306 385v501q0 46 81 46q82 0 82 -46v-933
q0 -46 -82 -46q-81 0 -81 46v113q-89 -160 -320 -160q-160 -1 -298.5 112.5t-138.5 337.5v530q0 46 82 46z" />
    <glyph glyph-name="ucircumflex" unicode="&#xfb;" horiz-adv-x="1120" 
d="M841 1076q0 -27 -60 -27q-42 0 -53 21l-171 352l-171 -352q-10 -21 -53 -21q-60 0 -60 27q0 6 2 8l226 466q10 22 56 22q45 0 56 -22l226 -466q2 -2 2 -8zM182 1001q81 0 81 -46v-530q0 -131 70.5 -243.5t217.5 -112.5q306 0 306 385v501q0 46 81 46q82 0 82 -46v-933
q0 -46 -82 -46q-81 0 -81 46v113q-89 -160 -320 -160q-160 -1 -298.5 112.5t-138.5 337.5v530q0 46 82 46z" />
    <glyph glyph-name="udieresis" unicode="&#xfc;" horiz-adv-x="1120" 
d="M444 1275q107 0 107 -108q0 -107 -107 -107q-108 0 -108 107q0 108 108 108zM714 1275q108 0 108 -108q0 -107 -108 -107q-107 0 -107 107q0 108 107 108zM182 1001q81 0 81 -46v-530q0 -131 70.5 -243.5t217.5 -112.5q306 0 306 385v501q0 46 81 46q82 0 82 -46v-933
q0 -46 -82 -46q-81 0 -81 46v113q-89 -160 -320 -160q-160 -1 -298.5 112.5t-138.5 337.5v530q0 46 82 46z" />
    <glyph glyph-name="yacute" unicode="&#xfd;" horiz-adv-x="1120" 
d="M509 1186q-24 0 -44 25q-18 23 -18 41q0 17 21 38l339 316q15 14 35 14q38 0 70 -41q24 -33 24 -61q0 -27 -21 -42l-380 -280q-13 -10 -26 -10zM1020 33q0 -231 -151 -332t-332 -101q-304 0 -426 179q-6 9 -6 17q0 44 80 44q59 0 78 -29q83 -121 278 -121q316 0 316 343
v78q-101 -131 -297 -131q-460 0 -460 449v530q0 46 82 46q81 0 81 -46v-530q0 -135 75.5 -246.5t221.5 -111.5q140 0 218.5 114t78.5 246v528q0 46 81 46q82 0 82 -46v-926z" />
    <glyph glyph-name="thorn" unicode="&#xfe;" horiz-adv-x="1134" 
d="M592 -22q-224 0 -329 150v-485q0 -45 -81 -45q-82 0 -82 45v1694q0 45 82 45q81 0 81 -45v-485q105 150 329 150q229 0 360.5 -147t131.5 -365q0 -217 -131.5 -364.5t-360.5 -147.5zM592 69q167 0 248 138t81 283q0 146 -81 283.5t-248 137.5q-166 0 -247.5 -137.5
t-81.5 -283.5q0 -145 81.5 -283t247.5 -138z" />
    <glyph glyph-name="ydieresis" unicode="&#xff;" horiz-adv-x="1120" 
d="M460 1283q107 0 107 -108q0 -107 -107 -107q-108 0 -108 107q0 108 108 108zM730 1283q108 0 108 -108q0 -107 -108 -107q-107 0 -107 107q0 108 107 108zM1020 33q0 -231 -151 -332t-332 -101q-304 0 -426 179q-6 9 -6 17q0 44 80 44q59 0 78 -29q83 -121 278 -121
q316 0 316 343v78q-101 -131 -297 -131q-460 0 -460 449v530q0 46 82 46q81 0 81 -46v-530q0 -135 75.5 -246.5t221.5 -111.5q140 0 218.5 114t78.5 246v528q0 46 81 46q82 0 82 -46v-926z" />
    <glyph glyph-name="Amacron" unicode="&#x100;" horiz-adv-x="1373" 
d="M1348 20q0 -44 -92 -44q-71 0 -86 35l-187 430h-653l-188 -442q-11 -23 -56 -23q-61 0 -61 30q0 1 2 9l567 1333q13 33 94 33q70 0 86 -35l568 -1308q6 -14 6 -18zM944 532l-291 670l-285 -670h576zM440 1534q0 71 48 71h425q56 0 56 -71q0 -70 -56 -70h-417
q-56 0 -56 70z" />
    <glyph glyph-name="amacron" unicode="&#x101;" horiz-adv-x="1106" 
d="M296 1171q0 71 48 71h425q56 0 56 -71q0 -70 -56 -70h-417q-56 0 -56 70zM1000 -24q-117 0 -155 143q-126 -143 -372 -143q-151 0 -259 61q-139 77 -139 225q0 107 60 172q61 66 160.5 84.5t196.5 18.5q32 0 72.5 -2t82.5 -2q125 0 178 33v101q0 242 -280 242
q-105 0 -186 -53q-92 -60 -92 -144q0 -46 -81 -46t-81 46q2 117 130 203q127 85 310 85q155 0 299 -76t144 -257v-439q0 -74 19 -117q18 -38 52 -58q22 -13 22 -31q0 -46 -81 -46zM473 67q118 0 235 71t117 204v114q-65 -14 -157 -14q-46 0 -92 2.5t-92 2.5
q-60 1 -125 -11.5t-98 -71.5q-25 -44 -25 -99q2 -97 71 -149q62 -49 166 -49z" />
    <glyph glyph-name="Cacute" unicode="&#x106;" horiz-adv-x="1342" 
d="M672 1461q-24 0 -44 25q-18 23 -18 41q0 17 21 38l339 316q15 14 35 14q38 0 70 -41q24 -33 24 -61q0 -27 -21 -42l-380 -280q-13 -10 -26 -10zM1211 454q81 0 81 -47q0 -15 -12 -57q-53 -183 -225.5 -278.5t-356.5 -95.5q-307 0 -477.5 195t-170.5 498q0 307 171 509.5
t491 202.5q188 0 360 -101t212 -294q6 -22 6 -34q0 -49 -82 -49q-76 0 -81 42q-45 345 -415 345q-254 0 -377 -193.5t-123 -420.5q0 -223 116.5 -416t369.5 -193q152 0 279.5 96t152.5 250q7 41 81 41z" />
    <glyph glyph-name="cacute" unicode="&#x107;" horiz-adv-x="1084" 
d="M551 1234q-24 0 -44 25q-18 23 -18 41q0 17 21 38l339 316q15 14 35 14q38 0 70 -41q24 -33 24 -61q0 -27 -21 -42l-380 -280q-13 -10 -26 -10zM953 342q81 0 81 -43q0 -58 -53 -134q-134 -189 -420 -189q-511 0 -511 506q-2 518 522 518q275 0 403 -177q57 -76 57 -143
q0 -46 -81 -46q-76 0 -81 42q-32 233 -296 233q-181 0 -271 -131t-90 -296q0 -163 89 -289t266 -126q262 0 304 234q7 41 81 41z" />
    <glyph glyph-name="Ccircumflex" unicode="&#x108;" horiz-adv-x="1342" 
d="M986 1491q0 -27 -60 -27q-42 0 -53 21l-171 352l-171 -352q-10 -21 -53 -21q-60 0 -60 27q0 6 2 8l226 466q10 22 56 22q45 0 56 -22l226 -466q2 -2 2 -8zM1211 454q81 0 81 -47q0 -15 -12 -57q-53 -183 -225.5 -278.5t-356.5 -95.5q-307 0 -477.5 195t-170.5 498
q0 307 171 509.5t491 202.5q188 0 360 -101t212 -294q6 -22 6 -34q0 -49 -82 -49q-76 0 -81 42q-45 345 -415 345q-254 0 -377 -193.5t-123 -420.5q0 -223 116.5 -416t369.5 -193q152 0 279.5 96t152.5 250q7 41 81 41z" />
    <glyph glyph-name="ccircumflex" unicode="&#x109;" horiz-adv-x="1084" 
d="M953 342q81 0 81 -43q0 -58 -53 -134q-134 -189 -420 -189q-511 0 -511 506q-2 518 522 518q275 0 403 -177q57 -76 57 -143q0 -46 -81 -46q-76 0 -81 42q-32 233 -296 233q-181 0 -271 -131t-90 -296q0 -163 89 -289t266 -126q262 0 304 234q7 41 81 41zM838 1128
q0 -27 -60 -27q-42 0 -53 21l-171 352l-171 -352q-10 -21 -53 -21q-60 0 -60 27q0 6 2 8l226 466q10 22 56 22q45 0 56 -22l226 -466q2 -2 2 -8z" />
    <glyph glyph-name="Cdotaccent" unicode="&#x10a;" horiz-adv-x="1342" 
d="M711 1750q108 0 108 -107q0 -108 -108 -108q-107 0 -107 108q0 107 107 107zM1211 454q81 0 81 -47q0 -15 -12 -57q-53 -183 -225.5 -278.5t-356.5 -95.5q-307 0 -477.5 195t-170.5 498q0 307 171 509.5t491 202.5q188 0 360 -101t212 -294q6 -22 6 -34q0 -49 -82 -49
q-76 0 -81 42q-45 345 -415 345q-254 0 -377 -193.5t-123 -420.5q0 -223 116.5 -416t369.5 -193q152 0 279.5 96t152.5 250q7 41 81 41z" />
    <glyph glyph-name="cdotaccent" unicode="&#x10b;" horiz-adv-x="1084" 
d="M587 1265q108 0 108 -107q0 -108 -108 -108q-107 0 -107 108q0 107 107 107zM953 342q81 0 81 -43q0 -58 -53 -134q-134 -189 -420 -189q-511 0 -511 506q-2 518 522 518q275 0 403 -177q57 -76 57 -143q0 -46 -81 -46q-76 0 -81 42q-32 233 -296 233q-181 0 -271 -131
t-90 -296q0 -163 89 -289t266 -126q262 0 304 234q7 41 81 41z" />
    <glyph glyph-name="Ccaron" unicode="&#x10c;" horiz-adv-x="1342" 
d="M996 1958q0 27 -60 27q-42 0 -53 -21l-171 -352l-171 352q-10 21 -53 21q-60 0 -60 -27q0 -6 2 -8l226 -466q10 -22 56 -22q45 0 56 22l226 466q2 2 2 8zM1211 454q81 0 81 -47q0 -15 -12 -57q-53 -183 -225.5 -278.5t-356.5 -95.5q-307 0 -477.5 195t-170.5 498
q0 307 171 509.5t491 202.5q188 0 360 -101t212 -294q6 -22 6 -34q0 -49 -82 -49q-76 0 -81 42q-45 345 -415 345q-254 0 -377 -193.5t-123 -420.5q0 -223 116.5 -416t369.5 -193q152 0 279.5 96t152.5 250q7 41 81 41z" />
    <glyph glyph-name="ccaron" unicode="&#x10d;" horiz-adv-x="1084" 
d="M851 1547q0 27 -60 27q-42 0 -53 -21l-171 -352l-171 352q-10 21 -53 21q-60 0 -60 -27q0 -6 2 -8l226 -466q10 -22 56 -22q45 0 56 22l226 466q2 2 2 8zM953 342q81 0 81 -43q0 -58 -53 -134q-134 -189 -420 -189q-511 0 -511 506q-2 518 522 518q275 0 403 -177
q57 -76 57 -143q0 -46 -81 -46q-76 0 -81 42q-32 233 -296 233q-181 0 -271 -131t-90 -296q0 -163 89 -289t266 -126q262 0 304 234q7 41 81 41z" />
    <glyph glyph-name="Dcaron" unicode="&#x10e;" horiz-adv-x="1315" 
d="M885 1959q0 27 -60 27q-42 0 -53 -21l-171 -352l-171 352q-10 21 -53 21q-60 0 -60 -27q0 -6 2 -8l226 -466q10 -22 56 -22q45 0 56 22l226 466q2 2 2 8zM181 1357h466q297 0 457.5 -203t160.5 -478q1 -277 -159.5 -476.5t-458.5 -199.5h-466q-81 0 -81 45v1267
q0 45 81 45zM647 1266h-384v-1175h384q233 0 345 190.5t111 394.5q0 202 -111.5 396t-344.5 194z" />
    <glyph glyph-name="Emacron" unicode="&#x112;" horiz-adv-x="1243" 
d="M354 1587q0 71 48 71h425q56 0 56 -71q0 -70 -56 -70h-417q-56 0 -56 70zM100 1312q0 45 81 45h906q81 0 81 -45q0 -46 -81 -46h-824v-541h705q82 0 82 -46t-82 -46h-705v-542h824q81 0 81 -46q0 -45 -81 -45h-906q-81 0 -81 45v1267z" />
    <glyph glyph-name="emacron" unicode="&#x113;" horiz-adv-x="1146" 
d="M328 1170q0 71 48 71h425q56 0 56 -71q0 -70 -56 -70h-417q-56 0 -56 70zM570 -24q-225 0 -372.5 137.5t-147.5 366.5q0 232 149.5 376t378.5 144q215 0 366.5 -117t151.5 -344q0 -54 -81 -54h-803q0 -160 92.5 -289t266.5 -129q127 0 227 68q108 72 117 165q5 43 80 43
q82 0 82 -45q0 -32 -22 -78q-40 -84 -132 -144q-150 -100 -353 -100zM932 577q-25 332 -354 332q-294 0 -357 -332h711z" />
    <glyph glyph-name="Edotaccent" unicode="&#x116;" horiz-adv-x="1243" 
d="M641 1690q108 0 108 -107q0 -108 -108 -108q-107 0 -107 108q0 107 107 107zM100 1312q0 45 81 45h906q81 0 81 -45q0 -46 -81 -46h-824v-541h705q82 0 82 -46t-82 -46h-705v-542h824q81 0 81 -46q0 -45 -81 -45h-906q-81 0 -81 45v1267z" />
    <glyph glyph-name="edotaccent" unicode="&#x117;" horiz-adv-x="1146" 
d="M595 1315q108 0 108 -107q0 -108 -108 -108q-107 0 -107 108q0 107 107 107zM570 -24q-225 0 -372.5 137.5t-147.5 366.5q0 232 149.5 376t378.5 144q215 0 366.5 -117t151.5 -344q0 -54 -81 -54h-803q0 -160 92.5 -289t266.5 -129q127 0 227 68q108 72 117 165
q5 43 80 43q82 0 82 -45q0 -32 -22 -78q-40 -84 -132 -144q-150 -100 -353 -100zM932 577q-25 332 -354 332q-294 0 -357 -332h711z" />
    <glyph glyph-name="Ecaron" unicode="&#x11a;" horiz-adv-x="1243" 
d="M926 2009q0 27 -60 27q-42 0 -53 -21l-171 -352l-171 352q-10 21 -53 21q-60 0 -60 -27q0 -6 2 -8l226 -466q10 -22 56 -22q45 0 56 22l226 466q2 2 2 8zM100 1312q0 45 81 45h906q81 0 81 -45q0 -46 -81 -46h-824v-541h705q82 0 82 -46t-82 -46h-705v-542h824
q81 0 81 -46q0 -45 -81 -45h-906q-81 0 -81 45v1267z" />
    <glyph glyph-name="ecaron" unicode="&#x11b;" horiz-adv-x="1146" 
d="M864 1596q0 27 -60 27q-42 0 -53 -21l-171 -352l-171 352q-10 21 -53 21q-60 0 -60 -27q0 -6 2 -8l226 -466q10 -22 56 -22q45 0 56 22l226 466q2 2 2 8zM570 -24q-225 0 -372.5 137.5t-147.5 366.5q0 232 149.5 376t378.5 144q215 0 366.5 -117t151.5 -344
q0 -54 -81 -54h-803q0 -160 92.5 -289t266.5 -129q127 0 227 68q108 72 117 165q5 43 80 43q82 0 82 -45q0 -32 -22 -78q-40 -84 -132 -144q-150 -100 -353 -100zM932 577q-25 332 -354 332q-294 0 -357 -332h711z" />
    <glyph glyph-name="Gcircumflex" unicode="&#x11c;" horiz-adv-x="1451" 
d="M1008 1491q0 -27 -60 -27q-42 0 -53 21l-171 352l-171 -352q-10 -21 -53 -21q-60 0 -60 27q0 6 2 8l226 466q10 22 56 22q45 0 56 -22l226 -466q2 -2 2 -8zM750 -24q-700 0 -700 704q0 317 194.5 509t510.5 192q189 0 377 -96t235 -293q7 -28 7 -44q0 -45 -81 -45
q-77 0 -82 42q-23 164 -160.5 254.5t-292.5 90.5q-262 0 -404 -184t-142 -430q0 -247 135.5 -428.5t400.5 -180.5q165 0 301 97q165 117 165 247v182h-466q-82 0 -82 46t82 46h547q81 0 81 -46v-228q0 -80 -69 -170t-131 -134q-186 -131 -426 -131z" />
    <glyph glyph-name="gcircumflex" unicode="&#x11d;" horiz-adv-x="1132" 
d="M1032 30q0 -227 -153.5 -330.5t-359.5 -103.5q-117 0 -255.5 40t-206.5 140q-6 9 -6 17q0 44 83 44q54 0 75 -29q46 -67 139 -94t172 -27q350 0 350 343v95q-110 -148 -328 -148q-229 0 -360.5 147.5t-131.5 364.5q0 218 131.5 365t360.5 147q214 0 328 -152l1 106
q0 46 81 46q80 0 80 -46v-925zM542 68q167 0 248 138t81 283q0 146 -81 283.5t-248 137.5q-166 0 -247.5 -137.5t-81.5 -283.5q0 -145 81.5 -283t247.5 -138zM828 1076q0 -27 -60 -27q-42 0 -53 21l-171 352l-171 -352q-10 -21 -53 -21q-60 0 -60 27q0 6 2 8l226 466
q10 22 56 22q45 0 56 -22l226 -466q2 -2 2 -8z" />
    <glyph glyph-name="Gdotaccent" unicode="&#x120;" horiz-adv-x="1451" 
d="M765 1679q108 0 108 -107q0 -108 -108 -108q-107 0 -107 108q0 107 107 107zM750 -24q-700 0 -700 704q0 317 194.5 509t510.5 192q189 0 377 -96t235 -293q7 -28 7 -44q0 -45 -81 -45q-77 0 -82 42q-23 164 -160.5 254.5t-292.5 90.5q-262 0 -404 -184t-142 -430
q0 -247 135.5 -428.5t400.5 -180.5q165 0 301 97q165 117 165 247v182h-466q-82 0 -82 46t82 46h547q81 0 81 -46v-228q0 -80 -69 -170t-131 -134q-186 -131 -426 -131z" />
    <glyph glyph-name="gdotaccent" unicode="&#x121;" horiz-adv-x="1132" 
d="M567 1266q108 0 108 -107q0 -108 -108 -108q-107 0 -107 108q0 107 107 107zM1032 30q0 -227 -153.5 -330.5t-359.5 -103.5q-117 0 -255.5 40t-206.5 140q-6 9 -6 17q0 44 83 44q54 0 75 -29q46 -67 139 -94t172 -27q350 0 350 343v95q-110 -148 -328 -148
q-229 0 -360.5 147.5t-131.5 364.5q0 218 131.5 365t360.5 147q214 0 328 -152l1 106q0 46 81 46q80 0 80 -46v-925zM542 68q167 0 248 138t81 283q0 146 -81 283.5t-248 137.5q-166 0 -247.5 -137.5t-81.5 -283.5q0 -145 81.5 -283t247.5 -138z" />
    <glyph glyph-name="Hcircumflex" unicode="&#x124;" horiz-adv-x="1346" 
d="M954 1440q0 -27 -60 -27q-42 0 -53 21l-171 352l-171 -352q-10 -21 -53 -21q-60 0 -60 27q0 6 2 8l226 466q10 22 56 22q45 0 56 -22l226 -466q2 -2 2 -8zM263 21q0 -45 -81 -45q-82 0 -82 45v1315q0 45 82 45q81 0 81 -45v-612h820v612q0 45 81 45q82 0 82 -45v-1315
q0 -45 -82 -45q-81 0 -81 45v612h-820v-612z" />
    <glyph glyph-name="hcircumflex" unicode="&#x125;" horiz-adv-x="1070" 
d="M938 -24q-81 0 -81 45v531q0 178 -89 267t-197 89q-308 2 -308 -386v-501q0 -45 -81 -45q-82 0 -82 45v1315q0 45 82 45q81 0 81 -45v-495q89 160 320 160q194 0 315.5 -129t121.5 -320v-531q0 -45 -82 -45zM868 1491q0 -27 -60 -27q-42 0 -53 21l-171 352l-171 -352
q-10 -21 -53 -21q-60 0 -60 27q0 6 2 8l226 466q10 22 56 22q45 0 56 -22l226 -466q2 -2 2 -8z" />
    <glyph glyph-name="Itilde" unicode="&#x128;" horiz-adv-x="263" 
d="M213 21q0 -45 -81 -45q-82 0 -82 45v1315q0 45 82 45q81 0 81 -45v-1315zM385 1477q-109 0 -181 44t-148 114q-114 106 -170 106q-61 0 -93 -79t-37 -128q-5 -43 -80 -43q-83 0 -82 46q2 121 84 207q84 88 211 88q107 0 176 -46.5t130 -103.5q35 -33 86 -73.5t103 -40.5
q63 0 91 92.5t32 129.5q5 43 80 43q82 0 82 -45q0 -119 -72 -214q-73 -97 -212 -97z" />
    <glyph glyph-name="itilde" unicode="&#x129;" horiz-adv-x="875" 
d="M691 1087q-109 0 -181 44t-148 114q-114 106 -170 106q-61 0 -93 -79t-37 -128q-5 -43 -80 -43q-83 0 -82 46q2 121 84 207q84 88 211 88q107 0 176 -46.5t130 -103.5q35 -33 86 -73.5t103 -40.5q63 0 91 92.5t32 129.5q5 43 80 43q82 0 82 -45q0 -119 -72 -214
q-73 -97 -212 -97zM356 955q0 45 82 45q81 0 81 -45v-934q0 -45 -81 -45q-82 0 -82 45v934z" />
    <glyph glyph-name="Imacron" unicode="&#x12a;" horiz-adv-x="263" 
d="M213 21q0 -45 -81 -45q-82 0 -82 45v1315q0 45 82 45q81 0 81 -45v-1315zM-133 1590q0 71 48 71h425q56 0 56 -71q0 -70 -56 -70h-417q-56 0 -56 70z" />
    <glyph glyph-name="imacron" unicode="&#x12b;" horiz-adv-x="313" 
d="M-108 1170q0 71 48 71h425q56 0 56 -71q0 -70 -56 -70h-417q-56 0 -56 70zM75 955q0 45 82 45q81 0 81 -45v-934q0 -45 -81 -45q-82 0 -82 45v934z" />
    <glyph glyph-name="dotlessi" unicode="&#x131;" horiz-adv-x="313" 
d="M75 955q0 45 82 45q81 0 81 -45v-934q0 -45 -81 -45q-82 0 -82 45v934z" />
    <glyph glyph-name="Nacute" unicode="&#x143;" horiz-adv-x="1358" 
d="M489 1439q-24 0 -44 25q-18 23 -18 41q0 17 21 38l339 316q15 14 35 14q38 0 70 -41q24 -33 24 -61q0 -27 -21 -42l-380 -280q-13 -10 -26 -10zM1157 -24q-67 0 -91 32l-848 1157v-1158q0 -31 -59 -31t-59 31v1318q0 56 100 56q68 0 92 -32l848 -1157v1157q0 32 59 32
t59 -32v-1319q0 -54 -101 -54z" />
    <glyph glyph-name="nacute" unicode="&#x144;" horiz-adv-x="1120" 
d="M552 1184q-24 0 -44 25q-18 23 -18 41q0 17 21 38l339 316q15 14 35 14q38 0 70 -41q24 -33 24 -61q0 -27 -21 -42l-380 -280q-13 -10 -26 -10zM938 -25q-81 0 -81 46v530q0 131 -70.5 243.5t-217.5 112.5q-306 0 -306 -385v-501q0 -46 -81 -46q-82 0 -82 46v933
q0 46 82 46q81 0 81 -46v-113q89 160 320 160q160 1 298.5 -112.5t138.5 -337.5v-530q0 -46 -82 -46z" />
    <glyph glyph-name="Ncaron" unicode="&#x147;" horiz-adv-x="1358" 
d="M963 1959q0 27 -60 27q-42 0 -53 -21l-171 -352l-171 352q-10 21 -53 21q-60 0 -60 -27q0 -6 2 -8l226 -466q10 -22 56 -22q45 0 56 22l226 466q2 2 2 8zM1157 -24q-67 0 -91 32l-848 1157v-1158q0 -31 -59 -31t-59 31v1318q0 56 100 56q68 0 92 -32l848 -1157v1157
q0 32 59 32t59 -32v-1319q0 -54 -101 -54z" />
    <glyph glyph-name="ncaron" unicode="&#x148;" horiz-adv-x="1120" 
d="M843 1546q0 27 -60 27q-42 0 -53 -21l-171 -352l-171 352q-10 21 -53 21q-60 0 -60 -27q0 -6 2 -8l226 -466q10 -22 56 -22q45 0 56 22l226 466q2 2 2 8zM938 -25q-81 0 -81 46v530q0 131 -70.5 243.5t-217.5 112.5q-306 0 -306 -385v-501q0 -46 -81 -46q-82 0 -82 46
v933q0 46 82 46q81 0 81 -46v-113q89 160 320 160q160 1 298.5 -112.5t138.5 -337.5v-530q0 -46 -82 -46z" />
    <glyph glyph-name="Omacron" unicode="&#x14c;" horiz-adv-x="1446" 
d="M500 1534q0 71 48 71h425q56 0 56 -71q0 -70 -56 -70h-417q-56 0 -56 70zM723 1381q311 0 492 -203t181 -499q0 -297 -181 -500t-492 -203t-492 203t-181 500q0 296 181 499t492 203zM723 1290q-252 0 -381 -192.5t-129 -418.5t129 -419t381 -193t381 193t129 419
t-129 418.5t-381 192.5z" />
    <glyph glyph-name="omacron" unicode="&#x14d;" horiz-adv-x="1150" 
d="M320 1120q0 71 48 71h425q56 0 56 -71q0 -70 -56 -70h-417q-56 0 -56 70zM575 1000q231 0 378 -142t147 -370t-147 -370t-378 -142t-378 142t-147 370t147 370t378 142zM575 909q-175 0 -268.5 -131t-93.5 -290t93.5 -290t268.5 -131t268.5 131t93.5 290t-93.5 290
t-268.5 131z" />
    <glyph glyph-name="OE" unicode="&#x152;" horiz-adv-x="2210" 
d="M712 0q-319 -1 -490.5 197.5t-171.5 505.5q0 304 174 503t488 199q196 0 355 -98v29q0 45 82 45h905q81 0 81 -45q0 -46 -81 -46h-824v-541h705q82 0 82 -46t-82 -46h-705v-542h824q81 0 81 -46q0 -45 -81 -45h-905q-82 0 -82 45v36q-164 -105 -355 -105zM712 91
q224 0 355 192v847q-123 184 -355 184q-253 0 -376.5 -192.5t-123.5 -419.5t122 -419.5t378 -191.5z" />
    <glyph glyph-name="oe" unicode="&#x153;" horiz-adv-x="2028" 
d="M1452 -24q-296 0 -438 215q-146 -215 -439 -215q-232 0 -378.5 142t-146.5 370t146.5 370t378.5 142q297 0 443 -220q146 220 442 220q215 0 366.5 -117t151.5 -344q0 -54 -81 -54h-803q0 -160 92.5 -289t266.5 -129q125 0 227 68q106 73 117 165q5 43 80 43q82 0 82 -45
q0 -32 -22 -78q-40 -84 -132 -144q-150 -100 -353 -100zM575 909q-175 0 -268.5 -131t-93.5 -290t93.5 -290t268.5 -131t268.5 131t93.5 290t-93.5 290t-268.5 131zM1814 577q-25 332 -354 332q-294 0 -357 -332h711z" />
    <glyph glyph-name="Racute" unicode="&#x154;" horiz-adv-x="1343" 
d="M600 1428q-24 0 -44 25q-18 23 -18 41q0 17 21 38l339 316q15 14 35 14q38 0 70 -41q24 -33 24 -61q0 -27 -21 -42l-380 -280q-13 -10 -26 -10zM181 -24q-81 0 -81 46v1289q0 46 81 46h619q158 0 289.5 -98.5t131.5 -267.5q0 -146 -105 -243.5t-242 -117.5
q60 -50 98.5 -121t72.5 -149q41 -91 90 -176.5t131 -127.5q27 -14 27 -34q0 -17 -21 -30q-24 -15 -60 -15q-33 0 -54 11q-111 56 -168 152.5t-103 198.5q-48 108 -104 197t-161 89h-359v-603q0 -46 -82 -46zM800 716q258 0 258 275t-258 275h-537v-550h537z" />
    <glyph glyph-name="racute" unicode="&#x155;" horiz-adv-x="764" 
d="M307 1182q-24 0 -44 25q-18 23 -18 41q0 17 21 38l339 316q15 14 35 14q38 0 70 -41q24 -33 24 -61q0 -27 -21 -42l-380 -280q-13 -10 -26 -10zM182 -24q-82 0 -82 46v932q0 46 82 46q81 0 81 -46v-111q72 157 262 157q112 0 194 -54q20 -13 20 -32q0 -23 -27 -43
q-21 -15 -47 -15q-35 0 -65 25.5t-95 25.5q-143 0 -192.5 -137t-49.5 -256v-492q0 -46 -81 -46z" />
    <glyph glyph-name="Rcaron" unicode="&#x158;" horiz-adv-x="1343" 
d="M956 1960q0 27 -60 27q-42 0 -53 -21l-171 -352l-171 352q-10 21 -53 21q-60 0 -60 -27q0 -6 2 -8l226 -466q10 -22 56 -22q45 0 56 22l226 466q2 2 2 8zM181 -24q-81 0 -81 46v1289q0 46 81 46h619q158 0 289.5 -98.5t131.5 -267.5q0 -146 -105 -243.5t-242 -117.5
q60 -50 98.5 -121t72.5 -149q41 -91 90 -176.5t131 -127.5q27 -14 27 -34q0 -17 -21 -30q-24 -15 -60 -15q-33 0 -54 11q-111 56 -168 152.5t-103 198.5q-48 108 -104 197t-161 89h-359v-603q0 -46 -82 -46zM800 716q258 0 258 275t-258 275h-537v-550h537z" />
    <glyph glyph-name="rcaron" unicode="&#x159;" horiz-adv-x="764" 
d="M716 1555q0 27 -60 27q-42 0 -53 -21l-171 -352l-171 352q-10 21 -53 21q-60 0 -60 -27q0 -6 2 -8l226 -466q10 -22 56 -22q45 0 56 22l226 466q2 2 2 8zM182 -28q-82 0 -82 46v932q0 46 82 46q81 0 81 -46v-111q72 157 262 157q112 0 194 -54q20 -13 20 -32
q0 -23 -27 -43q-21 -15 -47 -15q-35 0 -65 25.5t-95 25.5q-143 0 -192.5 -137t-49.5 -256v-492q0 -46 -81 -46z" />
    <glyph glyph-name="Sacute" unicode="&#x15a;" horiz-adv-x="1240" 
d="M615 1459q-24 0 -44 25q-18 23 -18 41q0 17 21 38l339 316q15 14 35 14q38 0 70 -41q24 -33 24 -61q0 -27 -21 -42l-380 -280q-13 -10 -26 -10zM1190 390q0 -193 -178.5 -303.5t-393.5 -110.5q-181 0 -354.5 85.5t-209.5 281.5q-4 22 -4 27q0 44 84 44q68 0 78 -39
q81 -311 413 -308q134 2 268 81.5t134 232.5q0 110 -133 172q-98 46 -247 62q-90 9 -189.5 29.5t-182.5 63.5q-190 98 -190 301q0 202 188 287t355 85t318.5 -77t199.5 -248q6 -21 6 -26q0 -41 -85 -41q-68 0 -78 40q-60 261 -360 261q-126 0 -253.5 -65.5t-127.5 -214.5
q0 -105 147 -170q68 -29 143 -44t125 -20q99 -10 201 -32t180 -72q146 -96 146 -282z" />
    <glyph glyph-name="sacute" unicode="&#x15b;" horiz-adv-x="956" 
d="M488 1184q-24 0 -44 25q-18 23 -18 41q0 17 21 38l339 316q15 14 35 14q38 0 70 -41q24 -33 24 -61q0 -27 -21 -42l-380 -280q-13 -10 -26 -10zM481 -24q-135 0 -266.5 60.5t-160.5 205.5q-4 18 -4 27q0 44 83 44q69 0 79 -39q54 -207 269 -207q90 0 176.5 54t86.5 157
q0 66 -94 107q-62 28 -164 43q-74 11 -149 24t-142 58q-121 82 -121 211q0 149 143 214t267 65q123 0 238 -56t152 -181q5 -17 5 -24q0 -42 -82 -42q-71 0 -80 38q-43 174 -233 174q-81 0 -164 -45.5t-83 -139.5q0 -65 105 -107q66 -27 161 -42q71 -10 144 -24.5t141 -58.5
q118 -77 118 -208q0 -161 -142.5 -234.5t-282.5 -73.5z" />
    <glyph glyph-name="Scircumflex" unicode="&#x15c;" horiz-adv-x="1240" 
d="M904 1491q0 -27 -60 -27q-42 0 -53 21l-171 352l-171 -352q-10 -21 -53 -21q-60 0 -60 27q0 6 2 8l226 466q10 22 56 22q45 0 56 -22l226 -466q2 -2 2 -8zM1190 390q0 -193 -178.5 -303.5t-393.5 -110.5q-181 0 -354.5 85.5t-209.5 281.5q-4 22 -4 27q0 44 84 44
q68 0 78 -39q81 -311 413 -308q134 2 268 81.5t134 232.5q0 110 -133 172q-98 46 -247 62q-90 9 -189.5 29.5t-182.5 63.5q-190 98 -190 301q0 202 188 287t355 85t318.5 -77t199.5 -248q6 -21 6 -26q0 -41 -85 -41q-68 0 -78 40q-60 261 -360 261q-126 0 -253.5 -65.5
t-127.5 -214.5q0 -105 147 -170q68 -29 143 -44t125 -20q99 -10 201 -32t180 -72q146 -96 146 -282z" />
    <glyph glyph-name="scircumflex" unicode="&#x15d;" horiz-adv-x="956" 
d="M481 -24q-135 0 -266.5 60.5t-160.5 205.5q-4 18 -4 27q0 44 83 44q69 0 79 -39q54 -207 269 -207q90 0 176.5 54t86.5 157q0 66 -94 107q-62 28 -164 43q-74 11 -149 24t-142 58q-121 82 -121 211q0 149 143 214t267 65q123 0 238 -56t152 -181q5 -17 5 -24
q0 -42 -82 -42q-71 0 -80 38q-43 174 -233 174q-81 0 -164 -45.5t-83 -139.5q0 -65 105 -107q66 -27 161 -42q71 -10 144 -24.5t141 -58.5q118 -77 118 -208q0 -161 -142.5 -234.5t-282.5 -73.5zM768 1077q0 -27 -60 -27q-42 0 -53 21l-171 352l-171 -352q-10 -21 -53 -21
q-60 0 -60 27q0 6 2 8l226 466q10 22 56 22q45 0 56 -22l226 -466q2 -2 2 -8z" />
    <glyph glyph-name="Scedilla" unicode="&#x15e;" horiz-adv-x="1240" 
d="M557 -446q-124 0 -172 45q-6 6 -6 13q0 17 29 24q11 3 26 3q21 0 47 -12q38 -18 76 -18q148 0 148 95q0 86 -123 86q-22 0 -39 8q-16 6 -16 18q0 3 5 18l53 152q8 22 54 22q54 0 55 -24q0 -4 -4 -16l-45 -129q170 -26 170 -135q0 -87 -95.5 -118.5t-162.5 -31.5z
M1190 388q0 -193 -178.5 -303.5t-393.5 -110.5q-181 0 -354.5 85.5t-209.5 281.5q-4 22 -4 27q0 44 84 44q68 0 78 -39q81 -311 413 -308q134 2 268 81.5t134 232.5q0 110 -133 172q-98 46 -247 62q-90 9 -189.5 29.5t-182.5 63.5q-190 98 -190 301q0 202 188 287t355 85
t318.5 -77t199.5 -248q6 -21 6 -26q0 -41 -85 -41q-68 0 -78 40q-60 261 -360 261q-126 0 -253.5 -65.5t-127.5 -214.5q0 -105 147 -170q68 -29 143 -44t125 -20q99 -10 201 -32t180 -72q146 -96 146 -282z" />
    <glyph glyph-name="scedilla" unicode="&#x15f;" horiz-adv-x="956" 
d="M401 -441q-124 0 -172 45q-6 6 -6 13q0 17 29 24q11 3 26 3q21 0 47 -12q38 -18 76 -18q148 0 148 95q0 86 -123 86q-22 0 -39 8q-16 6 -16 18q0 3 5 18l53 152q8 22 54 22q54 0 55 -24q0 -4 -4 -16l-45 -129q170 -26 170 -135q0 -87 -95.5 -118.5t-162.5 -31.5zM481 -24
q-135 0 -266.5 60.5t-160.5 205.5q-4 18 -4 27q0 44 83 44q69 0 79 -39q54 -207 269 -207q90 0 176.5 54t86.5 157q0 66 -94 107q-62 28 -164 43q-74 11 -149 24t-142 58q-121 82 -121 211q0 149 143 214t267 65q123 0 238 -56t152 -181q5 -17 5 -24q0 -42 -82 -42
q-71 0 -80 38q-43 174 -233 174q-81 0 -164 -45.5t-83 -139.5q0 -65 105 -107q66 -27 161 -42q71 -10 144 -24.5t141 -58.5q118 -77 118 -208q0 -161 -142.5 -234.5t-282.5 -73.5z" />
    <glyph glyph-name="Scaron" unicode="&#x160;" horiz-adv-x="1240" 
d="M925 1960q0 27 -60 27q-42 0 -53 -21l-171 -352l-171 352q-10 21 -53 21q-60 0 -60 -27q0 -6 2 -8l226 -466q10 -22 56 -22q45 0 56 22l226 466q2 2 2 8zM1190 390q0 -193 -178.5 -303.5t-393.5 -110.5q-181 0 -354.5 85.5t-209.5 281.5q-4 22 -4 27q0 44 84 44
q68 0 78 -39q81 -311 413 -308q134 2 268 81.5t134 232.5q0 110 -133 172q-98 46 -247 62q-90 9 -189.5 29.5t-182.5 63.5q-190 98 -190 301q0 202 188 287t355 85t318.5 -77t199.5 -248q6 -21 6 -26q0 -41 -85 -41q-68 0 -78 40q-60 261 -360 261q-126 0 -253.5 -65.5
t-127.5 -214.5q0 -105 147 -170q68 -29 143 -44t125 -20q99 -10 201 -32t180 -72q146 -96 146 -282z" />
    <glyph glyph-name="scaron" unicode="&#x161;" horiz-adv-x="956" 
d="M771 1546q0 27 -60 27q-42 0 -53 -21l-171 -352l-171 352q-10 21 -53 21q-60 0 -60 -27q0 -6 2 -8l226 -466q10 -22 56 -22q45 0 56 22l226 466q2 2 2 8zM481 -24q-135 0 -266.5 60.5t-160.5 205.5q-4 18 -4 27q0 44 83 44q69 0 79 -39q54 -207 269 -207q90 0 176.5 54
t86.5 157q0 66 -94 107q-62 28 -164 43q-74 11 -149 24t-142 58q-121 82 -121 211q0 149 143 214t267 65q123 0 238 -56t152 -181q5 -17 5 -24q0 -42 -82 -42q-71 0 -80 38q-43 174 -233 174q-81 0 -164 -45.5t-83 -139.5q0 -65 105 -107q66 -27 161 -42q71 -10 144 -24.5
t141 -58.5q118 -77 118 -208q0 -161 -142.5 -234.5t-282.5 -73.5z" />
    <glyph glyph-name="Utilde" unicode="&#x168;" horiz-adv-x="1309" 
d="M1046 1335q0 46 82 46q81 0 81 -46v-906q0 -215 -181.5 -334t-375.5 -119q-192 0 -372 120t-180 333v906q0 46 81 46q82 0 82 -46v-906q0 -154 121 -258t268 -104q149 -1 271.5 103t122.5 259v906zM891 1463q-109 0 -181 44t-148 114q-114 106 -170 106q-61 0 -93 -79
t-37 -128q-5 -43 -80 -43q-83 0 -82 46q2 121 84 207q84 88 211 88q107 0 176 -46.5t130 -103.5q35 -33 86 -73.5t103 -40.5q63 0 91 92.5t32 129.5q5 43 80 43q82 0 82 -45q0 -119 -72 -214q-73 -97 -212 -97z" />
    <glyph glyph-name="utilde" unicode="&#x169;" horiz-adv-x="1120" 
d="M182 1001q81 0 81 -46v-530q0 -131 70.5 -243.5t217.5 -112.5q306 0 306 385v501q0 46 81 46q82 0 82 -46v-933q0 -46 -82 -46q-81 0 -81 46v113q-89 -160 -320 -160q-160 -1 -298.5 112.5t-138.5 337.5v530q0 46 82 46zM814 1060q-109 0 -181 44t-148 114
q-114 106 -170 106q-61 0 -93 -79t-37 -128q-5 -43 -80 -43q-83 0 -82 46q2 121 84 207q84 88 211 88q107 0 176 -46.5t130 -103.5q35 -33 86 -73.5t103 -40.5q63 0 91 92.5t32 129.5q5 43 80 43q82 0 82 -45q0 -119 -72 -214q-73 -97 -212 -97z" />
    <glyph glyph-name="Umacron" unicode="&#x16a;" horiz-adv-x="1309" 
d="M1046 1335q0 46 82 46q81 0 81 -46v-906q0 -215 -181.5 -334t-375.5 -119q-192 0 -372 120t-180 333v906q0 46 81 46q82 0 82 -46v-906q0 -154 121 -258t268 -104q149 -1 271.5 103t122.5 259v906zM380 1534q0 71 48 71h425q56 0 56 -71q0 -70 -56 -70h-417q-56 0 -56 70
z" />
    <glyph glyph-name="umacron" unicode="&#x16b;" horiz-adv-x="1120" 
d="M289 1160q0 71 48 71h425q56 0 56 -71q0 -70 -56 -70h-417q-56 0 -56 70zM182 1001q81 0 81 -46v-530q0 -131 70.5 -243.5t217.5 -112.5q306 0 306 385v501q0 46 81 46q82 0 82 -46v-933q0 -46 -82 -46q-81 0 -81 46v113q-89 -160 -320 -160q-160 -1 -298.5 112.5
t-138.5 337.5v530q0 46 82 46z" />
    <glyph glyph-name="Uring" unicode="&#x16e;" horiz-adv-x="1309" 
d="M1046 1335q0 46 82 46q81 0 81 -46v-906q0 -215 -181.5 -334t-375.5 -119q-192 0 -372 120t-180 333v906q0 46 81 46q82 0 82 -46v-906q0 -154 121 -258t268 -104q149 -1 271.5 103t122.5 259v906zM953 1731q0 -267 -296 -267q-297 0 -297 267q0 268 297 268
q296 0 296 -268zM820 1731q0 193 -163 193q-164 0 -164 -193q0 -192 164 -192q163 0 163 192z" />
    <glyph glyph-name="uring" unicode="&#x16f;" horiz-adv-x="1120" 
d="M182 1001q81 0 81 -46v-530q0 -131 70.5 -243.5t217.5 -112.5q306 0 306 385v501q0 46 81 46q82 0 82 -46v-933q0 -46 -82 -46q-81 0 -81 46v113q-89 -160 -320 -160q-160 -1 -298.5 112.5t-138.5 337.5v530q0 46 82 46zM853 1347q0 -267 -296 -267q-297 0 -297 267
q0 268 297 268q296 0 296 -268zM720 1347q0 193 -163 193q-164 0 -164 -193q0 -192 164 -192q163 0 163 192z" />
    <glyph glyph-name="Wcircumflex" unicode="&#x174;" horiz-adv-x="1877" 
d="M1248 1493q0 -27 -60 -27q-42 0 -53 21l-171 352l-171 -352q-10 -21 -53 -21q-60 0 -60 27q0 6 2 8l226 466q10 22 56 22q45 0 56 -22l226 -466q2 -2 2 -8zM1398 13q-12 -37 -93 -37q-72 0 -82 37l-285 1101l-281 -1100q-9 -38 -89 -38q-74 0 -85 35l-455 1310
q-3 9 -3 16q0 44 86 44q72 0 85 -38l392 -1134l290 1136q9 36 88 36q75 0 85 -39l294 -1133l390 1148q9 24 58 24q59 0 59 -26q0 -7 -3 -15z" />
    <glyph glyph-name="wcircumflex" unicode="&#x175;" horiz-adv-x="1601" 
d="M1096 1076q0 -27 -60 -27q-42 0 -53 21l-171 352l-171 -352q-10 -21 -53 -21q-60 0 -60 27q0 6 2 8l226 466q10 22 56 22q45 0 56 -22l226 -466q2 -2 2 -8zM1109 -24q-74 0 -84 37l-223 751l-231 -750q-13 -38 -88 -38q-71 0 -84 35l-371 934q-3 6 -3 13q0 42 87 42
q68 0 83 -35l309 -779l240 777q11 36 88 36q74 0 84 -36l231 -776l312 789q9 24 58 24q59 0 59 -27q0 -3 -4 -15l-374 -945q-15 -37 -89 -37z" />
    <glyph glyph-name="Ycircumflex" unicode="&#x176;" horiz-adv-x="1256" 
d="M628 -24q-81 0 -81 45v623l-515 676q-7 8 -7 18q0 43 94 43q60 0 82 -29l455 -598l451 606q15 21 61 21q63 0 63 -32q0 -6 -4 -11l-517 -695v-622q0 -45 -82 -45zM936 1491q0 -27 -60 -27q-42 0 -53 21l-171 352l-171 -352q-10 -21 -53 -21q-60 0 -60 27q0 6 2 8l226 466
q10 22 56 22q45 0 56 -22l226 -466q2 -2 2 -8z" />
    <glyph glyph-name="ycircumflex" unicode="&#x177;" horiz-adv-x="1120" 
d="M825 1127q0 -27 -60 -27q-42 0 -53 21l-171 352l-171 -352q-10 -21 -53 -21q-60 0 -60 27q0 6 2 8l226 466q10 22 56 22q45 0 56 -22l226 -466q2 -2 2 -8zM1020 33q0 -231 -151 -332t-332 -101q-304 0 -426 179q-6 9 -6 17q0 44 80 44q59 0 78 -29q83 -121 278 -121
q316 0 316 343v78q-101 -131 -297 -131q-460 0 -460 449v530q0 46 82 46q81 0 81 -46v-530q0 -135 75.5 -246.5t221.5 -111.5q140 0 218.5 114t78.5 246v528q0 46 81 46q82 0 82 -46v-926z" />
    <glyph glyph-name="zacute" unicode="&#x17a;" horiz-adv-x="1009" 
d="M437 1202q-24 0 -44 25q-18 23 -18 41q0 17 21 38l339 316q15 14 35 14q38 0 70 -41q24 -33 24 -61q0 -27 -21 -42l-380 -280q-13 -10 -26 -10zM902 0h-779q-29 0 -58 11q-40 13 -40 37q0 8 8 18l723 819h-626q-81 0 -81 45q0 46 81 46h760q31 0 59 -12q34 -13 34 -35
q0 -8 -8 -18l-723 -820h650q82 0 82 -45q0 -46 -82 -46z" />
    <glyph glyph-name="Zdotaccent" unicode="&#x17b;" horiz-adv-x="1278" 
d="M656 1678q108 0 108 -107q0 -108 -108 -108q-107 0 -107 108q0 107 107 107zM1163 0h-1048q-26 0 -50 8q-40 13 -40 37q0 9 7 17l995 1205h-889q-89 0 -89 45t89 45h1023q30 0 54 -9q35 -13 35 -36q0 -10 -6 -17l-995 -1205h914q90 0 90 -45t-90 -45z" />
    <glyph glyph-name="zdotaccent" unicode="&#x17c;" horiz-adv-x="1009" 
d="M501 1314q108 0 108 -107q0 -108 -108 -108q-107 0 -107 108q0 107 107 107zM902 0h-779q-29 0 -58 11q-40 13 -40 37q0 8 8 18l723 819h-626q-81 0 -81 45q0 46 81 46h760q31 0 59 -12q34 -13 34 -35q0 -8 -8 -18l-723 -820h650q82 0 82 -45q0 -46 -82 -46z" />
    <glyph glyph-name="Zcaron" unicode="&#x17d;" horiz-adv-x="1278" 
d="M923 1949q0 27 -60 27q-42 0 -53 -21l-171 -352l-171 352q-10 21 -53 21q-60 0 -60 -27q0 -6 2 -8l226 -466q10 -22 56 -22q45 0 56 22l226 466q2 2 2 8zM1163 0h-1048q-26 0 -50 8q-40 13 -40 37q0 9 7 17l995 1205h-889q-89 0 -89 45t89 45h1023q30 0 54 -9
q35 -13 35 -36q0 -10 -6 -17l-995 -1205h914q90 0 90 -45t-90 -45z" />
    <glyph glyph-name="zcaron" unicode="&#x17e;" horiz-adv-x="1009" 
d="M773 1567q0 27 -60 27q-42 0 -53 -21l-171 -352l-171 352q-10 21 -53 21q-60 0 -60 -27q0 -6 2 -8l226 -466q10 -22 56 -22q45 0 56 22l226 466q2 2 2 8zM902 0h-779q-29 0 -58 11q-40 13 -40 37q0 8 8 18l723 819h-626q-81 0 -81 45q0 46 81 46h760q31 0 59 -12
q34 -13 34 -35q0 -8 -8 -18l-723 -820h650q82 0 82 -45q0 -46 -82 -46z" />
    <glyph glyph-name="uni01D2" unicode="&#x1d2;" horiz-adv-x="1150" 
d="M852 1545q0 27 -60 27q-42 0 -53 -21l-171 -352l-171 352q-10 21 -53 21q-60 0 -60 -27q0 -6 2 -8l226 -466q10 -22 56 -22q45 0 56 22l226 466q2 2 2 8zM575 1000q231 0 378 -142t147 -370t-147 -370t-378 -142t-378 142t-147 370t147 370t378 142zM575 909
q-175 0 -268.5 -131t-93.5 -290t93.5 -290t268.5 -131t268.5 131t93.5 290t-93.5 290t-268.5 131z" />
    <glyph glyph-name="uni01D3" unicode="&#x1d3;" horiz-adv-x="1309" 
d="M941 1960q0 27 -60 27q-42 0 -53 -21l-171 -352l-171 352q-10 21 -53 21q-60 0 -60 -27q0 -6 2 -8l226 -466q10 -22 56 -22q45 0 56 22l226 466q2 2 2 8zM1046 1335q0 46 82 46q81 0 81 -46v-906q0 -215 -181.5 -334t-375.5 -119q-192 0 -372 120t-180 333v906
q0 46 81 46q82 0 82 -46v-906q0 -154 121 -258t268 -104q149 -1 271.5 103t122.5 259v906z" />
    <glyph glyph-name="uni01D4" unicode="&#x1d4;" horiz-adv-x="1120" 
d="M841 1544q0 27 -60 27q-42 0 -53 -21l-171 -352l-171 352q-10 21 -53 21q-60 0 -60 -27q0 -6 2 -8l226 -466q10 -22 56 -22q45 0 56 22l226 466q2 2 2 8zM182 1001q81 0 81 -46v-530q0 -131 70.5 -243.5t217.5 -112.5q306 0 306 385v501q0 46 81 46q82 0 82 -46v-933
q0 -46 -82 -46q-81 0 -81 46v113q-89 -160 -320 -160q-160 -1 -298.5 112.5t-138.5 337.5v530q0 46 82 46z" />
    <glyph glyph-name="AEacute" unicode="&#x1fc;" horiz-adv-x="2013" 
d="M792 1430q-24 0 -44 25q-18 23 -18 41q0 17 21 38l339 316q15 14 35 14q38 0 70 -41q24 -33 24 -61q0 -27 -21 -42l-380 -280q-13 -10 -26 -10zM83 -24q-58 0 -58 27q0 3 4 15l566 1306q14 33 89 33h1174q81 0 81 -46q0 -45 -81 -45h-824v-542h705q82 0 82 -45
q0 -46 -82 -46h-705v-542h824q81 0 81 -47q0 -45 -81 -45h-906q-81 0 -81 45v397h-540l-188 -443q-10 -22 -60 -22zM871 532v734h-184l-318 -734h502z" />
    <glyph glyph-name="aeacute" unicode="&#x1fd;" horiz-adv-x="1882" 
d="M943 827q144 173 390 173q207 0 353 -117t146 -344q0 -54 -78 -54h-773q0 -160 89.5 -289t256.5 -129q121 0 218 68q102 72 113 165q4 43 77 43q79 0 79 -45q0 -32 -22 -78q-37 -83 -127 -144q-144 -100 -339 -100q-267 0 -407 194q-51 -55 -119 -101q-142 -93 -328 -93
q-136 0 -240 52q-157 77 -157 234q0 152 121 219q104 60 290 56l166 -4q115 -3 173 33v101q0 242 -281 242q-105 0 -186 -53q-89 -59 -91 -144q0 -46 -82 -46q-81 0 -81 46q2 117 130 203q127 85 310 85q108 0 223 -38.5t176 -134.5zM1674 577q-23 332 -341 332
q-282 0 -343 -332h684zM472 67q118 0 235.5 71t117.5 204v114q-66 -14 -163 -14q-48 0 -96.5 2.5t-95.5 2.5q-115 0 -169 -38q-65 -46 -65 -140q0 -104 71 -155q65 -47 165 -47zM942 1182q-24 0 -44 25q-18 23 -18 41q0 17 21 38l339 316q15 14 35 14q38 0 70 -41
q24 -33 24 -61q0 -27 -21 -42l-380 -280q-13 -10 -26 -10z" />
    <glyph glyph-name="anuswaraabove" unicode="&#xd00;" horiz-adv-x="0" 
d="M174 1086q-128 0 -234 78t-106 234q0 157 106 235t234 78t235.5 -78t107.5 -235q0 -156 -107.5 -234t-235.5 -78zM174 1176q183 0 183 222t-183 222q-180 0 -180 -222t180 -222z" />
    <glyph glyph-name="mlchandrabindu" unicode="&#xd01;" horiz-adv-x="131" 
d="M-112.905 1396.63q61.9766 0 61.9766 -66.2539q0 -66.874 -61.9766 -66.874q-61.4023 0 -61.4023 66.874q0 66.2539 61.4023 66.2539zM22 1346q0 40 80 40t80 -40q0 -101 -73 -174q-87 -87 -228 -87t-228 87q-73 73 -73 174q0 40 80 40t80 -40q0 -181 141 -181t141 181z
" />
    <glyph glyph-name="anuswara" unicode="&#xd02;" horiz-adv-x="823" 
d="M400 -24q-128 0 -234 78t-106 234q0 157 106 235t234 78t235.5 -78t107.5 -235q0 -156 -107.5 -234t-235.5 -78zM400 66q183 0 183 222t-183 222q-180 0 -180 -222t180 -222z" />
    <glyph glyph-name="visarga" unicode="&#xd03;" horiz-adv-x="581" 
d="M281 495q-221 0 -221 199t221 199q220 0 220 -199t-220 -199zM281 579q82 0 82 115t-82 115q-83 0 -83 -115t83 -115zM281 -24q-221 0 -221 199t221 199q220 0 220 -199t-220 -199zM281 60q82 0 82 115t-82 115q-83 0 -83 -115t83 -115z" />
    <glyph glyph-name="ml_a" unicode="&#xd05;" horiz-adv-x="2456" 
d="M2004 -24q-199 0 -297 149q-65 98 -65 230q0 158 90 277q115 152 325 178q-114 100 -269 100q-290 0 -290 -301v-587q0 -46 -81 -46t-81 46v587q0 318 -272 303l-35 -2q123 -79 123 -217q0 -139 -122 -213q148 -63 148 -216q0 -288 -317 -288q-222 0 -329 187
q-74 130 -74 304q0 299 223 440q-156 0 -250 -65q-189 -128 -189 -387q0 -108 42.5 -225.5t134.5 -178.5q19 -13 19 -30q0 -21 -28 -34q-24 -11 -53 -11q-39 0 -62 16q-215 143 -215 456q0 241 154 394q158 158 410 158q80 0 205 -25q92 25 207 25q248 0 369 -125
q129 125 363 125q307 0 472 -211q116 -149 116 -360q0 -170 -73 -290q-98 -163 -299 -163zM862 67q154 0 154 196q0 98 -61 130t-105 32h-51q-79 0 -79 45q0 39 71 45q46 3 55 4q143 23 143 174q0 132 -132 182q-237 -103 -237 -408q0 -129 47 -238q70 -162 195 -162z
M2003 67q86 0 146 101q64 105 64 263q0 172 -82 292q-154 0 -249 -126q-77 -102 -77 -242q0 -117 54 -198q59 -90 144 -90z" />
    <glyph glyph-name="ml_aa" unicode="&#xd06;" horiz-adv-x="2782" 
d="M2004 -23q-199 0 -297 149q-65 97 -65 229q0 158 90 277q115 152 325 178q-114 100 -269 100q-290 0 -290 -301v-586q0 -46 -81 -46t-81 46v586q0 318 -272 303l-35 -2q123 -79 123 -217q0 -139 -122 -213q148 -63 148 -216q0 -287 -317 -287q-222 0 -329 187
q-74 128 -74 303q0 299 223 440q-155 0 -250 -65q-189 -128 -189 -387q0 -107 42.5 -224.5t134.5 -178.5q19 -13 19 -30q0 -21 -28 -34q-24 -11 -53 -11q-39 0 -62 16q-215 141 -215 455q0 241 154 394q158 158 410 158q80 0 205 -25q92 25 207 25q248 0 369 -125
q129 125 363 125q296 0 462 -198q225 -46 338.5 -216t113.5 -387q0 -268 -151 -439.5t-432 -171.5q-214 0 -357 114q-15 12 -15 25q0 24 35 38q21 8 47 8q41 0 66 -19q94 -75 235 -75q209 0 309 165t100 349q0 316 -203 463q40 -105 40 -227q0 -169 -73 -289
q-98 -163 -299 -163zM862 68q154 0 154 196q0 97 -61 129t-105 32h-51q-79 0 -79 46q0 38 71 44q14 2 27.5 2t27.5 2q143 23 143 174q0 132 -132 182q-237 -103 -237 -408q0 -130 47 -237q70 -162 195 -162zM2003 68q85 -2 146 101q64 104 64 262q0 172 -82 292
q-154 0 -249 -126q-77 -102 -77 -242q0 -116 54 -197q59 -90 144 -90z" />
    <glyph glyph-name="ml_i" unicode="&#xd07;" horiz-adv-x="1808" 
d="M1571 -412h-1193q-109 0 -203 52t-94 179q0 119 95.5 174.5t201.5 55.5h719q115 0 219.5 29.5t174.5 130.5q75 108 75 286q2 205 -96 322q-77 92 -202 92q-100 0 -163 -74q-73 -87 -73 -231v-371q0 -45 -82 -45q-81 0 -81 45v371q0 136 -64 213q-77 93 -241 93
q-128 0 -208 -58q-100 -73 -107 -174q69 61 171 61q127 0 208 -67q93 -77 93 -209q-2 -122 -95 -200q-92 -75 -221 -75q-199 0 -281 161q-44 85 -44 202q0 219 137 337q129 112 355 112q258 0 375 -140q107 140 321 140q227 0 349 -145q111 -132 111 -360q0 -196 -86 -319
q-89 -128 -243 -173t-302 -45h-719q-133 0 -133 -116t133 -116h1193q82 0 82 -69t-82 -69zM408 283q148 0 148 179q0 181 -148 181t-148 -180t148 -180z" />
    <glyph glyph-name="ml_ii" unicode="&#xd08;" horiz-adv-x="3095" 
d="M2356 -23q-163 0 -306 73q-35 18 -35 40q0 19 25 31q27 13 57 13q34 0 57 -13q99 -53 202 -53q194 0 323 108q174 145 174 416q0 101 -43 209.5t-166 108.5q-142 0 -142 -183v-215q0 -46 -81 -46q-82 0 -82 46v210q0 188 -153 188q-174 0 -174 -223q0 -79 32 -140
q16 -29 16 -35q0 -23 -36 -36q-26 -10 -50 -10q-56 0 -81 45q-41 73 -41 173q0 317 334 317q164 0 235 -100q64 100 223 100q371 0 371 -409q0 -299 -201 -466q-179 -149 -458 -149zM1571 -412h-1193q-109 0 -203 52t-94 179q0 119 95.5 174.5t201.5 55.5h719
q115 0 219.5 29.5t174.5 130.5q75 108 75 286q2 205 -96 322q-77 92 -202 92q-100 0 -163 -74q-73 -87 -73 -231v-371q0 -45 -82 -45q-81 0 -81 45v371q0 136 -64 213q-77 93 -241 93q-128 0 -208 -58q-100 -73 -107 -174q69 61 171 61q127 0 208 -67q93 -77 93 -209
q-2 -122 -95 -200q-92 -75 -221 -75q-199 0 -281 161q-44 85 -44 202q0 219 137 337q129 112 355 112q258 0 375 -140q107 140 321 140q227 0 349 -145q111 -132 111 -360q0 -196 -86 -319q-89 -128 -243 -173t-302 -45h-719q-133 0 -133 -116t133 -116h1193q82 0 82 -69
t-82 -69zM408 283q148 0 148 179q0 181 -148 181t-148 -180t148 -180z" />
    <glyph glyph-name="ml_u" unicode="&#xd09;" horiz-adv-x="1278" 
d="M1068 -412h-691q-109 0 -203 52t-94 179q0 119 95.5 175t201.5 56h269q153 0 247 78q142 117 142 354q0 170 -85 279q-114 148 -338 148q-153 0 -252 -74q-86 -63 -113 -170q69 73 182 73q127 0 208 -67q92 -76 92 -202q0 -114 -78 -192q-90 -90 -242 -90q-137 0 -227 87
q-101 97 -101 253q0 232 166 358q152 115 371 115q126 0 252.5 -39.5t210.5 -140.5q117 -141 117 -338q0 -297 -211 -436q-130 -87 -341 -87h-269q-133 0 -133 -117q0 -116 133 -116h691q82 0 82 -69t-82 -69zM417 282q148 0 148 179q0 181 -148 181t-148 -180t148 -180z
" />
    <glyph glyph-name="ml_uu" unicode="&#xd0a;" horiz-adv-x="2545" 
d="M1806 -23q-163 0 -306 73q-35 18 -35 40q0 19 25 31q27 13 57 13q34 0 57 -13q99 -53 202 -53q194 0 323 108q174 145 174 416q0 101 -43 209.5t-166 108.5q-142 0 -142 -183v-215q0 -46 -81 -46q-82 0 -82 46v210q0 188 -153 188q-174 0 -174 -223q0 -79 32 -140
q16 -29 16 -35q0 -23 -36 -36q-26 -10 -50 -10q-56 0 -81 45q-41 73 -41 173q0 317 334 317q164 0 235 -100q64 100 223 100q371 0 371 -409q0 -299 -201 -466q-179 -149 -458 -149zM1068 -412h-691q-109 0 -203 52t-94 179q0 119 95.5 175t201.5 56h269q153 0 247 78
q142 117 142 354q0 170 -85 279q-114 148 -338 148q-153 0 -252 -74q-86 -63 -113 -170q69 73 182 73q127 0 208 -67q92 -76 92 -202q0 -114 -78 -192q-90 -90 -242 -90q-137 0 -227 87q-101 97 -101 253q0 232 166 358q152 115 371 115q126 0 252.5 -39.5t210.5 -140.5
q117 -141 117 -338q0 -297 -211 -436q-130 -87 -341 -87h-269q-133 0 -133 -117q0 -116 133 -116h691q82 0 82 -69t-82 -69zM417 282q148 0 148 179q0 181 -148 181t-148 -180t148 -180z" />
    <glyph glyph-name="ml_r" unicode="&#xd0b;" horiz-adv-x="1517" 
d="M762 -412q-158 0 -386 76.5t-228 284.5q0 195 286 279q-85 24 -150 64q-157 98 -194 267q-10 44 -10 96q0 345 308 345q142 0 235 -91q78 -78 78 -184q0 -132 -93 -209q-82 -68 -204 -68q-91 0 -155 46q71 -142 217.5 -178t287.5 -36q143 0 293 35t221 179
q-64 -46 -155 -46q-122 0 -204 68q-93 77 -93 209q0 106 78 184q92 91 235 91q308 0 308 -345q0 -52 -10 -96q-37 -169 -194 -267q-65 -40 -150 -64q286 -84 286 -279q0 -204 -224 -282.5t-383 -78.5zM389 544q150 0 150 180q0 181 -150 181t-150 -180q0 -181 150 -181z
M1128 544q150 0 150 180q0 181 -150 181t-150 -180q0 -181 150 -181zM762 -321q216 0 330 84t114 182q1 148 -169.5 196.5t-282.5 48.5t-278 -48t-165 -197q0 -98 117 -182t334 -84z" />
    <glyph glyph-name="ml_l" unicode="&#xd0c;" horiz-adv-x="2042" 
d="M1589 -24q-197 0 -296 149q-65 98 -65 230q0 157 91 277q115 152 324 178q-114 100 -269 100q-290 0 -290 -302v-586q0 -46 -81 -46t-81 46v586q0 301 -317 301q-210 0 -314 -209q-48 -98 -50 -210q82 119 230 119t240 -97q78 -84 78 -209q0 -162 -105 -249
q-93 -77 -229 -77q-124 0 -216 75q-159 130 -159 408q0 153 60 273q135 267 465 267q101 0 215 -32t181 -115q136 147 373 147q307 0 472 -211q116 -149 116 -364q0 -166 -73 -286q-98 -163 -300 -163zM1589 67q86 0 146 101q65 107 65 257q0 176 -83 298q-154 0 -249 -126
q-77 -102 -77 -242q0 -117 54 -198q59 -90 144 -90zM462 68q172 0 172 222t-174 222t-174 -222t176 -222z" />
    <glyph glyph-name="ml_e" unicode="&#xd0e;" horiz-adv-x="2116" 
d="M1782 -400q-21 0 -44 7q-41 12 -41 39q0 11 12 23q95 91 129.5 264.5t34.5 306.5q0 180 -73 424.5t-309 244.5t-312 -249.5t-76 -432.5q0 -73 7 -135h300v632q0 46 82 46q81 0 81 -46v-733q0 -61 -3 -126.5t-19 -117.5q-43 -147 -213 -147q-181 0 -265 122t-113 279h-374
q-81 0 -81 45q0 19 23 32q91 52 91 186q0 208 -187 208q-189 0 -189 -209q0 -145 106 -194q31 -13 31 -36q0 -16 -18 -28q-24 -17 -62 -17q-30 0 -58 13q-162 76 -162 262q0 148 110 224t242 76q131 0 240.5 -76t109.5 -223q0 -97 -52 -172h217q-6 71 -6 143
q0 268 114 516.5t436 248.5t433.5 -246t111.5 -513q0 -148 -39 -331t-148 -287q-24 -23 -67 -23zM1325 -308q65 0 76 100t10 143l-1 66h-286q14 -76 62 -192.5t139 -116.5z" />
    <glyph glyph-name="ml_ee" unicode="&#xd0f;" horiz-adv-x="2164" 
d="M1338 -400q-179 0 -264 122t-114 278h-373q-82 0 -82 46q0 19 23 32q91 53 91 186q0 208 -187 208q-189 0 -189 -208q0 -148 106 -195q31 -13 31 -36q0 -14 -18 -28q-24 -17 -62 -17q-30 0 -55 11q-165 76 -165 265q0 148 110.5 223.5t241.5 75.5t240.5 -76t109.5 -223
q0 -101 -52 -172h217q-9 85 -8 143q5 290 130.5 527.5t465.5 237.5q221 0 382.5 -126.5t161.5 -363.5q2 -233 -136 -328q141 -77 141 -260q0 -319 -310 -321q-63 -1 -126 21q-38 13 -38 39q0 21 30 34q23 11 51 11q23 0 40.5 -6.5t36.5 -6.5q84 0 118.5 80.5t34.5 148.5
q0 205 -148 205q-10 0 -21 -0.5t-22 -0.5q-80 0 -80 47q2 44 80 44q21 0 40 3q87 15 116.5 116.5t29.5 173.5q0 399 -381 399q-260 0 -344.5 -235.5t-88.5 -439.5q-1 -51 7 -142h301v633q0 46 82 46q81 0 81 -46v-732q0 -171 -23 -247q-43 -146 -212 -146zM1330 -309
q59 0 69.5 110.5t10.5 156.5v42h-287q14 -70 65 -189.5t142 -119.5z" />
    <glyph glyph-name="ml_ai" unicode="&#xd10;" horiz-adv-x="3346" 
d="M918 -24q-31 0 -55 14t-24 33t24 32q213 114 213 410q0 445 -430 445q-181 0 -292 -122t-113 -298q84 119 231 119t239 -98q79 -82 79 -212q0 -157 -106 -245q-93 -78 -228 -78q-126 0 -217 75q-159 133 -159 409q0 250 162.5 395t403.5 145q244 0 416 -134.5t172 -400.5
q0 -328 -247 -470q-33 -19 -69 -19zM461 67q174 0 174 223q0 222 -174 222q-175 0 -175 -222q0 -223 175 -223zM3012 -400q-21 0 -44 7q-41 12 -41 39q0 11 12 23q95 91 129.5 264.5t34.5 306.5q0 180 -73 424.5t-309 244.5t-312 -249.5t-76 -432.5q0 -73 7 -135h300v632
q0 46 82 46q81 0 81 -46v-733q0 -61 -3 -126.5t-19 -117.5q-43 -147 -213 -147q-181 0 -265 122t-113 279h-374q-81 0 -81 45q0 19 23 32q91 52 91 186q0 208 -187 208q-189 0 -189 -209q0 -145 106 -194q31 -13 31 -36q0 -16 -18 -28q-24 -17 -62 -17q-30 0 -58 13
q-162 76 -162 262q0 148 110 224t242 76q131 0 240.5 -76t109.5 -223q0 -97 -52 -172h217q-6 71 -6 143q0 268 114 516.5t436 248.5t433.5 -246t111.5 -513q0 -148 -39 -331t-148 -287q-24 -23 -67 -23zM2555 -308q65 0 76 100t10 143l-1 66h-286q14 -76 62 -192.5
t139 -116.5z" />
    <glyph glyph-name="ml_o" unicode="&#xd12;" horiz-adv-x="1361" 
d="M1216 83q-88 -107 -257 -107q-65 0 -130 24q-38 13 -38 39q0 23 34 36q23 8 47 8q28 0 48 -7.5t47 -7.5q72 0 119 69q33 50 33 115q2 86 -62 138q-41 33 -138 33q-72 0 -72 46q0 39 72 44q90 5 125 40q45 44 45 114q0 104 -91 169q-103 73 -278 73q-220 0 -347 -120
q-103 -98 -125 -269q81 90 207 90q148 0 240 -98q79 -85 79 -213q0 -157 -106 -245q-93 -78 -227 -78q-212 0 -308 190q-53 105 -53 262q0 302 221 452q176 120 429 120q190 0 328 -65q193 -90 193 -270q0 -122 -110 -191q140 -73 140 -219q0 -92 -65 -172zM444 68
q174 0 174 225q0 220 -174 220q-175 0 -175 -223q0 -222 175 -222z" />
    <glyph glyph-name="ml_oo" unicode="&#xd13;" horiz-adv-x="2194" 
d="M1710 -25q-149 0 -252 100q-94 90 -94 203q0 45 79 45q80 0 83 -44q6 -96 73 -158q56 -55 111 -55q95 -2 164 104q77 119 77 317q0 199 -83 320q-67 100 -158 100q-60 0 -114 -51q-65 -63 -69 -161q-1 -44 -84 -44q-78 0 -78 45q0 120 90 205q102 98 255 98
q200 0 310 -159q94 -136 94 -353q0 -212 -87 -348q-106 -164 -317 -164zM1216 83q-88 -107 -257 -107q-65 0 -130 24q-38 13 -38 39q0 23 34 36q23 8 47 8q28 0 48 -7.5t47 -7.5q72 0 119 69q33 50 33 115q2 86 -62 138q-41 33 -138 33q-72 0 -72 46q0 39 72 44q90 5 125 40
q45 44 45 114q0 104 -91 169q-103 73 -278 73q-220 0 -347 -120q-103 -98 -125 -269q81 90 207 90q148 0 240 -98q79 -85 79 -213q0 -157 -106 -245q-93 -78 -227 -78q-212 0 -308 190q-53 105 -53 262q0 302 221 452q176 120 429 120q190 0 328 -65q193 -90 193 -270
q0 -122 -110 -191q140 -73 140 -219q0 -92 -65 -172zM444 68q174 0 174 225q0 220 -174 220q-175 0 -175 -223q0 -222 175 -222z" />
    <glyph glyph-name="ml_au" unicode="&#xd14;" horiz-adv-x="2578" 
d="M1839 -23q-163 0 -306 73q-35 18 -35 40q0 19 25 31q27 13 57 13q34 0 57 -13q99 -53 202 -53q194 0 323 108q174 145 174 416q0 101 -43 209.5t-166 108.5q-142 0 -142 -183v-215q0 -46 -81 -46q-82 0 -82 46v210q0 188 -153 188q-174 0 -174 -223q0 -79 32 -140
q16 -29 16 -35q0 -23 -36 -36q-26 -10 -50 -10q-56 0 -81 45q-41 73 -41 173q0 317 334 317q164 0 235 -100q64 100 223 100q371 0 371 -409q0 -299 -201 -466q-179 -149 -458 -149zM1216 83q-88 -107 -257 -107q-65 0 -130 24q-38 13 -38 39q0 23 34 36q23 8 47 8
q28 0 48 -7.5t47 -7.5q72 0 119 69q33 50 33 115q2 86 -62 138q-41 33 -138 33q-72 0 -72 46q0 39 72 44q90 5 125 40q45 44 45 114q0 104 -91 169q-103 73 -278 73q-220 0 -347 -120q-103 -98 -125 -269q81 90 207 90q148 0 240 -98q79 -85 79 -213q0 -157 -106 -245
q-93 -78 -227 -78q-212 0 -308 190q-53 105 -53 262q0 302 221 452q176 120 429 120q190 0 328 -65q193 -90 193 -270q0 -122 -110 -191q140 -73 140 -219q0 -92 -65 -172zM444 68q174 0 174 225q0 220 -174 220q-175 0 -175 -223q0 -222 175 -222z" />
    <glyph glyph-name="k1" unicode="&#xd15;" 
d="M1490 -24q-57 0 -107 14q-54 16 -54 46q0 20 30 33q24 11 45 11q22 0 41.5 -6t41.5 -6q71 0 118 65q40 54 40 119q0 78 -43 132q-61 76 -174 76h-72q-5 -196 -70 -308q-100 -176 -342 -176q-200 0 -302 118q-76 -118 -241 -118q-150 0 -243 91q-78 77 -78 187
q0 115 80 195q102 102 289 102h83q9 169 65 269q102 180 347 180t345 -179q58 -104 66 -270h73q168 0 272 -78q107 -79 107 -219q0 -110 -80 -187q-94 -89 -237 -91zM1192 551q-6 140 -61.5 249t-186.5 109q-132 0 -187 -109t-63 -249h498zM400 67q53 0 95 46q54 58 54 155
q0 24 -5 54q-11 63 -13 137h-82q-92 0 -147 -55q-59 -59 -59 -152q0 -84 57 -140q47 -45 100 -45zM944 67q140 0 193 121t57 271h-500q3 -153 58 -272.5t192 -119.5z" />
    <glyph glyph-name="k2" unicode="&#xd16;" horiz-adv-x="1700" 
d="M684 54q-93 -78 -229 -78q-125 0 -216 75q-159 132 -159 409q0 251 167.5 395.5t408.5 144.5q233 0 405.5 -135.5t172.5 -383.5q0 -239 -152 -390h355v862q0 46 82 46q81 0 81 -46v-908q0 -45 -89 -45h-592q-79 0 -80 46q0 19 24 32q213 115 213 403q0 429 -432 429
q-181 0 -291 -122t-112 -298q82 119 230 119t240 -98q78 -84 78 -208q0 -161 -105 -249zM460 67q174 0 174 223q0 222 -174 222t-174 -225q0 -220 174 -220z" />
    <glyph glyph-name="k3" unicode="&#xd17;" horiz-adv-x="1643" 
d="M1170 -24q-36 0 -61 19q-16 12 -16 26q0 23 34 37q274 111 274 439q0 159 -87 285q-89 127 -197 127q-157 0 -187 -150.5t-30 -264.5q0 -205 -57.5 -361.5t-311.5 -156.5q-228 0 -354 183q-97 139 -97 333q0 361 294 496q26 12 58 12q36 0 60 -17q19 -13 19 -28
q0 -22 -31 -36q-118 -52 -178 -178t-60 -249q0 -176 86 -300q85 -125 202 -125q158 0 183 156.5t25 270.5q0 199 65 352.5t306 153.5q228 0 356 -185q98 -142 98 -318q0 -369 -333 -509q-27 -12 -60 -12z" />
    <glyph glyph-name="k4" unicode="&#xd18;" horiz-adv-x="2335" 
d="M2154 0h-1094q-82 0 -82 50v291h-391q-82 0 -82 46q0 19 23 32q91 53 91 186q0 207 -189 207q-187 0 -187 -207q0 -147 107 -195q30 -13 30 -36q0 -14 -18 -28q-24 -17 -62 -17q-32 0 -56 12q-164 77 -164 264q0 147 109 222.5t243 75.5q131 0 240.5 -75.5t109.5 -222.5
q0 -98 -52 -173h248v217q0 176 139.5 263.5t296.5 87.5q158 0 287.5 -87t129.5 -264v-262q0 -46 -81 -46h-609v-250h931v863q0 46 82 46q81 0 81 -46v-908q0 -46 -81 -46zM1668 432v217q0 260 -255 260q-272 0 -272 -260v-217h527z" />
    <glyph glyph-name="ng" unicode="&#xd19;" horiz-adv-x="1918" 
d="M1481 -24q-117 0 -223 44q-33 14 -33 37q0 14 16 26q25 19 66 19q42 0 81.5 -17.5t95.5 -17.5q191 0 191 172q0 115 -109 161q-54 22 -144 22l-82 -1q-79 0 -79 46q0 45 83 45l78 -1q87 -2 147 29q86 44 85 153q-1 215 -259 215q-310 0 -310 -303v-584q0 -45 -81 -45
t-81 45v587q0 134 -79 213q-88 88 -239 88q-211 0 -314 -210q-48 -97 -50 -209q82 119 230 119t240 -98q78 -83 78 -208q0 -161 -105 -249q-93 -78 -224 -78q-130 0 -221 75q-159 132 -159 409q0 153 60 273q135 267 465 267q105 0 215 -27t181 -113q68 83 180 111t214 28
q146 0 283.5 -69t137.5 -242q0 -145 -133 -219q155 -65 155 -224q0 -144 -117 -206.5t-240 -62.5zM460 67q174 0 174 226q0 219 -174 219t-174 -222q0 -223 174 -223z" />
    <glyph glyph-name="ch1" unicode="&#xd1a;" horiz-adv-x="1597" 
d="M1415 0h-1314q-81 0 -81 46q0 45 81 45h403q277 0 277 294q0 211 -190 209q-184 0 -186 -171q0 -77 65 -131q14 -11 14 -25q0 -25 -36 -38q-22 -8 -46 -8q-71 0 -116 70t-44 132q2 131 117.5 196.5t229.5 65.5q140 0 247 -75t107 -227q0 -181 -148 -292h539v863
q0 46 82 46q81 0 81 -46v-908q0 -46 -82 -46z" />
    <glyph glyph-name="ch2" unicode="&#xd1b;" horiz-adv-x="2332" 
d="M1882 -24q-201 0 -300 149q-65 98 -65 230q0 156 91 278q114 151 324 177q-110 99 -266 99q-247 0 -367 -198q-74 -123 -74 -265q0 -242 193 -371q19 -13 19 -29q-1 -46 -82 -46h-1253q-82 0 -82 46t82 46h402q277 0 277 292q0 209 -188 209t-188 -173q0 -75 65 -129
q14 -11 14 -24q0 -26 -37 -39q-22 -8 -44 -8q-70 0 -115.5 69t-45.5 131q-1 134 116.5 199t232.5 65q139 0 245.5 -75t106.5 -226q0 -180 -148 -291h409q-140 148 -142 352q0 158 83 296q157 260 521 260q377 0 527 -301q59 -117 59 -268q0 -172 -73 -292
q-98 -163 -297 -163zM1878 68q86 0 147 101q64 106 64 262q0 172 -82 293q-154 0 -250 -126q-77 -104 -77 -243q0 -117 54 -198q61 -89 144 -89z" />
    <glyph glyph-name="ch3" unicode="&#xd1c;" horiz-adv-x="1668" 
d="M1588 205q0 -118 -95 -173.5t-198 -55.5q-253 0 -271 213q-109 -87 -246 -146q-156 -67 -329 -67q-115 0 -240.5 42t-125.5 188q0 139 165 181q87 23 243 23q46 0 94.5 -1.5t99.5 -3.5q136 -4 209 -4q216 0 320 31q101 30 153 94q59 72 59 159q2 103 -66 165
q-63 58 -167 58q-221 0 -221 -214v-189q0 -46 -82 -46q-80 0 -80 46v189q0 128 -113 182q-68 33 -194 33q-174 0 -234 -72q38 15 79 15q231 0 231 -197q0 -99 -78 -147.5t-164 -48.5q-123 0 -191 62q-66 58 -66 163q0 144 107 225q120 91 342 91q92 0 193.5 -18.5
t168.5 -88.5q105 106 302 106q193 0 305 -102q90 -81 90 -208q0 -113 -74 -201q-35 -43 -86 -75q160 -62 160 -208zM339 550q101 0 101 105t-103 105t-103 -105t105 -105zM1295 68q130 0 130 141q0 134 -124 134q-130 0 -130 -136q0 -139 124 -139zM470 65q128 0 249 59
q184 87 293 187q-29 -1 -91 -1q-111 0 -236 5q-134 4 -186 4q-138 0 -190 -19q-69 -26 -69 -107q0 -85 83 -106.5t147 -21.5z" />
    <glyph glyph-name="ch4" unicode="&#xd1d;" horiz-adv-x="2925" 
d="M2363 -24q-205 0 -310 116q-100 -116 -292 -116q-267 0 -346 225q-25 71 -30 144.5t-5 146.5q0 164 -28 241q-66 176 -272 176q-54 0 -101 -12q241 -170 241 -493q0 -144 -58 -251q-96 -175 -308 -175q-214 0 -310 175q-58 106 -58 251q0 323 241 493q-46 12 -100 12
q-213 0 -322 -210q-62 -119 -62 -272q0 -103 39.5 -212t136.5 -160q26 -14 26 -33t-21 -31q-25 -15 -56 -15q-40 0 -82 25q-206 126 -206 426q0 165 69 297q144 276 478 276q121 0 227 -38q105 38 226 38q309 0 417 -215q45 -90 45 -293q0 -64 5.5 -138t27.5 -135
q56 -152 186 -152q121 0 163.5 85.5t42.5 184.5v617q0 46 82 46q81 0 81 -46v-616q0 -271 233 -271q199 0 284 214q35 90 35 205q0 119 -52 250.5t-171 181.5q-32 13 -32 37q0 15 16 27q24 18 63 18q31 0 56 -11q147 -65 215 -206.5t68 -294.5q0 -144 -51 -253
q-121 -259 -431 -259zM854 68q92 0 153 111q51 96 51 225q0 292 -204 435q-206 -143 -206 -435q0 -131 51 -224q62 -112 155 -112z" />
    <glyph glyph-name="nj" unicode="&#xd1e;" horiz-adv-x="2461" 
d="M2093 -24q-32 0 -55 15q-22 13 -22 31q0 19 26 33q98 51 137.5 160t39.5 212q2 148 -63 272q-110 210 -321 210q-53 0 -100 -12q241 -170 241 -493q0 -144 -59 -251q-97 -176 -309 -176q-211 -2 -309 176q-57 105 -57 251q0 325 241 493q-48 12 -102 12q-296 0 -296 -303
v-584q0 -45 -81 -45t-81 45v584q0 303 -315 303q-214 0 -317 -210q-48 -97 -50 -209q82 119 232 119q146 0 238 -98q78 -83 78 -210q0 -159 -105 -247q-92 -78 -224 -78q-130 0 -221 75q-159 131 -159 409q0 153 60 273q134 267 468 267q107 0 215 -31t178 -118
q123 149 380 149q121 0 227 -38q105 38 227 38q333 0 477 -276q69 -132 69 -297q0 -302 -208 -427q-41 -24 -80 -24zM1608 68q92 0 154 112q51 93 51 224q0 290 -205 435q-204 -143 -204 -435q0 -132 51 -225q59 -111 153 -111zM468 67q90 -1 128 74.5t38 151.5
q0 219 -174 219t-174 -222t182 -223z" />
    <glyph glyph-name="t1" unicode="&#xd1f;" horiz-adv-x="1151" 
d="M935 58q-133 -82 -351 -82q-124 0 -265 41.5t-229 131.5q-10 10 -10 22q0 27 42 40q14 5 39 5q48 0 71 -24q122 -125 352 -125q143 0 239 65q87 60 84 151q-4 127 -204 127q-46 0 -93 -2t-94 -2q-159 -2 -252 34q-158 62 -158 222q0 158 141 247q144 91 347 91
q303 0 466 -168q10 -10 10 -22q0 -27 -42 -40q-18 -6 -40 -6q-48 0 -71 24q-117 121 -323 121q-163 0 -261 -89q-63 -56 -63 -137q0 -83 67.5 -100.5t135.5 -17.5q44 0 88.5 2t88.5 2q166 0 251 -29q170 -57 170 -240q0 -158 -136 -242z" />
    <glyph glyph-name="t2" unicode="&#xd20;" horiz-adv-x="1261" 
d="M634 -24q-216 0 -385 131t-169 378q0 248 167.5 381.5t384.5 133.5t383 -134.5t166 -380.5t-165 -377.5t-382 -131.5zM634 67q146 0 265 114t119 304q0 424 -386 424q-389 0 -389 -424q0 -209 123 -313.5t268 -104.5z" />
    <glyph glyph-name="t3" unicode="&#xd21;" horiz-adv-x="2259" 
d="M1840 1000q31 0 56 -11q149 -65 216 -208t67 -296q0 -141 -51 -250q-121 -259 -431 -259q-203 0 -310 116q-100 -116 -290 -116q-267 0 -348 225q-25 72 -30 143.5t-5 147.5q0 107 -27 262t-174 155t-209 -144t-62 -263q0 -127 59 -260.5t189 -181.5q36 -13 36 -38
q0 -14 -14 -25q-25 -21 -62 -21q-30 0 -61 13q-309 123 -309 510q0 201 107 351t326 150q244 0 304 -154.5t60 -353.5q0 -68 4.5 -138t27.5 -135q54 -152 188 -152q119 0 162 86.5t43 184.5v616q0 46 81 46q82 0 82 -46v-616q0 -271 232 -271q202 0 284 214q35 88 35 204
q0 120 -51.5 251.5t-171.5 181.5q-31 13 -31 37q0 15 16 27q24 18 62 18z" />
    <glyph glyph-name="t4" unicode="&#xd22;" horiz-adv-x="2387" 
d="M1781 -24q-254 0 -381 132q-101 -132 -303 -132q-267 0 -348 225q-25 72 -30 143.5t-5 147.5q0 107 -27 262t-174 155t-209 -144t-62 -263q0 -127 59 -260.5t189 -181.5q36 -13 36 -38q0 -14 -14 -25q-25 -21 -62 -21q-30 0 -61 13q-309 123 -309 510q0 201 107 351
t326 150q244 0 304 -154.5t60 -353.5q0 -68 4.5 -138t27.5 -135q54 -152 188 -152q205 0 205 276v611q0 46 81 46q82 0 82 -46v-587q0 -300 316 -300q212 0 315 210q48 97 50 209q-83 -118 -234 -118q-145 0 -236 97q-79 87 -79 213q0 158 106 245q92 77 233 77
q121 0 212 -75q159 -132 159 -408q0 -154 -61 -274q-133 -267 -465 -267zM1926 464q175 0 175 223q0 222 -175 222q-173 0 -174 -222q0 -223 174 -223z" />
    <glyph glyph-name="nh" unicode="&#xd23;" horiz-adv-x="2467" 
d="M2048 -24q-36 0 -62 19q-17 11 -17 27q0 23 32 36q120 51 171.5 181.5t51.5 250.5q0 115 -35 205q-85 214 -284 214q-232 0 -232 -274v-613q0 -45 -82 -45q-81 0 -81 45v613q0 98 -49.5 185.5t-162.5 87.5q-111 0 -161.5 -86t-50.5 -188v-612q0 -46 -82 -46q-80 0 -80 46
v588q0 299 -319 299q-212 0 -314 -210q-48 -100 -50 -209q85 119 231 119q147 0 239 -98q78 -83 78 -208q0 -161 -105 -249q-91 -77 -228 -77q-125 0 -217 75q-159 132 -159 408q0 151 61 273q134 267 467 267q258 0 388 -134q114 134 302 134q181 0 292 -132
q114 132 315 132q309 0 431 -259q51 -109 51 -253q0 -151 -67.5 -292.5t-212.5 -206.5q-29 -13 -59 -13zM461 68q173 0 173 225q0 219 -173 219q-175 0 -175 -222t175 -222z" />
    <glyph glyph-name="th1" unicode="&#xd24;" horiz-adv-x="1705" 
d="M1337 -24q-29 0 -55 15q-22 13 -22 31q0 19 26 33q97 50 136.5 159t39.5 212q0 155 -62 272q-110 211 -321 211q-54 0 -101 -12q241 -169 241 -494q0 -147 -58 -251q-96 -176 -310 -176q-211 0 -308 176q-58 107 -58 251q0 324 241 493q-50 13 -101 13q-210 0 -320 -211
q-62 -118 -62 -268q0 -103 39.5 -214t136.5 -161q26 -14 26 -33q0 -18 -22 -31q-25 -15 -55 -15q-39 0 -81 25q-207 125 -207 429q0 164 69 294q145 276 476 276q123 0 227 -38q105 38 227 38q333 0 477 -276q69 -131 69 -298q0 -300 -206 -425q-42 -25 -82 -25zM851 67
q93 0 155 112q51 93 51 224q0 292 -205 436q-204 -144 -204 -436q0 -132 51 -225q59 -111 152 -111z" />
    <glyph glyph-name="th2" unicode="&#xd25;" horiz-adv-x="1528" 
d="M1347 0h-1166q-81 0 -81 46v908q0 46 81 46q82 0 82 -46v-863h289v516q0 197 133.5 295t297.5 98t304.5 -104t140.5 -295v-555q0 -46 -81 -46zM1266 91v510q0 150 -90.5 228.5t-194.5 78.5q-267 0 -267 -301v-516h552z" />
    <glyph glyph-name="th3" unicode="&#xd26;" horiz-adv-x="1179" 
d="M299 -24q-50 0 -79 36q-140 171 -140 420q0 310 197 459q143 109 369 109q181 0 302 -76q137 -86 137 -244q0 -145 -139 -210q153 -73 153 -220q0 -137 -102 -208q-91 -64 -235 -64q-112 0 -212 45q-29 13 -29 35q0 17 18 29q25 16 62 16q31 0 52 -10q54 -24 109 -24
q90 0 136 56q38 46 38 125q0 119 -120 158q-48 16 -120 16q-24 0 -44 -1t-34 -1q-82 0 -82 46q0 45 81 45h79q73 0 120 17q108 37 107 153q0 99 -70 161q-77 65 -207 65q-176 -1 -276 -103q-127 -127 -127 -367q0 -242 131 -398q8 -9 8 -19q0 -30 -47 -41q-20 -5 -36 -5z
" />
    <glyph glyph-name="th4" unicode="&#xd27;" horiz-adv-x="1752" 
d="M1190 -24q-210 0 -314 117q-104 -117 -314 -117q-310 0 -431 259q-51 109 -51 253q0 153 68 294.5t215 206.5q25 11 55 11q38 0 63 -18q17 -13 17 -27q0 -24 -32 -37q-120 -51 -171.5 -180.5t-51.5 -249.5q0 -117 35 -207q85 -214 284 -214q233 0 233 265v622q0 46 81 46
t81 -46v-622q0 -265 233 -265q199 0 284 214q35 90 35 207q0 120 -51.5 249.5t-171.5 180.5q-32 13 -32 37q0 14 17 27q26 18 63 18q30 0 55 -11q147 -65 215 -206.5t68 -294.5q0 -144 -51 -253q-121 -259 -431 -259z" />
    <glyph glyph-name="n1" unicode="&#xd28;" horiz-adv-x="1752" 
d="M562 1000q210 0 314 -117q104 117 314 117q310 0 431 -259q51 -109 51 -253q0 -153 -68 -294.5t-215 -206.5q-25 -11 -55 -11q-37 0 -63 18q-17 13 -17 27q0 24 32 37q120 51 171.5 180.5t51.5 249.5q0 117 -35 207q-85 214 -284 214q-233 0 -233 -265v-622
q0 -46 -81 -46t-81 46v622q0 265 -233 265q-199 0 -284 -214q-35 -90 -35 -207q0 -120 51.5 -249.5t171.5 -180.5q32 -13 32 -37q0 -14 -17 -27q-25 -18 -63 -18q-30 0 -55 11q-147 65 -215 206.5t-68 294.5q0 144 51 253q121 259 431 259z" />
    <glyph glyph-name="n2" unicode="&#xd29;" horiz-adv-x="1879" 
d="M1459 -24q-37 0 -61 18q-17 13 -17 27q0 23 33 37q120 51 171 182t51 250q0 115 -35 205q-84 213 -283 213q-233 0 -233 -274v-612q0 -45 -82 -45q-81 0 -81 45v606q0 281 -317 281q-209 0 -314 -209q-48 -97 -50 -210q82 119 230 119t240 -97q78 -84 78 -209
q0 -162 -105 -249q-95 -77 -229 -77q-124 0 -216 75q-159 130 -159 408q0 153 60 273q134 267 465 267q259 0 393 -137q121 137 320 137q308 0 430 -259q51 -109 51 -253q0 -151 -67 -292.5t-213 -206.5q-29 -13 -60 -13zM460 68q174 0 174 222t-172 222q-176 0 -176 -222
t174 -222z" />
    <glyph glyph-name="p1" unicode="&#xd2a;" horiz-adv-x="1564" 
d="M301 -12q-31 0 -59 13q-162 76 -162 263q0 147 109 222.5t243 75.5q131 0 240.5 -76t109.5 -222q0 -98 -52 -173h571v863q0 46 82 46q81 0 81 -46v-908q0 -46 -81 -46h-797q-81 0 -81 46q0 19 23 32q91 53 91 186q0 207 -187 207q-189 0 -189 -207q0 -146 106 -195
q31 -13 31 -36q0 -14 -18 -28q-24 -17 -61 -17z" />
    <glyph glyph-name="p2" unicode="&#xd2b;" horiz-adv-x="1939" 
d="M300 -12q-32 0 -56 12q-164 77 -164 264q0 147 110.5 223t241.5 76t240.5 -76t109.5 -223q0 -100 -52 -173h233v517q0 197 135 294.5t295 97.5q167 0 306.5 -103.5t139.5 -295.5v-555q0 -46 -82 -46h-1170q-82 0 -82 46q0 17 23 32q91 53 91 186q0 208 -187 208
q-189 0 -189 -208q0 -146 107 -195q30 -13 30 -36q0 -14 -18 -28q-24 -17 -62 -17zM1676 91v512q0 149 -89 227.5t-195 78.5q-267 0 -267 -301v-517h551z" />
    <glyph glyph-name="p3" unicode="&#xd2c;" horiz-adv-x="2305" 
d="M1004 -24q-82 0 -82 46v591q0 296 -316 296q-211 0 -315 -209q-48 -97 -50 -210q82 119 230 119t240 -98q78 -83 78 -208q0 -161 -105 -249q-93 -78 -229 -78q-125 0 -216 75q-159 131 -159 409q0 153 60 273q133 266 466 266q105 0 211.5 -27.5t178.5 -106.5
q98 135 314 135q215 0 340 -142.5t125 -351.5q0 -263 -162 -416h429v864q0 45 82 45q81 0 81 -45v-909q0 -46 -81 -46h-682q-84 0 -84 47q0 21 32 35q119 51 170.5 178.5t51.5 246.5q0 130 -75 266.5t-227 136.5q-225 0 -225 -272v-616q0 -45 -81 -45zM460 67
q91 -1 132.5 73t41.5 153q0 219 -174 219t-174 -222t174 -223z" />
    <glyph glyph-name="p4" unicode="&#xd2d;" horiz-adv-x="1219" 
d="M297 -20q-50 0 -77 35q-142 179 -140 419q1 259 164 414.5t418 155.5q137 0 302.5 -50t165.5 -220q0 -178 -197 -178q-51 0 -98.5 12t-95.5 12q-104 0 -104 -97q0 -102 126 -102q44 0 88 9t88 9q202 0 202 -192q0 -136 -122.5 -181t-231.5 -45q-146 0 -259 50
q-31 13 -31 36q0 14 17 27q26 18 64 18q28 0 51 -10q63 -29 158 -29q62 0 128.5 33t66.5 101q0 87 -99 87q-33 0 -74.5 -8t-88.5 -8q-74 0 -128 29q-101 57 -101 179q0 119 87 172q49 29 117 29q56 0 109 -14.5t103 -14.5q76 0 76 76q0 77 -100 128t-219 51
q-217 0 -318 -137t-101 -342q0 -229 131 -389q8 -11 8 -19q0 -29 -48 -41q-20 -5 -37 -5z" />
    <glyph glyph-name="m1" unicode="&#xd2e;" horiz-adv-x="1213" 
d="M1032 0h-851q-81 0 -81 46v526q0 205 148.5 316.5t358.5 111.5q218 0 362 -115.5t144 -312.5v-526q0 -46 -81 -46zM950 91v481q0 286 -279 332q134 -84 134 -266q2 -333 -311 -547h456zM263 92q155 65 268 219.5t113 326.5q0 75 -35.5 154.5t-124.5 79.5q-62 0 -118 -49
q-103 -93 -103 -251v-480z" />
    <glyph glyph-name="y1" unicode="&#xd2f;" horiz-adv-x="1790" 
d="M685 -24q-301 0 -467 190q-138 158 -138 397q0 161 69 280q92 157 283 157q167 0 235 -139q88 139 260 139q143 0 261.5 -105t118.5 -314q0 -175 -75 -310q-61 -114 -175 -192q52 -11 104 -11q203 0 315 198q71 127 71 284q0 103 -37 210.5t-133 161.5q-24 14 -24 32
q0 19 24 32q24 14 54 14q42 0 79 -25q200 -126 200 -425q0 -172 -79 -311q-147 -262 -470 -262q-129 0 -234 38q-111 -39 -242 -39zM927 136q101 65 159 180q59 121 59 268q0 325 -218 325q-205 0 -205 -316q0 -160 58 -280q51 -110 147 -177zM685 67q58 0 115 13
q-105 75 -165 190q-73 140 -73 324q0 102 -10 164q-22 151 -120 151q-73 0 -128 -94q-61 -103 -61 -251q0 -220 121 -358q122 -140 321 -139z" />
    <glyph glyph-name="r3" unicode="&#xd30;" horiz-adv-x="1347" 
d="M896 -24q-198 0 -299 150q-65 97 -65 229q0 158 91 278q113 150 324 177q-110 99 -266 99q-235 0 -358 -185q-81 -121 -81 -283q-2 -257 196 -390q18 -12 18 -28q0 -23 -29 -36q-22 -11 -49 -11q-42 0 -81 28q-217 159 -217 437q0 193 104 334q166 225 497 225
q377 0 527 -301q59 -119 59 -267q0 -171 -73 -292q-99 -164 -298 -164zM896 68q82 0 144 101q64 104 64 262q0 172 -82 293q-154 0 -250 -126q-77 -104 -77 -243q0 -115 55 -198q59 -89 146 -89z" />
    <glyph glyph-name="rh" unicode="&#xd31;" horiz-adv-x="1252" 
d="M819 -24q-32 0 -57 16q-20 13 -20 30q0 21 27 34q239 117 239 408q0 169 -99 307t-283 138q-185 0 -283.5 -140.5t-99.5 -304.5q0 -289 240 -408q27 -13 27 -34q0 -17 -20 -30q-25 -16 -58 -16q-34 0 -63 15q-289 146 -289 473q0 229 160.5 382.5t385.5 153.5
q226 0 386 -154t160 -382q0 -324 -286 -472q-32 -16 -67 -16z" />
    <glyph glyph-name="l3" unicode="&#xd32;" horiz-adv-x="1457" 
d="M1275 0h-1093q-82 0 -82 50v599q0 176 139 263.5t296 87.5q158 0 288 -87t130 -264v-262q0 -46 -81 -46h-609v-250h931v863q0 46 81 46q82 0 82 -46v-908q0 -46 -82 -46zM790 432v217q0 260 -255 260q-272 0 -272 -260v-217h527z" />
    <glyph glyph-name="lh" unicode="&#xd33;" horiz-adv-x="1327" 
d="M1117 -412h-740q-110 0 -203.5 52t-93.5 179q0 119 95.5 174.5t201.5 55.5h458q249 0 249 192q0 94 -77 146q-51 33 -126 33q-81 0 -81 46t81 46q88 0 139 43q53 46 53 118q0 116 -103 177q-100 59 -281 59q-185 0 -288 -52q-131 -67 -149 -173q67 56 169 56
q123 0 204 -68q93 -75 93 -209q0 -109 -78 -185q-90 -90 -238 -90q-162 0 -248 108q-76 94 -74 254q0 137 65 238q86 135 241.5 173.5t302.5 38.5q250 0 399 -88q147 -86 147 -239q0 -136 -139 -207q151 -77 151 -225q0 -168 -137.5 -225.5t-274.5 -57.5l-458 1
q-133 0 -133 -117q0 -116 133 -116h740q82 0 82 -69t-82 -69zM404 283q148 0 148 180t-148 180t-148 -179q0 -181 148 -181z" />
    <glyph glyph-name="zh" unicode="&#xd34;" horiz-adv-x="1202" 
d="M828 54q-88 -78 -235 -78q-88 0 -190 47t-102 154q0 46 82 46q79 0 81 -44q8 -112 127 -112q149 0 149 153q0 40 -15 77q-67 -10 -119 -10q-196 0 -361 103.5t-165 324.5q0 142 87 256q22 29 77 29q80 0 80 -46q0 -8 -8 -19q-74 -97 -74 -220q0 -337 364 -337q29 0 66 5
q-65 82 -105 147.5t-40 175.5q0 121 66 198q80 96 227 96q144 0 230 -98q72 -82 72 -212q0 -248 -248 -351q29 -60 29 -120q0 -99 -75 -165zM813 429q146 82 146 261q0 110 -54 175q-35 43 -87 43q-47 0 -80 -43q-49 -63 -49 -159q0 -127 124 -277z" />
    <glyph glyph-name="v1" unicode="&#xd35;" horiz-adv-x="1692" 
d="M432 -12q-31 0 -63 15q-289 146 -289 481q0 230 162 373t384 143t384 -144t162 -372q0 -238 -175 -393h432v863q0 46 81 46q82 0 82 -46v-908q0 -46 -82 -46h-686q-83 0 -83 46q0 19 28 33q239 116 239 405q0 170 -100 298.5t-282 127.5q-181 0 -281.5 -127.5
t-100.5 -298.5q0 -300 239 -417q28 -13 28 -34q0 -18 -20 -29q-25 -16 -59 -16z" />
    <glyph glyph-name="z1" unicode="&#xd36;" horiz-adv-x="1878" 
d="M529 -24q-214 0 -331.5 150t-117.5 352q0 389 324 512q27 10 55 10q40 0 64 -20q14 -11 14 -25q0 -25 -38 -38q-128 -47 -192.5 -176t-64.5 -259q0 -124 69 -269.5t218 -145.5q161 0 181 136t20 252q0 92 9 182t61 169q127 194 421 194q368 0 518 -301q59 -118 59 -267
q0 -173 -73 -292q-98 -163 -300 -163q-197 0 -297 149q-65 98 -65 230q0 157 91 277q115 152 324 178q-110 98 -257 98q-200 0 -283 -158q-35 -67 -40.5 -144.5t-5.5 -151.5q0 -209 -53.5 -344t-309.5 -135zM1425 68q83 -1 146 101q64 105 64 263q0 172 -82 292
q-155 0 -250 -126q-77 -102 -77 -242q0 -115 55 -198q59 -90 144 -90z" />
    <glyph glyph-name="sh" unicode="&#xd37;" horiz-adv-x="1897" 
d="M300 -12q-31 0 -57 12q-163 76 -163 264q0 147 109.5 222.5t242.5 75.5q131 0 240.5 -75.5t109.5 -222.5q0 -99 -52 -172h458v270q-171 7 -284 105q-115 100 -115 231q2 257 287 257q277 0 276 -236l-1 -246q117 58 200 206t83 276q0 45 82 45q81 0 81 -45v-909
q0 -46 -81 -46h-1130q-81 0 -81 46q0 19 23 32q91 53 91 186q0 208 -187 208q-189 2 -189 -208q0 -148 106 -195q31 -13 31 -36q0 -14 -18 -28q-24 -17 -62 -17zM1189 453v266q0 145 -113 145q-124 0 -124 -166q0 -85 61 -156q72 -81 176 -89zM1634 92v564
q-98 -198 -283 -275v-289h283z" />
    <glyph glyph-name="s1" unicode="&#xd38;" horiz-adv-x="2259" 
d="M419 -24q-31 0 -56 11q-148 65 -215.5 208t-67.5 296q0 141 51 250q121 259 431 259q203 0 310 -116q100 116 290 116q267 0 348 -225q26 -72 30.5 -143.5t4.5 -147.5q0 -106 27 -261.5t174 -155.5t209 144t62 263q0 128 -59 261t-189 181q-36 13 -36 38q0 14 14 25
q25 21 62 21q30 0 61 -13q309 -123 309 -510q0 -201 -107 -351t-326 -150q-244 0 -304 154.5t-60 353.5q0 68 -4.5 138.5t-27.5 134.5q-54 152 -188 152q-118 0 -161.5 -86.5t-43.5 -184.5v-616q0 -46 -81 -46q-82 0 -82 46v616q0 271 -232 271q-202 0 -284 -214
q-35 -87 -35 -204q0 -120 51.5 -251.5t171.5 -181.5q31 -13 31 -37q0 -15 -16 -27q-24 -18 -62 -18z" />
    <glyph glyph-name="h1" unicode="&#xd39;" horiz-adv-x="2065" 
d="M1634 -6q-34 0 -59 16q-20 13 -20 29q0 21 27 34q239 116 239 413q0 163 -98.5 296.5t-283.5 133.5q-181 1 -281.5 -129.5t-100.5 -300.5q0 -285 239 -401q28 -14 28 -33q1 -46 -80 -46h-657q-82 0 -82 46q0 19 23 32q91 53 91 186q0 208 -187 208q-189 0 -189 -208
q0 -147 107 -195q30 -13 30 -36q0 -14 -18 -28q-24 -17 -62 -17q-31 0 -57 12q-163 77 -163 264q0 148 110 223.5t242 75.5q131 0 240.5 -76t109.5 -223q0 -99 -52 -172h338q-175 153 -175 388q0 229 162.5 374.5t383.5 145.5q224 0 385 -146t161 -374q0 -331 -289 -477
q-30 -15 -62 -15z" />
    <glyph glyph-name="rh_half" unicode="&#xd3a;" horiz-adv-x="1216" 
d="M807 -24q-81 0 -81 46v317h-564q-82 0 -82 46q0 8 7 18l644 949q20 29 77 29q16 0 28 -3q53 -13 53 -42q0 -8 -6 -17l-603 -889h774q82 0 82 -45q0 -46 -82 -46h-165v-317q0 -46 -82 -46z" />
    <glyph glyph-name="verticalbarvirama" unicode="&#xd3b;" horiz-adv-x="352" 
d="M178 1682q80 0 80 -70l-26 -442q0 -70 -54 -70q-51 0 -55 70l-26 442q-4 70 81 70z" />
    <glyph glyph-name="circularvirama" unicode="&#xd3c;" horiz-adv-x="318" 
d="M110.364 999.548q-81.1875 0 -148.421 47.9453t-67.2334 143.837q0 96.5049 67.2334 144.45q67.2334 47.9463 148.421 47.9463t149.372 -47.9463q68.1855 -47.9453 68.1855 -144.45q0 -95.8916 -68.1855 -143.837q-68.1846 -47.9453 -149.372 -47.9453zM110.364 1054.87
q116.073 0 116.073 136.461q0 136.46 -116.073 136.46q-114.17 0 -114.17 -136.46q0 -136.461 114.17 -136.461z" />
    <glyph glyph-name="avagraha" unicode="&#xd3d;" horiz-adv-x="1399" 
d="M337 -393q-123 0 -220 72t-97 205q0 46 16 99q12 37 79 37q83 0 83 -43q0 -6 -4 -16q-11 -41 -11 -76q0 -187 153 -187q67 0 116 58q77 92 110 299.5t57 444.5q24 244 59 459t122 318q93 110 262 110q124 0 220.5 -72t96.5 -206q0 -50 -16 -98q-11 -37 -81 -37
q-80 0 -80 43q0 8 3 18q11 39 11 74q0 187 -153 187q-67 0 -116 -58q-76 -91 -109 -298.5t-57 -444.5q-25 -244 -60 -459t-122 -319q-93 -110 -262 -110z" />
    <glyph glyph-name="a2" unicode="&#xd3e;" horiz-adv-x="890" 
d="M406 -24q-149 0 -252 100q-94 90 -94 203q0 45 79 45q80 0 83 -44q6 -96 73 -158q56 -55 111 -55q95 -2 164 104q77 119 77 317q0 199 -83 320q-67 100 -158 100q-60 0 -114 -51q-65 -63 -69 -161q-1 -44 -84 -44q-78 0 -78 45q0 120 90 205q102 98 255 98
q200 0 310 -159q94 -136 94 -353q0 -212 -87 -348q-106 -164 -317 -164z" />
    <glyph glyph-name="i1" unicode="&#xd3f;" horiz-adv-x="360" 
d="M178 -24q-81 0 -81 46v1104q0 163 -102 165q-52 1 -82 -46q-25 -41 -22 -94l2 -31q3 -39 -87 -39q-76 0 -76 48q-2 252 265 252q265 0 265 -255v-1104q0 -46 -82 -46z" />
    <glyph glyph-name="i2" unicode="&#xd40;" horiz-adv-x="381" 
d="M199 -24q-83 0 -83 46v1103q0 156 -116 170q31 -39 31 -83q0 -73 -58 -113q-56 -38 -153 -38q-99 0 -152 39q-58 42 -58 112q0 89 96 137q64 32 206 32q133 0 251 -46t118 -210v-1103q0 -46 -82 -46zM-181 1134q87 0 87 82q0 81 -87 81t-87 -81q0 -82 87 -82z" />
    <glyph glyph-name="u1" unicode="&#xd41;" horiz-adv-x="600" 
d="M260 -424q-260 0 -260 251q0 194 188 242q125 233 131 519q4 133 -47 226q-44 81 -127 98q-53 11 -53 42q0 45 80 45q150 0 241 -136q72 -108 69 -277q-5 -277 -128 -524q166 -56 166 -235q0 -251 -260 -251zM260 -338q117 0 117 165t-117 165t-117 -165t117 -165z" />
    <glyph glyph-name="u2" unicode="&#xd42;" horiz-adv-x="802" 
d="M294 -596q-122 0 -213 45q-23 11 -23 28q0 15 18 26q21 12 51 12q28 0 47 -9q52 -26 120 -26q276 0 276 279q0 137 -85 194q37 -58 37 -135q0 -245 -260 -245q-262 0 -262 256q0 204 202 253q125 245 125 502q0 141 -44 225q-46 86 -130 103q-54 11 -54 43q1 45 78 45
q158 0 249 -145q67 -107 64 -265q-6 -257 -114 -499q326 -37 326 -332q0 -169 -126.5 -262t-281.5 -93zM262 -347q117 0 117 165q0 170 -117 170t-117 -170q0 -165 117 -165z" />
    <glyph glyph-name="r1" unicode="&#xd43;" horiz-adv-x="769" 
d="M389 -486q-129 0 -224 50q-135 71 -135 184q0 112 116.5 169t242.5 57q122 0 200 -53q-19 57 -63.5 110.5t-84.5 107.5q-100 137 -133 321q-18 98 -18 218q0 101 17 279q4 43 81 43q81 0 81 -46q0 -7 -1 -10q-6 -68 -11 -134.5t-5 -131.5q0 -109 17 -204
q30 -173 122 -300q62 -84 121 -163.5t58 -177.5q-1 -190 -154 -270q-92 -49 -227 -49zM389 -390q61 0 130 31.5t69 105.5q0 137 -199 137q-200 0 -200 -137t200 -137z" />
    <glyph glyph-name="r2" unicode="&#xd44;" horiz-adv-x="650" 
d="M770 -167q0 -185 -146 -267q-92 -52 -230 -52q-139 0 -235 51q-129 67 -129 197q0 78 57 138q65 67 159 67q90 0 145 -58q55 58 132 58q26 0 47 -5q-22 45 -60.5 91t-67.5 86q-100 137 -133 321q-18 100 -18 220q0 110 16 277q4 43 83 43t79 -45q0 -7 -1 -12
q-15 -169 -15 -266q0 -115 16 -203q34 -187 123 -300q60 -76 119 -161.5t59 -179.5zM394 -394q78 0 153 41t75 131q0 104 -89 104q-82 0 -82 -132q0 -34 -59 -34q-60 0 -60 34q0 133 -84 133q-87 0 -87 -110q0 -96 76.5 -131.5t156.5 -35.5z" />
    <glyph glyph-name="e1" unicode="&#xd46;" horiz-adv-x="1294" 
d="M918 -24q-31 0 -55 14t-24 33t24 32q213 114 213 410q0 445 -430 445q-181 0 -292 -122t-113 -298q84 119 231 119t239 -98q79 -82 79 -212q0 -157 -106 -245q-93 -78 -228 -78q-126 0 -217 75q-159 133 -159 409q0 250 162.5 395t403.5 145q244 0 416 -134.5t172 -400.5
q0 -328 -247 -470q-33 -19 -69 -19zM461 67q174 0 174 223q0 222 -174 222q-175 0 -175 -222q0 -223 175 -223z" />
    <glyph glyph-name="e2" unicode="&#xd47;" horiz-adv-x="981" 
d="M597 -24q-517 0 -517 512t517 512q121 0 193 -33q131 -59 131 -200q0 -214 -246 -214q-238 0 -238 208q0 75 44 134q-136 -40 -187.5 -159.5t-51.5 -247.5q0 -127 51.5 -246.5t187.5 -160.5q-44 59 -44 134q0 208 238 208q246 0 246 -214q0 -141 -131 -200
q-72 -33 -193 -33zM675 644q95 0 95 122q2 123 -95 123q-95 0 -95 -123q0 -122 95 -122zM675 87q97 0 95 123q0 122 -95 122t-95 -122q0 -123 95 -123z" />
    <glyph glyph-name="ai1" unicode="&#xd48;" horiz-adv-x="2575" 
d="M2199 -20q-31 0 -55 14t-24 33t24 32q213 114 213 410q0 445 -430 445q-181 0 -292 -122t-113 -298q84 119 231 119t239 -98q79 -82 79 -212q0 -157 -106 -245q-93 -78 -228 -78q-126 0 -217 75q-159 133 -159 409q0 250 162.5 395t403.5 145q244 0 416 -134.5
t172 -400.5q0 -328 -247 -470q-33 -19 -69 -19zM1742 71q174 0 174 223q0 222 -174 222q-175 0 -175 -222q0 -223 175 -223zM918 -24q-31 0 -55 14t-24 33t24 32q213 114 213 410q0 445 -430 445q-181 0 -292 -122t-113 -298q84 119 231 119t239 -98q79 -82 79 -212
q0 -157 -106 -245q-93 -78 -228 -78q-126 0 -217 75q-159 133 -159 409q0 250 162.5 395t403.5 145q244 0 416 -134.5t172 -400.5q0 -328 -247 -470q-33 -19 -69 -19zM461 67q174 0 174 223q0 222 -174 222q-175 0 -175 -222q0 -223 175 -223z" />
    <glyph glyph-name="o1" unicode="&#xd4a;" horiz-adv-x="2606" 
d="M1394 423q-82 0 -82 46q0 45 82 45h450q81 0 81 -45q0 -46 -81 -46h-450zM918 -17q-31 0 -55 14t-24 33t24 32q213 114 213 410q0 445 -430 445q-181 0 -292 -122t-113 -298q84 119 231 119t239 -98q79 -82 79 -212q0 -157 -106 -245q-93 -78 -228 -78q-126 0 -217 75
q-159 133 -159 409q0 250 162.5 395t403.5 145q244 0 416 -134.5t172 -400.5q0 -328 -247 -470q-33 -19 -69 -19zM461 74q174 0 174 223q0 222 -174 222q-175 0 -175 -222q0 -223 175 -223zM2082 -20q-149 0 -252 100q-94 90 -94 203q0 45 79 45q80 0 83 -44q6 -96 73 -158
q56 -55 111 -55q95 -2 164 104q77 119 77 317q0 199 -83 320q-67 100 -158 100q-60 0 -114 -51q-65 -63 -69 -161q-1 -44 -84 -44q-78 0 -78 45q0 120 90 205q102 98 255 98q200 0 310 -159q94 -136 94 -353q0 -212 -87 -348q-106 -164 -317 -164z" />
    <glyph glyph-name="o2" unicode="&#xd4b;" horiz-adv-x="2175" 
d="M864 409q-82 0 -82 46q0 45 82 45h450q81 0 81 -45q0 -46 -81 -46h-450zM597 -24q-517 0 -517 512t517 512q121 0 193 -33q131 -59 131 -200q0 -214 -246 -214q-238 0 -238 208q0 75 44 134q-136 -40 -187.5 -159.5t-51.5 -247.5q0 -127 51.5 -246.5t187.5 -160.5
q-44 59 -44 134q0 208 238 208q246 0 246 -214q0 -141 -131 -200q-72 -33 -193 -33zM675 644q95 0 95 122q2 123 -95 123q-95 0 -95 -123q0 -122 95 -122zM675 87q97 0 95 123q0 122 -95 122t-95 -122q0 -123 95 -123zM1651 -18q-149 0 -252 100q-94 90 -94 203q0 45 79 45
q80 0 83 -44q6 -96 73 -158q56 -55 111 -55q95 -2 164 104q77 119 77 317q0 199 -83 320q-67 100 -158 100q-60 0 -114 -51q-65 -63 -69 -161q-1 -44 -84 -44q-78 0 -78 45q0 120 90 205q102 98 255 98q200 0 310 -159q94 -136 94 -353q0 -212 -87 -348q-106 -164 -317 -164
z" />
    <glyph glyph-name="uni0D4C" unicode="&#xd4c;" horiz-adv-x="2970" 
d="M1421 274q-82 0 -82 46q0 45 82 45h450q81 0 81 -45q0 -46 -81 -46h-450zM2201 -27q-163 0 -306 73q-35 18 -35 40q0 19 25 31q27 13 57 13q34 0 57 -13q99 -53 202 -53q194 0 323 108q174 145 174 416q0 101 -43 209.5t-166 108.5q-142 0 -142 -183v-215q0 -46 -81 -46
q-82 0 -82 46v210q0 188 -153 188q-174 0 -174 -223q0 -79 32 -140q16 -29 16 -35q0 -23 -36 -36q-26 -10 -50 -10q-56 0 -81 45q-41 73 -41 173q0 317 334 317q164 0 235 -100q64 100 223 100q371 0 371 -409q0 -299 -201 -466q-179 -149 -458 -149zM918 -24q-31 0 -55 14
t-24 33t24 32q213 114 213 410q0 445 -430 445q-181 0 -292 -122t-113 -298q84 119 231 119t239 -98q79 -82 79 -212q0 -157 -106 -245q-93 -78 -228 -78q-126 0 -217 75q-159 133 -159 409q0 250 162.5 395t403.5 145q244 0 416 -134.5t172 -400.5q0 -328 -247 -470
q-33 -19 -69 -19zM461 67q174 0 174 223q0 222 -174 222q-175 0 -175 -222q0 -223 175 -223z" />
    <glyph glyph-name="xx" unicode="&#xd4d;" horiz-adv-x="62" 
d="M22 1346q0 40 80 40t80 -40q0 -101 -73 -174q-87 -87 -228 -87t-228 87q-73 73 -73 174q0 40 80 40t80 -40q0 -181 141 -181t141 181z" />
    <glyph glyph-name="dotreph" unicode="&#xd4e;" horiz-adv-x="67" 
d="M157 1335q108 0 108 -107q0 -108 -108 -108q-107 0 -107 108q0 107 107 107z" />
    <glyph glyph-name="mlpara" unicode="&#xd4f;" horiz-adv-x="2258" 
d="M1182 -486q-190 0 -409.5 58t-368.5 180q-324 265 -324 711q0 347 243 519q24 17 65 17q29 0 50 -9q31 -14 31 -36q0 -16 -18 -28q-207 -147 -207 -463q0 -373 239 -612q126 -127 325.5 -186.5t373.5 -59.5q508 0 710 331q123 200 123 458q0 162 -55 301
q-83 214 -290 214q-233 0 -233 -265v-622q0 -45 -81 -45q-82 0 -82 45v606q0 281 -317 281q-211 0 -314 -209q-49 -100 -49 -210q83 119 230 119q148 0 239 -97q79 -84 79 -213q0 -157 -106 -245q-93 -77 -228 -77q-125 0 -216 75q-162 133 -160 408q0 151 61 273
q134 267 464 267q101 0 213.5 -27.5t185.5 -98.5q120 126 314 126q310 0 431 -259q77 -164 77 -347q0 -317 -171 -545q-122 -164 -349 -249.5t-476 -85.5zM813 68q174 0 174 222q2 222 -174 222q-175 0 -175 -222t175 -222z" />
    <glyph glyph-name="m1cil" unicode="&#xd54;" horiz-adv-x="1213" 
d="M1032 0h-851q-81 0 -81 46v526q0 184 128 299q77 69 187 102q-98 60 -97 171q1 126 93.5 181.5t202.5 55.5q221 0 314 -169q4 -7 4 -14q0 -45 -80 -45q-61 0 -80 33q-57 104 -158 104q-133 0 -133 -146q0 -91 61.5 -114.5t134.5 -32.5q195 -24 307 -125
q129 -116 129 -300v-526q0 -46 -81 -46zM950 92v480q0 290 -279 332q134 -82 134 -265q2 -333 -311 -547h456zM263 92q156 65 268.5 220t112.5 327q0 74 -35.5 153.5t-123.5 79.5q-65 0 -119 -49q-103 -93 -103 -251v-480z" />
    <glyph glyph-name="y1cil" unicode="&#xd55;" horiz-adv-x="1953" 
d="M684 -24q-301 0 -467 190q-138 159 -138 397q0 161 69 280q92 157 283 157q168 0 235 -139q88 139 261 139q143 0 261 -105t119 -314q0 -172 -75 -310q-63 -115 -175 -192q52 -11 104 -11q203 0 315 198q71 127 71 284q0 153 -101 321q-37 62 -67.5 124.5t-30.5 149.5
q0 124 90 180.5t200 55.5q220 0 312 -170q4 -7 4 -14q0 -45 -81 -45q-62 0 -79 32q-57 105 -158 105q-129 0 -129 -145q0 -91 85 -228q118 -192 118 -366q0 -170 -79 -311q-149 -262 -470 -262q-129 0 -234 38q-111 -39 -243 -39zM927 136q102 66 158 180q60 120 60 268
q0 325 -218 325q-205 0 -205 -316q0 -161 57 -281q53 -109 148 -176zM684 67q58 0 116 13q-106 74 -166 190q-73 143 -73 324q0 101 -9 164q-24 151 -121 151q-73 0 -128 -94q-61 -103 -61 -251q0 -220 121 -358q122 -141 321 -139z" />
    <glyph glyph-name="zhcil" unicode="&#xd56;" horiz-adv-x="1202" 
d="M596 -24q-111 0 -206.5 59t-95.5 183q0 66 29 127q-243 112 -243 370q0 142 87 256q22 28 81 28q76 0 76 -45q0 -8 -8 -19q-74 -97 -74 -220q0 -179 137 -272q117 154 186 358q61 183 61 300q0 53 -15 96q-35 92 -133 92q-102 0 -159 -106q-17 -32 -78 -32q-81 0 -81 45
q0 7 4 14q94 171 314 171q145 0 222 -74q75 -72 75 -191q0 -64 -15 -120q24 5 60 5q139 0 226 -97q76 -84 76 -215q0 -247 -248 -350q29 -61 29 -121q0 -126 -98 -184t-209 -58zM813 430q146 82 146 259q0 108 -55 176q-35 43 -84 43q-50 0 -83 -43q-50 -63 -50 -159
q0 -92 35.5 -150t90.5 -126zM606 379q29 0 66 5q-25 32 -42 63t-35 60q-19 -31 -39 -61.5t-38 -58.5q33 -8 88 -8zM596 67q147 0 147 143q0 43 -18 87q-61 -9 -121 -9q-73 0 -133 12q-18 -51 -18 -90q0 -143 143 -143z" />
    <glyph glyph-name="au2" unicode="&#xd57;" horiz-adv-x="1303" 
d="M564 -24q-163 0 -306 73q-35 18 -35 40q0 19 25 31q27 13 57 13q34 0 57 -13q99 -53 202 -53q194 0 323 108q174 145 174 416q0 101 -43 209.5t-166 108.5q-142 0 -142 -183v-215q0 -46 -81 -46q-82 0 -82 46v210q0 188 -153 188q-174 0 -174 -223q0 -79 32 -140
q16 -29 16 -35q0 -23 -36 -36q-26 -10 -50 -10q-56 0 -81 45q-41 73 -41 173q0 317 334 317q164 0 235 -100q64 100 223 100q371 0 371 -409q0 -299 -201 -466q-179 -149 -458 -149z" />
    <glyph glyph-name="arakaani" unicode="&#xd58;" horiz-adv-x="2379" 
d="M1496 1388q513 0 720 -445q83 -178 83 -381q0 -246 -138.5 -416t-384.5 -170q-199 0 -315 132q-111 -132 -293 -132q-178 0 -291 132q-115 -131 -316 -131q-309 0 -430 258q-51 109 -51 253q0 152 67 293t213 206q29 13 61 13q36 0 60 -18q17 -13 17 -27q0 -23 -33 -37
q-119 -51 -170.5 -181.5t-51.5 -249.5q0 -116 35 -206q84 -213 283 -213q233 0 233 274v612q0 46 81 46q82 0 82 -46v-612q0 -98 49.5 -186t161.5 -88q113 0 163 86.5t50 186.5v612q0 46 81 46q82 0 82 -46v-612q0 -274 232 -274q188 0 274 166.5t86 328.5q0 194 -77 358
q-173 377 -563 377q-149 0 -261 -77q-24 -17 -63 -17q-30 0 -51 10q-31 14 -31 35q0 16 19 29q160 111 387 111z" />
    <glyph glyph-name="aramaa" unicode="&#xd59;" horiz-adv-x="1912" 
d="M896 -24q-352 0 -352 331q0 143 102 214.5t232 71.5q83 0 219 -46q-23 109 -78 187q-125 175 -335 175q-239 0 -361 -184q-81 -123 -81 -283q-2 -256 196 -389q19 -13 19 -29q0 -21 -30 -35q-25 -11 -49 -11q-42 0 -81 28q-217 159 -217 436q0 192 104 333
q167 225 500 225q321 0 485 -233q82 -115 98 -270q44 -6 87 -6q36 0 72 3q-104 60 -104 183q0 217 264 217q266 2 266 -220q0 -156 -183 -230q-114 -46 -277 -46q-54 0 -121 5q-5 -168 -96.5 -297.5t-278.5 -129.5zM1587 535q109 0 109 134q0 133 -109 133q-110 0 -110 -133
q0 -134 110 -134zM896 67q120 0 166.5 138.5t46.5 231.5q-130 64 -238 64q-164 0 -164 -199q0 -79 50 -157t139 -78z" />
    <glyph glyph-name="muunnukaani" unicode="&#xd5a;" horiz-adv-x="2063" 
d="M877 -24q-82 0 -82 46v611q0 276 -233 276q-200 0 -283 -214q-36 -89 -36 -205q0 -119 51.5 -250.5t171.5 -181.5q32 -13 32 -37q0 -15 -16 -27q-24 -18 -63 -18q-31 0 -56 11q-147 65 -215 206.5t-68 294.5q0 145 51 254q121 258 431 258q210 0 323 -125
q83 81 213.5 103t241.5 22q120 0 261 -23t233 -106q129 -116 129 -299v-526q0 -46 -82 -46h-737q-87 0 -88 46q0 25 36 38q161 59 281 216.5t120 332.5q0 276 -260 276q-275 0 -275 -300v-587q0 -46 -81 -46zM1800 92v480q0 157 -104 251q-70 64 -176 81q134 -78 134 -272
q0 -327 -312 -540h458z" />
    <glyph glyph-name="orumaa" unicode="&#xd5b;" horiz-adv-x="1692" 
d="M1280 1012q31 0 63 -15q289 -146 289 -481q0 -230 -162 -373t-384 -143t-384 144t-162 372q0 238 175 393h-432v-863q0 -46 -81 -46q-82 0 -82 46v908q0 46 82 46h686q83 0 83 -46q0 -19 -28 -33q-239 -116 -239 -405q0 -170 100 -298.5t282 -127.5q181 0 281.5 127.5
t100.5 298.5q0 300 -239 417q-28 13 -28 34q0 18 20 29q25 16 59 16z" />
    <glyph glyph-name="rantumaa" unicode="&#xd5c;" horiz-adv-x="2815" 
d="M2279 -24q-183 0 -270 102q-61 72 -78 180t-16 229q1 80 -1.5 169t-46.5 158q-61 95 -165 95q-105 0 -167 -96q-44 -70 -45.5 -158t-0.5 -168q1 -113 -6 -220t-100 -193q-106 -98 -269 -98q-169 0 -274 102q-87 84 -95 192t-7 217q2 113 -24 267.5t-183 154.5
q-102 0 -182 -97q-106 -128 -106 -328q0 -124 59 -249t179 -178q30 -13 30 -36q0 -14 -18 -28q-24 -17 -61 -17q-31 0 -57 12q-295 135 -295 496q0 253 156 403q118 113 295 113q248 0 309.5 -154.5t59.5 -358.5q-1 -82 2.5 -173t52.5 -162q60 -85 159 -85q100 0 159 86
q50 71 52 161.5t1 172.5q-1 107 5 210.5t85 188.5q106 114 286 114q179 0 285 -114q79 -85 85.5 -188.5t4.5 -210.5q-1 -72 5.5 -169t47.5 -167q50 -84 149 -84q98 0 177 86q116 126 116 339q0 124 -59.5 249t-178.5 178q-30 13 -30 36q0 15 18 28q24 17 61 17q32 0 57 -12
q295 -135 295 -496q0 -269 -171 -417q-115 -99 -285 -99z" />
    <glyph glyph-name="muunnumaa" unicode="&#xd5d;" horiz-adv-x="3852" 
d="M1242 841q103 159 316 159q230 0 317 -158q64 -115 62 -355q-1 -82 2.5 -173t52.5 -162q60 -85 159 -85q100 0 159 86q50 71 52 161.5t1 172.5q-1 89 2.5 182.5t52.5 171.5q104 159 322 159q220 0 320 -160q50 -79 53 -170t1 -183q-1 -71 6 -167.5t47 -166.5
q51 -86 150 -86q96 0 176 85q117 126 117 340q0 124 -59.5 249t-178.5 178q-30 13 -30 36q0 15 18 28q24 17 61 17q32 0 57 -12q295 -136 295 -496q0 -267 -170 -415q-116 -101 -286 -101q-183 0 -270 101q-61 72 -78 180.5t-16 229.5q1 70 0 147t-29 143q-55 132 -184 132
t-186 -133q-28 -62 -28 -141.5t1 -147.5q1 -113 -6.5 -220t-100.5 -193q-106 -98 -269 -98q-169 0 -274 102q-86 84 -94.5 192t-6.5 217q1 61 -5 141t-32 147q-54 134 -181 134q-124 0 -181 -133q-27 -61 -27.5 -141t-0.5 -148q0 -114 -6 -220.5t-99 -192.5
q-106 -98 -269 -98q-190 0 -297 127q-105 -121 -290 -121q-195 0 -301 128q-8 11 -8 19q0 31 48 42q20 4 35 4q52 0 73 -26q62 -76 152 -76q104 0 158 85.5t54 179.5v616q0 46 81 46q82 0 82 -46v-616q0 -95 53 -183t160 -88q100 0 159 86q50 71 52.5 161.5t2.5 172.5
q0 89 2 183t51 171z" />
    <glyph glyph-name="naalumaa" unicode="&#xd5e;" horiz-adv-x="2536" 
d="M896 -24q-352 0 -352 331q0 143 102 214.5t232 71.5q84 0 218 -46q-19 107 -76 187q-125 175 -336 175q-237 0 -361 -184q-79 -121 -81 -283q0 -257 196 -389q18 -12 18 -28q0 -24 -29 -36q-21 -11 -49 -11q-42 0 -81 28q-217 159 -217 432q0 196 104 337
q167 225 500 225q320 0 486 -233q82 -118 98 -270q31 -14 62 -14q185 -2 185 224q0 153 -124 210q-29 14 -29 33q0 43 78 43h543q80 0 80 -43q0 -19 -28 -33q-125 -56 -125 -210q0 -219 197 -219q196 0 196 219q0 163 -129 214q-33 13 -33 36q0 13 14 24q24 18 61 18
q24 0 45 -8q195 -77 195 -284q0 -148 -107 -226t-242 -78q-136 0 -243 78t-107 226q0 114 78 200h-244q77 -85 77 -200q0 -306 -326 -310q-34 0 -70 6q-6 -168 -97 -297.5t-279 -129.5zM896 67q121 0 167.5 138.5t46.5 231.5q-124 64 -239 64q-164 0 -164 -199
q0 -79 50 -157t139 -78z" />
    <glyph glyph-name="ml_ii_archaic" unicode="&#xd5f;" horiz-adv-x="2544" 
d="M1489 -24q-198 0 -299 150q-65 97 -65 229q0 156 91 278q114 151 324 177q-110 99 -266 99q-235 0 -358 -185q-79 -119 -81 -283q-2 -257 196 -390q18 -12 18 -28q0 -23 -29 -36q-22 -11 -49 -11q-42 0 -81 28q-217 159 -217 437q0 193 104 334q166 225 497 225
q379 0 527 -301q59 -119 59 -267q0 -173 -73 -292q-99 -164 -298 -164zM2204 238q-260 0 -260 250t260 250t260 -250t-260 -250zM340 238q-260 0 -260 250t260 250t260 -250t-260 -250zM1489 68q84 0 144 101q64 104 64 262q0 172 -82 293q-154 0 -250 -126
q-77 -104 -77 -243q0 -113 55 -198q59 -89 146 -89zM2204 323q117 0 117 165t-117 165t-117 -165t117 -165zM340 323q117 0 117 165t-117 165t-117 -165t117 -165z" />
    <glyph glyph-name="ml_rr" unicode="&#xd60;" horiz-adv-x="1517" 
d="M762 -412q-158 0 -386 76.5t-228 284.5q0 195 286 279q-85 24 -150 64q-157 98 -194 267q-10 44 -10 96q0 345 308 345q142 0 235 -91q78 -78 78 -184q0 -132 -93 -209q-82 -68 -204 -68q-91 0 -155 46q71 -142 217.5 -178t287.5 -36q143 0 293 35t221 179
q-64 -46 -155 -46q-122 0 -204 68q-93 77 -93 209q0 106 78 184q92 91 235 91q308 0 308 -345q0 -52 -10 -96q-37 -169 -194 -267q-65 -40 -150 -64q286 -84 286 -279q0 -204 -224 -282.5t-383 -78.5zM389 544q150 0 150 180q0 181 -150 181t-150 -180q0 -181 150 -181z
M1128 544q150 0 150 180q0 181 -150 181t-150 -180q0 -181 150 -181zM762 -321q216 0 330 84t114 182q1 148 -169.5 196.5t-282.5 48.5t-278 -48t-165 -197q0 -98 117 -182t334 -84zM647.593 113.4q73.7969 0 113.396 -34.7979q39.5977 34.7979 113.396 34.7979
q117.595 0 161.993 -91.7959q18.5996 -37.7979 18.5996 -86.3965q0 -133.794 -102.597 -176.993q-11.3994 -4.79883 -26.999 -4.79883q-19.7988 0 -29.3984 7.19922q-6.59961 4.7998 -6.59961 10.1992q0 9 13.1992 13.7998q78.5967 31.7988 78.5967 150.594
q0 40.1982 -12.5986 70.1973q-29.3994 72.5967 -94.1963 72.5967q-76.7969 0 -76.7969 -90.5957v-215.991q0 -17.999 -36.5986 -17.999t-36.5986 17.999v215.991q0 90.5957 -76.7969 90.5957q-64.7979 0 -94.1963 -72.5967q-12.5996 -29.999 -12.5996 -70.1973
q0 -118.795 78.5967 -150.594q13.2002 -4.7998 13.2002 -13.7998q0 -5.39941 -6.60059 -10.1992q-9.59961 -7.19922 -29.3984 -7.19922q-15.5996 0 -26.999 4.79883q-102.596 43.1992 -102.596 176.993q0 48.5986 18.5996 86.3965q44.3975 91.7959 161.993 91.7959z" />
    <glyph glyph-name="ml_ll" unicode="&#xd61;" horiz-adv-x="2368" 
d="M1002 853q137 147 372 147q296 0 461 -198q226 -46 339.5 -216t113.5 -387q0 -268 -151 -439.5t-432 -171.5q-214 0 -357 114q-15 12 -15 25q0 24 35 38q21 8 47 8q41 0 66 -19q94 -75 235 -75q209 0 309 165t100 349q0 316 -204 463q41 -104 41 -227q0 -167 -73 -289
q-98 -163 -299 -163q-199 0 -297 149q-65 97 -65 229q0 158 90 277q115 152 325 178q-114 100 -269 100q-290 0 -290 -302v-586q0 -46 -80 -46q-82 0 -82 46v586q0 301 -317 301q-209 0 -314 -210q-49 -100 -50 -209q84 119 230 119q148 0 240 -98q78 -83 78 -208
q0 -164 -105 -249q-92 -77 -229 -77q-124 0 -216 75q-159 130 -159 408q0 151 61 273q135 267 464 267q101 0 215.5 -32.5t181.5 -114.5zM1589 68q83 -1 146 101q64 104 64 262q0 172 -82 292q-154 0 -249 -126q-77 -102 -77 -242q0 -116 54 -197q59 -90 144 -90zM460 68
q174 0 174 222t-174 222t-174 -222t174 -222z" />
    <glyph glyph-name="l1" unicode="&#xd62;" horiz-adv-x="79" 
d="M-359 -636q-127 0 -188 89q-39 56 -39 134q0 92 54 161q66 85 192 104q-63 53 -146 53q-161 0 -161 -156v-355q0 -30 -61 -30q-62 0 -62 30v349q0 162 -176 162q-118 0 -178 -119q-21 -42 -27 -91q49 42 124 42q99 0 155 -59q47 -48 47 -120q0 -97 -63 -147
q-58 -47 -146 -47q-86 -2 -145 46q-96 77 -96 238q0 90 36 159q81 157 293 157q156 0 238 -67q80 67 222 67q194 0 295 -125q70 -87 70 -216q0 -92 -44 -162q-61 -97 -194 -97zM-359 -577q50 0 80 54q35 61 35 146q0 104 -47 174q-82 -6 -130 -74q-41 -59 -41 -136
q0 -60 17 -99q29 -65 86 -65zM-1034 -577q31 0 59 30q33 36 33 97q0 125 -92 125q-93 0 -93 -126q0 -128 93 -126z" />
    <glyph glyph-name="l2" unicode="&#xd63;" horiz-adv-x="150" 
d="M-842.682 -118.882q105.05 99.4561 285.244 99.4561q226.968 0 353.487 -133.961q173.293 -31.123 260.323 -146.141t87.0303 -261.834q0 -181.322 -115.784 -297.354q-115.785 -116.033 -331.251 -116.033q-164.092 0 -273.742 77.1299q-11.502 8.11914 -11.502 16.9141
q0 16.2383 26.8369 25.71q16.1025 5.41309 36.0391 5.41309q31.4385 0 50.6084 -12.8555q72.0771 -50.7432 180.194 -50.7432q160.258 0 236.937 111.635q76.6777 111.635 76.6777 236.125q0 213.798 -156.424 313.254q31.4385 -70.3643 31.4385 -153.582
q0 -112.988 -55.9756 -195.53q-75.1445 -110.282 -229.269 -110.282q-152.59 0 -227.735 100.81q-49.8408 65.6279 -49.8408 154.936q0 106.899 69.0107 187.412q88.1807 102.839 249.205 120.43q-87.4131 67.6572 -206.265 67.6572q-222.368 0 -222.368 -204.325v-396.473
q0 -31.123 -61.3428 -31.123q-62.876 0 -62.876 31.123v396.473q0 203.649 -243.071 203.649q-160.258 0 -240.77 -142.081q-37.5732 -67.6572 -38.3398 -141.404q64.4102 80.5127 176.36 80.5127q113.484 0 184.028 -66.3047q59.8096 -56.1553 59.8096 -140.728
q0 -110.958 -80.5127 -168.467q-70.5439 -52.0967 -175.594 -52.0967q-95.0811 0 -165.625 50.7432q-121.919 87.9551 -121.919 276.043q0 102.162 46.7734 184.705q103.517 180.645 355.788 180.645q77.4453 0 165.242 -21.9883t139.172 -77.4678zM-392.579 -649.993
q63.6436 -0.676758 111.95 68.334q49.0742 70.3643 49.0742 177.263q0 116.371 -62.876 197.56q-118.085 0 -190.93 -85.248q-59.042 -69.0107 -59.042 -163.731q0 -78.4824 41.4062 -133.285q45.2402 -60.8916 110.417 -60.8916zM-1258.28 -649.993
q133.421 0 133.421 150.2q0 150.199 -133.421 150.199q-133.42 0 -133.42 -150.199q0 -150.2 133.42 -150.2z" />
    <glyph glyph-name="ml_0" unicode="&#xd66;" horiz-adv-x="1093" 
d="M547 -24q-217 0 -332 153t-115 359t115 359t332 153t331.5 -153t114.5 -359t-114.5 -359t-331.5 -153zM547 67q152 0 217.5 148t65.5 273t-65.5 273t-217.5 148t-218 -148t-66 -273t66 -273t218 -148z" />
    <glyph glyph-name="ml_1" unicode="&#xd67;" horiz-adv-x="1468" 
d="M649 -412h-275q-294 0 -294 252q0 120 95.5 186t201.5 66h115v516q0 197 135 294.5t296 97.5q167 0 306 -103.5t139 -295.5v-554q0 -46 -81 -46h-905q-138 0 -138 -137t130 -137h275q81 0 81 -70q0 -69 -81 -69zM1206 92v509q0 150 -89.5 229t-195.5 79q-267 0 -267 -301
v-516h552z" />
    <glyph glyph-name="ml_2" unicode="&#xd68;" horiz-adv-x="1543" 
d="M432 -12q-31 0 -63 15q-289 146 -289 481q0 230 162 373t384 143q223 0 384.5 -144t161.5 -372q0 -238 -175 -393h384q82 0 82 -45q0 -46 -82 -46h-557q-82 0 -83 44q-2 21 28 35q239 116 239 405q0 170 -100 298.5t-282 127.5q-185 0 -283.5 -131t-98.5 -295
q0 -302 239 -417q28 -13 28 -34q0 -16 -20 -29q-25 -16 -59 -16z" />
    <glyph glyph-name="ml_3" unicode="&#xd69;" horiz-adv-x="2012" 
d="M876 -24q-81 0 -81 46v622q0 265 -233 265q-199 0 -284 -214q-35 -90 -35 -205q0 -120 51.5 -250.5t171.5 -181.5q32 -13 32 -37q0 -14 -17 -27q-24 -18 -62 -18q-31 0 -56 11q-147 65 -215 206.5t-68 294.5q0 144 51 253q121 259 431 259q210 0 314 -117
q105 117 314 117q211 0 333.5 -145.5t122.5 -348.5q0 -261 -163 -415h387q82 0 82 -45q0 -46 -82 -46h-557q-85 0 -85 46q0 22 32 36q119 50 171 176.5t52 246.5q0 128 -72 266t-221 138q-232 0 -232 -265v-622q0 -46 -82 -46z" />
    <glyph glyph-name="ml_4" unicode="&#xd6a;" horiz-adv-x="1342" 
d="M377 -24q-43 0 -81 29q-216 164 -216 462q0 227 154.5 372t377.5 162v335q0 45 81 45q82 0 82 -45v-337q487 -57 487 -562q0 -174 -91 -317t-287 -143q-170 0 -221 100.5t-51 240.5v590q-369 -54 -369 -441q0 -279 196 -417q17 -11 17 -27q0 -24 -31 -37q-23 -10 -48 -10
zM884 67q122 0 170 139t46 231q-3 161 -77.5 296t-247.5 171v-586q0 -251 109 -251z" />
    <glyph glyph-name="ml_5" unicode="&#xd6b;" horiz-adv-x="1913" 
d="M848 -402q-357 0 -562.5 235t-205.5 572q0 391 250 631.5t637 240.5q407 0 636.5 -263.5t229.5 -598.5q0 -243 -119 -455q-24 -42 -83 -42q-81 0 -81 46q0 7 4 14q114 194 114 437q0 306 -187 538.5t-514 232.5q-336 0 -530 -230.5t-194 -551.5q0 -268 152 -491.5
t447 -223.5q191 0 321.5 142.5t130.5 329.5q0 233 -188 273q-45 9 -136 9q-82 0 -82 45q0 46 82 46q85 0 128 11q143 36 143 162q0 99 -78 153q-70 49 -178 49q-190 0 -280 -147.5t-90 -315.5q0 -249 145 -403q10 -10 10 -21q0 -28 -44 -41q-19 -6 -39 -6q-48 0 -82 38
q-153 174 -153 433q0 554 533 554q137 0 278 -66.5t141 -226.5q0 -155 -157 -215q209 -84 209 -332q0 -252 -183 -407t-425 -155z" />
    <glyph glyph-name="ml_6" unicode="&#xd6c;" horiz-adv-x="2379" 
d="M1496 -412q-227 0 -387 111q-19 13 -19 29q0 21 31 35q21 10 51 10q39 0 63 -17q112 -77 261 -77q390 0 563 377q77 164 77 358q0 162 -86 328.5t-274 166.5q-232 0 -232 -274v-612q0 -46 -82 -46q-81 0 -81 46v612q0 100 -50 186.5t-163 86.5q-112 0 -161.5 -88
t-49.5 -186v-612q0 -46 -82 -46q-81 0 -81 46v612q0 274 -233 274q-199 0 -283 -213q-35 -90 -35 -206q0 -119 51.5 -249.5t170.5 -181.5q33 -14 33 -37q0 -14 -17 -27q-24 -18 -60 -18q-32 0 -61 13q-146 65 -213 206.5t-67 292.5q0 144 51 253q121 258 430 258
q201 0 316 -131q113 132 291 132q182 0 293 -132q116 132 315 132q246 0 384.5 -170t138.5 -416q0 -203 -83 -381q-207 -445 -720 -445z" />
    <glyph glyph-name="ml_7" unicode="&#xd6d;" horiz-adv-x="1420" 
d="M623 -412q-201 0 -380 109q-21 14 -21 30q0 20 26 34q26 13 56 13q35 0 59 -15q132 -80 260 -80q136 0 259 76q120 74 197 201q98 161 98 358q0 287 -168 458q-135 138 -357 138q-181 0 -295 -122t-116 -298q83 119 231 119q147 0 239 -98q79 -82 79 -212
q0 -157 -106 -245q-93 -78 -228 -78q-126 0 -217 75q-159 132 -159 409q0 254 165.5 397t406.5 143q322 0 500 -184q188 -192 188 -502q0 -211 -107 -387q-87 -145 -230 -233q-169 -106 -380 -106zM461 67q90 -1 131.5 73t41.5 153q0 219 -173 219q-175 0 -175 -222
q0 -223 175 -223z" />
    <glyph glyph-name="ml_8" unicode="&#xd6e;" horiz-adv-x="1693" 
d="M1085 -412q-209 0 -382 108q-21 13 -21 30q0 20 26 34q24 12 55 12q36 0 60 -15q127 -78 262 -78q202 -2 297 153q48 78 48 169h-606q-82 0 -82 45q0 21 28 34q239 116 239 399q0 170 -100.5 301t-282.5 130q-182 0 -282 -130.5t-100 -300.5q0 -298 239 -413
q28 -14 28 -34q0 -16 -20 -29q-26 -16 -59 -16t-63 15q-289 146 -289 477q0 228 161.5 374.5t384.5 146.5t385 -146t162 -375q0 -231 -175 -387h432v862q0 46 81 46q82 0 82 -46v-930q0 -128 -57 -221q-132 -215 -451 -215z" />
    <glyph glyph-name="ml_9" unicode="&#xd6f;" horiz-adv-x="1852" 
d="M1772 443q0 -162 -101 -314.5t-281 -152.5q-186 0 -221 95t-35 252v577q-177 -48 -177 -262v-616q0 -46 -81 -46q-82 0 -82 46v616q0 271 -232 271q-201 0 -284 -214q-35 -90 -35 -204q0 -120 51.5 -251t171.5 -182q32 -13 32 -37q0 -14 -17 -27q-24 -18 -62 -18
q-31 0 -56 11q-147 65 -215 207t-68 295q0 143 51 252q121 259 431 259q214 0 319 -126q93 103 253 121v341q0 45 81 45t81 -45v-338q476 -57 476 -555zM1390 68q116 0 168.5 142t51.5 233q0 154 -76.5 290t-237.5 170v-235.5t-0.5 -61t-0.5 -348.5q0 -61 15.5 -125.5
t79.5 -64.5z" />
    <glyph glyph-name="ml_10" unicode="&#xd70;" horiz-adv-x="1876" 
d="M389 -412q-214 0 -304 131q-6 9 -6 17q0 45 81 45q58 0 77 -29q51 -73 152 -73q147 0 197 169q18 60 18 134q-248 38 -349 253q-51 109 -51 253q0 153 68 294.5t215 206.5q25 11 56 11q39 0 63 -18q16 -12 16 -26q0 -24 -32 -37q-118 -51 -170.5 -181.5t-52.5 -250.5
q0 -114 36 -206q85 -214 283 -214q234 0 234 265v622q0 46 80 46q82 0 82 -46v-622q0 -265 234 -265q200 0 283 214q35 90 35 199q0 122 -50 254.5t-172 184.5q-33 14 -33 36q0 14 17 27q24 18 62 18q31 0 56 -11q147 -65 215 -206t68 -295q0 -144 -51 -253
q-122 -259 -430 -259q-209 0 -316 117q-80 -91 -233 -112q3 -86 -22 -159q-79 -234 -356 -234z" />
    <glyph glyph-name="ml_100" unicode="&#xd71;" horiz-adv-x="1792" 
d="M909 -412q-227 0 -387 111q-19 13 -19 29q0 21 31 35q21 10 52 10q37 0 62 -17q110 -77 261 -77q390 0 563 377q80 170 78 358q0 149 -61 280q-101 215 -299 215q-233 0 -233 -272v-614q0 -46 -82 -46q-81 0 -81 46v612q0 274 -233 274q-200 0 -283 -214
q-35 -90 -35 -205q0 -120 51 -250.5t171 -181.5q33 -14 33 -36q0 -14 -17 -27q-24 -18 -61 -18q-31 0 -60 13q-146 65 -213 206t-67 292q0 144 51 253q121 259 430 259q200 0 314 -130q115 130 315 130q302 0 444 -257q78 -144 78 -329q0 -203 -83 -381q-207 -445 -720 -445
z" />
    <glyph glyph-name="ml_1000" unicode="&#xd72;" horiz-adv-x="2495" 
d="M1458 -25q-351 0 -351 332q0 139 99.5 213t228.5 74q88 0 224 -46q-21 107 -78 187q-123 175 -334 175q-290 0 -290 -302v-587q0 -45 -81 -45t-81 45v611q0 277 -233 277q-201 0 -284 -214q-35 -86 -35 -206t51.5 -250.5t171.5 -181.5q32 -13 32 -37q0 -15 -16 -27
q-24 -18 -63 -18q-29 0 -56 12q-148 65 -215.5 206.5t-67.5 294.5q0 144 51 253q121 258 431 258q210 0 323 -125q131 127 362 127q319 0 485 -233q82 -115 98 -271q44 -6 86 -6q37 0 73 3q-105 62 -105 181q0 220 265 220q266 0 266 -220q0 -157 -183 -231
q-115 -47 -276 -47q-62 0 -122 6q-5 -169 -96.5 -298.5t-279.5 -129.5zM2149 536q110 0 110 134q0 133 -110 133q-109 0 -109 -134q0 -133 109 -133zM1458 66q122 0 167.5 139t45.5 232q-128 64 -237 64q-164 0 -164 -200q0 -79 50 -157t138 -78z" />
    <glyph glyph-name="kaal" unicode="&#xd73;" horiz-adv-x="1406" 
d="M546 -24q-216 0 -339 149q-107 130 -107 347q0 199 113 343q127 161 337 161h715q81 0 81 -45q0 -46 -81 -46h-715q-106 0 -188 -106q-99 -127 -99 -307q0 -198 92 -309q80 -97 191 -97q100 -2 176 83q99 110 99 316q0 132 -56 244q-4 10 -4 14q0 44 86 44q59 0 75 -33
q62 -123 62 -269q0 -227 -117 -357q-119 -132 -321 -132z" />
    <glyph glyph-name="ara" unicode="&#xd74;" horiz-adv-x="1621" 
d="M1173 -24q-186 0 -265 159q-43 89 -43 205q0 156 68 293q32 64 68 115.5t80 116.5q-134 52 -315 52q-262 0 -390 -120q-134 -124 -135 -307q82 119 230 119t240 -98q78 -83 78 -208q0 -162 -105 -249q-93 -78 -229 -78q-124 0 -216 76q-159 130 -159 408q0 264 212 418
q177 129 474 129q196 0 369 -53q19 38 41 92t22 97q0 149 -127 147q-102 0 -162 -107q-18 -32 -77 -32q-82 0 -82 44q0 7 4 14q94 172 317 172q110 0 199.5 -58t89.5 -177q0 -105 -84 -246q139 -87 203 -207q62 -117 62 -268q0 -152 -65 -269q-101 -180 -303 -180zM1173 67
q96 0 164 151q41 93 41 207q0 111 -34 195q-40 95 -135 179q-92 -134 -128 -214q-53 -120 -53 -245q0 -90 19 -149q41 -124 126 -124zM460 67q174 -1 174 226q0 219 -174 219t-174 -222t174 -223z" />
    <glyph glyph-name="mukkaal" unicode="&#xd75;" horiz-adv-x="2000" 
d="M1552 -24q-196 0 -272 173q-36 82 -36 193q0 156 70 294q35 70 78.5 130.5t85.5 124.5q-56 19 -110 19q-283 0 -283 -301v-587q0 -46 -81 -46t-81 46v587q0 300 -318 300q-211 0 -314 -210q-48 -97 -50 -209q81 118 233 118q146 0 237 -97q78 -84 78 -208
q0 -162 -105 -249q-94 -78 -224 -78q-127 -2 -221 75q-159 132 -159 409q0 153 61 273q134 267 464 267q250 0 400 -142q141 142 363 142q86 0 160 -21q49 96 49 168q0 143 -131 143q-98 0 -157 -107q-17 -32 -78 -32q-81 0 -81 45q0 7 4 14q92 171 312 171q107 0 200 -57.5
t93 -176.5q0 -96 -72 -227q139 -84 205 -240q48 -114 48 -247q0 -170 -75 -291q-102 -166 -293 -166zM1552 67q97 0 157 142q48 112 48 224t-35 206q-39 107 -119 179q-45 -64 -82 -119.5t-63 -113.5q-52 -116 -52 -243q0 -88 19 -149q39 -126 127 -126zM460 67
q174 -1 174 226q0 219 -174 219t-174 -222q0 -223 174 -223z" />
    <glyph glyph-name="maakaani" unicode="&#xd76;" horiz-adv-x="2395" 
d="M300 -18q-31 0 -57 12q-163 77 -163 264q0 148 110 223.5t242 75.5q131 0 240.5 -76t109.5 -223q0 -99 -52 -172h572v480q0 182 128 299q143 129 378 129t378 -129q129 -114 129 -299v-526q0 -46 -82 -46h-1646q-82 0 -82 46q0 19 23 32q91 53 91 186q0 208 -187 208
q-189 0 -189 -208q0 -147 107 -195q30 -13 30 -36q0 -14 -18 -28q-24 -17 -62 -17zM2152 86v480q0 286 -279 332q134 -84 134 -266q2 -333 -311 -546h456zM1465 86q155 65 268 219.5t113 326.5q0 75 -35.5 154.5t-124.5 79.5q-64 0 -118 -49q-103 -93 -103 -251v-480z" />
    <glyph glyph-name="arakkaal" unicode="&#xd77;" horiz-adv-x="3037" 
d="M300 -18q-32 0 -56 12q-164 78 -164 264q0 148 110 223.5t242 75.5q131 0 240.5 -76t109.5 -223q0 -100 -52 -173h336q-160 147 -160 409q0 138 51 247q119 253 430 253q205 0 316 -119q109 117 331 119q293 3 446 -198q72 -93 88 -224q38 -4 59 -4q110 0 188 50
q27 16 60 16q32 0 54 -12q28 -14 28 -34q0 -16 -21 -30q-126 -80 -308 -80q-20 0 -56 2q-4 -52 -12 -86q-63 -271 -334 -271q-324 0 -324 285q0 126 97 186t209 60q75 0 188 -34q-22 83 -66 140q-112 148 -296 143q-251 -5 -251 -243v-491q0 -45 -82 -45q-80 0 -80 45v469
q0 265 -234 265q-202 0 -283 -208q-35 -90 -35 -201q0 -122 49.5 -244t172.5 -174q33 -14 33 -36q0 -46 -79 -46h-658q-82 0 -82 46q0 19 23 32q91 53 91 186q0 208 -187 208q-189 0 -189 -208q0 -146 107 -195q30 -13 30 -36q0 -16 -18 -28q-24 -17 -62 -17zM2226 215
q74 0 116.5 65.5t55.5 125.5q12 51 12 104q-44 14 -100.5 33t-106.5 19q-138 0 -138 -158q0 -189 161 -189z" />
    <glyph glyph-name="muntaani" unicode="&#xd78;" horiz-adv-x="4109" 
d="M2924 777q-58 132 -184 132q-129 0 -186 -133q-27 -62 -27.5 -141.5t0.5 -147.5q1 -113 -6 -220t-100 -193q-106 -98 -269 -98q-169 0 -274 102q-87 84 -95 192t-7 217q1 62 -4.5 143t-33.5 148q-54 131 -179 131q-124 0 -181 -133q-27 -61 -27.5 -141t-0.5 -148
q0 -114 -6.5 -220.5t-98.5 -192.5q-107 -98 -269 -98q-190 0 -297 127q-107 -121 -291 -121q-195 0 -301 128q-8 11 -8 19q0 31 48 42q20 4 35 4q52 0 73 -26q62 -76 152 -76q105 0 158.5 85.5t53.5 179.5v616q0 46 82 46t82 -46v-616q0 -95 53 -183t160 -88q98 0 159 86
q49 71 52 161.5t3 172.5q0 89 1.5 183t51.5 171q101 159 316 159q229 0 316 -158q66 -118 62 -355q-1 -82 3 -173t53 -162q60 -85 159 -85q98 0 159 86q50 71 52 161.5t1 172.5q-1 89 2 182.5t53 171.5q102 159 321 159q189 0 297 -128q114 128 408 128q312 0 455 -129
q130 -117 130 -299v-526q0 -46 -82 -46h-738q-87 0 -87 46q0 25 36 38q253 94 361 359q39 94 39 190q0 266 -217 266q-144 0 -192 -120q-33 -82 -33 -186v-141q0 -46 -81 -46q-82 0 -82 46v138q0 119 -30 187zM3866 92v480q0 158 -104 251q-70 64 -176 81q134 -78 134 -272
q0 -93 -34 -187q-80 -217 -278 -353h458z" />
    <glyph glyph-name="datemark" unicode="&#xd79;" horiz-adv-x="2136" 
d="M1459 -25q-138 0 -244.5 84t-106.5 230q0 182 122 248t280 66h136q-24 75 -64 132q-125 175 -335 175q-289 0 -289 -302v-587q0 -46 -82 -46q-81 0 -81 46v611q0 276 -233 276q-200 0 -284 -213q-35 -87 -35 -206q0 -120 51.5 -250.5t171.5 -181.5q32 -13 32 -37
q0 -15 -16 -27q-24 -18 -63 -18q-29 0 -56 12q-147 64 -215 206t-68 294q0 145 51 254q121 258 431 258q210 0 323 -125q131 127 362 127q322 0 486 -233q52 -74 78 -165h183q82 0 82 -46q0 -45 -82 -45h-165q6 -43 6 -87q0 -172 -91 -311t-285 -139zM1459 66q115 0 164 133
t49 227q0 43 -6 86h-156q-239 0 -239 -223t188 -223z" />
    <glyph glyph-name="nhcil" unicode="&#xd7a;" horiz-adv-x="2587" 
d="M2139 -24q-196 0 -272 173q-39 88 -37 201q1 147 71 286q35 70 78.5 130.5t85.5 124.5q-57 18 -114 18q-279 0 -279 -294v-593q0 -46 -81 -46q-82 0 -82 46v617q0 98 -50 183.5t-161 85.5q-112 0 -162.5 -86.5t-50.5 -188.5v-611q0 -46 -81 -46t-81 46v587
q0 300 -318 300q-211 0 -314 -210q-48 -97 -50 -209q83 118 234 118q145 0 236 -97q78 -84 78 -208q0 -162 -105 -249q-92 -78 -223 -78q-131 -2 -222 75q-159 132 -159 409q0 153 61 273q134 267 464 267q261 0 391 -134q113 134 302 134q204 0 301 -134q121 134 352 134
q90 0 164 -21q49 96 49 168q0 143 -131 143q-98 0 -157 -107q-17 -32 -78 -32q-81 0 -81 45q0 7 4 14q92 171 312 171q107 0 200 -57.5t93 -176.5q0 -97 -72 -227q139 -84 205 -240q48 -114 48 -247q0 -168 -76 -291q-100 -166 -292 -166zM2139 67q97 0 157 142
q48 112 48 224t-35 206q-39 107 -120 179q-109 -157 -144 -233q-52 -117 -52 -235q0 -96 19 -157q39 -126 127 -126zM461 67q90 -1 131.5 73t41.5 153q0 219 -173 219q-175 0 -175 -222q0 -223 175 -223z" />
    <glyph glyph-name="n1cil" unicode="&#xd7b;" horiz-adv-x="1872" 
d="M1424 -24q-196 0 -272 173q-36 82 -36 188q0 157 70 299q35 70 79 130.5t85 124.5q-54 19 -118 19q-275 0 -275 -302v-586q0 -46 -81 -46q-82 0 -82 46v622q0 265 -230 265q-203 0 -286 -214q-35 -90 -35 -205q0 -120 51.5 -250.5t171.5 -181.5q32 -13 32 -37
q0 -14 -17 -27q-25 -18 -63 -18q-30 0 -55 11q-148 65 -215.5 206.5t-67.5 294.5q0 144 51 253q121 259 433 259q217 0 322 -133q120 132 346 134q84 2 169 -22q48 98 48 168q0 143 -130 143q-99 0 -158 -107q-17 -32 -78 -32q-81 0 -81 45q0 7 4 14q94 171 313 171
q106 0 199 -57.5t94 -176.5q1 -95 -73 -226q142 -87 206 -241q47 -112 47 -247q0 -167 -75 -291q-102 -166 -293 -166zM1424 68q97 0 157 141q49 116 49 224q2 107 -36 206q-40 109 -119 179q-45 -64 -82 -119.5t-63 -113.5q-52 -115 -52 -248q0 -84 19 -144
q40 -125 127 -125z" />
    <glyph glyph-name="r3cil" unicode="&#xd7c;" horiz-adv-x="1356" 
d="M908 -24q-188 0 -265 159q-43 89 -43 201q0 158 68 297q32 64 74 124.5t86 125.5q-73 27 -164 27q-193 0 -307 -145t-114 -326q0 -257 186 -389q17 -13 17 -27q0 -22 -31 -37q-20 -10 -50 -10q-41 0 -64 17q-221 157 -221 446q0 249 170.5 405.5t413.5 156.5
q124 0 218 -30q51 106 51 176q0 145 -126 143q-105 0 -163 -107q-17 -32 -77 -32q-82 0 -82 44q0 7 4 14q94 172 318 172q109 0 198.5 -57.5t89.5 -176.5q0 -104 -77 -237q139 -87 206 -237q52 -115 52 -254q0 -149 -65 -263q-101 -180 -303 -180zM908 67q96 0 164 151
q41 92 41 205q0 108 -34 198q-41 111 -128 188q-99 -144 -135 -224q-53 -118 -53 -249q0 -84 19 -145q41 -124 126 -124z" />
    <glyph glyph-name="l3cil" unicode="&#xd7d;" horiz-adv-x="2063" 
d="M368 -24q-39 0 -81 25q-207 125 -207 421q0 170 69 303q143 276 477 276q122 0 226 -40q144 54 351 54q233 0 381 -53q57 106 56 189q0 139 -127 139q-102 0 -160 -105q-17 -32 -78 -32q-81 0 -81 45q0 7 4 14q92 169 315 169q107 0 198 -54t91 -176q0 -111 -84 -255
q154 -100 221 -262q44 -105 44 -217q2 -177 -97 -306q-103 -134 -271 -134q-158 -1 -241 116q-68 97 -68 258q0 146 76 295q30 57 68.5 112.5t80.5 113.5q-118 52 -325 52q-130 0 -227 -27q241 -171 241 -493q0 -144 -59 -251q-96 -176 -309 -176t-308 176q-58 104 -58 251
q0 325 240 493q-50 13 -101 13q-212 0 -320 -211q-62 -119 -62 -277q0 -103 39.5 -209.5t136.5 -157.5q26 -14 26 -33t-21 -31q-25 -15 -56 -15zM852 68q92 0 154 112q51 93 51 224q0 292 -205 436q-204 -143 -204 -436q0 -132 51 -225q61 -111 153 -111zM1615 68
q75 -1 138 103q67 110 67 246q0 103 -39 196q-44 105 -129 181q-85 -117 -122 -191q-62 -127 -62 -252q0 -105 30 -181q40 -102 117 -102z" />
    <glyph glyph-name="lhcil" unicode="&#xd7e;" horiz-adv-x="1865" 
d="M1424 -24q-186 0 -266 148q-49 90 -49 209q0 158 75 311q32 66 73.5 126t81.5 122q-51 17 -118 17q-200 0 -283 -158q-35 -67 -40.5 -144.5t-5.5 -151.5q0 -209 -53.5 -344t-309.5 -135q-214 0 -331.5 150t-117.5 352q0 389 324 512q27 10 55 10q40 0 64 -20
q14 -11 14 -25q0 -25 -38 -38q-128 -47 -192.5 -176t-64.5 -259q0 -124 69 -269.5t218 -145.5q161 0 181 136t20 252q0 92 9 182t61 169q127 194 421 194q92 0 171 -22q50 94 50 169q0 142 -131 142q-98 0 -156 -105q-18 -33 -80 -33q-80 0 -80 46q0 6 4 13q92 171 312 171
q105 0 199.5 -59t94.5 -175q0 -90 -76 -226q145 -87 206 -230q50 -116 50 -248q0 -200 -91 -327q-99 -140 -270 -140zM1424 67q72 0 130 99q71 118 69 277q0 109 -40 211q-43 107 -114 171q-44 -65 -82 -123t-65 -123q-50 -122 -50 -246q0 -78 22 -147q38 -119 130 -119z
" />
    <glyph glyph-name="k1cil" unicode="&#xd7f;" 
d="M1486 -24q-165 0 -241 118q-103 -118 -301 -118q-199 0 -302 118q-76 -118 -241 -118q-149 -2 -243 92q-78 75 -78 186q0 117 80 195q102 102 289 102h83q9 169 65 269q102 180 347 180t345 -179q13 -22 25 -55q55 84 81 129q96 163 96 251q0 143 -129 143
q-102 0 -159 -105q-17 -32 -78 -32q-81 0 -81 45q0 7 4 14q92 170 314 170q109 1 200 -56t91 -179q0 -163 -127.5 -306t-162.5 -289h75q187 0 289 -102q80 -80 80 -195q0 -111 -78 -186q-94 -94 -243 -92zM1192 551q-6 141 -61.5 249.5t-186.5 108.5q-133 0 -187.5 -110
t-62.5 -248h498zM400 67q52 0 95 47q54 57 54 156q0 28 -4 49q-13 70 -14 140l-82 1q-89 2 -147 -56q-59 -59 -59 -152q0 -85 57 -139q46 -46 100 -46zM1487 67q54 0 100 46q57 56 57 143q0 89 -59 148q-56 56 -147 56h-82q-2 -80 -14 -143q-4 -20 -4 -47q0 -98 54 -156
q43 -47 95 -47zM944 67q140 0 193 121t57 271h-500q3 -153 58 -272.5t192 -119.5z" />
    <glyph glyph-name="ZWNJ" unicode="&#x200c;" horiz-adv-x="321" 
d="M66 992h159v-989h-159v989z" />
    <glyph glyph-name="ZWJ" unicode="&#x200d;" horiz-adv-x="321" 
d="M148 1003l-134 -208h-104l186 272l-172 248h109l78 -121q4 -6 34 -59l125 180h107l-178 -244l188 -276h-104zM70 879h154v-875h-154v875z" />
    <glyph glyph-name="endash" unicode="&#x2013;" horiz-adv-x="992" 
d="M892 524l-1 -120h-791l1 120h791z" />
    <glyph glyph-name="emdash" unicode="&#x2014;" horiz-adv-x="1431" 
d="M1331 572v-120h-1231v120h1231z" />
    <glyph glyph-name="quoteleft" unicode="&#x2018;" horiz-adv-x="294" 
d="M125 1425q30 48 72 72q32 20 71 20q26 0 26 -14q0 -6 -11 -10q-44 -17 -70 -62q-21 -36 -24 -72q6 1 18 1q107 0 107 -107t-107 -107q-54 0 -87 36q-37 38 -37 102q0 77 42 141z" />
    <glyph glyph-name="quoteright" unicode="&#x2019;" horiz-adv-x="294" 
d="M169 1320q-30 -48 -72 -72q-32 -20 -71 -20q-26 0 -26 14q0 6 11 10q44 17 70 62q21 36 24 72q-6 -1 -18 -1q-107 0 -107 107t107 107q54 0 87 -36q37 -38 37 -102q0 -77 -42 -141z" />
    <glyph glyph-name="quotesinglbase" unicode="&#x201a;" horiz-adv-x="394" 
d="M269 -66q-30 -48 -72 -72q-32 -20 -71 -20q-26 0 -26 14q0 6 11 10q44 17 70 62q21 36 24 72q-6 -1 -18 -1q-107 0 -107 107t107 107q54 0 87 -36q37 -38 37 -102q0 -77 -42 -141z" />
    <glyph glyph-name="quotedblleft" unicode="&#x201c;" horiz-adv-x="536" 
d="M367 1425q30 48 72 72q32 20 71 20q26 0 26 -14q0 -6 -11 -10q-44 -17 -70 -62q-21 -36 -24 -72q6 1 18 1q107 0 107 -107t-107 -107q-54 0 -87 36q-37 38 -37 102q0 77 42 141zM125 1425q30 48 72 72q32 20 71 20q26 0 26 -14q0 -6 -11 -10q-44 -17 -70 -62
q-21 -36 -24 -72q6 1 18 1q107 0 107 -107t-107 -107q-54 0 -87 36q-37 38 -37 102q0 77 42 141z" />
    <glyph glyph-name="quotedblright" unicode="&#x201d;" horiz-adv-x="536" 
d="M169 1318q-30 -48 -72 -72q-32 -20 -71 -20q-26 0 -26 14q0 6 11 10q44 17 70 62q21 36 24 72q-6 -1 -18 -1q-107 0 -107 107t107 107q54 0 87 -36q37 -38 37 -102q0 -77 -42 -141zM411 1318q-30 -48 -72 -72q-32 -20 -71 -20q-26 0 -26 14q0 6 11 10q44 17 70 62
q21 36 24 72q-6 -1 -18 -1q-107 0 -107 107t107 107q54 0 87 -36q37 -38 37 -102q0 -77 -42 -141z" />
    <glyph glyph-name="quotedblbase" unicode="&#x201e;" horiz-adv-x="572" 
d="M205 -40q-30 -48 -72 -72q-32 -20 -71 -20q-26 0 -26 14q0 6 11 10q44 17 70 62q21 36 24 72q-6 -1 -18 -1q-107 0 -107 107t107 107q54 0 87 -36q37 -38 37 -102q0 -77 -42 -141zM447 -40q-30 -48 -72 -72q-32 -20 -71 -20q-26 0 -26 14q0 6 11 10q44 17 70 62
q21 36 24 72q-6 -1 -18 -1q-107 0 -107 107t107 107q54 0 87 -36q37 -38 37 -102q0 -77 -42 -141z" />
    <glyph glyph-name="bullet" unicode="&#x2022;" horiz-adv-x="470" 
d="M235 810q155 0 155 -155t-155 -155t-155 155t155 155z" />
    <glyph glyph-name="ellipsis" unicode="&#x2026;" horiz-adv-x="1159" 
d="M986 219q108 0 108 -107q0 -108 -108 -108q-107 0 -107 108q0 107 107 107zM596 219q108 0 108 -107q0 -108 -108 -108q-107 0 -107 108q0 107 107 107zM207 219q108 0 108 -107q0 -108 -108 -108q-107 0 -107 108q0 107 107 107z" />
    <glyph glyph-name="zero_super" unicode="&#x2070;" horiz-adv-x="485" 
d="M243 1000q-111 0 -177 96t-66 242q0 135 58 230q66 109 184 109q119 0 185 -109q58 -95 58 -230q0 -147 -66 -242q-66 -96 -176 -96zM146 1534q-36 -79 -36 -196q0 -127 41 -206q38 -72 92 -72q53 0 91 72q41 79 41 206q0 117 -36 196q-38 83 -96 83q-59 0 -97 -83z" />
    <glyph glyph-name="four_super" unicode="&#x2074;" horiz-adv-x="526" 
d="M410 1030q0 -30 -53 -30q-54 0 -54 30v141h-250q-53 0 -53 30q0 5 4 11l302 444q14 21 51 21q53 0 53 -30v-417h63q53 0 53 -29q0 -30 -53 -30h-63v-141zM97 1230h206v307z" />
    <glyph glyph-name="five_super" unicode="&#x2075;" horiz-adv-x="460" 
d="M460 1212q0 -212 -233 -212q-146 0 -206 107q-21 39 -21 57q0 28 51 28q47 0 53 -26q24 -107 123 -107q128 0 128 153t-128 153q-66 0 -102 -58q-17 -26 -48 -26q-57 0 -57 27q0 3 0.5 7t0.5 6l40 304q4 28 53 28h273q52 0 52 -30q0 -29 -52 -29h-225l-24 -184
q44 14 89 14q233 0 233 -212z" />
    <glyph glyph-name="six_super" unicode="&#x2076;" horiz-adv-x="478" 
d="M249 1000q-195 0 -237 206q-13 64 -12 130q2 104 30 176q63 165 232 165q51 0 96 -20q69 -31 96 -96q12 -24 12 -38q0 -28 -52 -28q-49 0 -54 26q-10 41 -39 70q-28 26 -59 26q-95 0 -137 -121q-15 -44 -19 -110q56 50 143 50q229 0 229 -218t-229 -218zM249 1060
q122 0 122 158q0 159 -122 159q-123 0 -123 -159q0 -158 123 -158z" />
    <glyph glyph-name="seven_super" unicode="&#x2077;" horiz-adv-x="475" 
d="M202 1000q-51 0 -51 30q0 166 64 335q43 115 127 229h-289q-53 0 -53 29q0 30 53 30h369q17 0 34 -7q19 -9 19 -22q0 -6 -6 -14q-101 -124 -151 -257q-54 -142 -62 -324q-1 -29 -54 -29z" />
    <glyph glyph-name="eight_super" unicode="&#x2078;" horiz-adv-x="476" 
d="M458 1500q0 -97 -90 -145q108 -52 108 -164q0 -191 -238 -191t-238 191q0 112 108 164q-90 48 -90 145q0 177 220 177t220 -177zM352 1500q0 117 -114 117t-114 -117t114 -117t114 117zM369 1191q0 132 -131 132t-131 -132q0 -131 131 -131t131 131z" />
    <glyph glyph-name="nine_super" unicode="&#x2079;" horiz-adv-x="478" 
d="M229 1677q195 0 237 -206q13 -64 12 -130q-2 -104 -30 -176q-63 -165 -232 -165q-51 0 -96 20q-69 31 -96 96q-12 24 -12 38q0 28 52 28q49 0 54 -26q10 -41 39 -70q28 -26 59 -26q95 0 137 121q15 44 19 110q-56 -50 -143 -50q-229 0 -229 218t229 218zM229 1617
q-122 0 -122 -158q0 -159 122 -159q123 0 123 159q0 158 -123 158z" />
    <glyph glyph-name="euro" unicode="&#x20ac;" horiz-adv-x="1336" 
d="M931 -24q-523 0 -632 529h-138q-81 0 -81 45q0 46 81 46h124q-4 54 -4 82q0 41 5 89h-125q-81 0 -81 46q0 45 81 45h139q112 523 631 523q211 0 367 -106q18 -12 18 -28q0 -22 -30 -36q-24 -10 -51 -10q-38 0 -63 16q-107 73 -241 73q-193 0 -310 -129t-157 -303h676
q82 0 82 -45q0 -46 -82 -46h-691q-5 -48 -5 -89q0 -28 4 -82h638q81 0 81 -46q0 -45 -81 -45h-623q38 -175 156 -306.5t312 -131.5q127 0 230 66q26 15 61 15q31 0 55 -12q27 -13 27 -34q0 -16 -20 -29q-151 -97 -353 -97z" />
    <glyph glyph-name="rupee" unicode="&#x20b9;" horiz-adv-x="1196" 
d="M778 -24q-49 0 -71 24l-542 579q-13 15 -13 25q0 46 81 46q340 0 457 181q34 54 39 114h-547q-82 0 -82 45q0 46 82 46h535q-12 37 -40 73q-119 157 -392 157h-103q-82 0 -82 45q0 46 82 46h832q82 0 82 -46q0 -45 -82 -45h-331q90 -50 144 -121q40 -52 55 -109h132
q82 0 82 -46q0 -45 -82 -45h-122q-5 -77 -49 -145q-131 -200 -481 -236l489 -522q9 -10 9 -21q0 -24 -35 -37q-21 -8 -47 -8z" />
    <glyph glyph-name="uni25CC" unicode="&#x25cc;" horiz-adv-x="1084" 
d="M639 917q-16 0 -28 3q-35 8 -69 8t-69 -8q-12 -3 -28 -3q-44 0 -61 21q-6 8 -6 15q0 25 40 33q57 14 124 14t124 -14q40 -8 40 -33q0 -7 -6 -15q-17 -21 -61 -21zM929 688q-52 0 -66 25q-26 44 -57 75q-30 33 -68 59q-15 10 -15 22q0 19 26 29q19 8 43 8q30 0 52 -14
q45 -31 82 -71q39 -42 65 -87q4 -8 4 -11q0 -24 -48 -34q-5 -1 -18 -1zM155 688q-13 0 -18 1q-48 10 -48 34q0 3 4 11q26 45 65 87q37 40 82 71q22 14 52 14q24 0 43 -8q26 -10 26 -29q0 -11 -15 -22q-38 -26 -68 -59q-31 -31 -57 -75q-14 -25 -66 -25zM976 349
q-72 0 -68 35q3 28 7 52t4 52q0 44 -10 99l-1 5q-5 35 68 35q60 0 67 -32q11 -53 11 -107t-11 -107q-7 -32 -67 -32zM176 384q4 -35 -68 -35q-60 0 -67 32q-11 53 -11 107t11 107q7 32 67 32q73 0 68 -35l-1 -5q-10 -55 -10 -99q0 -28 4 -51.5t7 -52.5zM292 70q-30 0 -52 14
q-45 31 -82 71q-39 42 -65 87q-4 8 -4 11q0 24 48 34q5 1 18 1q52 0 66 -25q26 -44 57 -75q30 -33 68 -59q15 -10 15 -22q0 -19 -26 -29q-19 -8 -43 -8zM792 70q-24 0 -43 8q-26 10 -26 29q0 12 15 22q38 26 68 59q31 31 57 75q14 25 66 25q13 0 18 -1q47 -8 47 -34
q0 -5 -3 -11q-26 -45 -65 -87q-37 -40 -82 -71q-22 -14 -52 -14zM542 -24q-67 0 -124 14q-40 8 -40 33q0 8 6 15q17 21 61 21q16 0 28 -3q35 -8 69 -8t69 8q12 3 28 3q44 0 61 -21q6 -7 6 -15q0 -25 -40 -33q-57 -14 -124 -14z" />
    <glyph glyph-name="r4" horiz-adv-x="598" 
d="M500 -295q-188 0 -283 91q-82 80 -99.5 201.5t-17.5 228.5q0 185 37 394q49 266 112 354q21 28 75 28q81 0 81 -45q0 -6 -5 -18q-62 -115 -101 -319q-37 -198 -37 -394q0 -89 14.5 -204.5t80.5 -179.5q47 -46 142 -46q93 0 163 35q24 12 56 12q35 0 59 -15q21 -13 21 -31
q0 -20 -27 -34q-116 -58 -271 -58z" />
    <glyph glyph-name="y2" horiz-adv-x="509" 
d="M222 -517q-104 0 -213 60t-109 181q0 66 51 119q44 44 97 44q28 0 51 -11q32 -14 32 -33q0 -13 -18 -27q-50 -38 -50 -92q0 -150 159 -150q173 0 173 210q0 106 -53.5 174.5t-112.5 149.5q-100 137 -133 321q-18 100 -18 220q0 127 16 277q4 43 85 43q78 0 78 -46
q0 -4 -0.5 -8t-0.5 -9q-16 -158 -16 -262q0 -113 16 -201q32 -175 123 -300q56 -76 118 -161t62 -186q0 -313 -337 -313z" />
    <glyph glyph-name="y2u1" horiz-adv-x="539" 
d="M315 -930q-260 0 -260 250t260 250t260 -250t-260 -250zM315 -845q117 0 117 165t-117 165t-117 -165t117 -165zM222 -516q-104 0 -213 60t-109 181q0 66 51 119q44 44 97 44q28 0 51 -11q32 -14 32 -33q0 -13 -18 -27q-50 -38 -50 -92q0 -150 159 -150q173 0 173 210
q0 106 -53.5 174.5t-112.5 149.5q-100 137 -133 321q-18 100 -18 220q0 127 16 277q4 43 85 43q78 0 78 -46q0 -4 -0.5 -8t-0.5 -9q-16 -158 -16 -262q0 -113 16 -201q32 -175 123 -300q56 -76 118 -161t62 -186q0 -313 -337 -313z" />
    <glyph glyph-name="y2u2" horiz-adv-x="574" 
d="M340 -1110q-122 0 -213 46q-23 12 -23 30q0 14 18 26q20 12 50 12q26 0 48 -10q52 -26 120 -26q282 0 282 295q0 131 -91 192q37 -60 37 -143q0 -248 -260 -248t-260 248q0 146 118 218q73 44 212 44q170 0 275 -93q95 -85 95 -218q0 -170 -125 -271.5t-283 -101.5z
M308 -854q117 0 117 168q0 170 -117 170q-116 0 -116 -170q0 -168 116 -168zM222 -518q-104 0 -213 60t-109 181q0 66 51 119q44 44 97 44q28 0 51 -11q32 -14 32 -33q0 -13 -18 -27q-50 -38 -50 -92q0 -150 159 -150q173 0 173 210q0 106 -53.5 174.5t-112.5 149.5
q-100 137 -133 321q-18 100 -18 220q0 127 16 277q4 43 85 43q78 0 78 -46q0 -4 -0.5 -8t-0.5 -9q-16 -158 -16 -262q0 -113 16 -201q32 -175 123 -300q56 -76 118 -161t62 -186q0 -313 -337 -313z" />
    <glyph glyph-name="v2" horiz-adv-x="361" 
d="M180 -210h-398q-82 0 -82 49q0 48 82 48h316l1 1067q0 46 81 46t81 -46v-1114q0 -50 -81 -50z" />
    <glyph glyph-name="k1u1" horiz-adv-x="1888" 
d="M1355 551h189q78 0 158 -33t80 -129q0 -70 -71 -109q97 -34 97 -120q0 -103 -90.5 -143.5t-175.5 -40.5q-60 0 -109 14q-95 26 -95 65q0 19 28 31q26 11 54 11q39 0 60.5 -15t60.5 -15q109 0 109 91q0 49 -42 67q-15 7 -40 7q-15 0 -30.5 -2t-29.5 -2q-83 0 -83 45
q0 44 79 44h64q25 4 39 25q13 17 13 42q0 76 -75 76h-189q0 -185 -70 -308q-100 -176 -342 -176q-200 0 -302 118q-76 -118 -241 -118q-149 0 -243 91q-78 78 -78 187q0 115 80 195q102 102 289 102h83q9 167 65 269q102 180 347 180q246 0 345 -179q57 -101 66 -270z
M1192 551q-6 140 -61.5 249t-186.5 109q-132 0 -187 -109t-63 -249h498zM400 67q53 0 95 46q54 58 54 155q0 24 -5 54q-11 63 -13 137h-82q-92 0 -147 -55q-59 -59 -59 -152q0 -84 57 -140q47 -45 100 -45zM944 67q140 0 193 121t57 271h-500q3 -153 58 -272.5t192 -119.5z
" />
    <glyph glyph-name="k1u2" horiz-adv-x="1889" 
d="M1355 551h173q241 0 241 -191q0 -101 -87 -135q127 -40 127 -175q0 -79 -71.5 -155t-232.5 -76h-1131q-130 0 -130 -81q0 -84 130 -84h1305q80 0 80 -70t-80 -70h-1305q-100 0 -197 38t-97 162q0 123 97 159.5t197 36.5h1127q153 0 153 145q0 105 -108 116
q-16 2 -33.5 -0.5t-34.5 -2.5q-80 0 -80 47q0 46 80 46q16 0 33 -2t33 0q75 8 73 101q0 100 -89 100h-172q0 -187 -70 -308q-100 -176 -342 -176q-200 0 -302 118q-76 -118 -241 -118q-151 0 -243 91q-78 77 -78 187q0 115 80 195q102 102 289 102h83q9 167 65 269
q102 180 347 180q246 0 345 -179q57 -101 66 -270zM1192 551q-6 140 -61.5 249t-186.5 109q-132 0 -187 -109t-63 -249h498zM400 67q53 0 95 46q54 58 54 155q0 24 -5 54q-11 63 -13 137h-82q-92 0 -147 -55q-59 -59 -59 -152q0 -84 57 -140q47 -45 100 -45zM944 67
q140 0 193 121t57 271h-500q3 -153 58 -272.5t192 -119.5z" />
    <glyph glyph-name="k1r1" horiz-adv-x="1902" 
d="M946 -486q-124 0 -213 25q-177 48 -177 148q0 102 182 149q86 23 208 23q105 0 189 -19q58 -13 127 -50t69 -103q0 -14 -4 -25q333 134 333 464q0 85 -28 153q-72 181 -238 181h-38q-5 -194 -70 -308q-101 -176 -343 -176q-198 0 -301 119q-75 -119 -241 -119
q-148 0 -243 92q-78 77 -78 186q0 116 79 195q62 62 142.5 82t146.5 20h84q9 167 65 268q100 181 346 181q247 0 346 -179q57 -103 66 -270h39q294 0 396 -252q32 -78 32 -166q0 -208 -127.5 -344.5t-316.5 -203.5q-83 -30 -163 -46q-117 -25 -269 -25zM1192 551
q-6 143 -62.5 250.5t-186.5 107.5q-136 0 -188.5 -113t-60.5 -245h498zM943 68q141 0 194 122t56 270h-500q5 -151 58 -271.5t192 -120.5zM400 67q52 0 95 47q54 58 54 155q0 24 -5 54q-11 63 -13 137h-82q-94 0 -148 -55q-59 -57 -59 -149q0 -86 58 -143q48 -46 100 -46z
M946 -402q237 0 237 89q0 88 -237 88q-242 0 -242 -88q0 -89 242 -89z" />
    <glyph glyph-name="k1r2" horiz-adv-x="1902" 
d="M942 -486q-147 0 -243 35q-143 52 -143 161q0 66 68 110q62 39 161 39q95 0 158 -40q63 40 158 40q101 0 161 -39q69 -45 69 -108q0 -25 -13 -54q342 133 342 468q0 85 -28 153q-72 181 -238 181h-38q-5 -194 -70 -308q-101 -176 -343 -176q-198 0 -301 119
q-75 -119 -241 -119q-148 0 -243 92q-78 77 -78 186q0 116 79 195q62 62 142.5 82t146.5 20h84q9 167 65 268q100 181 346 181q247 0 346 -179q57 -103 66 -270h39q294 0 396 -252q32 -78 32 -166q0 -252 -173 -392t-394 -193q-139 -34 -313 -34zM1192 551
q-6 143 -62.5 250.5t-186.5 107.5q-136 0 -188.5 -113t-60.5 -245h498zM400 67q52 0 95 47q54 58 54 155q0 24 -5 54q-11 63 -13 137h-82q-94 0 -148 -55q-59 -57 -59 -149q0 -86 58 -143q48 -46 100 -46zM943 68q141 0 194 122t56 270h-500q5 -151 58 -271.5t192 -120.5z
M942 -408q127 0 195 30q65 29 65 86q0 75 -103 75q-85 0 -85 -96q0 -41 -71 -41t-71 41q0 96 -85 96q-102 0 -103 -71q-1 -61 65 -90q67 -30 193 -30z" />
    <glyph glyph-name="k1l1" 
d="M1490 -21q-57 0 -107 14q-54 16 -54 46q0 20 30 33q24 11 45 11q22 0 41.5 -6t41.5 -6q71 0 118 65q40 54 40 119q0 78 -43 132q-61 76 -174 76h-72q-5 -196 -70 -308q-100 -176 -342 -176q-200 0 -302 118q-76 -118 -241 -118q-150 0 -243 91q-78 77 -78 187
q0 115 80 195q102 102 289 102h83q9 169 65 269q102 180 347 180t345 -179q58 -104 66 -270h73q168 0 272 -78q107 -79 107 -219q0 -110 -80 -187q-94 -89 -237 -91zM1192 554q-6 140 -61.5 249t-186.5 109q-132 0 -187 -109t-63 -249h498zM400 70q53 0 95 46q54 58 54 155
q0 24 -5 54q-11 63 -13 137h-82q-92 0 -147 -55q-59 -59 -59 -152q0 -84 57 -140q47 -45 100 -45zM944 70q140 0 193 121t57 271h-500q3 -153 58 -272.5t192 -119.5zM1271 -636q-127 0 -188 89q-39 56 -39 134q0 92 54 161q66 85 192 104q-63 53 -146 53q-161 0 -161 -156
v-355q0 -30 -61 -30q-62 0 -62 30v349q0 162 -176 162q-118 0 -178 -119q-21 -42 -27 -91q49 42 124 42q99 0 155 -59q47 -48 47 -120q0 -97 -63 -147q-58 -47 -146 -47q-86 -2 -145 46q-96 77 -96 238q0 90 36 159q81 157 293 157q156 0 238 -67q80 67 222 67
q194 0 295 -125q70 -87 70 -216q0 -92 -44 -162q-61 -97 -194 -97zM1271 -577q50 0 80 54q35 61 35 146q0 104 -47 174q-82 -6 -130 -74q-41 -59 -41 -136q0 -60 17 -99q29 -65 86 -65zM596 -577q31 0 59 30q33 36 33 97q0 125 -92 125q-93 0 -93 -126q0 -128 93 -126z" />
    <glyph glyph-name="k1k1" horiz-adv-x="2367" 
d="M1922 -24q-31 0 -57 17q-19 13 -19 28q0 23 30 36q111 51 176 159q72 119 72 265q0 173 -92 289q-109 139 -294 139q-174 0 -284 -125q-79 -91 -98 -233h83q66 0 146.5 -20t142.5 -82q79 -79 79 -195q0 -109 -78 -186q-97 -94 -243 -92q-165 0 -241 118
q-103 -118 -301 -118q-197 0 -302 118q-76 -118 -241 -118q-147 -2 -242 92q-79 78 -79 190q0 113 80 191q102 102 289 102h83q8 165 66 268q100 181 346 181q229 0 331 -157q19 -29 31 -56q17 28 44 58q140 155 387 155q233 0 391 -148q159 -148 159 -371q0 -175 -93 -312
q-72 -107 -187 -168q-46 -25 -85 -25zM1193 551q-7 138 -62 248t-187 110q-130 0 -186.5 -108.5t-62.5 -249.5h498zM1487 67q54 0 100 46q58 55 58 143q0 89 -59 148q-55 55 -148 55h-82q-2 -79 -14 -142q-4 -20 -4 -47q0 -98 54 -156q43 -47 95 -47zM400 67q52 0 95 47
q54 57 54 155q0 28 -4 49q-11 61 -14 141h-82q-93 0 -147 -55q-59 -59 -59 -148q0 -87 57 -143q46 -46 100 -46zM944 67q140 0 193 121t57 271h-500q5 -150 58 -271t192 -121z" />
    <glyph glyph-name="k1k1u1" horiz-adv-x="2383" 
d="M1985 -24q-65 0 -134 24q-39 14 -39 39q0 22 34 36q23 9 48 9q27 0 47 -8t45 -8q68 0 111 55q44 58 44 138t-62 130q-40 33 -88 33l-52 -1q-70 -2 -70 45q0 40 69 46q12 2 25.5 1.5t25.5 1.5q44 7 77 37q45 41 45 104q1 100 -67 165q-90 86 -256 86q-202 0 -313 -108
q-95 -93 -120 -250h84q66 0 147 -20t142 -82q79 -79 79 -195q0 -110 -78 -187q-94 -91 -243 -91q-165 0 -241 118q-102 -118 -301 -118t-302 118q-76 -118 -241 -118q-149 0 -242 91q-79 78 -79 194q0 108 80 188q102 102 289 102h83q8 165 66 269q100 180 346 180
q225 0 329 -152q18 -27 35 -66q25 36 52 63q151 155 433 155q197 0 318 -74q162 -99 162 -264q0 -119 -110 -187q140 -74 140 -219q0 -93 -65 -173q-42 -52 -110 -79q-66 -28 -143 -28zM1193 551q-7 138 -62 248t-187 110q-130 0 -186.5 -108.5t-62.5 -249.5h498zM1487 67
q53 0 100 45q58 57 58 144q0 89 -59 148q-55 55 -148 55h-82q-2 -76 -13 -142q-5 -27 -5 -50q0 -96 54 -154q42 -46 95 -46zM400 67q53 0 95 46q54 57 54 156q0 28 -4 49q-11 61 -14 141h-82q-92 0 -147 -55q-59 -59 -59 -148q0 -87 57 -144q47 -45 100 -45zM944 67
q140 0 193 121t57 271h-500q5 -149 57.5 -270.5t192.5 -121.5z" />
    <glyph glyph-name="k1k1u2" horiz-adv-x="2384" 
d="M2174 -486h-1798q-101 0 -198.5 37.5t-97.5 160.5q0 126 96.5 162.5t199.5 36.5h1472q171 0 256 135q44 68 42 162q0 121 -68 182q-35 31 -91 33h-48q-70 0 -70 44q0 41 68 46q13 2 26.5 2t24.5 1q46 9 77 38q45 42 45 107q0 92 -67 159q-86 89 -269 89q-189 0 -299 -109
q-94 -92 -120 -249h83q187 0 289 -102q80 -78 80 -191q0 -112 -79 -190q-94 -92 -242 -92q-166 0 -241 119q-104 -119 -302 -119t-301 119q-75 -119 -241 -119q-149 0 -243 92q-78 77 -78 186q0 117 79 195q62 62 142.5 82t146.5 20h84q8 166 65 268q100 181 346 181
q225 0 328 -151q21 -29 37 -68q25 38 62 74q153 145 420 145q201 0 321 -74q161 -99 161 -264q0 -120 -109 -187q141 -73 141 -263q0 -150 -80 -247q-118 -144 -376 -144h-1472q-131 0 -131 -82q0 -87 131 -87h1798q82 0 82 -69t-82 -69zM1192 551q-6 132 -60.5 245
t-188.5 113q-136 0 -188.5 -112.5t-60.5 -245.5h498zM1487 67q54 0 100 46q57 57 57 143q0 90 -59 149q-55 55 -147 55h-82q-1 -71 -14 -143q-4 -20 -4 -47q0 -98 54 -156q43 -47 95 -47zM400 67q52 0 95 47q54 58 54 155q0 23 -5 50q-11 64 -13 141h-82q-92 0 -148 -55
q-59 -57 -59 -149q0 -86 58 -143q46 -46 100 -46zM943 68q144 0 195.5 125.5t54.5 266.5h-500q5 -151 58 -271.5t192 -120.5z" />
    <glyph glyph-name="k1k1r1" horiz-adv-x="2378" 
d="M947 -486q-113 0 -213 27q-178 45 -178 148q0 101 183 149q86 22 208 22q104 0 189 -19q57 -13 126 -50t69 -102q0 -39 -29 -71q224 35 361 96q203 90 316 236q156 203 156 465q0 191 -89 325q-113 169 -319 169q-142 0 -246 -98q-103 -97 -125 -260h83q66 0 146.5 -20
t142.5 -82q79 -79 79 -195q0 -109 -78 -186q-95 -92 -243 -92q-165 0 -241 118q-103 -118 -301 -118q-197 0 -302 118q-76 -118 -241 -118q-148 0 -242 92q-79 78 -79 190q0 113 80 191q102 102 289 102h83q8 165 66 269q100 180 346 180q206 0 311 -128q28 -35 49 -82
q37 59 87 100q129 110 336 110q290 0 445 -193q126 -156 126 -392q0 -281 -170 -501q-142 -183 -405 -286q-152 -61 -338 -89q-109 -16 -220 -20.5t-218 -4.5zM1193 551q-7 138 -62 248t-187 110q-130 0 -186.5 -108.5t-62.5 -249.5h498zM944 68q141 0 193.5 121.5
t56.5 269.5h-500q5 -148 57 -269.5t193 -121.5zM400 67q52 0 95 47q54 57 54 155q0 28 -4 49q-11 61 -14 141h-82q-93 0 -147 -55q-59 -59 -59 -148q0 -87 57 -143q46 -46 100 -46zM1487 67q52 0 100 46q58 57 58 143q0 89 -59 148q-55 55 -148 55h-82q-2 -76 -13 -142
q-5 -27 -5 -50q0 -96 54 -153q43 -47 95 -47zM947 -401q236 0 236 89q0 88 -236 88q-242 0 -242 -88q0 -89 242 -89z" />
    <glyph glyph-name="k1k1r3" horiz-adv-x="2746" 
d="M1381 -486q-217 0 -445.5 42t-419.5 148q-436 242 -436 738q0 368 268 541q24 17 62 17q28 0 51 -11q30 -12 30 -36q0 -16 -19 -29q-229 -150 -229 -486q0 -454 387 -670q164 -91 363 -127t388 -36q191 0 397 44.5t368 150.5q357 234 357 618q0 194 -100 331
q-116 160 -329 160q-139 0 -248 -117q-91 -97 -109 -242h82q66 0 146.5 -19.5t142.5 -81.5q79 -79 79 -191q0 -113 -78 -190q-94 -92 -242 -92q-167 0 -241 118q-105 -118 -302 -118q-198 0 -302 119q-75 -119 -241 -119q-148 0 -242 92q-79 78 -79 190q0 111 80 191
q62 62 142 81.5t147 19.5h83q8 166 66 269q100 181 346 181q265 0 360 -209q138 209 414 209q315 0 475 -216q113 -151 113 -366q0 -416 -397 -677q-187 -123 -426 -175t-462 -52zM1553 550q-8 143 -63.5 251t-185.5 108q-133 0 -188 -110t-61 -249h498zM1847 67
q53 0 101 46q57 57 57 143q0 91 -59 148q-55 55 -147 55h-83q-2 -76 -13 -142q-4 -21 -4 -49q0 -98 53 -154q43 -47 95 -47zM761 67q50 0 95 47q53 57 53 156q0 28 -4 49q-11 64 -13 140h-83q-92 0 -147 -55q-59 -57 -59 -148q0 -86 57 -143q48 -46 101 -46zM1304 68
q139 0 192.5 119.5t57.5 270.5h-500q5 -145 56.5 -267.5t193.5 -122.5z" />
    <glyph glyph-name="k1k1r3u1" horiz-adv-x="2746" 
d="M1381 -486q-217 0 -445.5 42t-419.5 148q-436 242 -436 738q0 368 268 541q24 17 62 17q28 0 51 -11q30 -12 30 -36q0 -16 -19 -29q-229 -150 -229 -486q0 -454 387 -670q164 -91 363 -127t388 -36q191 0 397 44.5t368 150.5q357 234 357 618q0 194 -100 331
q-116 160 -329 160q-139 0 -248 -117q-91 -97 -109 -242h82q66 0 146.5 -19.5t142.5 -81.5q79 -79 79 -191q0 -113 -78 -190q-94 -92 -242 -92q-167 0 -241 118q-105 -118 -302 -118q-198 0 -302 119q-75 -119 -241 -119q-148 0 -242 92q-79 78 -79 190q0 111 80 191
q62 62 142 81.5t147 19.5h83q8 166 66 269q100 181 346 181q265 0 360 -209q138 209 414 209q315 0 475 -216q113 -151 113 -366q0 -416 -397 -677q-187 -123 -426 -175t-462 -52zM1553 550q-8 143 -63.5 251t-185.5 108q-133 0 -188 -110t-61 -249h498zM1847 67
q53 0 101 46q57 57 57 143q0 91 -59 148q-55 55 -147 55h-83q-2 -76 -13 -142q-4 -21 -4 -49q0 -98 53 -154q43 -47 95 -47zM761 67q50 0 95 47q53 57 53 156q0 28 -4 49q-11 64 -13 140h-83q-92 0 -147 -55q-59 -57 -59 -148q0 -86 57 -143q48 -46 101 -46zM1304 68
q139 0 192.5 119.5t57.5 270.5h-500q5 -145 56.5 -267.5t193.5 -122.5zM2370 -634q-260 0 -260 250t260 250t260 -250t-260 -250zM2370 -549q117 0 117 165t-117 165t-117 -165t117 -165z" />
    <glyph glyph-name="k1k1r3u2" horiz-adv-x="2790" 
d="M2402 -812q-122 0 -213 46q-23 12 -23 30q0 14 18 26q20 12 50 12q26 0 48 -10q52 -26 120 -26q282 0 282 295q0 131 -91 192q37 -60 37 -143q0 -248 -260 -248t-260 248q0 146 118 218q73 44 212 44q170 0 275 -93q95 -85 95 -218q0 -170 -125 -271.5t-283 -101.5z
M2370 -556q117 0 117 168q0 170 -117 170q-116 0 -116 -170q0 -168 116 -168zM1381 -486q-217 0 -445.5 42t-419.5 148q-436 242 -436 738q0 368 268 541q24 17 62 17q28 0 51 -11q30 -12 30 -36q0 -16 -19 -29q-229 -150 -229 -486q0 -454 387 -670q164 -91 363 -127
t388 -36q191 0 397 44.5t368 150.5q357 234 357 618q0 194 -100 331q-116 160 -329 160q-139 0 -248 -117q-91 -97 -109 -242h82q66 0 146.5 -19.5t142.5 -81.5q79 -79 79 -191q0 -113 -78 -190q-94 -92 -242 -92q-167 0 -241 118q-105 -118 -302 -118q-198 0 -302 119
q-75 -119 -241 -119q-148 0 -242 92q-79 78 -79 190q0 111 80 191q62 62 142 81.5t147 19.5h83q8 166 66 269q100 181 346 181q265 0 360 -209q138 209 414 209q315 0 475 -216q113 -151 113 -366q0 -416 -397 -677q-187 -123 -426 -175t-462 -52zM1553 550
q-8 143 -63.5 251t-185.5 108q-133 0 -188 -110t-61 -249h498zM1847 67q53 0 101 46q57 57 57 143q0 91 -59 148q-55 55 -147 55h-83q-2 -76 -13 -142q-4 -21 -4 -49q0 -98 53 -154q43 -47 95 -47zM761 67q50 0 95 47q53 57 53 156q0 28 -4 49q-11 64 -13 140h-83
q-92 0 -147 -55q-59 -57 -59 -148q0 -86 57 -143q48 -46 101 -46zM1304 68q139 0 192.5 119.5t57.5 270.5h-500q5 -145 56.5 -267.5t193.5 -122.5z" />
    <glyph glyph-name="k1t1" 
d="M1490 -24q-57 0 -107 14q-54 16 -54 46q0 20 30 33q24 11 45 11q22 0 41.5 -6t41.5 -6q71 0 118 65q40 54 40 119q0 78 -43 132q-61 76 -174 76h-72q-5 -196 -70 -308q-100 -176 -342 -176q-200 0 -302 118q-76 -118 -241 -118q-150 0 -243 91q-78 77 -78 187
q0 115 80 195q102 102 289 102h83q9 169 65 269q102 180 347 180t345 -179q58 -104 66 -270h73q168 0 272 -78q107 -79 107 -219q0 -110 -80 -187q-94 -89 -237 -91zM1192 551q-6 140 -61.5 249t-186.5 109q-132 0 -187 -109t-63 -249h498zM400 67q53 0 95 46q54 58 54 155
q0 24 -5 54q-11 63 -13 137h-82q-92 0 -147 -55q-59 -59 -59 -152q0 -84 57 -140q47 -45 100 -45zM944 67q140 0 193 121t57 271h-500q3 -153 58 -272.5t192 -119.5zM999 -636q-207 0 -311 103q-7 7 -7 13q0 14 24 23q18 6 39 6q36 0 53 -16q72 -72 201 -70q180 2 179 123
q-1 70 -114 70q-51 0 -62 -1t-52 -2q-92 -2 -155 22q-97 37 -97 130q-2 100 102 154q86 45 200 45q191 0 295 -100q7 -7 7 -13q0 -17 -26 -24q-16 -6 -37 -6q-38 0 -54 16q-68 68 -185 68q-181 0 -178 -128q0 -65 108 -65q39 0 55.5 1t56.5 1q101 0 155 -18
q105 -34 105 -143q0 -90 -83 -139q-85 -50 -219 -50z" />
    <glyph glyph-name="k1t1u1" 
d="M1490 -24q-57 0 -107 14q-54 16 -54 46q0 20 30 33q24 11 45 11q22 0 41.5 -6t41.5 -6q71 0 118 65q40 54 40 119q0 78 -43 132q-61 76 -174 76h-72q-5 -196 -70 -308q-100 -176 -342 -176q-200 0 -302 118q-76 -118 -241 -118q-150 0 -243 91q-78 77 -78 187
q0 115 80 195q102 102 289 102h83q9 169 65 269q102 180 347 180t345 -179q58 -104 66 -270h73q168 0 272 -78q107 -79 107 -219q0 -110 -80 -187q-94 -89 -237 -91zM1192 551q-6 140 -61.5 249t-186.5 109q-132 0 -187 -109t-63 -249h498zM400 67q53 0 95 46q54 58 54 155
q0 24 -5 54q-11 63 -13 137h-82q-92 0 -147 -55q-59 -59 -59 -152q0 -84 57 -140q47 -45 100 -45zM944 67q140 0 193 121t57 271h-500q3 -153 58 -272.5t192 -119.5zM999 -636q-207 0 -311 103q-7 7 -7 13q0 14 24 23q18 6 39 6q36 0 53 -16q72 -72 201 -70q180 2 179 123
q-1 70 -114 70q-51 0 -62 -1t-52 -2q-92 -2 -155 22q-97 37 -97 130q-2 100 102 154q86 45 200 45q191 0 295 -100q7 -7 7 -13q0 -17 -26 -24q-16 -6 -37 -6q-38 0 -54 16q-68 68 -185 68q-181 0 -178 -128q0 -65 108 -65q39 0 55.5 1t56.5 1q101 0 155 -18
q105 -34 105 -143q0 -90 -83 -139q-85 -50 -219 -50zM1275 -880q-196 0 -196 188t196 188q195 0 195 -188t-195 -188zM1275 -816q87 0 87 124t-87 124q-88 0 -88 -124t88 -124z" />
    <glyph glyph-name="k1t1u2" 
d="M1490 -24q-57 0 -107 14q-54 16 -54 46q0 20 30 33q24 11 45 11q22 0 41.5 -6t41.5 -6q71 0 118 65q40 54 40 119q0 78 -43 132q-61 76 -174 76h-72q-5 -196 -70 -308q-100 -176 -342 -176q-200 0 -302 118q-76 -118 -241 -118q-150 0 -243 91q-78 77 -78 187
q0 115 80 195q102 102 289 102h83q9 169 65 269q102 180 347 180t345 -179q58 -104 66 -270h73q168 0 272 -78q107 -79 107 -219q0 -110 -80 -187q-94 -89 -237 -91zM1192 551q-6 140 -61.5 249t-186.5 109q-132 0 -187 -109t-63 -249h498zM400 67q53 0 95 46q54 58 54 155
q0 24 -5 54q-11 63 -13 137h-82q-92 0 -147 -55q-59 -59 -59 -152q0 -84 57 -140q47 -45 100 -45zM944 67q140 0 193 121t57 271h-500q3 -153 58 -272.5t192 -119.5zM999 -636q-207 0 -311 103q-7 7 -7 13q0 14 24 23q18 6 39 6q36 0 53 -16q72 -72 201 -70q180 2 179 123
q-1 70 -114 70q-51 0 -62 -1t-52 -2q-92 -2 -155 22q-97 37 -97 130q-2 100 102 154q86 45 200 45q191 0 295 -100q7 -7 7 -13q0 -17 -26 -24q-16 -6 -37 -6q-38 0 -54 16q-68 68 -185 68q-181 0 -178 -128q0 -65 108 -65q39 0 55.5 1t56.5 1q101 0 155 -18
q105 -34 105 -143q0 -90 -83 -139q-85 -50 -219 -50zM1289 -1019q-91 0 -160 35q-17 8 -17 22q0 10 13 19q18 10 39 10q19 0 35 -8q40 -20 90 -20q206 0 206 226q0 97 -64 139q29 -43 29 -107q0 -186 -195 -186t-195 186q0 104 84 154q60 36 151 36q123 0 196 -48
q93 -63 93 -174q0 -127 -93 -205.5t-212 -78.5zM1265 -827q87 0 87 126q0 127 -87 127q-88 0 -88 -127q0 -126 88 -126z" />
    <glyph glyph-name="k1t1r3" 
d="M1490 -24q-57 0 -107 14q-54 16 -54 46q0 20 30 33q24 11 45 11q22 0 41.5 -6t41.5 -6q71 0 118 65q40 54 40 119q0 78 -43 132q-61 76 -174 76h-72q-5 -196 -70 -308q-100 -176 -342 -176q-200 0 -302 118q-76 -118 -241 -118q-150 0 -243 91q-78 77 -78 187
q0 115 80 195q102 102 289 102h83q9 169 65 269q102 180 347 180t345 -179q58 -104 66 -270h73q168 0 272 -78q107 -79 107 -219q0 -110 -80 -187q-94 -89 -237 -91zM1192 551q-6 140 -61.5 249t-186.5 109q-132 0 -187 -109t-63 -249h498zM400 67q53 0 95 46q54 58 54 155
q0 24 -5 54q-11 63 -13 137h-82q-92 0 -147 -55q-59 -59 -59 -152q0 -84 57 -140q47 -45 100 -45zM944 67q140 0 193 121t57 271h-500q3 -153 58 -272.5t192 -119.5zM1110 -276q83 0 138 -14q123 -33 123 -138q0 -94 -97 -145q-98 -53 -259 -53q-169 0 -287 69
q-163 95 -164 277q-2 161 116 242q18 12 50 12q22 0 41 -7q21 -9 21 -23q0 -9 -12 -17q-93 -64 -93 -207q1 -137 102 -217q90 -70 226 -70q103 0 168 35q63 33 63 88q0 70 -114 70q-51 0 -62 -1t-52 -2q-92 -2 -155 22q-96 36 -97 130q0 101 102 154q86 45 200 45
q191 0 295 -100q7 -6 7 -13q0 -15 -23 -23q-15 -7 -40 -7q-38 0 -54 16q-68 68 -185 68q-179 0 -178 -128q1 -65 108 -65q39 0 55.5 1t56.5 1z" />
    <glyph glyph-name="k1t1r3u1" 
d="M1490 -24q-57 0 -107 14q-54 16 -54 46q0 20 30 33q24 11 45 11q22 0 41.5 -6t41.5 -6q71 0 118 65q40 54 40 119q0 78 -43 132q-61 76 -174 76h-72q-5 -196 -70 -308q-100 -176 -342 -176q-200 0 -302 118q-76 -118 -241 -118q-150 0 -243 91q-78 77 -78 187
q0 115 80 195q102 102 289 102h83q9 169 65 269q102 180 347 180t345 -179q58 -104 66 -270h73q168 0 272 -78q107 -79 107 -219q0 -110 -80 -187q-94 -89 -237 -91zM1192 551q-6 140 -61.5 249t-186.5 109q-132 0 -187 -109t-63 -249h498zM400 67q53 0 95 46q54 58 54 155
q0 24 -5 54q-11 63 -13 137h-82q-92 0 -147 -55q-59 -59 -59 -152q0 -84 57 -140q47 -45 100 -45zM944 67q140 0 193 121t57 271h-500q3 -153 58 -272.5t192 -119.5zM1110 -276q83 0 138 -14q123 -33 123 -138q0 -94 -97 -145q-98 -53 -259 -53q-169 0 -287 69
q-163 95 -164 277q-2 161 116 242q18 12 50 12q22 0 41 -7q21 -9 21 -23q0 -9 -12 -17q-93 -64 -93 -207q1 -137 102 -217q90 -70 226 -70q103 0 168 35q63 33 63 88q0 70 -114 70q-51 0 -62 -1t-52 -2q-92 -2 -155 22q-96 36 -97 130q0 101 102 154q86 45 200 45
q191 0 295 -100q7 -6 7 -13q0 -15 -23 -23q-15 -7 -40 -7q-38 0 -54 16q-68 68 -185 68q-179 0 -178 -128q1 -65 108 -65q39 0 55.5 1t56.5 1zM1350 -852q-196 0 -196 188t196 188q195 0 195 -188t-195 -188zM1350 -788q87 0 87 124t-87 124q-88 0 -88 -124t88 -124z" />
    <glyph glyph-name="k1t1r3u2" 
d="M1490 -24q-57 0 -107 14q-54 16 -54 46q0 20 30 33q24 11 45 11q22 0 41.5 -6t41.5 -6q71 0 118 65q40 54 40 119q0 78 -43 132q-61 76 -174 76h-72q-5 -196 -70 -308q-100 -176 -342 -176q-200 0 -302 118q-76 -118 -241 -118q-150 0 -243 91q-78 77 -78 187
q0 115 80 195q102 102 289 102h83q9 169 65 269q102 180 347 180t345 -179q58 -104 66 -270h73q168 0 272 -78q107 -79 107 -219q0 -110 -80 -187q-94 -89 -237 -91zM1192 551q-6 140 -61.5 249t-186.5 109q-132 0 -187 -109t-63 -249h498zM400 67q53 0 95 46q54 58 54 155
q0 24 -5 54q-11 63 -13 137h-82q-92 0 -147 -55q-59 -59 -59 -152q0 -84 57 -140q47 -45 100 -45zM944 67q140 0 193 121t57 271h-500q3 -153 58 -272.5t192 -119.5zM1110 -276q83 0 138 -14q123 -33 123 -138q0 -94 -97 -145q-98 -53 -259 -53q-169 0 -287 69
q-163 95 -164 277q-2 161 116 242q18 12 50 12q22 0 41 -7q21 -9 21 -23q0 -9 -12 -17q-93 -64 -93 -207q1 -137 102 -217q90 -70 226 -70q103 0 168 35q63 33 63 88q0 70 -114 70q-51 0 -62 -1t-52 -2q-92 -2 -155 22q-96 36 -97 130q0 101 102 154q86 45 200 45
q191 0 295 -100q7 -6 7 -13q0 -15 -23 -23q-15 -7 -40 -7q-38 0 -54 16q-68 68 -185 68q-179 0 -178 -128q1 -65 108 -65q39 0 55.5 1t56.5 1zM1376 -985q-91 0 -160 35q-17 8 -17 22q0 10 13 19q18 10 39 10q19 0 35 -8q40 -20 90 -20q206 0 206 226q0 97 -64 139
q29 -43 29 -107q0 -186 -195 -186t-195 186q0 104 84 154q60 36 151 36q123 0 196 -48q93 -63 93 -174q0 -127 -93 -205.5t-212 -78.5zM1352 -793q87 0 87 126q0 127 -87 127q-88 0 -88 -127q0 -126 88 -126z" />
    <glyph glyph-name="k1nh" 
d="M1490 -24q-57 0 -107 14q-54 16 -54 46q0 20 30 33q24 11 45 11q22 0 41.5 -6t41.5 -6q71 0 118 65q40 54 40 119q0 78 -43 132q-61 76 -174 76h-72q-5 -196 -70 -308q-100 -176 -342 -176q-200 0 -302 118q-76 -118 -241 -118q-150 0 -243 91q-78 77 -78 187
q0 115 80 195q102 102 289 102h83q9 169 65 269q102 180 347 180t345 -179q58 -104 66 -270h73q168 0 272 -78q107 -79 107 -219q0 -110 -80 -187q-94 -89 -237 -91zM1192 551q-6 140 -61.5 249t-186.5 109q-132 0 -187 -109t-63 -249h498zM400 67q53 0 95 46q54 58 54 155
q0 24 -5 54q-11 63 -13 137h-82q-92 0 -147 -55q-59 -59 -59 -152q0 -84 57 -140q47 -45 100 -45zM944 67q140 0 193 121t57 271h-500q3 -153 58 -272.5t192 -119.5zM1412 -636q-29 0 -48 13q-11 8 -11 16q0 15 22 23q130 54 132 243q2 67 -22 125q-49 121 -157 121
q-127 0 -127 -156v-355q0 -30 -62 -30q-61 0 -61 30v355q0 155 -114 155q-115 0 -115 -156v-355q0 -29 -62 -29q-61 0 -61 29v341q0 173 -179 171q-114 0 -175 -119q-22 -44 -28 -91q49 42 125 42q97 0 155 -59q47 -48 47 -121q0 -97 -63 -146q-60 -47 -146 -47
q-86 -2 -145 46q-96 75 -96 237q0 88 36 159q81 156 289 158q153 2 236 -68q69 68 182 68q106 0 175 -66q72 66 189 66q196 0 270 -153q31 -63 31 -144q0 -221 -169 -294q-19 -9 -48 -9zM462 -577q92 2 92 127t-93 125q-92 0 -92 -126q0 -128 93 -126z" />
    </font>
</defs>
</svg>
