<?xml version="1.0" standalone="no"?>
<!DOCTYPE svg PUBLIC "-//W3C//DTD SVG 1.1//EN" "http://www.w3.org/Graphics/SVG/1.1/DTD/svg11.dtd" >
<svg xmlns="http://www.w3.org/2000/svg" xmlns:xlink="http://www.w3.org/1999/xlink" version="1.1">
<metadata>
Created by FontForge 20170731 at Mon Jun 10 11:09:14 2019
 By Aleksey,,,
Copyright 2019 The Gayathri Project Authors (https://gitlab.com/smc/fonts/gayathri)
</metadata>
<defs>
<font id="Gayathri-Bold" horiz-adv-x="2299" >
  <font-face 
    font-family="Gayathri"
    font-weight="700"
    font-stretch="normal"
    units-per-em="2048"
    panose-1="0 0 8 3 0 0 0 0 0 0"
    ascent="1638"
    descent="-410"
    x-height="976"
    cap-height="1381"
    bbox="-1549.66 -1160 4070 1999"
    underline-thickness="100"
    underline-position="-750"
    unicode-range="U+0020-25CC"
  />
<missing-glyph horiz-adv-x="692" 
d="M45 1v1118h561v-1118h-561zM102 55h450v1008h-450v-1008z" />
    <glyph glyph-name=".notdef" horiz-adv-x="692" 
d="M45 1v1118h561v-1118h-561zM102 55h450v1008h-450v-1008z" />
    <glyph glyph-name=".null" horiz-adv-x="0" 
 />
    <glyph glyph-name="nonmarkingreturn" horiz-adv-x="682" 
 />
    <glyph glyph-name="space" unicode=" " horiz-adv-x="500" 
 />
    <glyph glyph-name="exclam" unicode="!" horiz-adv-x="440" 
d="M303 372q-2 -56 -84 -56q-79 0 -82 56l-37 930q-3 79 121 79q122 0 119 -78zM221 216q119 0 119 -121q0 -119 -119 -119q-121 0 -121 119q0 121 121 121z" />
    <glyph glyph-name="quotedbl" unicode="&#x22;" horiz-adv-x="628" 
d="M457 745q-78 0 -82 54l-29 396q-6 72 110 72t110 -72l-29 -396q-4 -54 -80 -54zM211 742q-78 0 -82 54l-29 396q-6 72 110 72t110 -72l-29 -396q-4 -54 -80 -54z" />
    <glyph glyph-name="numbersign" unicode="#" horiz-adv-x="1389" 
d="M763 -24q-90 0 -90 49q0 2 0.5 3.5t0.5 3.5l67 348h-222l-69 -359q-9 -45 -93 -45q-90 0 -90 49q0 2 0.5 3.5t0.5 3.5l67 348h-134q-101 0 -101 56t101 56h156l70 362h-157q-102 0 -102 56t102 56h178l71 370q9 45 93 45q89 0 89 -51q0 -7 -1 -10l-68 -354h222l71 370
q9 45 93 45q89 0 89 -50q0 -8 -1 -12l-68 -353h150q101 0 101 -56t-101 -56h-172l-70 -362h173q102 0 102 -56t-102 -56h-194l-70 -359q-9 -45 -92 -45zM763 492l69 362h-222l-70 -362h223z" />
    <glyph glyph-name="dollar" unicode="$" horiz-adv-x="1182" 
d="M591 -220q-70 0 -70 36v156q-145 17 -252 101q-122 95 -163 265q-6 18 -6 29q0 54 99 54q92 0 103 -49q33 -157 133 -235q39 -30 86 -45v522q-159 36 -256 120q-126 110 -126 264q0 155 124 261q106 90 258 111v74q0 36 70 36t70 -36v-71q149 -15 253 -101
q101 -83 133 -224q5 -22 5 -26q0 -54 -98 -54q-95 0 -104 49q-26 128 -105 194q-40 32 -84 45v-480q190 -30 296 -125q125 -111 125 -273q0 -150 -114 -267q-119 -123 -307 -141v-154q0 -36 -70 -36zM521 805v444q-48 -16 -87 -51q-93 -81 -93 -194q0 -82 64 -137
q46 -40 116 -62zM661 86q219 57 219 291q0 86 -64 142q-54 48 -155 70v-503z" />
    <glyph glyph-name="percent" unicode="%" horiz-adv-x="1724" 
d="M448 659q-348 0 -348 363q0 359 348 359t348 -362q0 -360 -348 -360zM495 -24q-79 0 -79 43q0 7 4 14l732 1317q18 31 77 31q79 0 79 -43q0 -7 -4 -14l-732 -1317q-18 -31 -77 -31zM448 767q84 0 114.5 95t30.5 158t-31 157.5t-114 94.5q-84 0 -114.5 -95t-30.5 -157
q0 -61 30.5 -157t114.5 -96zM1276 -24q-348 0 -348 363q0 359 348 359t348 -362q0 -360 -348 -360zM1276 84q84 0 114.5 95t30.5 158t-30.5 157.5t-114.5 94.5t-114.5 -95t-30.5 -157t30.5 -157.5t114.5 -95.5z" />
    <glyph glyph-name="ampersand" unicode="&#x26;" horiz-adv-x="1356" 
d="M525 -24q-154 0 -289.5 89t-135.5 261q0 158 99.5 256t224.5 172q-61 73 -133 166.5t-72 192.5q0 137 122 202.5t242 65.5q132 0 244.5 -69t112.5 -215q0 -128 -87 -215.5t-188 -149.5l122 -145l126 -148q33 99 35 200q2 56 102 56t100 -56q-2 -190 -101 -357l197 -226
q10 -11 10 -24q0 -55 -102 -55q-64 0 -91 31l-120 138q-175 -170 -418 -170zM572 844q165 111 165 253q0 172 -154 172q-161 0 -161 -156q0 -73 52.5 -144t97.5 -125zM525 88q173 0 305 188l-176 204q-68 79 -138 164q-213 -137 -213 -313q0 -243 222 -243z" />
    <glyph glyph-name="quotesingle" unicode="'" horiz-adv-x="420" 
d="M211 880q-78 0 -82 54l-29 396q-6 72 110 72t110 -72l-29 -396q-4 -54 -80 -54z" />
    <glyph glyph-name="parenleft" unicode="(" horiz-adv-x="719" 
d="M517 -380q-59 0 -88 30q-329 341 -329 864q0 516 328 856q29 30 90 30q26 0 47 -6q54 -15 54 -50q0 -14 -12 -26q-304 -319 -304 -804q0 -496 304 -812q12 -12 12 -26q0 -34 -54 -49q-24 -7 -48 -7z" />
    <glyph glyph-name="parenright" unicode=")" horiz-adv-x="679" 
d="M162 -380q59 0 88 30q329 341 329 864q0 516 -328 856q-29 30 -90 30q-26 0 -47 -6q-54 -15 -54 -50q0 -14 12 -26q304 -319 304 -804q0 -496 -304 -812q-12 -12 -12 -26q0 -34 54 -49q24 -7 48 -7z" />
    <glyph glyph-name="asterisk" unicode="*" horiz-adv-x="638" 
d="M183 800q-13 0 -28 10q-20 15 -20 34q0 9 6 19l90 145l-158 64q-23 9 -23 33q0 8 3 17q10 32 37 32q-6 0 22 -4l152 -39l12 171q3 34 42 34q40 0 43 -34l12 -170l158 39l18 3q24 0 36 -30q3 -9 3 -18q0 -25 -23 -34l-158 -64l91 -144q6 -10 6 -20q0 -18 -20 -33
q-15 -10 -28 -10q-15 0 -27 13l-110 130l-109 -131q-12 -13 -27 -13z" />
    <glyph glyph-name="plus" unicode="+" horiz-adv-x="1090" 
d="M545 0q-102 0 -102 55v315h-242q-101 0 -101 55t101 55h242v315q0 55 102 55t102 -55v-315h242q101 0 101 -55t-101 -55h-242v-315q0 -55 -102 -55z" />
    <glyph glyph-name="comma" unicode="," horiz-adv-x="419" 
d="M152 -158q-35 0 -35 14q0 6 11 10q92 37 92 144q-14 -2 -20 -2q-120 0 -120 120q0 119 120 119q139 0 139 -153q0 -165 -133 -237q-28 -15 -54 -15z" />
    <glyph glyph-name="hyphen" unicode="-" horiz-adv-x="853" 
d="M202 450q-102 0 -102 55t102 55h449q102 0 102 -55t-102 -55h-449z" />
    <glyph glyph-name="period" unicode="." horiz-adv-x="440" 
d="M221 240q119 0 119 -121q0 -119 -119 -119q-121 0 -121 119q0 121 121 121z" />
    <glyph glyph-name="slash" unicode="/" horiz-adv-x="887" 
d="M258 9q-13 -33 -75 -33q-84 0 -84 39l3 12l527 1321q13 33 79 33q80 0 80 -39q0 -6 -4 -14z" />
    <glyph glyph-name="zero" unicode="0" horiz-adv-x="1168" 
d="M584 -24q-276 0 -390 238t-114 465t113.5 464.5t390.5 237.5t390.5 -237.5t113.5 -464.5t-114 -465t-390 -238zM584 88q179 0 237 231t58 359q0 129 -58 360t-237 231q-178 0 -236.5 -231t-58.5 -360q0 -128 58 -359t237 -231z" />
    <glyph glyph-name="one" unicode="1" horiz-adv-x="657" 
d="M455 -24q-101 0 -101 57v969q-99 -59 -200 -65q-104 -5 -104 56q0 43 76 54q72 10 138 79q72 78 89 199q8 56 102 56q102 0 102 -57v-1291q0 -57 -102 -57z" />
    <glyph glyph-name="two" unicode="2" horiz-adv-x="1159" 
d="M951 -2h-749q-102 0 -102 57q0 197 68 310q49 81 122.5 124.5t155.5 83.5q128 62 268.5 155.5t140.5 252.5q0 289 -269 289q-100 0 -168 -52q-106 -81 -106 -238v-21q0 -55 -101 -55q-93 0 -101 50q-3 21 -3 42q0 215 203 324q118 63 276 63q179 0 326 -105.5t147 -299.5
q0 -191 -162 -301.5t-317 -187.5q-61 -30 -122 -64t-98 -95q-48 -79 -56 -219h647q101 0 101 -56q0 -57 -101 -57z" />
    <glyph glyph-name="three" unicode="3" horiz-adv-x="1149" 
d="M589 -24q-189 0 -339 97t-150 302q0 56 101 56q102 0 102 -56q0 -287 286 -287q258 0 258 287q0 219 -198 268q-24 6 -127 6q-101 0 -101 56q0 50 95 56q82 4 122 17q171 55 171 230q-2 261 -268 261q-248 0 -238 -275l1 -23q1 -55 -102 -55q-98 0 -101 54v28
q0 191 133.5 287t317.5 96q171 1 314.5 -92t144.5 -281q1 -192 -187 -292q225 -104 225 -343q0 -190 -140.5 -293.5t-319.5 -103.5z" />
    <glyph glyph-name="four" unicode="4" horiz-adv-x="1196" 
d="M797 -24q-101 0 -101 57v300h-544q-102 0 -102 56q0 10 8 22l642 930q28 40 97 40q102 0 102 -57v-879h145q102 0 102 -56t-102 -56h-145v-300q0 -57 -102 -57zM696 445v634l-437 -634h437z" />
    <glyph glyph-name="five" unicode="5" horiz-adv-x="1173" 
d="M1073 422q0 -212 -146.5 -329t-346.5 -117q-390 0 -476 322q-4 14 -4 20q-1 54 102 54q88 0 100 -48q56 -236 277 -236q139 0 215 102.5t76 231.5t-76 231.5t-215 102.5q-148 0 -233 -130q-33 -50 -98 -50q-104 0 -104 58q0 6 2 20l87 649q7 54 101 54h593q101 0 101 -56
t-101 -56h-499l-55 -414q94 37 210 37q200 0 345 -117t145 -329z" />
    <glyph glyph-name="six" unicode="6" horiz-adv-x="1197" 
d="M621 -24q-243 0 -370 149q-93 108 -128 276q-23 110 -23 258q0 174 34 296q116 426 514 426q337 0 417 -291q5 -15 5 -24q1 -54 -100 -54q-90 0 -102 49q-50 209 -220 209q-131 1 -208 -111t-106 -221q-23 -85 -31 -183q121 122 318 122q200 0 331 -115
q145 -126 145 -335q0 -166 -94 -283q-133 -168 -382 -168zM621 88q136 0 204.5 110t68.5 229t-68.5 228.5t-204.5 109.5t-204.5 -109.5t-68.5 -228.5t68.5 -229t204.5 -110z" />
    <glyph glyph-name="seven" unicode="7" horiz-adv-x="1106" 
d="M479 -24q-102 0 -101 56q5 364 139 714q98 258 283 499h-648q-102 0 -102 56t102 56h802q41 0 74 -17q28 -14 28 -37q0 -15 -11 -27q-222 -270 -330 -552q-64 -167 -94 -341.5t-40 -352.5q-3 -54 -102 -54z" />
    <glyph glyph-name="eight" unicode="8" horiz-adv-x="1189" 
d="M595 -24q-181 0 -338 97.5t-157 296.5q0 235 236 342q-198 100 -198 306q0 184 144.5 273.5t312.5 89.5q167 0 311.5 -89.5t144.5 -273.5q0 -206 -198 -306q236 -107 236 -342q0 -199 -156.5 -296.5t-337.5 -97.5zM595 766q253 0 253 252q0 251 -253 251
q-254 0 -254 -251q0 -252 254 -252zM595 88q291 0 291 282q0 283 -291 283q-292 0 -292 -283q0 -282 292 -282z" />
    <glyph glyph-name="nine" unicode="9" horiz-adv-x="1197" 
d="M576 1381q243 0 370 -149q93 -108 128 -276q23 -110 23 -258q0 -174 -34 -296q-116 -426 -514 -426q-337 0 -417 291q-5 15 -5 24q-1 54 100 54q90 0 102 -49q50 -209 220 -209q131 -1 208 111t106 221q23 85 31 183q-121 -122 -318 -122q-200 0 -331 115
q-145 126 -145 335q0 166 94 283q133 168 382 168zM576 1269q-136 0 -204.5 -110t-68.5 -229q0 -118 68.5 -228t204.5 -110q137 0 205 110t68 228q0 119 -68 229t-205 110z" />
    <glyph glyph-name="colon" unicode=":" horiz-adv-x="440" 
d="M221 856q119 0 119 -121q0 -119 -119 -119q-121 0 -121 119q0 121 121 121zM221 390q119 0 119 -121q0 -119 -119 -119q-121 0 -121 119q0 121 121 121z" />
    <glyph glyph-name="semicolon" unicode=";" horiz-adv-x="459" 
d="M221 713q119 0 119 -121q0 -119 -119 -119q-121 0 -121 119q0 121 121 121zM172 -158q-35 0 -35 14q0 6 11 11q92 35 92 143q-14 -2 -20 -2q-120 0 -120 120q0 119 120 119q139 0 139 -153q0 -165 -133 -237q-28 -15 -54 -15z" />
    <glyph glyph-name="less" unicode="&#x3c;" horiz-adv-x="1236" 
d="M1035 80q-39 0 -68 15l-834 417q-33 17 -33 41t33 40l834 417q29 15 68 15q44 0 74 -18q27 -16 27 -37q0 -24 -33 -41l-752 -376l752 -377q33 -17 33 -41q0 -20 -27 -37q-30 -18 -74 -18z" />
    <glyph glyph-name="equal" unicode="=" horiz-adv-x="1108" 
d="M906 681h-704q-102 0 -102 55t102 55h704q102 0 102 -55t-102 -55zM906 380h-704q-102 0 -102 55t102 55h704q102 0 102 -55t-102 -55z" />
    <glyph glyph-name="greater" unicode="&#x3e;" horiz-adv-x="1196" 
d="M161 80q39 0 68 15l834 417q33 17 33 41t-33 40l-834 417q-29 15 -68 15q-44 0 -74 -18q-27 -16 -27 -37q0 -24 33 -41l752 -376l-752 -377q-33 -17 -33 -41q0 -20 27 -37q30 -18 74 -18z" />
    <glyph glyph-name="question" unicode="?" horiz-adv-x="1136" 
d="M566 279q-101 0 -105 54q-2 40 -2 43q0 113 46 185q30 47 77 92.5t89 83.5q163 147 163 288q0 245 -257 245q-134 0 -206 -84q-69 -80 -69 -204q0 -56 -101 -56t-101 55q0 149 88 252q126 148 389 148q168 0 313.5 -86.5t145.5 -269.5q0 -118 -60 -199t-142 -156
q-109 -99 -139 -148q-36 -60 -33 -137l2 -50q3 -56 -98 -56zM561 216q120 0 120 -121q0 -119 -120 -119t-120 119q0 121 120 121z" />
    <glyph glyph-name="at" unicode="@" horiz-adv-x="1987" 
d="M969 -403q-300 0 -525 156q-344 237 -344 708q0 408 246 655q260 261 673 261q384 0 627 -230q241 -227 241 -615q0 -228 -117 -387q-124 -169 -329 -169q-161 0 -213 103q-101 -104 -267 -104q-444 0 -444 455q0 194 112.5 338.5t324.5 144.5q195 0 303 -118l8 64
q7 53 104 53q106 0 98 -52l-84 -560q-7 -44 -7 -85q0 -127 71 -127q65 0 136 98q102 141 102 346q0 355 -214 558q-185 175 -452 175q-294 0 -495 -203q-222 -223 -222 -600q-2 -434 299 -639q165 -114 363 -114q102 -1 207 32q21 7 51 7q59 0 87 -28q14 -14 14 -27
q0 -33 -51 -49q-149 -47 -303 -47zM958 88q120 0 179 130t59 231q0 108 -53.5 230t-185.5 122q-122 0 -179.5 -133t-57.5 -234q0 -106 54.5 -226t183.5 -120z" />
    <glyph glyph-name="A" unicode="A" horiz-adv-x="1413" 
d="M1281 -24q-91 0 -110 43l-183 415h-623l-184 -427q-13 -31 -75 -31q-81 0 -81 40q0 3 2 9l568 1315q17 41 114 41q85 0 104 -42l572 -1296q3 -7 3 -13q0 -54 -107 -54zM938 546l-265 601l-259 -601h524z" />
    <glyph glyph-name="B" unicode="B" horiz-adv-x="1305" 
d="M819 0h-617q-102 0 -102 56v1245q0 56 102 56h560q160 0 281.5 -101.5t121.5 -265.5q0 -185 -158 -295q223 -100 223 -328q0 -166 -125 -266.5t-286 -100.5zM762 734q91 0 145.5 88.5t54.5 167.5t-54.5 167t-145.5 88h-459v-511h459zM819 112q93 0 150.5 86.5t57.5 168.5
q0 83 -57.5 169.5t-150.5 86.5h-516v-511h516z" />
    <glyph glyph-name="C" unicode="C" horiz-adv-x="1382" 
d="M1333 413q0 -9 -6 -33q-55 -201 -233.5 -302.5t-375.5 -101.5q-316 0 -492.5 194.5t-176.5 503.5q0 314 181.5 510.5t501.5 196.5q196 0 376.5 -104.5t217.5 -307.5q4 -16 4 -25q0 -56 -98 -56q-97 0 -104 52q-44 329 -396 329q-244 0 -362.5 -187.5t-118.5 -405.5
q0 -214 113 -401.5t356 -187.5q353 0 410 331q8 50 102 50q101 0 101 -55z" />
    <glyph glyph-name="D" unicode="D" horiz-adv-x="1355" 
d="M667 0h-466q-101 0 -101 56v1245q0 56 101 56h466q302 0 470 -200t168 -483t-168 -478.5t-470 -195.5zM667 112q225 0 330.5 186.5t105.5 376.5q0 188 -106 379t-330 191h-364v-1133h364z" />
    <glyph glyph-name="E" unicode="E" horiz-adv-x="1284" 
d="M1107 0h-898q-109 0 -109 60v1237q0 60 109 60h898q102 0 102 -56t-102 -56h-804v-510h677q101 0 101 -56t-101 -56h-677v-511h804q102 0 102 -56t-102 -56z" />
    <glyph glyph-name="F" unicode="F" horiz-adv-x="1193" 
d="M201 -24q-101 0 -101 56v1269q0 56 101 56h841q101 0 101 -56t-101 -56h-739v-517h620q102 0 102 -56t-102 -56h-620v-584q0 -56 -102 -56z" />
    <glyph glyph-name="G" unicode="G" horiz-adv-x="1491" 
d="M763 88q163 0 290 90q161 112 161 237v168h-446q-102 0 -102 56t102 56h547q101 0 101 -56v-224q0 -81 -70 -171t-134 -135q-192 -133 -449 -133q-319 0 -516 188.5t-197 511.5q0 326 202.5 515.5t523.5 189.5q195 0 390.5 -98t241.5 -301q6 -22 6 -39q0 -55 -101 -55
q-94 0 -102 52q-22 155 -153 242t-280 87q-254 0 -390 -178t-136 -415q0 -232 130.5 -410t380.5 -178z" />
    <glyph glyph-name="H" unicode="H" horiz-adv-x="1386" 
d="M1184 -24q-101 0 -101 56v591h-780v-591q0 -56 -101 -56q-102 0 -102 56v1293q0 56 102 56q101 0 101 -56v-591h780v591q0 56 101 56q102 0 102 -56v-1293q0 -56 -102 -56z" />
    <glyph glyph-name="I" unicode="I" horiz-adv-x="303" 
d="M152 -24q-102 0 -102 56v1293q0 56 102 56q101 0 101 -56v-1293q0 -56 -101 -56z" />
    <glyph glyph-name="J" unicode="J" horiz-adv-x="965" 
d="M444 -24q-166 0 -292.5 93t-126.5 268q0 56 101 56q102 0 102 -56q0 -252 216 -250q218 0 218 255v983q0 56 102 56q101 0 101 -56v-983q0 -176 -127 -271t-294 -95z" />
    <glyph glyph-name="K" unicode="K" horiz-adv-x="1267" 
d="M1122 -24q-83 0 -112 39l-488 651l-220 -201v-438q0 -51 -102 -51q-101 0 -101 51v1303q0 51 101 51q102 0 102 -51v-677l770 705q24 23 77 23q23 0 43 -5q49 -12 49 -41q0 -10 -12 -21l-555 -509l561 -748q8 -11 8 -21q0 -41 -80 -56q-24 -4 -41 -4z" />
    <glyph glyph-name="L" unicode="L" horiz-adv-x="1099" 
d="M972 0h-770q-102 0 -102 56v1269q0 56 102 56q101 0 101 -56v-1213h669q102 0 102 -56t-102 -56z" />
    <glyph glyph-name="M" unicode="M" horiz-adv-x="1589" 
d="M1388 -24q-102 0 -102 55v921l-380 -933q-17 -43 -108 -43t-110 42l-430 958v-961q0 -39 -79 -39t-79 39v1310q0 56 117 56q87 0 106 -42l501 -1120l458 1120q18 42 105 42q102 0 102 -56v-1294q0 -55 -101 -55z" />
    <glyph glyph-name="N" unicode="N" horiz-adv-x="1398" 
d="M1178 -24q-82 0 -111 38l-809 1088v-1084q0 -42 -79 -42t-79 42v1297q0 66 120 66q81 0 110 -38l810 -1088v1083q0 43 79 43t79 -43v-1298q0 -64 -120 -64z" />
    <glyph glyph-name="O" unicode="O" horiz-adv-x="1486" 
d="M743 -24q-314 0 -503.5 199.5t-189.5 503.5q0 305 189.5 503.5t503.5 198.5t503.5 -198.5t189.5 -503.5q0 -304 -189.5 -503.5t-503.5 -199.5zM743 88q243 0 366.5 188t123.5 403t-123.5 402.5t-366.5 187.5t-366.5 -187.5t-123.5 -402.5t123.5 -403t366.5 -188z" />
    <glyph glyph-name="P" unicode="P" horiz-adv-x="1312" 
d="M202 -24q-102 0 -102 56v1269q0 56 102 56h629q162 0 296.5 -100t134.5 -271t-134.5 -271.5t-296.5 -100.5h-528v-582q0 -56 -101 -56zM831 726q99 0 163.5 84.5t64.5 175.5t-64.5 175t-163.5 84h-528v-519h528z" />
    <glyph glyph-name="Q" unicode="Q" horiz-adv-x="1519" 
d="M1369 -24q-109 0 -226 112q-169 -112 -400 -112q-314 0 -503.5 199.5t-189.5 503.5t189.5 503t503.5 199t503.5 -199t189.5 -503q0 -284 -167 -479q64 -88 155 -122q45 -16 45 -47q0 -16 -17 -30q-31 -25 -83 -25zM743 88q178 0 305 118q-67 104 -125.5 181.5
t-198.5 93.5q-82 8 -82 56q0 55 106 55q260 0 414 -228q71 143 71 315q0 215 -123.5 402.5t-366.5 187.5t-366.5 -187.5t-123.5 -402.5t123.5 -403t366.5 -188z" />
    <glyph glyph-name="R" unicode="R" horiz-adv-x="1383" 
d="M1232 -24q-39 0 -68 15q-114 57 -172 153t-104 197q-34 76 -89.5 174.5t-156.5 98.5h-339v-582q0 -56 -102 -56q-101 0 -101 56v1269q0 56 101 56h619q163 0 302 -99t139 -272q0 -295 -336 -361q56 -52 92.5 -120.5t67.5 -136.5q35 -79 84 -166t131 -128q33 -17 33 -42
q0 -21 -26 -37q-29 -19 -75 -19zM820 726q101 0 169.5 83t68.5 177q0 95 -68.5 177t-169.5 82h-517v-519h517z" />
    <glyph glyph-name="S" unicode="S" horiz-adv-x="1279" 
d="M643 -23q-198 -4 -365.5 88t-224.5 294l-3 15q0 55 102 55q88 0 100 -48q78 -293 393 -293q128 0 255 76.5t127 222.5q0 101 -126 159q-94 44 -239 59q-95 10 -195 30t-186 64q-197 103 -197 304q0 204 197.5 291t366.5 87q173 0 331 -78t207 -254q4 -14 4 -20
q0 -55 -100 -55q-89 0 -101 48q-61 247 -341 247q-118 0 -239.5 -63.5t-121.5 -201.5q0 -97 140 -158q104 -44 259 -60q98 -10 204 -32t189 -75q150 -95 150 -284q0 -223 -200.5 -319t-385.5 -99z" />
    <glyph glyph-name="T" unicode="T" horiz-adv-x="1265" 
d="M633 -12q-102 0 -102 56v1213h-405q-101 0 -101 56t101 56h1013q101 0 101 -56t-101 -56h-405v-1213q0 -56 -101 -56z" />
    <glyph glyph-name="U" unicode="U" horiz-adv-x="1349" 
d="M673 -24q-197 0 -385 119.5t-188 336.5v893q0 56 101 56q102 0 102 -56v-893q0 -147 115.5 -245.5t256.5 -98.5q142 0 256.5 100t114.5 244v893q0 56 102 56q101 0 101 -56v-893q0 -218 -189.5 -337t-386.5 -119z" />
    <glyph glyph-name="V" unicode="V" horiz-adv-x="1376" 
d="M683 -24q-84 0 -102 42l-554 1299q-3 8 -3 12q0 52 109 52q84 0 101 -42l478 -1121l483 1131q13 32 76 32q81 0 81 -39q0 -3 -2 -9l-561 -1313q-19 -44 -106 -44z" />
    <glyph glyph-name="W" unicode="W" horiz-adv-x="1916" 
d="M1438 22q-15 -46 -109 -46q-93 0 -105 46l-266 1007l-261 -1006q-13 -47 -108 -47q-89 -3 -105 43l-458 1297l-2 10q-10 55 107 55q88 0 105 -47l370 -1051l273 1053q11 45 108 45q92 0 105 -48l276 -1050l368 1065q11 33 75 33q81 0 81 -39q0 -5 -1 -8z" />
    <glyph glyph-name="X" unicode="X" horiz-adv-x="1292" 
d="M109 -24q-16 0 -30 3q-54 11 -54 39q0 9 7 17l510 627l-505 643q-8 11 -8 21q0 40 71 51q18 3 40 3q75 0 102 -34l420 -536l444 545q21 26 77 26q18 0 31 -3q53 -11 53 -39q0 -9 -7 -17l-509 -625l507 -646q8 -9 8 -21q0 -37 -71 -51q-16 -3 -38 -3q-78 0 -104 34
l-422 539l-445 -547q-22 -26 -77 -26z" />
    <glyph glyph-name="Y" unicode="Y" horiz-adv-x="1296" 
d="M648 -24q-101 0 -101 55v612l-514 664q-8 9 -8 21q0 53 116 53q71 0 98 -34l436 -565l434 573q20 26 78 26q84 0 84 -41q0 -9 -6 -16l-515 -681v-612q0 -55 -102 -55z" />
    <glyph glyph-name="Z" unicode="Z" horiz-adv-x="1318" 
d="M1183 0h-1048q-44 0 -81 19q-29 15 -29 36q0 12 9 22l982 1170h-857q-110 0 -110 55t110 55h1022q43 0 80 -17q30 -14 30 -38q0 -11 -9 -22l-982 -1169h883q110 0 110 -56q0 -55 -110 -55z" />
    <glyph glyph-name="bracketleft" unicode="[" horiz-adv-x="814" 
d="M613 -400h-412q-101 0 -101 56v1668q0 56 101 56h412q101 0 101 -56t-101 -56h-310v-1556h310q101 0 101 -56t-101 -56z" />
    <glyph glyph-name="backslash" unicode="\" horiz-adv-x="912" 
d="M654 9q13 -33 75 -33q84 0 84 39l-3 12l-527 1321q-13 33 -79 33q-80 0 -80 -39q0 -6 4 -14z" />
    <glyph glyph-name="bracketright" unicode="]" horiz-adv-x="751" 
d="M138 -400h412q101 0 101 56v1668q0 56 -101 56h-412q-101 0 -101 -56t101 -56h310v-1556h-310q-101 0 -101 -56t101 -56z" />
    <glyph glyph-name="asciicircum" unicode="^" horiz-adv-x="808" 
d="M708 1117q0 -37 -79 -37q-58 0 -73 29l-152 299l-152 -299q-14 -29 -72 -29q-80 0 -80 37q0 7 2 10l227 447q15 29 75 29q61 0 75 -29l226 -447q3 -6 3 -10z" />
    <glyph glyph-name="underscore" unicode="_" horiz-adv-x="1279" 
d="M1081 0h-883q-98 0 -98 55t98 55h883q98 0 98 -55t-98 -55z" />
    <glyph glyph-name="grave" unicode="`" horiz-adv-x="495" 
d="M419 1080q-19 0 -36 13l-356 262q-27 20 -27 54t26 68q35 47 81 47q25 0 45 -19l323 -301q20 -19 20 -43q0 -26 -22 -51q-25 -30 -54 -30z" />
    <glyph glyph-name="a" unicode="a" horiz-adv-x="1146" 
d="M1019 -24q-45 0 -73 17q-70 41 -88 107q-64 -75 -171.5 -99.5t-193.5 -24.5q-137 0 -277.5 65.5t-140.5 225.5q0 182 138 231t286 49q32 0 78.5 -2t87.5 -2q113 0 161 26v95q0 225 -261 225q-96 0 -171 -48q-87 -56 -87 -134q0 -55 -102 -55q-100 0 -100 55
q0 117 134 206q133 87 326 87q155 0 309 -75.5t154 -260.5v-431q0 -126 65 -163q28 -16 28 -38q0 -25 -31 -41q-27 -15 -71 -15zM493 87q113 0 223 67.5t110 191.5v96q-57 -10 -140 -10q-46 0 -93 2.5t-94 2.5q-221 0 -221 -170q0 -180 215 -180z" />
    <glyph glyph-name="b" unicode="b" horiz-adv-x="1174" 
d="M202 -24q-102 0 -102 56v1293q0 56 102 56q101 0 101 -56v-440q116 116 309 116q512 0 512 -512t-512 -512q-194 0 -309 116v-61q0 -56 -101 -56zM612 89q158 0 233.5 133t75.5 267t-75.5 267t-233.5 133q-157 0 -233 -133t-76 -267t76 -267t233 -133z" />
    <glyph glyph-name="c" unicode="c" horiz-adv-x="1123" 
d="M584 -24q-535 0 -535 508q0 242 155 379t390 137q148 0 297.5 -76t177.5 -233q2 -12 2 -16q0 -55 -101 -55q-94 0 -101 51q-31 218 -276 218q-170 0 -256 -126.5t-86 -280.5q1 -150 84 -272.5t253 -122.5q242 0 283 219q8 50 101 50q102 0 102 -55q0 4 -4 -20
q-36 -155 -187 -230t-299 -75z" />
    <glyph glyph-name="d" unicode="d" horiz-adv-x="1174" 
d="M972 -24q-101 0 -101 56v61q-115 -116 -309 -116q-512 0 -512 512t512 512q193 0 309 -116v440q0 56 101 56q102 0 102 -56v-1293q0 -56 -102 -56zM562 89q158 0 233.5 133t75.5 267t-75.5 267t-233.5 133q-157 0 -233 -133t-76 -267t76 -267t233 -133z" />
    <glyph glyph-name="e" unicode="e" horiz-adv-x="1186" 
d="M589 -24q-227 0 -383 135.5t-156 370.5q0 239 158.5 378.5t389.5 139.5q220 0 379 -115.5t159 -345.5q0 -64 -101 -64h-783q2 -148 90 -268t248 -120q115 0 213 62q103 66 112 156q5 52 99 52q103 0 103 -55q0 -28 -17 -68q-37 -88 -141 -156q-156 -102 -370 -102z
M931 586q-32 303 -333 303q-268 0 -334 -303h667z" />
    <glyph glyph-name="f" unicode="f" horiz-adv-x="806" 
d="M336 -24q-102 0 -102 56v857h-109q-101 0 -101 56t101 56h109v104q0 274 336 276q62 0 128 -11q84 -15 84 -54q0 -58 -106 -58q-25 0 -50.5 5.5t-53.5 5.5q-135 0 -135 -164v-104h171q102 0 102 -56t-102 -56h-171v-857q0 -56 -101 -56z" />
    <glyph glyph-name="g" unicode="g" horiz-adv-x="1172" 
d="M1071 40q0 -232 -160.5 -338t-369.5 -106q-122 0 -267 41t-216 143q-7 10 -7 20q0 55 102 55q71 0 95 -35q43 -62 129.5 -87t160.5 -25q331 0 331 332v52q-112 -115 -308 -115q-511 0 -511 512t512 512q191 0 309 -117v61q0 56 101 56q100 0 100 -56zM561 89
q158 0 234 133t76 267t-75.5 267t-233.5 133q-157 0 -233 -133t-76 -267t75.5 -267t232.5 -133z" />
    <glyph glyph-name="h" unicode="h" horiz-adv-x="1110" 
d="M958 -24q-101 0 -101 56v518q0 117 -64 227t-202 110q-148 0 -218 -119.5t-70 -244.5v-491q0 -56 -101 -56q-102 0 -102 56v1293q0 56 102 56q101 0 101 -56v-442q110 117 300 117q200 0 328.5 -127.5t128.5 -321.5v-519q0 -56 -102 -56z" />
    <glyph glyph-name="i" unicode="i" horiz-adv-x="355" 
d="M178 1088q-103 0 -103 102q0 103 103 103q102 0 102 -103q0 -102 -102 -102zM178 -24q-102 0 -102 56v912q0 56 102 56q101 0 101 -56v-912q0 -56 -101 -56z" />
    <glyph glyph-name="j" unicode="j" horiz-adv-x="680" 
d="M470 1089q-110 0 -110 101t110 101t110 -101t-110 -101zM236 -407q-61 0 -127 11q-84 16 -84 54q0 57 103 57q27 0 53 -5t54 -5q134 0 134 164v1073q0 56 101 56q102 0 102 -56v-1073q0 -274 -336 -276z" />
    <glyph glyph-name="k" unicode="k" horiz-adv-x="1108" 
d="M964 -24q-78 0 -109 34l-416 444l-136 -114v-308q0 -56 -102 -56t-102 56v1293q0 56 102 56t102 -56v-808l553 461q25 22 77 22q26 0 45 -6q46 -13 46 -40q0 -11 -13 -23l-425 -352l486 -518q12 -13 12 -25q0 -39 -71 -55q-23 -5 -49 -5z" />
    <glyph glyph-name="l" unicode="l" horiz-adv-x="353" 
d="M177 -24q-102 0 -102 56v1293q0 56 102 56q101 0 101 -56v-1293q0 -56 -101 -56z" />
    <glyph glyph-name="m" unicode="m" horiz-adv-x="1765" 
d="M1563 -24q-101 0 -101 56v520q0 113 -51 223.5t-189 110.5q-137 0 -187 -111.5t-50 -221.5v-521q0 -56 -102 -56q-101 0 -101 56v520q0 113 -51 223.5t-190 110.5q-119 0 -182 -103q-56 -92 -56 -230v-521q0 -56 -101 -56q-102 0 -102 56v912q0 56 102 56q101 0 101 -56
v-61q98 117 261 117q195 0 319 -147q122 147 340 147q442 0 442 -448v-520q0 -56 -102 -56z" />
    <glyph glyph-name="n" unicode="n" horiz-adv-x="1160" 
d="M958 -24q-101 0 -101 56v518q0 117 -64 227t-202 110q-148 0 -218 -119.5t-70 -244.5v-491q0 -56 -101 -56q-102 0 -102 56v911q0 56 102 56q101 0 101 -56v-60q110 117 300 117q200 0 328.5 -127.5t128.5 -321.5v-519q0 -56 -102 -56z" />
    <glyph glyph-name="o" unicode="o" horiz-adv-x="1190" 
d="M595 -24q-234 0 -389.5 139t-155.5 373t155.5 373t389.5 139t389.5 -139t155.5 -373t-155.5 -373t-389.5 -139zM595 87q167 0 254.5 126.5t87.5 274.5q0 149 -87.5 275t-254.5 126q-166 0 -254 -126t-88 -275q0 -148 88 -274.5t254 -126.5z" />
    <glyph glyph-name="p" unicode="p" horiz-adv-x="1174" 
d="M202 -404q-102 0 -102 56v1293q0 56 102 56q101 0 101 -56v-61q115 116 309 116q512 0 512 -512t-512 -512q-193 0 -309 116v-440q0 -56 -101 -56zM612 88q158 0 233.5 133t75.5 267t-75.5 267t-233.5 133q-157 0 -233 -133t-76 -267t76 -267t233 -133z" />
    <glyph glyph-name="q" unicode="q" horiz-adv-x="1174" 
d="M972 999q-101 0 -101 -56v-61q-115 116 -309 116q-512 0 -512 -512t512 -512q193 0 309 116v-440q0 -56 101 -56q102 0 102 56v1293q0 56 -102 56zM562 886q158 0 233.5 -133t75.5 -267t-75.5 -267t-233.5 -133q-157 0 -233 133t-76 267t76 267t233 133z" />
    <glyph glyph-name="r" unicode="r" horiz-adv-x="804" 
d="M202 -24q-102 0 -102 56v912q0 56 102 56q101 0 101 -56v-61q83 117 242 117q121 0 209 -57q25 -16 25 -38q0 -28 -32 -49q-28 -19 -62 -19q-32 0 -55 17q-47 37 -105 37q-116 0 -175 -122q-47 -95 -47 -256v-481q0 -56 -101 -56z" />
    <glyph glyph-name="s" unicode="s" horiz-adv-x="996" 
d="M503 -24q-148 0 -276.5 65.5t-172.5 213.5q-4 12 -4 18q0 55 101 55q89 0 101 -47q52 -194 250 -194q83 0 162.5 50.5t79.5 144.5q0 59 -87 97q-59 26 -155 39q-80 11 -156.5 25t-145.5 60q-125 83 -125 214q0 154 151.5 218.5t278.5 64.5q130 0 252.5 -58t158.5 -191
q3 -9 3 -17q0 -51 -101 -54q-89 0 -101 48q-39 161 -213 161q-75 0 -151 -41.5t-76 -128.5q0 -58 96 -96q65 -25 155 -39q80 -12 153 -26.5t142 -58.5q123 -78 123 -211q0 -166 -153 -239t-290 -73z" />
    <glyph glyph-name="t" unicode="t" horiz-adv-x="809" 
d="M574 -24q-337 2 -337 276v636h-112q-101 0 -101 56t101 56h112v325q0 56 102 56t102 -56v-325h168q102 0 102 -56t-102 -56h-168v-636q0 -164 134 -164q28 0 53.5 5.5t51.5 5.5q105 0 105 -58q0 -39 -84 -54q-66 -11 -127 -11z" />
    <glyph glyph-name="u" unicode="u" horiz-adv-x="1160" 
d="M202 1000q101 0 101 -56v-518q0 -117 64 -227t202 -110q148 0 218 119.5t70 244.5v491q0 56 101 56q102 0 102 -56v-911q0 -56 -102 -56q-101 0 -101 56v60q-110 -117 -300 -117q-200 0 -328.5 127.5t-128.5 321.5v519q0 56 102 56z" />
    <glyph glyph-name="v" unicode="v" horiz-adv-x="1076" 
d="M539 -24q-88 0 -107 42l-405 917q-3 8 -3 13q0 51 109 51q83 0 101 -41l331 -749l330 760q13 30 77 30q80 0 80 -37q0 -2 -2 -10l-405 -934q-18 -42 -106 -42z" />
    <glyph glyph-name="w" unicode="w" horiz-adv-x="1641" 
d="M1129 -24q-90 0 -104 45l-203 671l-212 -669q-15 -47 -107 -47q-86 0 -104 43l-370 912q-4 9 -4 17q0 52 106 52q86 0 104 -43l287 -708l222 705q14 45 108 45q90 0 104 -45l214 -703l290 717q13 32 75 32q81 0 81 -39q0 -5 -4 -13l-374 -927q-18 -45 -109 -45z" />
    <glyph glyph-name="x" unicode="x" horiz-adv-x="1045" 
d="M911 -24q-74 0 -103 34l-300 354l-320 -363q-22 -25 -77 -25q-17 0 -31 3q-53 11 -53 39q0 9 7 17l383 436l-383 453q-9 10 -9 22q0 36 69 50q16 4 41 4q72 0 102 -34l300 -354l320 362q22 25 77 25q18 0 31 -3q53 -11 53 -39q0 -8 -7 -16l-383 -436l383 -453
q9 -10 9 -22q0 -36 -69 -50q-22 -4 -40 -4z" />
    <glyph glyph-name="y" unicode="y" horiz-adv-x="1160" 
d="M1060 33q0 -226 -146.5 -329.5t-354.5 -103.5q-120 0 -250.5 41t-201.5 143q-7 10 -7 20q0 55 101 55q71 0 95 -35q77 -112 261 -112q300 0 300 332v54q-98 -117 -277 -117q-480 0 -480 450v518q0 56 102 56q101 0 101 -56v-518q0 -121 69 -230t208 -109q134 0 205.5 109
t71.5 227v521q0 56 101 56q102 0 102 -56v-916z" />
    <glyph glyph-name="z" unicode="z" horiz-adv-x="1048" 
d="M922 0h-780q-48 0 -84 18q-33 17 -33 40q0 12 9 22l709 785h-593q-102 0 -102 55q0 56 102 56h760q41 0 79 -18q33 -16 33 -40q0 -12 -9 -22l-709 -785h618q101 0 101 -55q0 -56 -101 -56z" />
    <glyph glyph-name="braceleft" unicode="{" horiz-adv-x="688" 
d="M538 -370h-29q-161 0 -232 67q-57 54 -57 125v518q0 125 -71 125q-99 0 -99 55t99 55q72 0 72 125v518q0 72 56 125q72 67 232 67h29q100 0 100 -55q0 -59 -100 -56l-41 1q-34 0 -49 -14q-28 -25 -28 -68v-476q0 -55 -9 -122.5t-58 -99.5q49 -32 58 -99.5t9 -122.5v-476
q0 -43 28 -68q17 -16 49 -14l41 1q100 0 100 -56q0 -55 -100 -55z" />
    <glyph glyph-name="bar" unicode="|" horiz-adv-x="355" 
d="M178 -430q-78 0 -78 39v1702q0 39 78 39q77 0 77 -39v-1702q0 -39 -77 -39z" />
    <glyph glyph-name="braceright" unicode="}" horiz-adv-x="649" 
d="M111 -370h29q161 0 232 67q57 54 57 125v518q0 125 71 125q99 0 99 55t-99 55q-72 0 -72 125v518q0 72 -56 125q-72 67 -232 67h-29q-100 0 -100 -55q0 -59 100 -56l41 1q34 0 49 -14q28 -25 28 -68v-476q0 -55 9 -122.5t58 -99.5q-49 -32 -58 -99.5t-9 -122.5v-476
q0 -43 -28 -68q-17 -16 -49 -14l-41 1q-100 0 -100 -56q0 -55 100 -55z" />
    <glyph glyph-name="asciitilde" unicode="~" horiz-adv-x="1315" 
d="M912 1060q-114 0 -189 42t-158 112q-25 22 -71.5 58.5t-82.5 36.5q-46 0 -75 -74.5t-34 -111.5q-7 -50 -103 -50q-100 0 -99 54q2 116 86 199q90 89 230 89q153 0 321 -145q32 -28 81 -65.5t93 -37.5q46 0 72 83t30 116q5 50 103 50q99 0 99 -53q0 -113 -73 -205
q-77 -98 -230 -98z" />
    <glyph glyph-name="uni00A0" unicode="&#xa0;" horiz-adv-x="500" 
 />
    <glyph glyph-name="pound" unicode="&#xa3;" horiz-adv-x="1275" 
d="M170 -24q-29 0 -57 10q-43 16 -43 46q0 18 18 32q97 76 176 174.5t78 227.5q0 62 -25 148h-166q-101 0 -101 56t101 56h131q-53 161 -53 260q0 185 143.5 290t318.5 105q349 0 430 -340q5 -35 5 -27q0 -55 -103 -55q-88 0 -99 50q-17 89 -75.5 174.5t-162.5 85.5
q-111 0 -183 -91t-72 -193q0 -67 18 -131.5t39 -127.5h302q101 0 101 -56t-101 -56h-268q22 -83 22 -150q0 -150 -108 -287q16 1 48 1q108 0 204.5 -39.5t193.5 -39.5q83 0 172 48q32 16 70 16q43 0 73 -18q28 -16 28 -38q0 -24 -31 -41q-156 -84 -304 -84q-116 0 -214 43
t-193 42q-103 0 -238 -73q-33 -18 -75 -18z" />
    <glyph glyph-name="yen" unicode="&#xa5;" horiz-adv-x="1104" 
d="M552 -24q-102 0 -102 55v334h-261q-102 0 -102 57t102 57h261v148h-261q-102 0 -102 57t102 57h203l-335 565q-7 11 -7 22q0 53 107 53q85 0 105 -36l317 -564l313 572q16 28 74 28q88 0 88 -42q0 -8 -5 -16l-338 -582h204q101 0 101 -57t-101 -57h-262v-148h262
q101 0 101 -57t-101 -57h-262v-334q0 -55 -101 -55z" />
    <glyph glyph-name="dieresis" unicode="&#xa8;" horiz-adv-x="699" 
d="M500 1320q119 0 119 -121q0 -119 -119 -119q-121 0 -121 119q0 121 121 121zM201 1320q119 0 119 -121q0 -119 -119 -119q-121 0 -121 119q0 121 121 121z" />
    <glyph glyph-name="copyright" unicode="&#xa9;" horiz-adv-x="1323" 
d="M662 -24q-230 0 -396 135.5t-166 376.5t166 376.5t396 135.5t395.5 -135.5t165.5 -376.5t-165.5 -376.5t-395.5 -135.5zM662 71q179 0 285.5 122t106.5 295t-106.5 295t-285.5 122t-286 -122t-107 -295t107 -295t286 -122zM677 158q-151 0 -238 92q-83 87 -83 238
q0 330 325 330q251 0 284 -198q1 -4 1 -10q0 -30 -56 -30q-53 0 -57 29q-19 147 -173 147q-107 0 -159 -85.5t-52 -180.5q0 -122 62 -201q55 -70 145 -69q62 0 115 43q54 42 64 105q5 28 57 28q55 0 55 -31q0 -6 -2 -16q-18 -78 -92 -130q-85 -61 -196 -61z" />
    <glyph glyph-name="guillemotleft" unicode="&#xab;" horiz-adv-x="982" 
d="M804 380q-44 0 -65 20l-314 286q-11 11 -11 21q0 11 11 22l314 285q21 20 65 20q23 0 41 -6q37 -12 37 -36q0 -11 -11 -21l-290 -264l290 -264q11 -10 11 -21q0 -24 -37 -36q-18 -6 -41 -6zM490 380q-42 0 -65 20l-314 286q-11 9 -11 21q0 11 11 22l314 285q21 20 65 20
q23 0 41 -6q37 -12 37 -36q0 -11 -11 -21l-290 -264l290 -264q11 -10 11 -21q0 -24 -37 -36q-18 -6 -41 -6z" />
    <glyph glyph-name="uni00AD" unicode="&#xad;" horiz-adv-x="40" 
 />
    <glyph glyph-name="registered" unicode="&#xae;" horiz-adv-x="1323" 
d="M662 -24q-230 0 -396 135.5t-166 376.5t166 376.5t396 135.5t395.5 -135.5t165.5 -376.5t-165.5 -376.5t-395.5 -135.5zM662 71q179 0 285.5 122t106.5 295t-106.5 295t-285.5 122t-286 -122t-107 -295t107 -295t286 -122zM453 202q-52 0 -52 29v514q0 29 52 29h251
q188 0 188 -157q0 -116 -132 -149q25 -25 60 -98q44 -98 85 -118q16 -8 16 -21q0 -12 -13 -19q-15 -9 -37 -9q-21 0 -35 7q-67 33 -119 154q-41 97 -86 97h-127v-230q0 -29 -51 -29zM704 518q86 0 86 99q0 100 -86 100h-200v-199h200z" />
    <glyph glyph-name="macron" unicode="&#xaf;" horiz-adv-x="629" 
d="M50 1314q0 71 48 71h425q56 0 56 -71q0 -70 -56 -70h-417q-56 0 -56 70z" />
    <glyph glyph-name="degree" unicode="&#xb0;" horiz-adv-x="633" 
d="M316 1080q-316 0 -316 268q0 267 316 267q317 0 317 -267q0 -268 -317 -268zM316 1173q144 0 144 175q0 174 -144 174q-143 0 -143 -174q0 -175 143 -175z" />
    <glyph glyph-name="two_super" unicode="&#xb2;" horiz-adv-x="478" 
d="M410 1000h-345q-65 0 -65 36q0 92 32 145q29 47 133 99q56 28 119 69t63 111q0 122 -105 122q-38 0 -64 -21q-44 -34 -44 -112q0 -35 -64 -35q-60 0 -66 32q-1 6 -1 20q0 102 99 155q60 32 140 32q236 0 236 -195q0 -90 -76.5 -142.5t-150.5 -88.5q-77 -37 -96 -69
q-18 -31 -24 -87h279q65 0 65 -35q0 -36 -65 -36z" />
    <glyph glyph-name="three_super" unicode="&#xb3;" horiz-adv-x="482" 
d="M248 1000q-248 0 -248 197q0 36 66 36q65 0 65 -36q0 -125 117 -125q103 0 103 124q0 123 -108 120l-26 -1q-66 -3 -66 36q0 33 61 36l33 3q88 14 88 103q0 112 -106 112q-39 0 -67 -33q-28 -32 -28 -85v-11q0 -36 -64 -36q-65 0 -67 35l-1 14q-6 73 59 131q64 57 171 57
q234 0 234 -184q0 -86 -80 -137q98 -52 98 -161q0 -195 -234 -195z" />
    <glyph glyph-name="acute" unicode="&#xb4;" horiz-adv-x="575" 
d="M156 1080q-29 0 -54 30q-22 25 -22 51q0 24 20 43l323 301q20 19 45 19q46 0 81 -47q26 -34 26 -68t-27 -54l-356 -262q-17 -13 -36 -13z" />
    <glyph glyph-name="paragraph" unicode="&#xb6;" horiz-adv-x="1091" 
d="M801 -24q-77 0 -77 39v1254h-242v-1254q0 -39 -78 -39q-77 0 -77 39v781q-227 60 -227 287q0 298 305 298h485q101 0 101 -56t-101 -56h-11v-1254q0 -39 -78 -39z" />
    <glyph glyph-name="cedilla" unicode="&#xb8;" horiz-adv-x="461" 
d="M196 -790q-136 0 -188 47q-8 7 -8 15q0 22 37 31q12 3 29 3q27 0 53 -13q37 -16 77 -16q130 0 130 85q0 76 -111 76q-26 0 -47 9q-20 9 -20 24q0 4 4 16l54 149q10 28 72 28t62 -33q0 -3 -4 -15l-43 -119q168 -30 168 -135q0 -88 -98 -120t-167 -32z" />
    <glyph glyph-name="one_super" unicode="&#xb9;" horiz-adv-x="274" 
d="M208 1000q-65 0 -65 36v431q-39 -16 -76 -17q-67 -3 -67 35q0 30 49 35q27 4 53 32q32 34 40 90q5 35 66 35q66 0 66 -36v-605q0 -36 -66 -36z" />
    <glyph glyph-name="guillemotright" unicode="&#xbb;" horiz-adv-x="930" 
d="M127 380q44 0 65 20l314 286q11 11 11 21q0 11 -11 22l-314 285q-21 20 -65 20q-23 0 -41 -6q-37 -12 -37 -36q0 -11 11 -21l290 -264l-290 -264q-11 -10 -11 -21q0 -24 37 -36q18 -6 41 -6zM441 380q42 0 65 20l314 286q11 9 11 21q0 11 -11 22l-314 285q-21 20 -65 20
q-23 0 -41 -6q-37 -12 -37 -36q0 -11 11 -21l290 -264l-290 -264q-11 -10 -11 -21q0 -24 37 -36q18 -6 41 -6z" />
    <glyph glyph-name="questiondown" unicode="&#xbf;" horiz-adv-x="849" 
d="M333 985q101 0 105 -54q2 -40 2 -43q0 -113 -46 -185q-30 -47 -77 -92.5t-89 -83.5q-163 -147 -163 -288q0 -245 257 -245q134 0 206 84q69 80 69 204q0 56 101 56t101 -55q0 -149 -88 -252q-126 -148 -389 -148q-168 0 -313.5 86.5t-145.5 269.5q0 118 60 199t142 156
q109 99 139 148q36 60 33 137l-2 50q-3 56 98 56zM338 1048q-120 0 -120 121q0 119 120 119t120 -119q0 -121 -120 -121z" />
    <glyph glyph-name="Agrave" unicode="&#xc0;" horiz-adv-x="1413" 
d="M1281 -24q-91 0 -110 43l-183 415h-623l-184 -427q-13 -31 -75 -31q-81 0 -81 40q0 3 2 9l568 1315q17 41 114 41q85 0 104 -42l572 -1296q3 -7 3 -13q0 -54 -107 -54zM938 546l-265 601l-259 -601h524zM678 1416q-19 0 -36 13l-356 262q-27 20 -27 54t26 68q35 47 81 47
q25 0 45 -19l323 -301q20 -19 20 -43q0 -26 -22 -51q-25 -30 -54 -30z" />
    <glyph glyph-name="Aacute" unicode="&#xc1;" horiz-adv-x="1413" 
d="M1281 -24q-91 0 -110 43l-183 415h-623l-184 -427q-13 -31 -75 -31q-81 0 -81 40q0 3 2 9l568 1315q17 41 114 41q85 0 104 -42l572 -1296q3 -7 3 -13q0 -54 -107 -54zM938 546l-265 601l-259 -601h524zM676 1416q-29 0 -54 30q-22 25 -22 51q0 24 20 43l323 301
q20 19 45 19q46 0 81 -47q26 -34 26 -68t-27 -54l-356 -262q-17 -13 -36 -13z" />
    <glyph glyph-name="Acircumflex" unicode="&#xc2;" horiz-adv-x="1413" 
d="M1281 -24q-91 0 -110 43l-183 415h-623l-184 -427q-13 -31 -75 -31q-81 0 -81 40q0 3 2 9l568 1315q17 41 114 41q85 0 104 -42l572 -1296q3 -7 3 -13q0 -54 -107 -54zM938 546l-265 601l-259 -601h524zM1008 1451q0 -37 -79 -37q-58 0 -73 29l-152 299l-152 -299
q-14 -29 -72 -29q-80 0 -80 37q0 7 2 10l227 447q15 29 75 29q61 0 75 -29l226 -447q3 -6 3 -10z" />
    <glyph glyph-name="Atilde" unicode="&#xc3;" horiz-adv-x="1413" 
d="M1281 -24q-91 0 -110 43l-183 415h-623l-184 -427q-13 -31 -75 -31q-81 0 -81 40q0 3 2 9l568 1315q17 41 114 41q85 0 104 -42l572 -1296q3 -7 3 -13q0 -54 -107 -54zM938 546l-265 601l-259 -601h524zM1012 1460q-114 0 -189 42t-158 112q-25 22 -71.5 58.5t-82.5 36.5
q-46 0 -75 -74.5t-34 -111.5q-7 -50 -103 -50q-100 0 -99 54q2 116 86 199q90 89 230 89q153 0 321 -145q32 -28 81 -65.5t93 -37.5q46 0 72 83t30 116q5 50 103 50q99 0 99 -53q0 -113 -73 -205q-77 -98 -230 -98z" />
    <glyph glyph-name="Adieresis" unicode="&#xc4;" horiz-adv-x="1413" 
d="M1281 -24q-91 0 -110 43l-183 415h-623l-184 -427q-13 -31 -75 -31q-81 0 -81 40q0 3 2 9l568 1315q17 41 114 41q85 0 104 -42l572 -1296q3 -7 3 -13q0 -54 -107 -54zM938 546l-265 601l-259 -601h524zM899 1704q119 0 119 -121q0 -119 -119 -119q-121 0 -121 119
q0 121 121 121zM600 1704q119 0 119 -121q0 -119 -119 -119q-121 0 -121 119q0 121 121 121z" />
    <glyph glyph-name="Aring" unicode="&#xc5;" horiz-adv-x="1413" 
d="M1281 -24q-91 0 -110 43l-183 415h-623l-184 -427q-13 -31 -75 -31q-81 0 -81 40q0 3 2 9l568 1315q17 41 114 41q85 0 104 -42l572 -1296q3 -7 3 -13q0 -54 -107 -54zM938 546l-265 601l-259 -601h524zM697 1464q-316 0 -316 268q0 267 316 267q317 0 317 -267
q0 -268 -317 -268zM697 1557q144 0 144 175q0 174 -144 174q-143 0 -143 -174q0 -175 143 -175z" />
    <glyph glyph-name="AE" unicode="&#xc6;" horiz-adv-x="2053" 
d="M181 7q-13 -31 -75 -31q-81 0 -81 39q0 6 2 10l568 1291q17 41 108 41h1173q102 0 102 -56t-102 -56h-803v-511h685q102 0 102 -55q0 -56 -102 -56h-685v-511h804q101 0 101 -56t-101 -56h-906q-101 0 -101 56v377h-505zM870 545v700h-148l-308 -700h456z" />
    <glyph glyph-name="Ccedilla" unicode="&#xc7;" horiz-adv-x="1382" 
d="M1333 411q0 -11 -6 -33q-51 -184 -206 -284.5t-335 -116.5l-32 -91q168 -30 168 -135q0 -88 -98 -120t-167 -32q-136 0 -189 47q-8 8 -8 15q0 22 38 31q12 3 28 3q26 0 54 -12q34 -17 77 -17q129 0 129 85q0 76 -110 76q-27 0 -48 9q-20 10 -20 24q0 1 5 16l36 100
q-600 47 -600 696q0 314 181.5 510.5t501.5 196.5q196 0 376.5 -104.5t217.5 -307.5q4 -16 4 -25q0 -56 -98 -56q-97 0 -104 52q-44 329 -396 329q-244 0 -362.5 -187.5t-118.5 -405.5q0 -214 113 -401.5t356 -187.5q353 0 410 331q8 50 102 50q101 0 101 -55z" />
    <glyph glyph-name="Egrave" unicode="&#xc8;" horiz-adv-x="1284" 
d="M1107 0h-898q-109 0 -109 60v1237q0 60 109 60h898q102 0 102 -56t-102 -56h-804v-510h677q101 0 101 -56t-101 -56h-677v-511h804q102 0 102 -56t-102 -56zM719 1414q-19 0 -36 13l-356 262q-27 20 -27 54t26 68q35 47 81 47q25 0 45 -19l323 -301q20 -19 20 -43
q0 -26 -22 -51q-25 -30 -54 -30z" />
    <glyph glyph-name="Eacute" unicode="&#xc9;" horiz-adv-x="1284" 
d="M1107 0h-898q-109 0 -109 60v1237q0 60 109 60h898q102 0 102 -56t-102 -56h-804v-510h677q101 0 101 -56t-101 -56h-677v-511h804q102 0 102 -56t-102 -56zM609 1410q-29 0 -54 30q-22 25 -22 51q0 24 20 43l323 301q20 19 45 19q46 0 81 -47q26 -34 26 -68t-27 -54
l-356 -262q-17 -13 -36 -13z" />
    <glyph glyph-name="Ecircumflex" unicode="&#xca;" horiz-adv-x="1243" 
d="M1107 0h-898q-109 0 -109 60v1237q0 60 109 60h898q102 0 102 -56t-102 -56h-804v-510h677q101 0 101 -56t-101 -56h-677v-511h804q102 0 102 -56t-102 -56zM948 1453q0 -37 -79 -37q-58 0 -73 29l-152 299l-152 -299q-14 -29 -72 -29q-80 0 -80 37q0 7 2 10l227 447
q15 29 75 29q61 0 75 -29l226 -447q3 -6 3 -10z" />
    <glyph glyph-name="Edieresis" unicode="&#xcb;" horiz-adv-x="1284" 
d="M1107 0h-898q-109 0 -109 60v1237q0 60 109 60h898q102 0 102 -56t-102 -56h-804v-510h677q101 0 101 -56t-101 -56h-677v-511h804q102 0 102 -56t-102 -56zM860 1754q119 0 119 -121q0 -119 -119 -119q-121 0 -121 119q0 121 121 121zM561 1754q119 0 119 -121
q0 -119 -119 -119q-121 0 -121 119q0 121 121 121z" />
    <glyph glyph-name="Igrave" unicode="&#xcc;" horiz-adv-x="303" 
d="M152 -24q-102 0 -102 56v1293q0 56 102 56q101 0 101 -56v-1293q0 -56 -101 -56zM114 1451q-19 0 -36 13l-356 262q-27 20 -27 54t26 68q35 47 81 47q25 0 45 -19l323 -301q20 -19 20 -43q0 -26 -22 -51q-25 -30 -54 -30z" />
    <glyph glyph-name="Iacute" unicode="&#xcd;" horiz-adv-x="303" 
d="M151 -24q102 0 102 56v1293q0 56 -102 56q-101 0 -101 -56v-1293q0 -56 101 -56zM189 1451q19 0 36 13l356 262q27 20 27 54t-26 68q-35 47 -81 47q-25 0 -45 -19l-323 -301q-20 -19 -20 -43q0 -26 22 -51q25 -30 54 -30z" />
    <glyph glyph-name="Icircumflex" unicode="&#xce;" horiz-adv-x="303" 
d="M152 -24q-102 0 -102 56v1293q0 56 102 56q101 0 101 -56v-1293q0 -56 -101 -56zM457 1451q0 -37 -79 -37q-58 0 -73 29l-152 299l-152 -299q-14 -29 -72 -29q-80 0 -80 37q0 7 2 10l227 447q15 29 75 29q61 0 75 -29l226 -447q3 -6 3 -10z" />
    <glyph glyph-name="Idieresis" unicode="&#xcf;" horiz-adv-x="303" 
d="M152 -24q-102 0 -102 56v1293q0 56 102 56q101 0 101 -56v-1293q0 -56 -101 -56zM342 1753q119 0 119 -121q0 -119 -119 -119q-121 0 -121 119q0 121 121 121zM43 1753q119 0 119 -121q0 -119 -119 -119q-121 0 -121 119q0 121 121 121z" />
    <glyph glyph-name="Eth" unicode="&#xd0;" horiz-adv-x="1590" 
d="M872 -24h-466q-101 0 -101 56v568h-124q-101 0 -101 55q0 54 101 54h124v568q0 56 101 56h466q302 0 470 -200t168 -483t-168 -478.5t-470 -195.5zM872 88q225 0 330.5 186.5t105.5 376.5q0 188 -106 379t-330 191h-364v-512h123q102 0 102 -54q0 -55 -102 -55h-123v-512
h364z" />
    <glyph glyph-name="Ntilde" unicode="&#xd1;" horiz-adv-x="1398" 
d="M953 1448q-114 0 -189 42t-158 112q-25 22 -71.5 58.5t-82.5 36.5q-46 0 -75 -74.5t-34 -111.5q-7 -50 -103 -50q-100 0 -99 54q2 116 86 199q90 89 230 89q153 0 321 -145q32 -28 81 -65.5t93 -37.5q46 0 72 83t30 116q5 50 103 50q99 0 99 -53q0 -113 -73 -205
q-77 -98 -230 -98zM1178 -24q-82 0 -111 38l-809 1088v-1084q0 -42 -79 -42t-79 42v1297q0 66 120 66q81 0 110 -38l810 -1088v1083q0 43 79 43t79 -43v-1298q0 -64 -120 -64z" />
    <glyph glyph-name="Ograve" unicode="&#xd2;" horiz-adv-x="1486" 
d="M747 1465q29 0 54 30q22 25 22 51q0 24 -20 43l-323 301q-20 19 -45 19q-46 0 -81 -47q-26 -34 -26 -68t27 -54l356 -262q17 -13 36 -13zM743 -24q314 0 503.5 199.5t189.5 503.5q0 305 -189.5 503.5t-503.5 198.5t-503.5 -198.5t-189.5 -503.5q0 -304 189.5 -503.5
t503.5 -199.5zM743 88q-243 0 -366.5 188t-123.5 403t123.5 402.5t366.5 187.5t366.5 -187.5t123.5 -402.5t-123.5 -403t-366.5 -188z" />
    <glyph glyph-name="Oacute" unicode="&#xd3;" horiz-adv-x="1486" 
d="M739 1465q-29 0 -54 30q-22 25 -22 51q0 24 20 43l323 301q20 19 45 19q46 0 81 -47q26 -34 26 -68t-27 -54l-356 -262q-17 -13 -36 -13zM743 -24q-314 0 -503.5 199.5t-189.5 503.5q0 305 189.5 503.5t503.5 198.5t503.5 -198.5t189.5 -503.5q0 -304 -189.5 -503.5
t-503.5 -199.5zM743 88q243 0 366.5 188t123.5 403t-123.5 402.5t-366.5 187.5t-366.5 -187.5t-123.5 -402.5t123.5 -403t366.5 -188z" />
    <glyph glyph-name="Ocircumflex" unicode="&#xd4;" horiz-adv-x="1486" 
d="M1047 1501q0 -37 -79 -37q-58 0 -73 29l-152 299l-152 -299q-14 -29 -72 -29q-80 0 -80 37q0 7 2 10l227 447q15 29 75 29q61 0 75 -29l226 -447q3 -6 3 -10zM743 -24q-314 0 -503.5 199.5t-189.5 503.5q0 305 189.5 503.5t503.5 198.5t503.5 -198.5t189.5 -503.5
q0 -304 -189.5 -503.5t-503.5 -199.5zM743 88q243 0 366.5 188t123.5 403t-123.5 402.5t-366.5 187.5t-366.5 -187.5t-123.5 -402.5t123.5 -403t366.5 -188z" />
    <glyph glyph-name="Otilde" unicode="&#xd5;" horiz-adv-x="1486" 
d="M743 -24q-314 0 -503.5 199.5t-189.5 503.5q0 305 189.5 503.5t503.5 198.5t503.5 -198.5t189.5 -503.5q0 -304 -189.5 -503.5t-503.5 -199.5zM743 88q243 0 366.5 188t123.5 403t-123.5 402.5t-366.5 187.5t-366.5 -187.5t-123.5 -402.5t123.5 -403t366.5 -188z
M1012 1414q-114 0 -189 42t-158 112q-25 22 -71.5 58.5t-82.5 36.5q-46 0 -75 -74.5t-34 -111.5q-7 -50 -103 -50q-100 0 -99 54q2 116 86 199q90 89 230 89q153 0 321 -145q32 -28 81 -65.5t93 -37.5q46 0 72 83t30 116q5 50 103 50q99 0 99 -53q0 -113 -73 -205
q-77 -98 -230 -98z" />
    <glyph glyph-name="Odieresis" unicode="&#xd6;" horiz-adv-x="1486" 
d="M927 1704q119 0 119 -121q0 -119 -119 -119q-121 0 -121 119q0 121 121 121zM628 1704q119 0 119 -121q0 -119 -119 -119q-121 0 -121 119q0 121 121 121zM743 -24q-314 0 -503.5 199.5t-189.5 503.5q0 305 189.5 503.5t503.5 198.5t503.5 -198.5t189.5 -503.5
q0 -304 -189.5 -503.5t-503.5 -199.5zM743 88q243 0 366.5 188t123.5 403t-123.5 402.5t-366.5 187.5t-366.5 -187.5t-123.5 -402.5t123.5 -403t366.5 -188z" />
    <glyph glyph-name="multiply" unicode="&#xd7;" horiz-adv-x="960" 
d="M779 120q-46 0 -69 22l-230 223l-230 -223q-23 -22 -69 -22q-22 0 -40 6q-41 12 -41 37q0 11 10 21l278 270l-278 269q-10 10 -10 21q0 25 41 37q18 6 40 6q46 0 69 -22l230 -223l230 223q23 22 69 22q22 0 40 -6q41 -12 41 -37q0 -11 -10 -21l-278 -269l278 -270
q10 -10 10 -21q0 -25 -41 -37q-18 -6 -40 -6z" />
    <glyph glyph-name="Oslash" unicode="&#xd8;" horiz-adv-x="1546" 
d="M773 -24q-142 0 -266 45l-6 -11q-19 -34 -82 -34q-87 0 -87 48q0 7 4 14l30 55q-286 195 -286 586q0 304 189.5 503t503.5 199q142 0 266 -45l6 11q19 34 82 34q87 0 87 -48q0 -7 -4 -14l-30 -56q286 -195 286 -584q0 -304 -189.5 -503.5t-503.5 -199.5zM442 233l535 989
q-92 47 -204 47q-243 0 -366.5 -187.5t-123.5 -402.5q0 -273 159 -446zM773 88q243 0 366.5 188t123.5 403q0 273 -159 445l-535 -989q92 -47 204 -47z" />
    <glyph glyph-name="Ugrave" unicode="&#xd9;" horiz-adv-x="1349" 
d="M673 -24q-197 0 -385 119.5t-188 336.5v893q0 56 101 56q102 0 102 -56v-893q0 -147 115.5 -245.5t256.5 -98.5q142 0 256.5 100t114.5 244v893q0 56 102 56q101 0 101 -56v-893q0 -218 -189.5 -337t-386.5 -119zM649 1464q-19 0 -36 13l-356 262q-27 20 -27 54t26 68
q35 47 81 47q25 0 45 -19l323 -301q20 -19 20 -43q0 -26 -22 -51q-25 -30 -54 -30z" />
    <glyph glyph-name="Uacute" unicode="&#xda;" horiz-adv-x="1349" 
d="M673 -24q-197 0 -385 119.5t-188 336.5v893q0 56 101 56q102 0 102 -56v-893q0 -147 115.5 -245.5t256.5 -98.5q142 0 256.5 100t114.5 244v893q0 56 102 56q101 0 101 -56v-893q0 -218 -189.5 -337t-386.5 -119zM659 1412q-29 0 -54 30q-22 25 -22 51q0 24 20 43
l323 301q20 19 45 19q46 0 81 -47q26 -34 26 -68t-27 -54l-356 -262q-17 -13 -36 -13z" />
    <glyph glyph-name="Ucircumflex" unicode="&#xdb;" horiz-adv-x="1349" 
d="M673 -24q-197 0 -385 119.5t-188 336.5v893q0 56 101 56q102 0 102 -56v-893q0 -147 115.5 -245.5t256.5 -98.5q142 0 256.5 100t114.5 244v893q0 56 102 56q101 0 101 -56v-893q0 -218 -189.5 -337t-386.5 -119zM978 1501q0 -37 -79 -37q-58 0 -73 29l-152 299
l-152 -299q-14 -29 -72 -29q-80 0 -80 37q0 7 2 10l227 447q15 29 75 29q61 0 75 -29l226 -447q3 -6 3 -10z" />
    <glyph glyph-name="Udieresis" unicode="&#xdc;" horiz-adv-x="1349" 
d="M866 1714q119 0 119 -121q0 -119 -119 -119q-121 0 -121 119q0 121 121 121zM567 1714q119 0 119 -121q0 -119 -119 -119q-121 0 -121 119q0 121 121 121zM673 -24q-197 0 -385 119.5t-188 336.5v893q0 56 101 56q102 0 102 -56v-893q0 -147 115.5 -245.5t256.5 -98.5
q142 0 256.5 100t114.5 244v893q0 56 102 56q101 0 101 -56v-893q0 -218 -189.5 -337t-386.5 -119z" />
    <glyph glyph-name="Yacute" unicode="&#xdd;" horiz-adv-x="1296" 
d="M636 1423q-29 0 -54 30q-22 25 -22 51q0 24 20 43l323 301q20 19 45 19q46 0 81 -47q26 -34 26 -68t-27 -54l-356 -262q-17 -13 -36 -13zM648 -24q-101 0 -101 55v612l-514 664q-8 9 -8 21q0 53 116 53q71 0 98 -34l436 -565l434 573q20 26 78 26q84 0 84 -41
q0 -9 -6 -16l-515 -681v-612q0 -55 -102 -55z" />
    <glyph glyph-name="Thorn" unicode="&#xde;" horiz-adv-x="1312" 
d="M303 32q0 -56 -101 -56q-102 0 -102 56v1276q0 56 102 56q101 0 101 -56v-267h528q162 0 296.5 -100t134.5 -271t-134.5 -271t-296.5 -100h-528v-267zM303 929v-518h528q99 0 163.5 84t64.5 175t-64.5 175t-163.5 84h-528z" />
    <glyph glyph-name="germandbls" unicode="&#xdf;" horiz-adv-x="1179" 
d="M152 -24q-102 0 -102 56v946q0 403 449 403q132 0 262 -65.5t130 -220.5q0 -118 -76.5 -203.5t-76.5 -165.5q0 -115 195.5 -202.5t195.5 -276.5q0 -141 -129 -205.5t-248 -64.5q-151 0 -253 66q-121 80 -121 183q0 55 102 55q93 0 100 -50q16 -79 74 -115q43 -27 97 -27
q175 0 175 158t-196 239t-196 237q0 101 76.5 185.5t77.5 188.5q0 171 -190 171q-244 0 -244 -290v-946q0 -56 -102 -56z" />
    <glyph glyph-name="agrave" unicode="&#xe0;" horiz-adv-x="1146" 
d="M1019 -24q-45 0 -73 17q-70 41 -88 107q-64 -75 -171.5 -99.5t-193.5 -24.5q-137 0 -277.5 65.5t-140.5 225.5q0 182 138 231t286 49q32 0 78.5 -2t87.5 -2q113 0 161 26v95q0 225 -261 225q-96 0 -171 -48q-87 -56 -87 -134q0 -55 -102 -55q-100 0 -100 55
q0 117 134 206q133 87 326 87q155 0 309 -75.5t154 -260.5v-431q0 -126 65 -163q28 -16 28 -38q0 -25 -31 -41q-27 -15 -71 -15zM493 87q113 0 223 67.5t110 191.5v96q-57 -10 -140 -10q-46 0 -93 2.5t-94 2.5q-221 0 -221 -170q0 -180 215 -180zM574 1230q29 0 54 30
q22 25 22 51q0 24 -20 43l-323 301q-20 19 -45 19q-46 0 -81 -47q-26 -34 -26 -68t27 -54l356 -262q17 -13 36 -13z" />
    <glyph glyph-name="aacute" unicode="&#xe1;" horiz-adv-x="1146" 
d="M588 1224q-29 0 -54 30q-22 25 -22 51q0 24 20 43l323 301q20 19 45 19q46 0 81 -47q26 -34 26 -68t-27 -54l-356 -262q-17 -13 -36 -13zM1019 -24q-45 0 -73 17q-70 41 -88 107q-64 -75 -171.5 -99.5t-193.5 -24.5q-137 0 -277.5 65.5t-140.5 225.5q0 182 138 231
t286 49q32 0 78.5 -2t87.5 -2q113 0 161 26v95q0 225 -261 225q-96 0 -171 -48q-87 -56 -87 -134q0 -55 -102 -55q-100 0 -100 55q0 117 134 206q133 87 326 87q155 0 309 -75.5t154 -260.5v-431q0 -126 65 -163q28 -16 28 -38q0 -25 -31 -41q-27 -15 -71 -15zM493 87
q113 0 223 67.5t110 191.5v96q-57 -10 -140 -10q-46 0 -93 2.5t-94 2.5q-221 0 -221 -170q0 -180 215 -180z" />
    <glyph glyph-name="acircumflex" unicode="&#xe2;" horiz-adv-x="1146" 
d="M1019 -24q-45 0 -73 17q-70 41 -88 107q-64 -75 -171.5 -99.5t-193.5 -24.5q-137 0 -277.5 65.5t-140.5 225.5q0 182 138 231t286 49q32 0 78.5 -2t87.5 -2q113 0 161 26v95q0 225 -261 225q-96 0 -171 -48q-87 -56 -87 -134q0 -55 -102 -55q-100 0 -100 55
q0 117 134 206q133 87 326 87q155 0 309 -75.5t154 -260.5v-431q0 -126 65 -163q28 -16 28 -38q0 -25 -31 -41q-27 -15 -71 -15zM493 87q113 0 223 67.5t110 191.5v96q-57 -10 -140 -10q-46 0 -93 2.5t-94 2.5q-221 0 -221 -170q0 -180 215 -180zM888 1117q0 -37 -79 -37
q-58 0 -73 29l-152 299l-152 -299q-14 -29 -72 -29q-80 0 -80 37q0 7 2 10l227 447q15 29 75 29q61 0 75 -29l226 -447q3 -6 3 -10z" />
    <glyph glyph-name="atilde" unicode="&#xe3;" horiz-adv-x="1146" 
d="M1019 -24q-45 0 -73 17q-70 41 -88 107q-64 -75 -171.5 -99.5t-193.5 -24.5q-137 0 -277.5 65.5t-140.5 225.5q0 182 138 231t286 49q32 0 78.5 -2t87.5 -2q113 0 161 26v95q0 225 -261 225q-96 0 -171 -48q-87 -56 -87 -134q0 -55 -102 -55q-100 0 -100 55
q0 117 134 206q133 87 326 87q155 0 309 -75.5t154 -260.5v-431q0 -126 65 -163q28 -16 28 -38q0 -25 -31 -41q-27 -15 -71 -15zM493 87q113 0 223 67.5t110 191.5v96q-57 -10 -140 -10q-46 0 -93 2.5t-94 2.5q-221 0 -221 -170q0 -180 215 -180zM828 1060q-114 0 -189 42
t-158 112q-25 22 -71.5 58.5t-82.5 36.5q-46 0 -75 -74.5t-34 -111.5q-7 -50 -103 -50q-100 0 -99 54q2 116 86 199q90 89 230 89q153 0 321 -145q32 -28 81 -65.5t93 -37.5q46 0 72 83t30 116q5 50 103 50q99 0 99 -53q0 -113 -73 -205q-77 -98 -230 -98z" />
    <glyph glyph-name="adieresis" unicode="&#xe4;" horiz-adv-x="1146" 
d="M776.359 1339q121.941 0 121.941 -121q0 -119 -121.941 -119q-123.991 0 -123.991 119q0 121 123.991 121zM469.969 1339q121.941 0 121.941 -121q0 -119 -121.941 -119q-123.991 0 -123.991 119q0 121 123.991 121zM1019 -24q-45 0 -73 17q-70 41 -88 107
q-64 -75 -171.5 -99.5t-193.5 -24.5q-137 0 -277.5 65.5t-140.5 225.5q0 182 138 231t286 49q32 0 78.5 -2t87.5 -2q113 0 161 26v95q0 225 -261 225q-96 0 -171 -48q-87 -56 -87 -134q0 -55 -102 -55q-100 0 -100 55q0 117 134 206q133 87 326 87q155 0 309 -75.5
t154 -260.5v-431q0 -126 65 -163q28 -16 28 -38q0 -25 -31 -41q-27 -15 -71 -15zM493 87q113 0 223 67.5t110 191.5v96q-57 -10 -140 -10q-46 0 -93 2.5t-94 2.5q-221 0 -221 -170q0 -180 215 -180z" />
    <glyph glyph-name="aring" unicode="&#xe5;" horiz-adv-x="1146" 
d="M1019 -24q-45 0 -73 17q-70 41 -88 107q-64 -75 -171.5 -99.5t-193.5 -24.5q-137 0 -277.5 65.5t-140.5 225.5q0 182 138 231t286 49q32 0 78.5 -2t87.5 -2q113 0 161 26v95q0 225 -261 225q-96 0 -171 -48q-87 -56 -87 -134q0 -55 -102 -55q-100 0 -100 55
q0 117 134 206q133 87 326 87q155 0 309 -75.5t154 -260.5v-431q0 -126 65 -163q28 -16 28 -38q0 -25 -31 -41q-27 -15 -71 -15zM493 87q113 0 223 67.5t110 191.5v96q-57 -10 -140 -10q-46 0 -93 2.5t-94 2.5q-221 0 -221 -170q0 -180 215 -180zM576 1080q-316 0 -316 268
q0 267 316 267q317 0 317 -267q0 -268 -317 -268zM576 1173q144 0 144 175q0 174 -144 174q-143 0 -143 -174q0 -175 143 -175z" />
    <glyph glyph-name="ae" unicode="&#xe6;" horiz-adv-x="1922" 
d="M1345 -24q-265 0 -411 180q-44 -44 -118 -94q-133 -86 -323 -86q-137 0 -277.5 65.5t-140.5 225.5q0 182 138.5 231t286.5 49q32 0 78 -2t87 -2q113 0 161 26v95q0 225 -261 225q-96 0 -171 -48q-86 -55 -87 -134q0 -55 -101 -55t-101 55q0 117 134 206q133 87 326 87
q277 0 401 -152q149 152 388 152q212 0 365 -115.5t153 -345.5q0 -64 -97 -64h-755q2 -148 87 -268t239 -120q112 0 205 62q98 66 108 156q5 52 95 52q100 0 100 -55q0 -28 -17 -68q-36 -88 -136 -156q-150 -102 -356 -102zM1674 586q-30 303 -320 303q-259 0 -322 -303h642
zM493 87q113 0 223 67.5t110 191.5v96q-57 -10 -140 -10q-46 0 -92.5 2.5t-93.5 2.5q-222 0 -222 -170q0 -180 215 -180z" />
    <glyph glyph-name="ccedilla" unicode="&#xe7;" horiz-adv-x="1123" 
d="M584 -24q-535 0 -535 508q0 242 155 379t390 137q148 0 297.5 -76t177.5 -233q2 -12 2 -16q0 -55 -101 -55q-94 0 -101 51q-31 218 -276 218q-170 0 -256 -126.5t-86 -280.5q1 -150 84 -272.5t253 -122.5q242 0 283 219q8 50 101 50q102 0 102 -55q0 4 -4 -20
q-36 -155 -187 -230t-299 -75zM476 -454q-136 0 -188 47q-8 7 -8 15q0 22 37 31q12 3 29 3q27 0 53 -13q37 -16 77 -16q130 0 130 85q0 76 -111 76q-26 0 -47 9q-20 9 -20 24q0 4 4 16l54 149q10 28 72 28t62 -33q0 -3 -4 -15l-43 -119q168 -30 168 -135q0 -88 -98 -120
t-167 -32z" />
    <glyph glyph-name="egrave" unicode="&#xe8;" horiz-adv-x="1186" 
d="M577 1100q-19 0 -36 13l-356 262q-27 20 -27 54t26 68q35 47 81 47q25 0 45 -19l323 -301q20 -19 20 -43q0 -26 -22 -51q-25 -30 -54 -30zM589 -24q-227 0 -383 135.5t-156 370.5q0 239 158.5 378.5t389.5 139.5q220 0 379 -115.5t159 -345.5q0 -64 -101 -64h-783
q2 -148 90 -268t248 -120q115 0 213 62q103 66 112 156q5 52 99 52q103 0 103 -55q0 -28 -17 -68q-37 -88 -141 -156q-156 -102 -370 -102zM931 586q-32 303 -333 303q-268 0 -334 -303h667z" />
    <glyph glyph-name="eacute" unicode="&#xe9;" horiz-adv-x="1186" 
d="M584 1234q-29 0 -54 30q-22 25 -22 51q0 24 20 43l323 301q20 19 45 19q46 0 81 -47q26 -34 26 -68t-27 -54l-356 -262q-17 -13 -36 -13zM589 -24q-227 0 -383 135.5t-156 370.5q0 239 158.5 378.5t389.5 139.5q220 0 379 -115.5t159 -345.5q0 -64 -101 -64h-783
q2 -148 90 -268t248 -120q115 0 213 62q103 66 112 156q5 52 99 52q103 0 103 -55q0 -28 -17 -68q-37 -88 -141 -156q-156 -102 -370 -102zM931 586q-32 303 -333 303q-268 0 -334 -303h667z" />
    <glyph glyph-name="ecircumflex" unicode="&#xea;" horiz-adv-x="1186" 
d="M589 -24q-227 0 -383 135.5t-156 370.5q0 239 158.5 378.5t389.5 139.5q220 0 379 -115.5t159 -345.5q0 -64 -101 -64h-783q2 -148 90 -268t248 -120q115 0 213 62q103 66 112 156q5 52 99 52q103 0 103 -55q0 -28 -17 -68q-37 -88 -141 -156q-156 -102 -370 -102z
M931 586q-32 303 -333 303q-268 0 -334 -303h667zM908 1117q0 -37 -79 -37q-58 0 -73 29l-152 299l-152 -299q-14 -29 -72 -29q-80 0 -80 37q0 7 2 10l227 447q15 29 75 29q61 0 75 -29l226 -447q3 -6 3 -10z" />
    <glyph glyph-name="edieresis" unicode="&#xeb;" horiz-adv-x="1186" 
d="M786 1341q119 0 119 -121q0 -119 -119 -119q-121 0 -121 119q0 121 121 121zM487 1341q119 0 119 -121q0 -119 -119 -119q-121 0 -121 119q0 121 121 121zM589 -24q-227 0 -383 135.5t-156 370.5q0 239 158.5 378.5t389.5 139.5q220 0 379 -115.5t159 -345.5
q0 -64 -101 -64h-783q2 -148 90 -268t248 -120q115 0 213 62q103 66 112 156q5 52 99 52q103 0 103 -55q0 -28 -17 -68q-37 -88 -141 -156q-156 -102 -370 -102zM931 586q-32 303 -333 303q-268 0 -334 -303h667z" />
    <glyph glyph-name="igrave" unicode="&#xec;" horiz-adv-x="483" 
d="M319 1111q-19 0 -36 13l-356 262q-27 20 -27 54t26 68q35 47 81 47q25 0 45 -19l323 -301q20 -19 20 -43q0 -26 -22 -51q-25 -30 -54 -30zM347 -24q-102 0 -102 56v912q0 56 102 56q101 0 101 -56v-912q0 -56 -101 -56z" />
    <glyph glyph-name="iacute" unicode="&#xed;" horiz-adv-x="392" 
d="M139 1111q19 0 36 13l356 262q27 20 27 54t-26 68q-35 47 -81 47q-25 0 -45 -19l-323 -301q-20 -19 -20 -43q0 -26 22 -51q25 -30 54 -30zM111 -24q102 0 102 56v912q0 56 -102 56q-101 0 -101 -56v-912q0 -56 101 -56z" />
    <glyph glyph-name="icircumflex" unicode="&#xee;" horiz-adv-x="353" 
d="M177 -24q-102 0 -102 56v912q0 56 102 56q101 0 101 -56v-912q0 -56 -101 -56zM481 1077q0 -37 -79 -37q-58 0 -73 29l-152 299l-152 -299q-14 -29 -72 -29q-80 0 -80 37q0 7 2 10l227 447q15 29 75 29q61 0 75 -29l226 -447q3 -6 3 -10z" />
    <glyph glyph-name="idieresis" unicode="&#xef;" horiz-adv-x="313" 
d="M177 -24q-102 0 -102 56v912q0 56 102 56q101 0 101 -56v-912q0 -56 -101 -56zM342 1339q119 0 119 -121q0 -119 -119 -119q-121 0 -121 119q0 121 121 121zM43 1339q119 0 119 -121q0 -119 -119 -119q-121 0 -121 119q0 121 121 121z" />
    <glyph glyph-name="eth" unicode="&#xf0;" horiz-adv-x="1250" 
d="M625 -24q-234 0 -389.5 139t-155.5 373t155.5 373t389.5 139q111 0 210 -34q-48 80 -118 160l-118 -63q-32 -16 -71 -16q-40 0 -72 18q-28 18 -28 39q0 25 31 41l157 84q-33 30 -74 63q-18 15 -18 32q0 30 43 47q24 10 58 10q53 0 83 -24l58 -48l105 56q29 16 70 16
q43 0 73 -18q28 -16 28 -39q0 -25 -31 -41l-141 -75q110 -118 180 -246q120 -220 120 -474q0 -234 -155.5 -373t-389.5 -139zM625 87q167 0 254.5 126.5t87.5 274.5q0 149 -87.5 275t-254.5 126q-166 0 -254 -126t-88 -275q0 -148 88 -274.5t254 -126.5z" />
    <glyph glyph-name="ntilde" unicode="&#xf1;" horiz-adv-x="1160" 
d="M958 -24q-101 0 -101 56v518q0 117 -64 227t-202 110q-148 0 -218 -119.5t-70 -244.5v-491q0 -56 -101 -56q-102 0 -102 56v911q0 56 102 56q101 0 101 -56v-60q110 117 300 117q200 0 328.5 -127.5t128.5 -321.5v-519q0 -56 -102 -56zM835 1060q-114 0 -189 42t-158 112
q-25 22 -71.5 58.5t-82.5 36.5q-46 0 -75 -74.5t-34 -111.5q-7 -50 -103 -50q-100 0 -99 54q2 116 86 199q90 89 230 89q153 0 321 -145q32 -28 81 -65.5t93 -37.5q46 0 72 83t30 116q5 50 103 50q99 0 99 -53q0 -113 -73 -205q-77 -98 -230 -98z" />
    <glyph glyph-name="ograve" unicode="&#xf2;" horiz-adv-x="1190" 
d="M558 1051q-19 0 -36 13l-356 262q-27 20 -27 54t26 68q35 47 81 47q25 0 45 -19l323 -301q20 -19 20 -43q0 -26 -22 -51q-25 -30 -54 -30zM595 -24q-234 0 -389.5 139t-155.5 373t155.5 373t389.5 139t389.5 -139t155.5 -373t-155.5 -373t-389.5 -139zM595 87
q167 0 254.5 126.5t87.5 274.5q0 149 -87.5 275t-254.5 126q-166 0 -254 -126t-88 -275q0 -148 88 -274.5t254 -126.5z" />
    <glyph glyph-name="oacute" unicode="&#xf3;" horiz-adv-x="1190" 
d="M632 1051q19 0 36 13l356 262q27 20 27 54t-26 68q-35 47 -81 47q-25 0 -45 -19l-323 -301q-20 -19 -20 -43q0 -26 22 -51q25 -30 54 -30zM595 -24q234 0 389.5 139t155.5 373t-155.5 373t-389.5 139t-389.5 -139t-155.5 -373t155.5 -373t389.5 -139zM595 87
q-167 0 -254.5 126.5t-87.5 274.5q0 149 87.5 275t254.5 126q166 0 254 -126t88 -275q0 -148 -88 -274.5t-254 -126.5z" />
    <glyph glyph-name="ocircumflex" unicode="&#xf4;" horiz-adv-x="1190" 
d="M891 1086q0 -37 -79 -37q-58 0 -73 29l-152 299l-152 -299q-14 -29 -72 -29q-80 0 -80 37q0 7 2 10l227 447q15 29 75 29q61 0 75 -29l226 -447q3 -6 3 -10zM595 -24q-234 0 -389.5 139t-155.5 373t155.5 373t389.5 139t389.5 -139t155.5 -373t-155.5 -373t-389.5 -139z
M595 87q167 0 254.5 126.5t87.5 274.5q0 149 -87.5 275t-254.5 126q-166 0 -254 -126t-88 -275q0 -148 88 -274.5t254 -126.5z" />
    <glyph glyph-name="otilde" unicode="&#xf5;" horiz-adv-x="1190" 
d="M595 -24q-234 0 -389.5 139t-155.5 373t155.5 373t389.5 139t389.5 -139t155.5 -373t-155.5 -373t-389.5 -139zM595 87q167 0 254.5 126.5t87.5 274.5q0 149 -87.5 275t-254.5 126q-166 0 -254 -126t-88 -275q0 -148 88 -274.5t254 -126.5zM849 1060q-114 0 -189 42
t-158 112q-25 22 -71.5 58.5t-82.5 36.5q-46 0 -75 -74.5t-34 -111.5q-7 -50 -103 -50q-100 0 -99 54q2 116 86 199q90 89 230 89q153 0 321 -145q32 -28 81 -65.5t93 -37.5q46 0 72 83t30 116q5 50 103 50q99 0 99 -53q0 -113 -73 -205q-77 -98 -230 -98z" />
    <glyph glyph-name="odieresis" unicode="&#xf6;" horiz-adv-x="1190" 
d="M787 1290q119 0 119 -121q0 -119 -119 -119q-121 0 -121 119q0 121 121 121zM488 1290q119 0 119 -121q0 -119 -119 -119q-121 0 -121 119q0 121 121 121zM595 -24q-234 0 -389.5 139t-155.5 373t155.5 373t389.5 139t389.5 -139t155.5 -373t-155.5 -373t-389.5 -139z
M595 87q167 0 254.5 126.5t87.5 274.5q0 149 -87.5 275t-254.5 126q-166 0 -254 -126t-88 -275q0 -148 88 -274.5t254 -126.5z" />
    <glyph glyph-name="divide" unicode="&#xf7;" horiz-adv-x="1003" 
d="M502 856q102 0 102 -103q0 -102 -102 -102q-103 0 -103 102q0 103 103 103zM855 498h-707q-98 0 -98 55t98 55h707q98 0 98 -55t-98 -55zM502 455q102 0 102 -103q0 -102 -102 -102q-103 0 -103 102q0 103 103 103z" />
    <glyph glyph-name="oslash" unicode="&#xf8;" horiz-adv-x="1323" 
d="M662 -24q-97 0 -185 25q-19 -24 -71 -24q-78 0 -78 39q0 5 3 11l16 28q-247 140 -247 433q0 241 166 376.5t396 135.5q96 0 184 -25q19 24 71 24q78 0 78 -39q0 -5 -3 -11l-16 -28q247 -140 247 -433q0 -241 -165.5 -376.5t-395.5 -135.5zM406 164l390 719
q-65 22 -134 22q-179 0 -286 -122t-107 -295q0 -204 137 -324zM662 71q179 0 285.5 122t106.5 295q0 204 -137 324l-390 -719q65 -22 135 -22z" />
    <glyph glyph-name="ugrave" unicode="&#xf9;" horiz-adv-x="1160" 
d="M598 1048q-19 0 -36 13l-356 262q-27 20 -27 54t26 68q35 47 81 47q25 0 45 -19l323 -301q20 -19 20 -43q0 -26 -22 -51q-25 -30 -54 -30zM202 1000q101 0 101 -56v-518q0 -117 64 -227t202 -110q148 0 218 119.5t70 244.5v491q0 56 101 56q102 0 102 -56v-911
q0 -56 -102 -56q-101 0 -101 56v60q-110 -117 -300 -117q-200 0 -328.5 127.5t-128.5 321.5v519q0 56 102 56z" />
    <glyph glyph-name="uacute" unicode="&#xfa;" horiz-adv-x="1160" 
d="M572 1178q-29 0 -54 30q-22 25 -22 51q0 24 20 43l323 301q20 19 45 19q46 0 81 -47q26 -34 26 -68t-27 -54l-356 -262q-17 -13 -36 -13zM202 1000q101 0 101 -56v-518q0 -117 64 -227t202 -110q148 0 218 119.5t70 244.5v491q0 56 101 56q102 0 102 -56v-911
q0 -56 -102 -56q-101 0 -101 56v60q-110 -117 -300 -117q-200 0 -328.5 127.5t-128.5 321.5v519q0 56 102 56z" />
    <glyph glyph-name="ucircumflex" unicode="&#xfb;" horiz-adv-x="1160" 
d="M881 1086q0 -37 -79 -37q-58 0 -73 29l-152 299l-152 -299q-14 -29 -72 -29q-80 0 -80 37q0 7 2 10l227 447q15 29 75 29q61 0 75 -29l226 -447q3 -6 3 -10zM202 1000q101 0 101 -56v-518q0 -117 64 -227t202 -110q148 0 218 119.5t70 244.5v491q0 56 101 56
q102 0 102 -56v-911q0 -56 -102 -56q-101 0 -101 56v60q-110 -117 -300 -117q-200 0 -328.5 127.5t-128.5 321.5v519q0 56 102 56z" />
    <glyph glyph-name="udieresis" unicode="&#xfc;" horiz-adv-x="1160" 
d="M756 1300q119 0 119 -121q0 -119 -119 -119q-121 0 -121 119q0 121 121 121zM457 1300q119 0 119 -121q0 -119 -119 -119q-121 0 -121 119q0 121 121 121zM202 1000q101 0 101 -56v-518q0 -117 64 -227t202 -110q148 0 218 119.5t70 244.5v491q0 56 101 56q102 0 102 -56
v-911q0 -56 -102 -56q-101 0 -101 56v60q-110 -117 -300 -117q-200 0 -328.5 127.5t-128.5 321.5v519q0 56 102 56z" />
    <glyph glyph-name="yacute" unicode="&#xfd;" horiz-adv-x="1160" 
d="M523 1186q-29 0 -54 30q-22 25 -22 51q0 24 20 43l323 301q20 19 45 19q46 0 81 -47q26 -34 26 -68t-27 -54l-356 -262q-17 -13 -36 -13zM1060 33q0 -226 -146.5 -329.5t-354.5 -103.5q-120 0 -250.5 41t-201.5 143q-7 10 -7 20q0 55 101 55q71 0 95 -35
q77 -112 261 -112q300 0 300 332v54q-98 -117 -277 -117q-480 0 -480 450v518q0 56 102 56q101 0 101 -56v-518q0 -121 69 -230t208 -109q134 0 205.5 109t71.5 227v521q0 56 101 56q102 0 102 -56v-916z" />
    <glyph glyph-name="thorn" unicode="&#xfe;" horiz-adv-x="1174" 
d="M612 -22q-194 0 -309 116v-440q0 -56 -101 -56q-102 0 -102 56v1672q0 56 102 56q101 0 101 -56v-440q115 116 309 116q512 0 512 -512t-512 -512zM612 90q158 0 233.5 133t75.5 267t-75.5 267t-233.5 133q-157 0 -233 -133t-76 -267t76 -267t233 -133z" />
    <glyph glyph-name="ydieresis" unicode="&#xff;" horiz-adv-x="1160" 
d="M772 1308q119 0 119 -121q0 -119 -119 -119q-121 0 -121 119q0 121 121 121zM473 1308q119 0 119 -121q0 -119 -119 -119q-121 0 -121 119q0 121 121 121zM1060 33q0 -226 -146.5 -329.5t-354.5 -103.5q-120 0 -250.5 41t-201.5 143q-7 10 -7 20q0 55 101 55q71 0 95 -35
q77 -112 261 -112q300 0 300 332v54q-98 -117 -277 -117q-480 0 -480 450v518q0 56 102 56q101 0 101 -56v-518q0 -121 69 -230t208 -109q134 0 205.5 109t71.5 227v521q0 56 101 56q102 0 102 -56v-916z" />
    <glyph glyph-name="Amacron" unicode="&#x100;" horiz-adv-x="1413" 
d="M1281 -24q-91 0 -110 43l-183 415h-623l-184 -427q-13 -31 -75 -31q-81 0 -81 40q0 3 2 9l568 1315q17 41 114 41q85 0 104 -42l572 -1296q3 -7 3 -13q0 -54 -107 -54zM938 546l-265 601l-259 -601h524zM440 1534q0 71 48 71h425q56 0 56 -71q0 -70 -56 -70h-417
q-56 0 -56 70z" />
    <glyph glyph-name="amacron" unicode="&#x101;" horiz-adv-x="1146" 
d="M296 1171q0 71 48 71h425q56 0 56 -71q0 -70 -56 -70h-417q-56 0 -56 70zM1019 -24q-45 0 -73 17q-70 41 -88 107q-64 -75 -171.5 -99.5t-193.5 -24.5q-137 0 -277.5 65.5t-140.5 225.5q0 182 138 231t286 49q32 0 78.5 -2t87.5 -2q113 0 161 26v95q0 225 -261 225
q-96 0 -171 -48q-87 -56 -87 -134q0 -55 -102 -55q-100 0 -100 55q0 117 134 206q133 87 326 87q155 0 309 -75.5t154 -260.5v-431q0 -126 65 -163q28 -16 28 -38q0 -25 -31 -41q-27 -15 -71 -15zM493 87q113 0 223 67.5t110 191.5v96q-57 -10 -140 -10q-46 0 -93 2.5
t-94 2.5q-221 0 -221 -170q0 -180 215 -180z" />
    <glyph glyph-name="Cacute" unicode="&#x106;" horiz-adv-x="1382" 
d="M659 1433q-29 0 -54 30q-22 25 -22 51q0 24 20 43l323 301q20 19 45 19q46 0 81 -47q26 -34 26 -68t-27 -54l-356 -262q-17 -13 -36 -13zM1333 413q0 -9 -6 -33q-55 -201 -233.5 -302.5t-375.5 -101.5q-316 0 -492.5 194.5t-176.5 503.5q0 314 181.5 510.5t501.5 196.5
q196 0 376.5 -104.5t217.5 -307.5q4 -16 4 -25q0 -56 -98 -56q-97 0 -104 52q-44 329 -396 329q-244 0 -362.5 -187.5t-118.5 -405.5q0 -214 113 -401.5t356 -187.5q353 0 410 331q8 50 102 50q101 0 101 -55z" />
    <glyph glyph-name="cacute" unicode="&#x107;" horiz-adv-x="1123" 
d="M565 1234q-29 0 -54 30q-22 25 -22 51q0 24 20 43l323 301q20 19 45 19q46 0 81 -47q26 -34 26 -68t-27 -54l-356 -262q-17 -13 -36 -13zM584 -24q-535 0 -535 508q0 242 155 379t390 137q148 0 297.5 -76t177.5 -233q2 -12 2 -16q0 -55 -101 -55q-94 0 -101 51
q-31 218 -276 218q-170 0 -256 -126.5t-86 -280.5q1 -150 84 -272.5t253 -122.5q242 0 283 219q8 50 101 50q102 0 102 -55q0 4 -4 -20q-36 -155 -187 -230t-299 -75z" />
    <glyph glyph-name="Ccircumflex" unicode="&#x108;" horiz-adv-x="1382" 
d="M1026 1501q0 -37 -79 -37q-58 0 -73 29l-152 299l-152 -299q-14 -29 -72 -29q-80 0 -80 37q0 7 2 10l227 447q15 29 75 29q61 0 75 -29l226 -447q3 -6 3 -10zM1333 413q0 -9 -6 -33q-55 -201 -233.5 -302.5t-375.5 -101.5q-316 0 -492.5 194.5t-176.5 503.5
q0 314 181.5 510.5t501.5 196.5q196 0 376.5 -104.5t217.5 -307.5q4 -16 4 -25q0 -56 -98 -56q-97 0 -104 52q-44 329 -396 329q-244 0 -362.5 -187.5t-118.5 -405.5q0 -214 113 -401.5t356 -187.5q353 0 410 331q8 50 102 50q101 0 101 -55z" />
    <glyph glyph-name="ccircumflex" unicode="&#x109;" horiz-adv-x="1123" 
d="M584 -24q-535 0 -535 508q0 242 155 379t390 137q148 0 297.5 -76t177.5 -233q2 -12 2 -16q0 -55 -101 -55q-94 0 -101 51q-31 218 -276 218q-170 0 -256 -126.5t-86 -280.5q1 -150 84 -272.5t253 -122.5q242 0 283 219q8 50 101 50q102 0 102 -55q0 4 -4 -20
q-36 -155 -187 -230t-299 -75zM878 1138q0 -37 -79 -37q-58 0 -73 29l-152 299l-152 -299q-14 -29 -72 -29q-80 0 -80 37q0 7 2 10l227 447q15 29 75 29q61 0 75 -29l226 -447q3 -6 3 -10z" />
    <glyph glyph-name="Cdotaccent" unicode="&#x10a;" horiz-adv-x="1382" 
d="M725 1775q119 0 119 -121q0 -119 -119 -119q-121 0 -121 119q0 121 121 121zM1333 413q0 -9 -6 -33q-55 -201 -233.5 -302.5t-375.5 -101.5q-316 0 -492.5 194.5t-176.5 503.5q0 314 181.5 510.5t501.5 196.5q196 0 376.5 -104.5t217.5 -307.5q4 -16 4 -25q0 -56 -98 -56
q-97 0 -104 52q-44 329 -396 329q-244 0 -362.5 -187.5t-118.5 -405.5q0 -214 113 -401.5t356 -187.5q353 0 410 331q8 50 102 50q101 0 101 -55z" />
    <glyph glyph-name="cdotaccent" unicode="&#x10b;" horiz-adv-x="1123" 
d="M601 1290q119 0 119 -121q0 -119 -119 -119q-121 0 -121 119q0 121 121 121zM584 -24q-535 0 -535 508q0 242 155 379t390 137q148 0 297.5 -76t177.5 -233q2 -12 2 -16q0 -55 -101 -55q-94 0 -101 51q-31 218 -276 218q-170 0 -256 -126.5t-86 -280.5q1 -150 84 -272.5
t253 -122.5q242 0 283 219q8 50 101 50q102 0 102 -55q0 4 -4 -20q-36 -155 -187 -230t-299 -75z" />
    <glyph glyph-name="Ccaron" unicode="&#x10c;" horiz-adv-x="1382" 
d="M1036 1948q0 37 -79 37q-58 0 -73 -29l-152 -299l-152 299q-14 29 -72 29q-80 0 -80 -37q0 -7 2 -10l227 -447q15 -29 75 -29q61 0 75 29l226 447q3 6 3 10zM1333 413q0 -9 -6 -33q-55 -201 -233.5 -302.5t-375.5 -101.5q-316 0 -492.5 194.5t-176.5 503.5
q0 314 181.5 510.5t501.5 196.5q196 0 376.5 -104.5t217.5 -307.5q4 -16 4 -25q0 -56 -98 -56q-97 0 -104 52q-44 329 -396 329q-244 0 -362.5 -187.5t-118.5 -405.5q0 -214 113 -401.5t356 -187.5q353 0 410 331q8 50 102 50q101 0 101 -55z" />
    <glyph glyph-name="ccaron" unicode="&#x10d;" horiz-adv-x="1123" 
d="M891 1537q0 37 -79 37q-58 0 -73 -29l-152 -299l-152 299q-14 29 -72 29q-80 0 -80 -37q0 -7 2 -10l227 -447q15 -29 75 -29q61 0 75 29l226 447q3 6 3 10zM584 -24q-535 0 -535 508q0 242 155 379t390 137q148 0 297.5 -76t177.5 -233q2 -12 2 -16q0 -55 -101 -55
q-94 0 -101 51q-31 218 -276 218q-170 0 -256 -126.5t-86 -280.5q1 -150 84 -272.5t253 -122.5q242 0 283 219q8 50 101 50q102 0 102 -55q0 4 -4 -20q-36 -155 -187 -230t-299 -75z" />
    <glyph glyph-name="Dcaron" unicode="&#x10e;" horiz-adv-x="1355" 
d="M925 1949q0 37 -79 37q-58 0 -73 -29l-152 -299l-152 299q-14 29 -72 29q-80 0 -80 -37q0 -7 2 -10l227 -447q15 -29 75 -29q61 0 75 29l226 447q3 6 3 10zM667 0h-466q-101 0 -101 56v1245q0 56 101 56h466q302 0 470 -200t168 -483t-168 -478.5t-470 -195.5zM667 112
q225 0 330.5 186.5t105.5 376.5q0 188 -106 379t-330 191h-364v-1133h364z" />
    <glyph glyph-name="Emacron" unicode="&#x112;" horiz-adv-x="1284" 
d="M354 1587q0 71 48 71h425q56 0 56 -71q0 -70 -56 -70h-417q-56 0 -56 70zM1107 0h-898q-109 0 -109 60v1237q0 60 109 60h898q102 0 102 -56t-102 -56h-804v-510h677q101 0 101 -56t-101 -56h-677v-511h804q102 0 102 -56t-102 -56z" />
    <glyph glyph-name="emacron" unicode="&#x113;" horiz-adv-x="1146" 
d="M328 1170q0 71 48 71h425q56 0 56 -71q0 -70 -56 -70h-417q-56 0 -56 70zM589 -24q-227 0 -383 135.5t-156 370.5q0 239 158.5 378.5t389.5 139.5q220 0 379 -115.5t159 -345.5q0 -64 -101 -64h-783q2 -148 90 -268t248 -120q115 0 213 62q103 66 112 156q5 52 99 52
q103 0 103 -55q0 -28 -17 -68q-37 -88 -141 -156q-156 -102 -370 -102zM931 586q-32 303 -333 303q-268 0 -334 -303h667z" />
    <glyph glyph-name="Edotaccent" unicode="&#x116;" horiz-adv-x="1284" 
d="M655 1715q119 0 119 -121q0 -119 -119 -119q-121 0 -121 119q0 121 121 121zM1107 0h-898q-109 0 -109 60v1237q0 60 109 60h898q102 0 102 -56t-102 -56h-804v-510h677q101 0 101 -56t-101 -56h-677v-511h804q102 0 102 -56t-102 -56z" />
    <glyph glyph-name="edotaccent" unicode="&#x117;" horiz-adv-x="1186" 
d="M609 1340q119 0 119 -121q0 -119 -119 -119q-121 0 -121 119q0 121 121 121zM589 -24q-227 0 -383 135.5t-156 370.5q0 239 158.5 378.5t389.5 139.5q220 0 379 -115.5t159 -345.5q0 -64 -101 -64h-783q2 -148 90 -268t248 -120q115 0 213 62q103 66 112 156q5 52 99 52
q103 0 103 -55q0 -28 -17 -68q-37 -88 -141 -156q-156 -102 -370 -102zM931 586q-32 303 -333 303q-268 0 -334 -303h667z" />
    <glyph glyph-name="Ecaron" unicode="&#x11a;" horiz-adv-x="1284" 
d="M966 1893q0 37 -79 37q-58 0 -73 -29l-152 -299l-152 299q-14 29 -72 29q-80 0 -80 -37q0 -7 2 -10l227 -447q15 -29 75 -29q61 0 75 29l226 447q3 6 3 10zM1107 0h-898q-109 0 -109 60v1237q0 60 109 60h898q102 0 102 -56t-102 -56h-804v-510h677q101 0 101 -56
t-101 -56h-677v-511h804q102 0 102 -56t-102 -56z" />
    <glyph glyph-name="ecaron" unicode="&#x11b;" horiz-adv-x="1186" 
d="M904 1586q0 37 -79 37q-58 0 -73 -29l-152 -299l-152 299q-14 29 -72 29q-80 0 -80 -37q0 -7 2 -10l227 -447q15 -29 75 -29q61 0 75 29l226 447q3 6 3 10zM589 -24q-227 0 -383 135.5t-156 370.5q0 239 158.5 378.5t389.5 139.5q220 0 379 -115.5t159 -345.5
q0 -64 -101 -64h-783q2 -148 90 -268t248 -120q115 0 213 62q103 66 112 156q5 52 99 52q103 0 103 -55q0 -28 -17 -68q-37 -88 -141 -156q-156 -102 -370 -102zM931 586q-32 303 -333 303q-268 0 -334 -303h667z" />
    <glyph glyph-name="Gcircumflex" unicode="&#x11c;" horiz-adv-x="1491" 
d="M1048 1458q0 -37 -79 -37q-58 0 -73 29l-152 299l-152 -299q-14 -29 -72 -29q-80 0 -80 37q0 7 2 10l227 447q15 29 75 29q61 0 75 -29l226 -447q3 -6 3 -10zM763 88q163 0 290 90q161 112 161 237v168h-446q-102 0 -102 56t102 56h547q101 0 101 -56v-224
q0 -81 -70 -171t-134 -135q-192 -133 -449 -133q-319 0 -516 188.5t-197 511.5q0 326 202.5 515.5t523.5 189.5q195 0 390.5 -98t241.5 -301q6 -22 6 -39q0 -55 -101 -55q-94 0 -102 52q-22 155 -153 242t-280 87q-254 0 -390 -178t-136 -415q0 -232 130.5 -410t380.5 -178z
" />
    <glyph glyph-name="gcircumflex" unicode="&#x11d;" horiz-adv-x="1172" 
d="M1071 40q0 -232 -160.5 -338t-369.5 -106q-122 0 -267 41t-216 143q-7 10 -7 20q0 55 102 55q71 0 95 -35q43 -62 129.5 -87t160.5 -25q331 0 331 332v52q-112 -115 -308 -115q-511 0 -511 512t512 512q191 0 309 -117v61q0 56 101 56q100 0 100 -56zM561 89
q158 0 234 133t76 267t-75.5 267t-233.5 133q-157 0 -233 -133t-76 -267t75.5 -267t232.5 -133zM868 1086q0 -37 -79 -37q-58 0 -73 29l-152 299l-152 -299q-14 -29 -72 -29q-80 0 -80 37q0 7 2 10l227 447q15 29 75 29q61 0 75 -29l226 -447q3 -6 3 -10z" />
    <glyph glyph-name="Gdotaccent" unicode="&#x120;" horiz-adv-x="1491" 
d="M779 1704q119 0 119 -121q0 -119 -119 -119q-121 0 -121 119q0 121 121 121zM763 88q163 0 290 90q161 112 161 237v168h-446q-102 0 -102 56t102 56h547q101 0 101 -56v-224q0 -81 -70 -171t-134 -135q-192 -133 -449 -133q-319 0 -516 188.5t-197 511.5
q0 326 202.5 515.5t523.5 189.5q195 0 390.5 -98t241.5 -301q6 -22 6 -39q0 -55 -101 -55q-94 0 -102 52q-22 155 -153 242t-280 87q-254 0 -390 -178t-136 -415q0 -232 130.5 -410t380.5 -178z" />
    <glyph glyph-name="gdotaccent" unicode="&#x121;" horiz-adv-x="1172" 
d="M581 1291q119 0 119 -121q0 -119 -119 -119q-121 0 -121 119q0 121 121 121zM1071 40q0 -232 -160.5 -338t-369.5 -106q-122 0 -267 41t-216 143q-7 10 -7 20q0 55 102 55q71 0 95 -35q43 -62 129.5 -87t160.5 -25q331 0 331 332v52q-112 -115 -308 -115q-511 0 -511 512
t512 512q191 0 309 -117v61q0 56 101 56q100 0 100 -56zM561 89q158 0 234 133t76 267t-75.5 267t-233.5 133q-157 0 -233 -133t-76 -267t75.5 -267t232.5 -133z" />
    <glyph glyph-name="Hcircumflex" unicode="&#x124;" horiz-adv-x="1386" 
d="M994 1450q0 -37 -79 -37q-58 0 -73 29l-152 299l-152 -299q-14 -29 -72 -29q-80 0 -80 37q0 7 2 10l227 447q15 29 75 29q61 0 75 -29l226 -447q3 -6 3 -10zM1184 -24q-101 0 -101 56v591h-780v-591q0 -56 -101 -56q-102 0 -102 56v1293q0 56 102 56q101 0 101 -56v-591
h780v591q0 56 101 56q102 0 102 -56v-1293q0 -56 -102 -56z" />
    <glyph glyph-name="hcircumflex" unicode="&#x125;" horiz-adv-x="1110" 
d="M958 -24q-101 0 -101 56v518q0 117 -64 227t-202 110q-148 0 -218 -119.5t-70 -244.5v-491q0 -56 -101 -56q-102 0 -102 56v1293q0 56 102 56q101 0 101 -56v-442q110 117 300 117q200 0 328.5 -127.5t128.5 -321.5v-519q0 -56 -102 -56zM908 1470q0 -37 -79 -37
q-58 0 -73 29l-152 299l-152 -299q-14 -29 -72 -29q-80 0 -80 37q0 7 2 10l227 447q15 29 75 29q61 0 75 -29l226 -447q3 -6 3 -10z" />
    <glyph glyph-name="Itilde" unicode="&#x128;" horiz-adv-x="303" 
d="M152 -24q-102 0 -102 56v1293q0 56 102 56q101 0 101 -56v-1293q0 -56 -101 -56zM406 1477q-114 0 -189 42t-158 112q-25 22 -71.5 58.5t-82.5 36.5q-46 0 -75 -74.5t-34 -111.5q-7 -50 -103 -50q-100 0 -99 54q2 116 86 199q90 89 230 89q153 0 321 -145
q32 -28 81 -65.5t93 -37.5q46 0 72 83t30 116q5 50 103 50q99 0 99 -53q0 -113 -73 -205q-77 -98 -230 -98z" />
    <glyph glyph-name="itilde" unicode="&#x129;" horiz-adv-x="353" 
d="M177 -24q-102 0 -102 56v912q0 56 102 56q101 0 101 -56v-912q0 -56 -101 -56zM431 1087q-114 0 -189 42t-158 112q-25 22 -71.5 58.5t-82.5 36.5q-46 0 -75 -74.5t-34 -111.5q-7 -50 -103 -50q-100 0 -99 54q2 116 86 199q90 89 230 89q153 0 321 -145q32 -28 81 -65.5
t93 -37.5q46 0 72 83t30 116q5 50 103 50q99 0 99 -53q0 -113 -73 -205q-77 -98 -230 -98z" />
    <glyph glyph-name="Imacron" unicode="&#x12a;" horiz-adv-x="303" 
d="M152 -24q-102 0 -102 56v1293q0 56 102 56q101 0 101 -56v-1293q0 -56 -101 -56zM-113 1590q0 71 48 71h425q56 0 56 -71q0 -70 -56 -70h-417q-56 0 -56 70z" />
    <glyph glyph-name="imacron" unicode="&#x12b;" horiz-adv-x="353" 
d="M177 -24q-102 0 -102 56v912q0 56 102 56q101 0 101 -56v-912q0 -56 -101 -56zM-88 1170q0 71 48 71h425q56 0 56 -71q0 -70 -56 -70h-417q-56 0 -56 70z" />
    <glyph glyph-name="dotlessi" unicode="&#x131;" horiz-adv-x="353" 
d="M177 -24q-102 0 -102 56v912q0 56 102 56q101 0 101 -56v-912q0 -56 -101 -56z" />
    <glyph glyph-name="Nacute" unicode="&#x143;" horiz-adv-x="1398" 
d="M527 1463q-29 0 -54 30q-22 25 -22 51q0 24 20 43l323 301q20 19 45 19q46 0 81 -47q26 -34 26 -68t-27 -54l-356 -262q-17 -13 -36 -13zM1178 -24q-82 0 -111 38l-809 1088v-1084q0 -42 -79 -42t-79 42v1297q0 66 120 66q81 0 110 -38l810 -1088v1083q0 43 79 43t79 -43
v-1298q0 -64 -120 -64z" />
    <glyph glyph-name="nacute" unicode="&#x144;" horiz-adv-x="1160" 
d="M566 1184q-29 0 -54 30q-22 25 -22 51q0 24 20 43l323 301q20 19 45 19q46 0 81 -47q26 -34 26 -68t-27 -54l-356 -262q-17 -13 -36 -13zM958 -24q-101 0 -101 56v518q0 117 -64 227t-202 110q-148 0 -218 -119.5t-70 -244.5v-491q0 -56 -101 -56q-102 0 -102 56v911
q0 56 102 56q101 0 101 -56v-60q110 117 300 117q200 0 328.5 -127.5t128.5 -321.5v-519q0 -56 -102 -56z" />
    <glyph glyph-name="Ncaron" unicode="&#x147;" horiz-adv-x="1398" 
d="M1003 1949q0 37 -79 37q-58 0 -73 -29l-152 -299l-152 299q-14 29 -72 29q-80 0 -80 -37q0 -7 2 -10l227 -447q15 -29 75 -29q61 0 75 29l226 447q3 6 3 10zM1178 -24q-82 0 -111 38l-809 1088v-1084q0 -42 -79 -42t-79 42v1297q0 66 120 66q81 0 110 -38l810 -1088v1083
q0 43 79 43t79 -43v-1298q0 -64 -120 -64z" />
    <glyph glyph-name="ncaron" unicode="&#x148;" horiz-adv-x="1160" 
d="M883 1536q0 37 -79 37q-58 0 -73 -29l-152 -299l-152 299q-14 29 -72 29q-80 0 -80 -37q0 -7 2 -10l227 -447q15 -29 75 -29q61 0 75 29l226 447q3 6 3 10zM958 -24q-101 0 -101 56v518q0 117 -64 227t-202 110q-148 0 -218 -119.5t-70 -244.5v-491q0 -56 -101 -56
q-102 0 -102 56v911q0 56 102 56q101 0 101 -56v-60q110 117 300 117q200 0 328.5 -127.5t128.5 -321.5v-519q0 -56 -102 -56z" />
    <glyph glyph-name="Omacron" unicode="&#x14c;" horiz-adv-x="1486" 
d="M500 1534q0 71 48 71h425q56 0 56 -71q0 -70 -56 -70h-417q-56 0 -56 70zM743 -24q-314 0 -503.5 199.5t-189.5 503.5q0 305 189.5 503.5t503.5 198.5t503.5 -198.5t189.5 -503.5q0 -304 -189.5 -503.5t-503.5 -199.5zM743 88q243 0 366.5 188t123.5 403t-123.5 402.5
t-366.5 187.5t-366.5 -187.5t-123.5 -402.5t123.5 -403t366.5 -188z" />
    <glyph glyph-name="omacron" unicode="&#x14d;" horiz-adv-x="1190" 
d="M320 1120q0 71 48 71h425q56 0 56 -71q0 -70 -56 -70h-417q-56 0 -56 70zM595 -24q-234 0 -389.5 139t-155.5 373t155.5 373t389.5 139t389.5 -139t155.5 -373t-155.5 -373t-389.5 -139zM595 87q167 0 254.5 126.5t87.5 274.5q0 149 -87.5 275t-254.5 126
q-166 0 -254 -126t-88 -275q0 -148 88 -274.5t254 -126.5z" />
    <glyph glyph-name="OE" unicode="&#x152;" horiz-adv-x="2250" 
d="M1067 87q-157 -87 -335 -87q-317 0 -499.5 194.5t-182.5 503.5q0 315 180 511t502 196q181 0 335 -81q6 57 109 57h898q101 0 101 -56t-101 -56h-804v-510h676q102 0 102 -56t-102 -56h-676v-511h804q101 0 101 -56t-101 -56h-898q-109 0 -109 63zM732 111q207 0 335 180
v831q-119 171 -335 171q-244 0 -362 -186.5t-118 -404.5q0 -213 118.5 -402t361.5 -189z" />
    <glyph glyph-name="oe" unicode="&#x153;" horiz-adv-x="2068" 
d="M1471 -24q-284 0 -437 192q-153 -192 -439 -192q-234 0 -389.5 139t-155.5 373t155.5 373t389.5 139q290 0 443 -196q155 196 442 196q220 0 379 -115.5t159 -345.5q0 -64 -101 -64h-783q2 -148 90 -268t248 -120q115 0 213 62q103 66 112 156q5 52 99 52q103 0 103 -55
q0 -28 -17 -68q-39 -89 -141 -156q-156 -102 -370 -102zM595 87q167 0 254.5 126.5t87.5 274.5q0 149 -87.5 275t-254.5 126q-166 0 -254 -126t-88 -275q0 -148 88 -274.5t254 -126.5zM1813 586q-32 303 -333 303q-267 0 -334 -303h667z" />
    <glyph glyph-name="Racute" unicode="&#x154;" horiz-adv-x="1383" 
d="M614 1416q-29 0 -54 30q-22 25 -22 51q0 24 20 43l323 301q20 19 45 19q46 0 81 -47q26 -34 26 -68t-27 -54l-356 -262q-17 -13 -36 -13zM1232 -24q-39 0 -68 15q-114 57 -172 153t-104 197q-34 76 -89.5 174.5t-156.5 98.5h-339v-582q0 -56 -102 -56q-101 0 -101 56
v1269q0 56 101 56h619q163 0 302 -99t139 -272q0 -295 -336 -361q56 -52 92.5 -120.5t67.5 -136.5q35 -79 84 -166t131 -128q33 -17 33 -42q0 -21 -26 -37q-29 -19 -75 -19zM820 726q101 0 169.5 83t68.5 177q0 95 -68.5 177t-169.5 82h-517v-519h517z" />
    <glyph glyph-name="racute" unicode="&#x155;" horiz-adv-x="804" 
d="M321 1182q-29 0 -54 30q-22 25 -22 51q0 24 20 43l323 301q20 19 45 19q46 0 81 -47q26 -34 26 -68t-27 -54l-356 -262q-17 -13 -36 -13zM202 -24q-102 0 -102 56v912q0 56 102 56q101 0 101 -56v-61q83 117 242 117q121 0 209 -57q25 -16 25 -38q0 -28 -32 -49
q-28 -19 -62 -19q-32 0 -55 17q-47 37 -105 37q-116 0 -175 -122q-47 -95 -47 -256v-481q0 -56 -101 -56z" />
    <glyph glyph-name="Rcaron" unicode="&#x158;" horiz-adv-x="1383" 
d="M996 1901q0 37 -79 37q-58 0 -73 -29l-152 -299l-152 299q-14 29 -72 29q-80 0 -80 -37q0 -7 2 -10l227 -447q15 -29 75 -29q61 0 75 29l226 447q3 6 3 10zM1232 -24q-39 0 -68 15q-114 57 -172 153t-104 197q-34 76 -89.5 174.5t-156.5 98.5h-339v-582q0 -56 -102 -56
q-101 0 -101 56v1269q0 56 101 56h619q163 0 302 -99t139 -272q0 -295 -336 -361q56 -52 92.5 -120.5t67.5 -136.5q35 -79 84 -166t131 -128q33 -17 33 -42q0 -21 -26 -37q-29 -19 -75 -19zM820 726q101 0 169.5 83t68.5 177q0 95 -68.5 177t-169.5 82h-517v-519h517z" />
    <glyph glyph-name="rcaron" unicode="&#x159;" horiz-adv-x="804" 
d="M756 1545q0 37 -79 37q-58 0 -73 -29l-152 -299l-152 299q-14 29 -72 29q-80 0 -80 -37q0 -7 2 -10l227 -447q15 -29 75 -29q61 0 75 29l226 447q3 6 3 10zM202 -28q-102 0 -102 56v912q0 56 102 56q101 0 101 -56v-61q83 117 242 117q121 0 209 -57q25 -16 25 -38
q0 -28 -32 -49q-28 -19 -62 -19q-32 0 -55 17q-47 37 -105 37q-116 0 -175 -122q-47 -95 -47 -256v-481q0 -56 -101 -56z" />
    <glyph glyph-name="Sacute" unicode="&#x15a;" horiz-adv-x="1279" 
d="M639 1415q-29 0 -54 30q-22 25 -22 51q0 24 20 43l323 301q20 19 45 19q46 0 81 -47q26 -34 26 -68t-27 -54l-356 -262q-17 -13 -36 -13zM643 -23q-198 -4 -365.5 88t-224.5 294l-3 15q0 55 102 55q88 0 100 -48q78 -293 393 -293q128 0 255 76.5t127 222.5
q0 101 -126 159q-94 44 -239 59q-95 10 -195 30t-186 64q-197 103 -197 304q0 204 197.5 291t366.5 87q173 0 331 -78t207 -254q4 -14 4 -20q0 -55 -100 -55q-89 0 -101 48q-61 247 -341 247q-118 0 -239.5 -63.5t-121.5 -201.5q0 -97 140 -158q104 -44 259 -60
q98 -10 204 -32t189 -75q150 -95 150 -284q0 -223 -200.5 -319t-385.5 -99z" />
    <glyph glyph-name="sacute" unicode="&#x15b;" horiz-adv-x="996" 
d="M502 1184q-29 0 -54 30q-22 25 -22 51q0 24 20 43l323 301q20 19 45 19q46 0 81 -47q26 -34 26 -68t-27 -54l-356 -262q-17 -13 -36 -13zM503 -24q-148 0 -276.5 65.5t-172.5 213.5q-4 12 -4 18q0 55 101 55q89 0 101 -47q52 -194 250 -194q83 0 162.5 50.5t79.5 144.5
q0 59 -87 97q-59 26 -155 39q-80 11 -156.5 25t-145.5 60q-125 83 -125 214q0 154 151.5 218.5t278.5 64.5q130 0 252.5 -58t158.5 -191q3 -9 3 -17q0 -51 -101 -54q-89 0 -101 48q-39 161 -213 161q-75 0 -151 -41.5t-76 -128.5q0 -58 96 -96q65 -25 155 -39
q80 -12 153 -26.5t142 -58.5q123 -78 123 -211q0 -166 -153 -239t-290 -73z" />
    <glyph glyph-name="Scircumflex" unicode="&#x15c;" horiz-adv-x="1279" 
d="M944 1501q0 -37 -79 -37q-58 0 -73 29l-152 299l-152 -299q-14 -29 -72 -29q-80 0 -80 37q0 7 2 10l227 447q15 29 75 29q61 0 75 -29l226 -447q3 -6 3 -10zM643 -23q-198 -4 -365.5 88t-224.5 294l-3 15q0 55 102 55q88 0 100 -48q78 -293 393 -293q128 0 255 76.5
t127 222.5q0 101 -126 159q-94 44 -239 59q-95 10 -195 30t-186 64q-197 103 -197 304q0 204 197.5 291t366.5 87q173 0 331 -78t207 -254q4 -14 4 -20q0 -55 -100 -55q-89 0 -101 48q-61 247 -341 247q-118 0 -239.5 -63.5t-121.5 -201.5q0 -97 140 -158q104 -44 259 -60
q98 -10 204 -32t189 -75q150 -95 150 -284q0 -223 -200.5 -319t-385.5 -99z" />
    <glyph glyph-name="scircumflex" unicode="&#x15d;" horiz-adv-x="996" 
d="M503 -24q-148 0 -276.5 65.5t-172.5 213.5q-4 12 -4 18q0 55 101 55q89 0 101 -47q52 -194 250 -194q83 0 162.5 50.5t79.5 144.5q0 59 -87 97q-59 26 -155 39q-80 11 -156.5 25t-145.5 60q-125 83 -125 214q0 154 151.5 218.5t278.5 64.5q130 0 252.5 -58t158.5 -191
q3 -9 3 -17q0 -51 -101 -54q-89 0 -101 48q-39 161 -213 161q-75 0 -151 -41.5t-76 -128.5q0 -58 96 -96q65 -25 155 -39q80 -12 153 -26.5t142 -58.5q123 -78 123 -211q0 -166 -153 -239t-290 -73zM808 1087q0 -37 -79 -37q-58 0 -73 29l-152 299l-152 -299
q-14 -29 -72 -29q-80 0 -80 37q0 7 2 10l227 447q15 29 75 29q61 0 75 -29l226 -447q3 -6 3 -10z" />
    <glyph glyph-name="Scedilla" unicode="&#x15e;" horiz-adv-x="1279" 
d="M575 -446q-136 0 -188 47q-8 7 -8 15q0 22 37 31q12 3 29 3q27 0 53 -13q37 -16 77 -16q130 0 130 85q0 76 -111 76q-26 0 -47 9q-20 9 -20 24q0 4 4 16l54 149q10 28 72 28t62 -33q0 -3 -4 -15l-43 -119q168 -30 168 -135q0 -88 -98 -120t-167 -32zM643 -25
q-198 -4 -365.5 88t-224.5 294l-3 15q0 55 102 55q88 0 100 -48q78 -293 393 -293q128 0 255 76.5t127 222.5q0 101 -126 159q-94 44 -239 59q-95 10 -195 30t-186 64q-197 103 -197 304q0 204 197.5 291t366.5 87q173 0 331 -78t207 -254q4 -14 4 -20q0 -55 -100 -55
q-89 0 -101 48q-61 247 -341 247q-118 0 -239.5 -63.5t-121.5 -201.5q0 -97 140 -158q104 -44 259 -60q98 -10 204 -32t189 -75q150 -95 150 -284q0 -223 -200.5 -319t-385.5 -99z" />
    <glyph glyph-name="scedilla" unicode="&#x15f;" horiz-adv-x="996" 
d="M419 -441q-136 0 -188 47q-8 7 -8 15q0 22 37 31q12 3 29 3q27 0 53 -13q37 -16 77 -16q130 0 130 85q0 76 -111 76q-26 0 -47 9q-20 9 -20 24q0 4 4 16l54 149q10 28 72 28t62 -33q0 -3 -4 -15l-43 -119q168 -30 168 -135q0 -88 -98 -120t-167 -32zM503 -24
q-148 0 -276.5 65.5t-172.5 213.5q-4 12 -4 18q0 55 101 55q89 0 101 -47q52 -194 250 -194q83 0 162.5 50.5t79.5 144.5q0 59 -87 97q-59 26 -155 39q-80 11 -156.5 25t-145.5 60q-125 83 -125 214q0 154 151.5 218.5t278.5 64.5q130 0 252.5 -58t158.5 -191q3 -9 3 -17
q0 -51 -101 -54q-89 0 -101 48q-39 161 -213 161q-75 0 -151 -41.5t-76 -128.5q0 -58 96 -96q65 -25 155 -39q80 -12 153 -26.5t142 -58.5q123 -78 123 -211q0 -166 -153 -239t-290 -73z" />
    <glyph glyph-name="Scaron" unicode="&#x160;" horiz-adv-x="1279" 
d="M965 1950q0 37 -79 37q-58 0 -73 -29l-152 -299l-152 299q-14 29 -72 29q-80 0 -80 -37q0 -7 2 -10l227 -447q15 -29 75 -29q61 0 75 29l226 447q3 6 3 10zM643 -23q-198 -4 -365.5 88t-224.5 294l-3 15q0 55 102 55q88 0 100 -48q78 -293 393 -293q128 0 255 76.5
t127 222.5q0 101 -126 159q-94 44 -239 59q-95 10 -195 30t-186 64q-197 103 -197 304q0 204 197.5 291t366.5 87q173 0 331 -78t207 -254q4 -14 4 -20q0 -55 -100 -55q-89 0 -101 48q-61 247 -341 247q-118 0 -239.5 -63.5t-121.5 -201.5q0 -97 140 -158q104 -44 259 -60
q98 -10 204 -32t189 -75q150 -95 150 -284q0 -223 -200.5 -319t-385.5 -99z" />
    <glyph glyph-name="scaron" unicode="&#x161;" horiz-adv-x="996" 
d="M811 1536q0 37 -79 37q-58 0 -73 -29l-152 -299l-152 299q-14 29 -72 29q-80 0 -80 -37q0 -7 2 -10l227 -447q15 -29 75 -29q61 0 75 29l226 447q3 6 3 10zM503 -24q-148 0 -276.5 65.5t-172.5 213.5q-4 12 -4 18q0 55 101 55q89 0 101 -47q52 -194 250 -194
q83 0 162.5 50.5t79.5 144.5q0 59 -87 97q-59 26 -155 39q-80 11 -156.5 25t-145.5 60q-125 83 -125 214q0 154 151.5 218.5t278.5 64.5q130 0 252.5 -58t158.5 -191q3 -9 3 -17q0 -51 -101 -54q-89 0 -101 48q-39 161 -213 161q-75 0 -151 -41.5t-76 -128.5q0 -58 96 -96
q65 -25 155 -39q80 -12 153 -26.5t142 -58.5q123 -78 123 -211q0 -166 -153 -239t-290 -73z" />
    <glyph glyph-name="Utilde" unicode="&#x168;" horiz-adv-x="1349" 
d="M673 -24q-197 0 -385 119.5t-188 336.5v893q0 56 101 56q102 0 102 -56v-893q0 -147 115.5 -245.5t256.5 -98.5q142 0 256.5 100t114.5 244v893q0 56 102 56q101 0 101 -56v-893q0 -218 -189.5 -337t-386.5 -119zM912 1463q-114 0 -189 42t-158 112q-25 22 -71.5 58.5
t-82.5 36.5q-46 0 -75 -74.5t-34 -111.5q-7 -50 -103 -50q-100 0 -99 54q2 116 86 199q90 89 230 89q153 0 321 -145q32 -28 81 -65.5t93 -37.5q46 0 72 83t30 116q5 50 103 50q99 0 99 -53q0 -113 -73 -205q-77 -98 -230 -98z" />
    <glyph glyph-name="utilde" unicode="&#x169;" horiz-adv-x="1160" 
d="M202 1000q101 0 101 -56v-518q0 -117 64 -227t202 -110q148 0 218 119.5t70 244.5v491q0 56 101 56q102 0 102 -56v-911q0 -56 -102 -56q-101 0 -101 56v60q-110 -117 -300 -117q-200 0 -328.5 127.5t-128.5 321.5v519q0 56 102 56zM835 1060q-114 0 -189 42t-158 112
q-25 22 -71.5 58.5t-82.5 36.5q-46 0 -75 -74.5t-34 -111.5q-7 -50 -103 -50q-100 0 -99 54q2 116 86 199q90 89 230 89q153 0 321 -145q32 -28 81 -65.5t93 -37.5q46 0 72 83t30 116q5 50 103 50q99 0 99 -53q0 -113 -73 -205q-77 -98 -230 -98z" />
    <glyph glyph-name="Umacron" unicode="&#x16a;" horiz-adv-x="1349" 
d="M673 -24q-197 0 -385 119.5t-188 336.5v893q0 56 101 56q102 0 102 -56v-893q0 -147 115.5 -245.5t256.5 -98.5q142 0 256.5 100t114.5 244v893q0 56 102 56q101 0 101 -56v-893q0 -218 -189.5 -337t-386.5 -119zM380 1534q0 71 48 71h425q56 0 56 -71q0 -70 -56 -70
h-417q-56 0 -56 70z" />
    <glyph glyph-name="umacron" unicode="&#x16b;" horiz-adv-x="1160" 
d="M289 1160q0 71 48 71h425q56 0 56 -71q0 -70 -56 -70h-417q-56 0 -56 70zM202 1000q101 0 101 -56v-518q0 -117 64 -227t202 -110q148 0 218 119.5t70 244.5v491q0 56 101 56q102 0 102 -56v-911q0 -56 -102 -56q-101 0 -101 56v60q-110 -117 -300 -117
q-200 0 -328.5 127.5t-128.5 321.5v519q0 56 102 56z" />
    <glyph glyph-name="Uring" unicode="&#x16e;" horiz-adv-x="1349" 
d="M673 -24q-197 0 -385 119.5t-188 336.5v893q0 56 101 56q102 0 102 -56v-893q0 -147 115.5 -245.5t256.5 -98.5q142 0 256.5 100t114.5 244v893q0 56 102 56q101 0 101 -56v-893q0 -218 -189.5 -337t-386.5 -119zM676 1464q-316 0 -316 268q0 267 316 267q317 0 317 -267
q0 -268 -317 -268zM676 1557q144 0 144 175q0 174 -144 174q-143 0 -143 -174q0 -175 143 -175z" />
    <glyph glyph-name="uring" unicode="&#x16f;" horiz-adv-x="1160" 
d="M202 1000q101 0 101 -56v-518q0 -117 64 -227t202 -110q148 0 218 119.5t70 244.5v491q0 56 101 56q102 0 102 -56v-911q0 -56 -102 -56q-101 0 -101 56v60q-110 -117 -300 -117q-200 0 -328.5 127.5t-128.5 321.5v519q0 56 102 56zM576 1080q-316 0 -316 268
q0 267 316 267q317 0 317 -267q0 -268 -317 -268zM576 1173q144 0 144 175q0 174 -144 174q-143 0 -143 -174q0 -175 143 -175z" />
    <glyph glyph-name="Wcircumflex" unicode="&#x174;" horiz-adv-x="1916" 
d="M1288 1503q0 -37 -79 -37q-58 0 -73 29l-152 299l-152 -299q-14 -29 -72 -29q-80 0 -80 37q0 7 2 10l227 447q15 29 75 29q61 0 75 -29l226 -447q3 -6 3 -10zM1438 22q-15 -46 -109 -46q-93 0 -105 46l-266 1007l-261 -1006q-13 -47 -108 -47q-89 -3 -105 43l-458 1297
l-2 10q-10 55 107 55q88 0 105 -47l370 -1051l273 1053q11 45 108 45q92 0 105 -48l276 -1050l368 1065q11 33 75 33q81 0 81 -39q0 -5 -1 -8z" />
    <glyph glyph-name="wcircumflex" unicode="&#x175;" horiz-adv-x="1641" 
d="M1136 1086q0 -37 -79 -37q-58 0 -73 29l-152 299l-152 -299q-14 -29 -72 -29q-80 0 -80 37q0 7 2 10l227 447q15 29 75 29q61 0 75 -29l226 -447q3 -6 3 -10zM1129 -24q-90 0 -104 45l-203 671l-212 -669q-15 -47 -107 -47q-86 0 -104 43l-370 912q-4 9 -4 17
q0 52 106 52q86 0 104 -43l287 -708l222 705q14 45 108 45q90 0 104 -45l214 -703l290 717q13 32 75 32q81 0 81 -39q0 -5 -4 -13l-374 -927q-18 -45 -109 -45z" />
    <glyph glyph-name="Ycircumflex" unicode="&#x176;" horiz-adv-x="1296" 
d="M648 -24q-101 0 -101 55v612l-514 664q-8 9 -8 21q0 53 116 53q71 0 98 -34l436 -565l434 573q20 26 78 26q84 0 84 -41q0 -9 -6 -16l-515 -681v-612q0 -55 -102 -55zM976 1501q0 -37 -79 -37q-58 0 -73 29l-152 299l-152 -299q-14 -29 -72 -29q-80 0 -80 37q0 7 2 10
l227 447q15 29 75 29q61 0 75 -29l226 -447q3 -6 3 -10z" />
    <glyph glyph-name="ycircumflex" unicode="&#x177;" horiz-adv-x="1160" 
d="M865 1137q0 -37 -79 -37q-58 0 -73 29l-152 299l-152 -299q-14 -29 -72 -29q-80 0 -80 37q0 7 2 10l227 447q15 29 75 29q61 0 75 -29l226 -447q3 -6 3 -10zM1060 33q0 -226 -146.5 -329.5t-354.5 -103.5q-120 0 -250.5 41t-201.5 143q-7 10 -7 20q0 55 101 55
q71 0 95 -35q77 -112 261 -112q300 0 300 332v54q-98 -117 -277 -117q-480 0 -480 450v518q0 56 102 56q101 0 101 -56v-518q0 -121 69 -230t208 -109q134 0 205.5 109t71.5 227v521q0 56 101 56q102 0 102 -56v-916z" />
    <glyph glyph-name="zacute" unicode="&#x17a;" horiz-adv-x="1048" 
d="M451 1202q-29 0 -54 30q-22 25 -22 51q0 24 20 43l323 301q20 19 45 19q46 0 81 -47q26 -34 26 -68t-27 -54l-356 -262q-17 -13 -36 -13zM922 0h-780q-48 0 -84 18q-33 17 -33 40q0 12 9 22l709 785h-593q-102 0 -102 55q0 56 102 56h760q41 0 79 -18q33 -16 33 -40
q0 -12 -9 -22l-709 -785h618q101 0 101 -55q0 -56 -101 -56z" />
    <glyph glyph-name="Zdotaccent" unicode="&#x17b;" horiz-adv-x="1318" 
d="M670 1703q119 0 119 -121q0 -119 -119 -119q-121 0 -121 119q0 121 121 121zM1183 0h-1048q-44 0 -81 19q-29 15 -29 36q0 12 9 22l982 1170h-857q-110 0 -110 55t110 55h1022q43 0 80 -17q30 -14 30 -38q0 -11 -9 -22l-982 -1169h883q110 0 110 -56q0 -55 -110 -55z" />
    <glyph glyph-name="zdotaccent" unicode="&#x17c;" horiz-adv-x="1048" 
d="M515 1339q119 0 119 -121q0 -119 -119 -119q-121 0 -121 119q0 121 121 121zM922 0h-780q-48 0 -84 18q-33 17 -33 40q0 12 9 22l709 785h-593q-102 0 -102 55q0 56 102 56h760q41 0 79 -18q33 -16 33 -40q0 -12 -9 -22l-709 -785h618q101 0 101 -55q0 -56 -101 -56z" />
    <glyph glyph-name="Zcaron" unicode="&#x17d;" horiz-adv-x="1318" 
d="M963 1939q0 37 -79 37q-58 0 -73 -29l-152 -299l-152 299q-14 29 -72 29q-80 0 -80 -37q0 -7 2 -10l227 -447q15 -29 75 -29q61 0 75 29l226 447q3 6 3 10zM1183 0h-1048q-44 0 -81 19q-29 15 -29 36q0 12 9 22l982 1170h-857q-110 0 -110 55t110 55h1022q43 0 80 -17
q30 -14 30 -38q0 -11 -9 -22l-982 -1169h883q110 0 110 -56q0 -55 -110 -55z" />
    <glyph glyph-name="zcaron" unicode="&#x17e;" horiz-adv-x="1048" 
d="M813 1557q0 37 -79 37q-58 0 -73 -29l-152 -299l-152 299q-14 29 -72 29q-80 0 -80 -37q0 -7 2 -10l227 -447q15 -29 75 -29q61 0 75 29l226 447q3 6 3 10zM922 0h-780q-48 0 -84 18q-33 17 -33 40q0 12 9 22l709 785h-593q-102 0 -102 55q0 56 102 56h760q41 0 79 -18
q33 -16 33 -40q0 -12 -9 -22l-709 -785h618q101 0 101 -55q0 -56 -101 -56z" />
    <glyph glyph-name="uni01D2" unicode="&#x1d2;" horiz-adv-x="1190" 
d="M931 1557q0 37 -79 37q-58 0 -73 -29l-152 -299l-152 299q-14 29 -72 29q-80 0 -80 -37q0 -7 2 -10l227 -447q15 -29 75 -29q61 0 75 29l226 447q3 6 3 10zM595 -24q-234 0 -389.5 139t-155.5 373t155.5 373t389.5 139t389.5 -139t155.5 -373t-155.5 -373t-389.5 -139z
M595 87q167 0 254.5 126.5t87.5 274.5q0 149 -87.5 275t-254.5 126q-166 0 -254 -126t-88 -275q0 -148 88 -274.5t254 -126.5z" />
    <glyph glyph-name="uni01D3" unicode="&#x1d3;" horiz-adv-x="1349" 
d="M1031 1893q0 37 -79 37q-58 0 -73 -29l-152 -299l-152 299q-14 29 -72 29q-80 0 -80 -37q0 -7 2 -10l227 -447q15 -29 75 -29q61 0 75 29l226 447q3 6 3 10zM673 -24q-197 0 -385 119.5t-188 336.5v893q0 56 101 56q102 0 102 -56v-893q0 -147 115.5 -245.5t256.5 -98.5
q142 0 256.5 100t114.5 244v893q0 56 102 56q101 0 101 -56v-893q0 -218 -189.5 -337t-386.5 -119z" />
    <glyph glyph-name="uni01D4" unicode="&#x1d4;" horiz-adv-x="1160" 
d="M881 1464q0 37 -79 37q-58 0 -73 -29l-152 -299l-152 299q-14 29 -72 29q-80 0 -80 -37q0 -7 2 -10l227 -447q15 -29 75 -29q61 0 75 29l226 447q3 6 3 10zM202 1000q101 0 101 -56v-518q0 -117 64 -227t202 -110q148 0 218 119.5t70 244.5v491q0 56 101 56
q102 0 102 -56v-911q0 -56 -102 -56q-101 0 -101 56v60q-110 -117 -300 -117q-200 0 -328.5 127.5t-128.5 321.5v519q0 56 102 56z" />
    <glyph glyph-name="AEacute" unicode="&#x1fc;" horiz-adv-x="2053" 
d="M801 1410q-29 0 -54 30q-22 25 -22 51q0 24 20 43l323 301q20 19 45 19q46 0 81 -47q26 -34 26 -68t-27 -54l-356 -262q-17 -13 -36 -13zM181 7q-13 -31 -75 -31q-81 0 -81 39q0 6 2 10l568 1291q17 41 108 41h1173q102 0 102 -56t-102 -56h-803v-511h685q102 0 102 -55
q0 -56 -102 -56h-685v-511h804q101 0 101 -56t-101 -56h-906q-101 0 -101 56v377h-505zM870 545v700h-148l-308 -700h456z" />
    <glyph glyph-name="aeacute" unicode="&#x1fd;" horiz-adv-x="1922" 
d="M1345 -24q-265 0 -411 180q-44 -44 -118 -94q-133 -86 -323 -86q-137 0 -277.5 65.5t-140.5 225.5q0 182 138.5 231t286.5 49q32 0 78 -2t87 -2q113 0 161 26v95q0 225 -261 225q-96 0 -171 -48q-86 -55 -87 -134q0 -55 -101 -55t-101 55q0 117 134 206q133 87 326 87
q277 0 401 -152q149 152 388 152q212 0 365 -115.5t153 -345.5q0 -64 -97 -64h-755q2 -148 87 -268t239 -120q112 0 205 62q98 66 108 156q5 52 95 52q100 0 100 -55q0 -28 -17 -68q-36 -88 -136 -156q-150 -102 -356 -102zM1674 586q-30 303 -320 303q-259 0 -322 -303h642
zM493 87q113 0 223 67.5t110 191.5v96q-57 -10 -140 -10q-46 0 -92.5 2.5t-93.5 2.5q-222 0 -222 -170q0 -180 215 -180zM956 1182q-29 0 -54 30q-22 25 -22 51q0 24 20 43l323 301q20 19 45 19q46 0 81 -47q26 -34 26 -68t-27 -54l-356 -262q-17 -13 -36 -13z" />
    <glyph glyph-name="anuswaraabove" unicode="&#xd00;" horiz-adv-x="0" 
d="M216 1086q-145 0 -253.5 82t-108.5 231t108 230.5t253 81.5q146 0 254 -82t108 -231q0 -148 -108 -230t-253 -82zM216 1195q161 0 161 203q0 204 -161 204q-162 0 -162 -204q0 -203 162 -203z" />
    <glyph glyph-name="mlchandrabindu" unicode="&#xd01;" horiz-adv-x="131" 
d="M-95.2002 1405.44q58.5322 0 58.5322 -63.7783q0 -63.1582 -58.5322 -63.1582q-59.1074 0 -59.1074 63.1582q0 63.7783 59.1074 63.7783zM-99 1085q-153 0 -245 86q-76 71 -76 167q0 48 100 48t100 -48q0 -158 121 -158t121 158q0 48 100 48t100 -48q0 -96 -76 -167
q-92 -86 -245 -86z" />
    <glyph glyph-name="anuswara" unicode="&#xd02;" horiz-adv-x="883" 
d="M442 -24q-145 0 -253.5 82t-108.5 231t108 230.5t253 81.5q146 0 254 -82t108 -231q0 -148 -108 -230t-253 -82zM442 85q161 0 161 203q0 204 -161 204q-162 0 -162 -204q0 -203 162 -203z" />
    <glyph glyph-name="visarga" unicode="&#xd03;" horiz-adv-x="621" 
d="M541 691q0 -209 -240 -209q-241 0 -241 209q0 202 241 202q240 0 240 -202zM301 586q65 0 65 105q0 98 -65 98q-66 0 -66 -98q0 -105 66 -105zM541 185q0 -209 -240 -209q-241 0 -241 209q0 202 241 202q240 0 240 -202zM301 80q65 0 65 105q0 98 -65 98q-66 0 -66 -98
q0 -105 66 -105z" />
    <glyph glyph-name="ml_a" unicode="&#xd05;" horiz-adv-x="2496" 
d="M2025 -24q-212 0 -316 153q-67 98 -67 229q0 155 92 276q110 142 311 176q-106 80 -236 80q-271 0 -271 -284v-574q0 -56 -101 -56t-101 56v574q0 279 -248 285q104 -78 104 -202q0 -132 -113 -207q139 -67 139 -215q0 -129 -89 -208q-96 -83 -249 -83q-236 0 -347 190
q-75 129 -75 293q0 286 201 428q-109 -3 -192 -60q-185 -125 -185 -372q0 -101 41 -214.5t132 -172.5q24 -16 24 -36q0 -28 -36 -43q-27 -13 -66 -13q-47 0 -77 20q-220 142 -220 452q0 230 144 380q165 172 441 172q81 0 203 -24q93 24 222 24q228 0 355 -112
q136 112 355 112q328 0 498 -213q118 -146 118 -357q0 -167 -74 -287q-101 -167 -317 -167zM882 87q53 0 91 46q43 53 43 134q0 148 -132 148h-49q-98 0 -98 55q0 46 87 55q14 2 27 2t26 2q112 18 112 160q0 116 -112 164q-217 -102 -217 -386q0 -128 46 -229
q69 -151 176 -151zM2023 87q71 0 127 92q64 104 64 247q0 163 -76 281q-132 -6 -218 -116q-75 -99 -75 -233q0 -113 53 -190q54 -81 125 -81z" />
    <glyph glyph-name="ml_aa" unicode="&#xd06;" horiz-adv-x="2822" 
d="M2025 -24q-212 0 -316 153q-67 98 -67 229q0 155 92 276q110 142 311 176q-106 80 -236 80q-271 0 -271 -284v-574q0 -56 -101 -56t-101 56v574q0 279 -248 285q104 -78 104 -202q0 -132 -113 -207q139 -67 139 -215q0 -129 -89 -208q-96 -83 -249 -83q-236 0 -347 190
q-75 129 -75 293q0 286 201 428q-109 -3 -192 -60q-185 -125 -185 -372q0 -101 41 -214.5t132 -172.5q24 -16 24 -36q0 -28 -36 -43q-27 -13 -66 -13q-47 0 -77 20q-220 142 -220 452q0 230 144 380q165 172 441 172q81 0 203 -24q93 24 222 24q228 0 355 -112
q136 112 355 112q314 0 484 -196q229 -48 343.5 -217.5t114.5 -385.5q0 -272 -162.5 -442.5t-438.5 -170.5q-227 0 -375 117q-19 15 -19 31q0 28 44 46q28 10 59 10q52 0 82 -23q87 -69 209 -69q202 0 300.5 159t98.5 337q0 256 -145 402q21 -81 21 -168q0 -167 -74 -287
q-101 -167 -317 -167zM882 87q53 0 91 46q43 53 43 134q0 148 -132 148h-49q-98 0 -98 55q0 46 87 55q14 2 27 2t26 2q112 18 112 160q0 116 -112 164q-217 -102 -217 -386q0 -128 46 -229q69 -151 176 -151zM2023 87q71 0 127 92q64 104 64 247q0 163 -76 281
q-132 -6 -218 -116q-75 -99 -75 -233q0 -113 53 -190q54 -81 125 -81z" />
    <glyph glyph-name="ml_i" unicode="&#xd07;" horiz-adv-x="1848" 
d="M1619 -412h-1221q-111 0 -214 51t-103 183q0 125 103.5 180.5t213.5 55.5h719q264 0 375 156q74 104 74 278q2 200 -94 312q-72 85 -180 85q-91 0 -149 -67q-71 -82 -71 -223v-365q0 -56 -102 -56q-101 0 -101 56v365q0 130 -62 205q-72 86 -223 86q-118 0 -193 -54
q-73 -52 -95 -127q60 34 143 34q138 0 226 -71q96 -78 96 -212q-2 -123 -99 -202q-97 -80 -237 -80q-214 0 -300 167q-45 87 -45 202q0 219 140 337q136 116 364 116q99 0 204 -26t178 -98q113 124 326 124q236 0 363 -149q113 -132 113 -359q0 -196 -87 -318
q-93 -130 -252.5 -178.5t-311.5 -48.5h-719q-113 0 -113 -101q0 -100 113 -100h1221q101 0 101 -79t-101 -79zM427 294q130 0 130 169q0 165 -130 165q-129 0 -129 -167t129 -167z" />
    <glyph glyph-name="ml_ii" unicode="&#xd08;" horiz-adv-x="3135" 
d="M2376 -24q-172 0 -319 75q-42 20 -42 47q0 20 29 37q31 17 73 17q39 0 71 -16q91 -49 188 -49q183 0 307 101q170 140 170 401q0 87 -38 193.5t-151 106.5q-122 0 -122 -168v-211q0 -55 -101 -55q-102 0 -102 55v206q0 173 -133 173q-156 0 -154 -210q0 -87 41 -149
q7 -10 7 -20q0 -38 -67 -51q-17 -4 -39 -4q-70 0 -100 52q-42 71 -42 172q0 321 354 321q155 0 234 -82q72 82 224 82q391 0 391 -411q0 -295 -204 -463q-89 -73 -211 -111q-120 -39 -264 -39zM1619 -412h-1221q-111 0 -214 51t-103 183q0 125 103.5 180.5t213.5 55.5h719
q264 0 375 156q74 104 74 278q2 200 -94 312q-72 85 -180 85q-91 0 -149 -67q-71 -82 -71 -223v-365q0 -56 -102 -56q-101 0 -101 56v365q0 130 -62 205q-72 86 -223 86q-118 0 -193 -54q-73 -52 -95 -127q60 34 143 34q138 0 226 -71q96 -78 96 -212q-2 -123 -99 -202
q-97 -80 -237 -80q-214 0 -300 167q-45 87 -45 202q0 219 140 337q136 116 364 116q99 0 204 -26t178 -98q113 124 326 124q236 0 363 -149q113 -132 113 -359q0 -196 -87 -318q-93 -130 -252.5 -178.5t-311.5 -48.5h-719q-113 0 -113 -101q0 -100 113 -100h1221
q101 0 101 -79t-101 -79zM427 294q130 0 130 169q0 165 -130 165q-129 0 -129 -167t129 -167z" />
    <glyph glyph-name="ml_u" unicode="&#xd09;" horiz-adv-x="1318" 
d="M1088 -412h-691q-115 0 -216 52.5t-101 183.5q0 125 103.5 180t213.5 55h269q136 0 230 77q139 113 139 344q0 165 -83 270q-109 139 -316 139q-146 0 -240 -69q-60 -45 -92 -112q61 33 149 35q131 2 220 -72q96 -78 96 -205q0 -116 -80 -194q-96 -95 -260 -95
q-148 0 -245 91q-104 99 -104 270q0 218 170 344q160 120 386 118q128 0 263 -41.5t220 -142.5q119 -140 119 -337q0 -296 -216 -436q-148 -96 -356 -96h-269q-113 0 -113 -101q0 -100 113 -100h691q102 0 102 -79t-102 -79zM436 293q130 0 130 169q0 164 -130 164
q-129 0 -129 -166q0 -167 129 -167z" />
    <glyph glyph-name="ml_uu" unicode="&#xd0a;" horiz-adv-x="2585" 
d="M1826 -24q-172 0 -319 75q-42 20 -42 47q0 20 29 37q31 17 73 17q39 0 71 -16q91 -49 188 -49q183 0 307 101q170 140 170 401q0 87 -38 193.5t-151 106.5q-122 0 -122 -168v-211q0 -55 -101 -55q-102 0 -102 55v206q0 173 -133 173q-156 0 -154 -210q0 -87 41 -149
q7 -10 7 -20q0 -38 -67 -51q-17 -4 -39 -4q-70 0 -100 52q-42 71 -42 172q0 321 354 321q155 0 234 -82q72 82 224 82q391 0 391 -411q0 -295 -204 -463q-89 -73 -211 -111q-120 -39 -264 -39zM1088 -412h-691q-115 0 -216 52.5t-101 183.5q0 125 103.5 180t213.5 55h269
q136 0 230 77q139 113 139 344q0 165 -83 270q-109 139 -316 139q-146 0 -240 -69q-60 -45 -92 -112q61 33 149 35q131 2 220 -72q96 -78 96 -205q0 -116 -80 -194q-96 -95 -260 -95q-148 0 -245 91q-104 99 -104 270q0 218 170 344q160 120 386 118q128 0 263 -41.5
t220 -142.5q119 -140 119 -337q0 -296 -216 -436q-148 -96 -356 -96h-269q-113 0 -113 -101q0 -100 113 -100h691q102 0 102 -79t-102 -79zM436 293q130 0 130 169q0 164 -130 164q-129 0 -129 -166q0 -167 129 -167z" />
    <glyph glyph-name="ml_r" unicode="&#xd0b;" horiz-adv-x="1557" 
d="M774 -412q-163 0 -394.5 77.5t-231.5 287.5q0 108 85.5 176t179.5 100q-70 23 -124 56q-209 128 -209 366q0 349 328 349q156 0 252 -95q81 -79 81 -187q0 -134 -96 -212q-87 -71 -228 -71q-53 0 -104 18q62 -88 186 -128q107 -34 275 -34q178 0 285 34q122 38 185 128
q-51 -18 -104 -18q-141 0 -228 71q-96 78 -96 211q0 110 81 188q96 95 250 95q142 0 226 -78q104 -94 104 -271q0 -238 -209 -366q-54 -33 -124 -56q95 -32 180 -100t85 -176q0 -208 -237.5 -286.5t-397.5 -78.5zM409 551q130 0 130 166q0 167 -130 167t-130 -168
q0 -165 130 -165zM1148 551q130 0 130 166q0 167 -130 167t-130 -165q0 -168 130 -168zM774 -300q115 0 273.5 54t158.5 196q0 141 -163.5 186t-268.5 45q-106 0 -264.5 -45t-158.5 -185q0 -141 154.5 -196t268.5 -55z" />
    <glyph glyph-name="ml_l" unicode="&#xd0c;" horiz-adv-x="2082" 
d="M1928 143q-103 -169 -319 -167q-210 0 -314 153q-67 100 -67 229q0 157 92 276q109 141 311 176q-106 80 -236 80q-271 0 -271 -287v-571q0 -56 -101 -56t-101 56v571q0 285 -300 285q-195 0 -292 -198q-35 -68 -46 -151q83 76 207 76q160 0 257 -102q81 -84 81 -214
q0 -151 -109 -241q-99 -81 -245 -81q-136 0 -232 78q-163 133 -163 402q0 153 61 272q140 273 481 271q99 0 213.5 -30t186.5 -102q137 132 373 132q319 0 489 -213q120 -150 118 -368q0 -157 -74 -276zM1609 87q72 0 128 92q63 102 63 240q2 169 -76 288q-132 -6 -218 -116
q-75 -99 -75 -233q0 -111 53 -190q56 -81 125 -81zM480 88q154 0 154 202q0 68 -36 138t-118 70q-80 0 -117 -70t-37 -138q0 -202 154 -202z" />
    <glyph glyph-name="ml_e" unicode="&#xd0e;" horiz-adv-x="2156" 
d="M1800 -400q-28 0 -52 8q-50 18 -50 49q0 14 14 27q93 88 127 258.5t34 298.5q0 169 -70 408t-292 239q-226 0 -297 -241.5t-71 -414.5q0 -58 6 -120h261v606q0 56 102 56q101 0 101 -56v-735q0 -154 -23 -230q-47 -153 -230 -153q-185 0 -275.5 118t-122.5 282h-356
q-100 0 -101 56q0 23 28 40q86 49 86 169q0 193 -167 193q-169 0 -169 -194q0 -133 99 -176q38 -17 38 -44q0 -19 -23 -35q-31 -21 -77 -21q-37 0 -70 15q-170 80 -170 261q0 151 116.5 228.5t255.5 77.5t254.5 -77.5t115.5 -227.5q0 -83 -44 -153h168q-5 73 -5 127
q0 277 121.5 519t448.5 242q329 0 447 -240.5t118 -518.5q0 -148 -40 -328.5t-150 -284.5q-29 -28 -86 -28zM1352 -288q53 0 56 102.5t3 144.5v41h-245q7 -69 52.5 -178.5t133.5 -109.5z" />
    <glyph glyph-name="ml_ee" unicode="&#xd0f;" horiz-adv-x="2204" 
d="M1614 719v-736q0 -151 -24 -230q-47 -153 -230 -153q-185 0 -275.5 118t-122.5 282h-356q-100 0 -101 56q0 23 28 40q86 49 86 169q0 193 -167 193q-169 0 -169 -194q0 -133 99 -176q38 -17 38 -44q0 -19 -23 -35q-31 -21 -77 -21q-37 0 -70 15q-170 80 -170 261
q0 151 116.5 228.5t255.5 77.5t254.5 -77.5t115.5 -227.5q0 -83 -44 -153h168q-5 72 -5 127q0 306 136.5 533.5t482.5 227.5q228 0 393.5 -124t165.5 -369q0 -225 -130 -323q135 -81 135 -255q0 -326 -330 -328q-58 -1 -125 23q-47 15 -47 47q0 14 17 30q29 25 76 25
q23 0 41.5 -7t37.5 -6q69 1 100 81t31 135q0 162 -108 185q-28 5 -59 5q-99 0 -99 55q0 53 95 56q38 2 51 6q112 36 112 271q0 381 -361 381q-250 0 -332 -230.5t-82 -427.5q0 -48 7 -118h261v606q0 57 102 57t102 -56zM1352 -288q53 0 56 102.5t3 144.5v41h-245
q7 -69 52.5 -178.5t133.5 -109.5z" />
    <glyph glyph-name="ml_ai" unicode="&#xd10;" horiz-adv-x="3386" 
d="M938 -24q-40 0 -70 17q-29 17 -29 39q0 24 30 40q207 110 207 396q0 422 -410 422q-341 0 -382 -349q83 76 208 76q160 0 257 -101q81 -84 81 -213q0 -157 -109 -246q-100 -81 -245 -81q-135 0 -233 79q-163 130 -163 405q0 257 171.5 398.5t414.5 141.5
q244 0 426 -138.5t182 -393.5q0 -328 -252 -470q-39 -22 -84 -22zM481 87q80 0 117 70t37 137q0 68 -36 137.5t-118 69.5t-118.5 -69.5t-36.5 -137.5t36.5 -137.5t118.5 -69.5zM3030 -400q-28 0 -52 8q-50 18 -50 49q0 14 14 27q93 88 127 258.5t34 298.5q0 169 -70 408
t-292 239q-226 0 -297 -241.5t-71 -414.5q0 -58 6 -120h261v606q0 56 102 56q101 0 101 -56v-735q0 -154 -23 -230q-47 -153 -230 -153q-185 0 -275.5 118t-122.5 282h-356q-100 0 -101 56q0 23 28 40q86 49 86 169q0 193 -167 193q-169 0 -169 -194q0 -133 99 -176
q38 -17 38 -44q0 -19 -23 -35q-31 -21 -77 -21q-37 0 -70 15q-170 80 -170 261q0 151 116.5 228.5t255.5 77.5t254.5 -77.5t115.5 -227.5q0 -83 -44 -153h168q-5 73 -5 127q0 277 121.5 519t448.5 242q329 0 447 -240.5t118 -518.5q0 -148 -40 -328.5t-150 -284.5
q-29 -28 -86 -28zM2582 -288q53 0 56 102.5t3 144.5v41h-245q7 -69 52.5 -178.5t133.5 -109.5z" />
    <glyph glyph-name="ml_o" unicode="&#xd12;" horiz-adv-x="1401" 
d="M1254 87q-92 -111 -275 -111q-58 0 -131 25q-47 15 -47 47q0 14 16 29q30 26 79 26q26 0 47 -8t43 -8q45 0 85 46q48 58 48 124q2 82 -58 129q-32 25 -120 27q-88 0 -88 55q0 46 86 55q80 8 108 35q42 39 42 105q0 99 -86 158q-97 68 -262 68q-209 0 -330 -112
q-87 -81 -116 -213q77 54 180 54q161 0 258 -101q80 -84 80 -210q0 -161 -108 -250q-100 -81 -243 -81q-231 0 -329 194q-53 105 -53 255q0 302 228 458q172 117 433 117q203 0 352 -67q198 -88 198 -271q0 -116 -102 -187q132 -76 132 -215q0 -93 -67 -173zM463 87
q81 0 118 70t37 137q0 68 -36 137.5t-117 69.5q-82 0 -119 -69.5t-37 -137.5q0 -67 36.5 -137t117.5 -70z" />
    <glyph glyph-name="ml_oo" unicode="&#xd13;" horiz-adv-x="2234" 
d="M1730 -25q-160 0 -269 103q-97 92 -97 205q0 54 97 54q101 0 105 -53q5 -83 68 -149q46 -49 96 -49q83 -1 145 94q76 115 76 307q0 196 -81 310q-63 90 -140 90q-56 0 -100 -46q-59 -64 -63 -150q-3 -58 -104 -55q-98 3 -98 55q0 119 93 207q107 101 272 101
q215 0 328 -163q96 -137 96 -349q0 -209 -88 -344q-111 -168 -336 -168zM1254 87q-92 -111 -275 -111q-58 0 -131 25q-47 15 -47 47q0 14 16 29q30 26 79 26q26 0 47 -8t43 -8q45 0 85 46q48 58 48 124q2 82 -58 129q-32 25 -120 27q-88 0 -88 55q0 46 86 55q80 8 108 35
q42 39 42 105q0 99 -86 158q-97 68 -262 68q-209 0 -330 -112q-87 -81 -116 -213q77 54 180 54q161 0 258 -101q80 -84 80 -210q0 -161 -108 -250q-100 -81 -243 -81q-231 0 -329 194q-53 105 -53 255q0 302 228 458q172 117 433 117q203 0 352 -67q198 -88 198 -271
q0 -116 -102 -187q132 -76 132 -215q0 -93 -67 -173zM463 87q81 0 118 70t37 137q0 68 -36 137.5t-117 69.5q-82 0 -119 -69.5t-37 -137.5q0 -67 36.5 -137t117.5 -70z" />
    <glyph glyph-name="ml_au" unicode="&#xd14;" horiz-adv-x="2618" 
d="M1859 -23q-172 0 -319 75q-42 20 -42 47q0 20 29 37q31 17 73 17q39 0 71 -16q91 -49 188 -49q183 0 307 101q170 140 170 401q0 87 -38 193.5t-151 106.5q-122 0 -122 -168v-211q0 -55 -101 -55q-102 0 -102 55v206q0 173 -133 173q-156 0 -154 -210q0 -87 41 -149
q7 -10 7 -20q0 -38 -67 -51q-17 -4 -39 -4q-70 0 -100 52q-42 71 -42 172q0 321 354 321q155 0 234 -82q72 82 224 82q391 0 391 -411q0 -295 -204 -463q-89 -73 -211 -111q-120 -39 -264 -39zM1254 87q-92 -111 -275 -111q-58 0 -131 25q-47 15 -47 47q0 14 16 29
q30 26 79 26q26 0 47 -8t43 -8q45 0 85 46q48 58 48 124q2 82 -58 129q-32 25 -120 27q-88 0 -88 55q0 46 86 55q80 8 108 35q42 39 42 105q0 99 -86 158q-97 68 -262 68q-209 0 -330 -112q-87 -81 -116 -213q77 54 180 54q161 0 258 -101q80 -84 80 -210q0 -161 -108 -250
q-100 -81 -243 -81q-231 0 -329 194q-53 105 -53 255q0 302 228 458q172 117 433 117q203 0 352 -67q198 -88 198 -271q0 -116 -102 -187q132 -76 132 -215q0 -93 -67 -173zM463 87q81 0 118 70t37 137q0 68 -36 137.5t-117 69.5q-82 0 -119 -69.5t-37 -137.5
q0 -67 36.5 -137t117.5 -70z" />
    <glyph glyph-name="k1" unicode="&#xd15;" horiz-adv-x="1927" 
d="M964 -24q-191 0 -299 101q-83 -101 -244 -101t-260 95q-81 78 -81 188q0 116 82 196q108 105 306 105h65q9 157 65 256q104 184 366 184q260 0 364 -183q57 -100 66 -257h54q179 0 289 -80t110 -221q0 -110 -83 -188q-100 -94 -254 -94q-72 0 -126 18q-55 17 -55 49
q0 25 43 44q26 11 51 11q22 0 40.5 -5.5t42.5 -5.5q59 0 101 56q37 48 39 113q0 72 -43 125q-54 67 -155 67h-52q-8 -185 -71 -293q-104 -180 -361 -180zM1192 560q-8 116 -56 222.5t-172 106.5t-173 -108t-56 -221h457zM420 87q41 0 78 39q50 51 50 148q0 30 -4 51
q-10 58 -13 124h-63q-81 0 -129 -48q-57 -57 -57 -141q0 -82 55 -134q41 -39 83 -39zM964 87q131 0 178.5 119t51.5 243h-461q7 -126 53.5 -244t177.5 -118z" />
    <glyph glyph-name="k2" unicode="&#xd16;" horiz-adv-x="1740" 
d="M721 69q-100 -81 -245 -81q-135 0 -233 79q-163 130 -163 405q0 257 176.5 398.5t419.5 141.5q233 0 415.5 -132t182.5 -386q0 -222 -140 -371h303v833q0 55 102 55q101 0 101 -55v-889q0 -55 -109 -55h-593q-99 0 -99 57q0 23 30 39q207 110 207 386q0 408 -400 408
q-352 0 -392 -349q83 76 207 76q161 0 258 -101q80 -84 80 -209q0 -161 -108 -250zM481 99q81 0 117 71t36 139q0 67 -36.5 135.5t-117.5 68.5t-117.5 -69.5t-36.5 -137.5t36.5 -137.5t118.5 -69.5z" />
    <glyph glyph-name="k3" unicode="&#xd17;" horiz-adv-x="1683" 
d="M1190 -24q-48 0 -78 23q-19 15 -19 32q0 28 42 45q266 104 266 421q0 155 -86 275q-81 117 -178 117q-144 0 -170.5 -148.5t-26.5 -251.5q0 -216 -66 -364.5t-323 -148.5q-242 0 -373 186q-98 138 -98 330q0 359 302 494q31 14 69 14q46 0 77 -21q23 -14 23 -34
q0 -27 -38 -44q-231 -101 -231 -409q0 -170 84 -290q82 -115 185 -115q143 0 165 150t22 252q0 212 74.5 361.5t324.5 149.5q234 0 366 -188q100 -141 100 -315q0 -365 -341 -507q-33 -14 -72 -14z" />
    <glyph glyph-name="k4" unicode="&#xd18;" horiz-adv-x="2375" 
d="M2174 0h-1094q-102 0 -102 60v274h-371q-101 0 -102 54q0 23 29 40q85 49 85 174q0 193 -167 193q-169 0 -169 -192q0 -140 99 -182q38 -17 38 -44q0 -17 -23 -34q-31 -21 -77 -21q-38 0 -69 14q-171 78 -171 267q0 149 117 225.5t255 76.5q137 0 253.5 -75t116.5 -228
q0 -88 -44 -157h200v201q0 179 146.5 266.5t309.5 87.5q164 0 300.5 -87t136.5 -266v-258q0 -55 -101 -55h-589v-223h891v833q0 56 102 56q101 0 101 -56v-888q0 -56 -101 -56zM1668 445l1 202q2 242 -237 242q-251 0 -251 -243v-201h487z" />
    <glyph glyph-name="ng" unicode="&#xd19;" horiz-adv-x="1958" 
d="M1501 -24q-124 0 -235 45q-41 17 -41 46q0 18 20 32q31 22 81 22q45 0 84 -17t92 -17q173 0 173 157q0 109 -100 149q-47 19 -139 19h-76q-99 0 -99 56q1 55 103 55l74 -1q92 0 135 22q83 41 81 145q-1 199 -239 199q-290 0 -290 -285v-572q0 -55 -101 -55t-101 55v574
q0 127 -77 204q-81 80 -221 80q-194 0 -295 -197q-35 -68 -46 -151q83 76 207 76q161 0 258 -101q80 -84 80 -209q0 -161 -108 -250q-100 -81 -245 -81q-135 0 -233 79q-163 130 -163 405q0 152 61 271q138 269 484 269q103 0 211.5 -24t184.5 -100q74 74 184 98.5t210 24.5
q148 0 294.5 -66t146.5 -244q0 -140 -124 -218q146 -72 146 -227q0 -148 -126 -208t-251 -60zM481 87q80 0 116.5 71t36.5 139q0 66 -36.5 135t-116.5 69q-81 0 -118 -69.5t-37 -137.5q0 -207 155 -207z" />
    <glyph glyph-name="ch1" unicode="&#xd1a;" horiz-adv-x="1637" 
d="M1435 0h-1314q-101 0 -101 56q0 55 101 55h403q257 0 257 277q0 193 -168 193q-166 0 -168 -157q0 -71 61 -122q17 -14 17 -30q0 -30 -44 -47q-27 -9 -56 -9q-180 0 -180 208q0 140 126 204t244 64q143 0 256.5 -75.5t113.5 -230.5q0 -164 -130 -275h481v833q0 56 102 56
q101 0 101 -56v-888q0 -56 -102 -56z" />
    <glyph glyph-name="ch2" unicode="&#xd1b;" horiz-adv-x="2372" 
d="M1899 -24q-211 0 -315 153q-67 100 -67 229q0 156 92 276q110 141 311 176q-99 79 -239 79q-219 0 -335 -167q-81 -115 -81 -275q0 -231 188 -356q24 -16 24 -36q-1 -55 -102 -55h-1253q-102 0 -102 55q0 56 102 56h402q257 0 257 276q-2 193 -170 193q-166 0 -166 -159
q-1 -68 61 -119q17 -14 17 -31q0 -29 -44 -46q-26 -10 -58 -10q-178 0 -178 206q0 137 123.5 203.5t244.5 66.5q144 0 258 -74.5t114 -229.5q0 -167 -130 -276h339q-130 145 -130 336q0 215 130 359q173 194 489 194q397 0 551 -303q60 -119 60 -264q0 -172 -74 -290
q-103 -167 -319 -167zM1899 87q71 0 127 92q63 102 63 254q0 160 -76 275q-133 -8 -217 -117q-76 -98 -76 -233q0 -111 53 -190q54 -81 126 -81z" />
    <glyph glyph-name="ch3" unicode="&#xd1c;" horiz-adv-x="1708" 
d="M1628 212q0 -121 -103 -178.5t-207 -57.5q-249 0 -290 190q-100 -72 -218 -122q-161 -68 -327 -68q-120 0 -260 41t-140 197q0 140 177 185q95 24 249 24q46 0 94 -1.5t99 -3.5q136 -4 203 -4q77 0 161.5 4t157.5 25q95 28 144 87q58 67 58 151q2 96 -63 155
q-57 52 -150 52q-201 0 -201 -198v-186q0 -55 -102 -55q-100 0 -100 55v186q0 121 -106 170q-63 29 -166 29q-132 0 -195 -35q9 1 27 1q90 0 169.5 -53t79.5 -150q0 -103 -84.5 -153t-177.5 -50q-135 0 -208 65q-69 61 -69 166q0 144 111 226q127 94 347 94q90 1 196 -17
t177 -77q109 93 308 93q198 0 316 -105q93 -82 93 -209q0 -110 -76 -202q-29 -36 -75 -67q151 -66 151 -204zM359 560q81 0 81 92q0 91 -83 91t-83 -91q0 -92 85 -92zM1315 88q110 0 110 127q0 119 -104 121q-110 0 -110 -125q0 -123 104 -123zM490 85q118 0 236 55
q162 75 269 163l-57 -1q-61 -1 -122.5 2t-122.5 4q-126 4 -177 4q-132 0 -177 -17q-59 -21 -59 -94q0 -79 75.5 -97.5t134.5 -18.5z" />
    <glyph glyph-name="ch4" unicode="&#xd1d;" horiz-adv-x="2964" 
d="M2383 -24q-198 0 -310 101q-107 -101 -295 -101q-280 0 -363 229q-35 94 -35 270q0 62 -3 127t-26 124q-61 163 -251 163q-35 0 -70 -6q229 -169 229 -478q0 -143 -58 -248q-100 -179 -328 -179q-229 0 -329 179q-59 105 -59 248q0 308 229 478q-34 6 -70 6
q-195 0 -300 -198q-62 -114 -62 -263q0 -97 38 -202t132 -153q33 -17 33 -41q0 -23 -27 -38q-30 -18 -69 -18q-50 0 -98 28q-211 127 -211 424q0 164 70 294q148 278 494 278q123 0 229 -35q102 35 227 35q134 -1 253 -47t183 -171q36 -70 41 -150t5 -157q0 -161 32 -249
q50 -139 164 -139q105 0 147 84.5t42 169.5v603q0 56 101 56q102 0 102 -56v-603q0 -254 213 -254q80 0 151 52q75 55 113 149q35 87 35 199q0 113 -50.5 240t-164.5 173q-40 17 -40 45q0 19 20 33q29 22 79 22q41 0 68 -13q290 -125 290 -500q0 -144 -52 -249
q-56 -119 -175 -190q-120 -72 -274 -72zM873 88q77 0 134 101q50 89 50 216q0 268 -184 409q-185 -143 -185 -409q0 -125 50 -215q57 -102 135 -102z" />
    <glyph glyph-name="nj" unicode="&#xd1e;" horiz-adv-x="2501" 
d="M2113 -24q-40 0 -70 18q-27 17 -27 38q0 24 32 41q95 48 133 153t38 202q0 149 -62 263q-105 198 -300 198q-35 0 -70 -6q229 -170 229 -478q0 -144 -59 -248q-100 -179 -329 -179q-228 0 -328 179q-58 105 -58 251q0 307 229 475q-34 6 -70 6q-276 0 -276 -286v-571
q0 -55 -101 -55t-101 55v571q0 286 -295 286q-199 0 -298 -197q-35 -68 -46 -151q85 76 209 76q159 0 256 -101q80 -84 80 -211q0 -160 -108 -248q-100 -81 -241 -81q-139 0 -237 79q-163 131 -163 405q0 152 61 271q138 271 487 269q262 0 393 -132q132 132 380 132
q125 0 227 -35q106 35 229 35q346 0 494 -278q70 -130 70 -294q0 -299 -213 -425q-44 -27 -95 -27zM1628 88q78 0 135 102q50 89 50 215q0 266 -185 409q-184 -141 -184 -409q0 -127 50 -216q57 -101 134 -101zM488 87q80 0 113 71.5t33 135.5q0 67 -36 137t-117 70
q-82 0 -118.5 -69.5t-36.5 -137.5q0 -207 162 -207z" />
    <glyph glyph-name="t1" unicode="&#xd1f;" horiz-adv-x="1194" 
d="M970 60q-139 -84 -366 -84q-127 0 -273 41.5t-238 133.5q-13 13 -13 27q0 33 53 48q25 7 49 7q59 0 88 -29q117 -117 334 -117q138 0 224 59q80 53 80 143q0 112 -183 112q-44 0 -88.5 -2t-89.5 -2q-178 0 -273 34q-169 63 -169 230q0 156 147 247q148 92 363 92
q312 0 483 -170q13 -13 13 -26q0 -33 -53 -50q-24 -7 -49 -7q-60 0 -89 29q-113 113 -305 113q-153 0 -244 -82q-60 -54 -60 -127q0 -106 180 -106q47 0 93.5 2.5t94.5 2.5q164 0 253 -31q182 -61 182 -242q0 -159 -144 -246z" />
    <glyph glyph-name="t2" unicode="&#xd20;" horiz-adv-x="1301" 
d="M1221 485q0 -245 -169.5 -377.5t-401.5 -131.5q-232 0 -401 134t-169 375t170 378t400 137t400.5 -135t170.5 -380zM650 87q174 0 271 119t97 279q0 161 -99 282.5t-269 121.5t-269 -121.5t-99 -282.5q0 -160 97 -279t271 -119z" />
    <glyph glyph-name="t3" unicode="&#xd21;" 
d="M1717 -24q-197 0 -309 101q-105 -101 -291 -101q-285 0 -367 229q-26 71 -31 145.5t-5 149.5q0 65 -4 134.5t-26 130.5q-45 124 -151 124q-87 0 -140 -66.5t-78 -137.5q-34 -101 -33 -185q1 -121 58 -249t181 -172q45 -16 45 -46q0 -17 -17 -31q-32 -26 -81 -26
q-38 0 -71 14q-317 133 -317 510q0 120 41 225q109 275 412 275q251 0 337 -186q34 -73 40 -154t7 -160q1 -69 4 -138.5t27 -135.5q50 -139 169 -139q108 0 146.5 81.5t38.5 172.5v603q0 56 101 56q102 0 102 -56v-603q0 -254 212 -254q185 0 264 201q35 85 35 212
q0 116 -49 234t-166 166q-40 17 -40 45q0 18 21 33q31 22 78 22q39 0 68 -13q291 -125 291 -487q0 -155 -52 -262q-125 -262 -450 -262z" />
    <glyph glyph-name="t4" unicode="&#xd22;" horiz-adv-x="2427" 
d="M1802 -24q-247 0 -380 116q-107 -116 -305 -116q-285 0 -367 229q-26 71 -31 145.5t-5 149.5q0 65 -4 134.5t-26 130.5q-45 124 -151 124q-87 0 -140 -66.5t-78 -137.5q-34 -101 -33 -185q1 -121 58 -249t181 -172q45 -16 45 -46q0 -17 -17 -31q-32 -26 -81 -26
q-38 0 -71 14q-317 133 -317 510q0 120 41 225q109 275 412 275q251 0 337 -186q34 -73 40 -154t7 -160q1 -69 4 -138.5t27 -135.5q50 -139 169 -139q109 0 147 83t38 176v598q0 56 101 56q102 0 102 -56v-574q0 -283 297 -283q196 0 295 197q36 70 45 151q-82 -76 -207 -76
q-159 0 -257 101q-81 84 -81 213q0 158 109 246q100 81 250 81q131 0 228 -78q163 -131 163 -406q0 -152 -61 -271q-138 -269 -484 -269zM1946 476q81 0 118 69.5t37 136.5q0 68 -36 137.5t-119 69.5q-79 0 -116.5 -70t-37.5 -136q0 -68 36.5 -137.5t117.5 -69.5z" />
    <glyph glyph-name="nh" unicode="&#xd23;" horiz-adv-x="2505" 
d="M2066 -24q-48 0 -78 22q-20 14 -20 33q0 28 40 45q114 47 164.5 173t50.5 240t-35 199q-79 200 -264 200q-213 0 -213 -257v-599q0 -56 -101 -56q-102 0 -102 56v599q0 86 -43.5 171.5t-147.5 85.5t-148.5 -85.5t-44.5 -172.5v-599q0 -55 -101 -55t-101 55v578
q0 280 -297 280q-196 0 -295 -197q-35 -68 -46 -151q83 76 207 76q159 0 257 -101q81 -84 81 -213q0 -158 -109 -246q-99 -81 -240 -81q-139 -2 -238 79q-162 130 -162 405q0 151 61 270q137 269 484 269q253 0 389 -119q117 120 303 120q178 0 292 -117q120 117 315 117
q324 0 450 -262q51 -106 51 -249q0 -373 -287 -498q-35 -15 -72 -15zM480 87q80 0 117 70t37 137q0 68 -36.5 137t-117.5 69t-118 -69t-37 -137q-1 -68 36 -137.5t119 -69.5z" />
    <glyph glyph-name="th1" unicode="&#xd24;" horiz-adv-x="1745" 
d="M1356 -24q-39 0 -69 18q-27 15 -27 38q0 24 32 41q96 48 133 153.5t37 204.5q0 145 -61 260q-106 198 -302 198q-36 0 -69 -6q229 -169 229 -478q0 -144 -59 -249q-100 -180 -329 -180q-227 0 -327 180q-59 106 -59 249q0 307 229 478q-34 6 -69 6q-195 0 -301 -198
q-62 -117 -62 -260q-1 -97 38 -203.5t133 -154.5q32 -17 32 -41q0 -23 -27 -38q-30 -18 -69 -18q-49 0 -97 28q-212 126 -212 427q0 161 70 291q148 278 495 278q122 0 227 -35q106 35 227 35q348 0 496 -278q70 -131 70 -291q0 -302 -212 -427q-48 -28 -97 -28zM871 87
q79 0 136 102q50 90 50 216q0 268 -185 408q-184 -140 -184 -408q0 -128 50 -217q55 -101 133 -101z" />
    <glyph glyph-name="th2" unicode="&#xd25;" horiz-adv-x="1568" 
d="M1367 0h-1165q-102 0 -102 56v888q0 56 102 56q101 0 101 -56v-833h249v494q0 190 134 292.5t317 102.5q179 -1 322 -107.5t143 -293.5v-543q0 -56 -101 -56zM1266 111v488q0 290 -265 290q-247 0 -247 -284v-494h512z" />
    <glyph glyph-name="th3" unicode="&#xd26;" horiz-adv-x="1219" 
d="M318 -24q-64 0 -98 41q-140 171 -140 417q0 306 200 455q148 111 386 111q190 0 317 -78q142 -88 142 -246q0 -137 -129 -206q143 -77 143 -215q0 -137 -107 -210q-99 -67 -250 -67q-120 0 -224 46q-39 16 -39 44q0 18 23 34q30 20 80 20q36 0 64 -12q47 -21 96 -21
q76 0 116 48q39 46 39 118q-3 111 -111 146q-46 14 -104 14q-21 0 -42 -1t-42 -1q-102 0 -102 55q0 56 100 56h86q62 0 106 15q95 33 95 137q-2 99 -67 154q-71 59 -190 59q-163 -2 -259 -95q-125 -122 -125 -355t129 -383q10 -11 10 -24q0 -36 -58 -50q-22 -6 -45 -6z" />
    <glyph glyph-name="th4" unicode="&#xd27;" horiz-adv-x="1792" 
d="M1210 -24q-203 0 -314 103q-111 -103 -314 -103q-325 0 -450 262q-52 105 -52 249q0 375 291 500q29 13 68 13q47 0 78 -22q21 -15 21 -33q0 -28 -40 -45q-115 -47 -165 -172.5t-50 -240.5q0 -112 35 -199q81 -201 264 -201q212 0 212 249v608q0 56 102 56q101 0 101 -56
v-608q0 -249 213 -249q183 0 264 201q35 87 35 199q0 115 -49.5 240.5t-165.5 172.5q-40 17 -40 45q0 18 21 33q31 22 78 22q39 0 68 -13q291 -125 291 -500q0 -144 -52 -249q-125 -262 -450 -262z" />
    <glyph glyph-name="n1" unicode="&#xd28;" horiz-adv-x="1792" 
d="M582 1000q203 0 314 -103q111 103 314 103q325 0 450 -262q52 -105 52 -249q0 -375 -291 -500q-29 -13 -68 -13q-47 0 -78 22q-21 15 -21 33q0 28 40 45q116 47 165.5 172.5t49.5 240.5q0 112 -35 199q-81 201 -264 201q-212 0 -212 -249v-608q0 -56 -102 -56
q-101 0 -101 56v608q0 249 -213 249q-183 0 -264 -201q-35 -87 -35 -199q0 -115 50 -240.5t165 -172.5q40 -17 40 -45q0 -18 -21 -33q-31 -22 -78 -22q-39 0 -68 13q-291 125 -291 500q0 144 52 249q125 262 450 262z" />
    <glyph glyph-name="n2" unicode="&#xd29;" horiz-adv-x="1919" 
d="M1479 -24q-48 0 -77 22q-20 16 -20 33q0 28 39 45q116 48 165.5 173.5t49.5 240.5q0 113 -35 198q-79 200 -263 200q-213 0 -213 -257v-599q0 -56 -102 -56q-101 0 -101 56v578q0 279 -297 279q-196 0 -295 -197q-36 -70 -45 -150q82 75 206 75q160 0 257 -101
q81 -84 81 -209q0 -163 -108 -250q-100 -80 -246 -80q-136 0 -232 78q-163 131 -163 406q0 151 61 270q138 269 484 269q252 0 393 -122q116 122 320 122q323 0 449 -262q52 -108 52 -248q0 -372 -287 -499q-33 -15 -73 -15zM480 88q80 0 117 69.5t37 136.5q0 68 -36 137.5
t-117 69.5q-82 0 -118.5 -69.5t-36.5 -137.5q0 -206 154 -206z" />
    <glyph glyph-name="p1" unicode="&#xd2a;" horiz-adv-x="1604" 
d="M321 -12q-40 0 -72 15q-169 78 -169 266q0 150 116.5 226.5t255.5 76.5t254 -77t115 -226q0 -91 -43 -158h523v834q0 55 102 55q101 0 101 -55v-890q0 -55 -101 -55h-797q-101 0 -101 55q0 23 28 39q85 48 85 175q0 192 -166 192q-169 0 -169 -192q0 -140 99 -182
q38 -17 38 -44q0 -18 -23 -34q-29 -21 -76 -21z" />
    <glyph glyph-name="p2" unicode="&#xd2b;" horiz-adv-x="1978" 
d="M319 -12q-38 0 -69 14q-170 78 -170 268q0 150 116.5 226t255.5 76t254 -77t115 -226q0 -89 -43 -158h184v494q0 188 135 291.5t316 103.5q180 0 322.5 -106.5t142.5 -294.5v-544q0 -55 -101 -55h-1171q-101 0 -101 55q0 23 28 39q85 49 85 175q0 192 -166 192
q-169 0 -169 -192q0 -138 99 -182q38 -17 38 -44q0 -20 -23 -34q-31 -21 -78 -21zM1676 111v488q0 290 -265 290q-247 0 -247 -284v-494h512z" />
    <glyph glyph-name="p3" unicode="&#xd2c;" horiz-adv-x="2345" 
d="M1024 -24q-102 0 -102 56v578q0 279 -296 279q-197 0 -296 -197q-35 -69 -46 -150q83 75 211 75q156 0 254 -101q80 -84 80 -209q0 -161 -108 -250q-100 -81 -245 -81q-135 0 -233 79q-163 130 -163 406q0 151 61 270q137 268 485 268q101 0 206.5 -24t181.5 -94
q108 119 316 119q485 0 485 -494q0 -244 -148 -396h375v834q0 55 102 55q101 0 101 -55v-890q0 -55 -101 -55h-682q-105 0 -105 55q0 27 41 44q113 47 164 171t51 237q0 120 -70.5 251.5t-212.5 131.5q-205 0 -205 -255v-603q0 -55 -101 -55zM480 87q80 0 117 70t37 137
q0 68 -36 137.5t-118 69.5q-81 0 -117.5 -69.5t-36.5 -137.5q0 -207 154 -207z" />
    <glyph glyph-name="p4" unicode="&#xd2d;" horiz-adv-x="1259" 
d="M319 -20q-64 0 -98 41q-141 176 -141 414q1 260 170.5 414.5t431.5 154.5q138 0 313 -50.5t175 -224.5q0 -186 -217 -186q-49 0 -97.5 12t-95.5 12q-85 0 -85 -84q0 -89 104 -89q43 0 90 9t90 9q220 0 220 -200q0 -139 -132 -185t-243 -46q-153 0 -270 51q-39 16 -39 44
q0 18 22 34q32 21 79 21q36 0 63 -12q60 -26 145 -26q54 0 116 30t61 89q0 77 -88 77q-34 0 -75 -9t-88 -9q-77 0 -136 33q-105 59 -105 179q0 124 93 179q57 34 131 32q55 -1 108.5 -14.5t102.5 -13.5q57 0 57 63q1 89 -111 126.5t-188 37.5q-204 0 -301.5 -133.5
t-97.5 -324.5q0 -220 129 -376q10 -11 10 -23q0 -37 -60 -51q-17 -5 -43 -5z" />
    <glyph glyph-name="m1" unicode="&#xd2e;" horiz-adv-x="1253" 
d="M1052 0h-851q-101 0 -101 56v514q0 183 131 299q149 131 396 131q246 0 394 -131q132 -116 132 -299v-514q0 -56 -101 -56zM950 111v459q0 229 -198 297q93 -85 93 -232q1 -312 -290 -524h395zM303 111q341 167 341 525q0 62 -30.5 139t-108.5 78q-52 0 -102 -43
q-100 -87 -100 -240v-459z" />
    <glyph glyph-name="y1" unicode="&#xd2f;" horiz-adv-x="1830" 
d="M705 -24q-316 2 -486 192q-139 155 -139 394q0 161 70 277q96 161 302 161q163 0 237 -115q94 115 258 115q168 0 283 -115q117 -116 117 -307q0 -162 -75 -299q-61 -113 -162 -186q36 -6 71 -6q188 2 296 187q71 121 71 275q1 96 -36 201t-129 155q-29 17 -29 39
q0 24 29 39q30 17 68 17q50 0 94 -28q205 -127 205 -423q0 -172 -80 -308q-153 -264 -489 -264q-129 0 -234 35q-112 -36 -242 -36zM948 161q81 58 132 153q65 123 65 264q0 149 -65 235q-56 76 -133 76q-105 0 -145 -107.5t-40 -201.5q0 -138 54 -255q46 -101 132 -164z
M705 87q45 0 83 7q-97 73 -154 182q-72 140 -72 304q0 105 -10 171q-20 138 -100 138q-58 0 -110 -85q-59 -99 -59 -241q0 -214 119 -346q115 -130 303 -130z" />
    <glyph glyph-name="r3" unicode="&#xd30;" horiz-adv-x="1387" 
d="M916 -24q-213 0 -317 153q-67 98 -67 229q0 156 92 276q111 143 311 176q-99 79 -233 79q-223 0 -340 -173q-80 -118 -80 -274q-2 -248 191 -374q24 -16 24 -35q0 -27 -37 -43q-31 -14 -63 -14q-50 0 -96 32q-221 157 -221 434q0 191 106 331q170 227 516 227
q391 0 545 -303q60 -119 60 -270q0 -164 -74 -284q-102 -167 -317 -167zM916 88q69 0 125 91q64 103 64 248q0 163 -77 281q-133 -8 -217 -117q-76 -96 -76 -233q0 -113 53 -190q56 -80 128 -80z" />
    <glyph glyph-name="rh" unicode="&#xd31;" horiz-adv-x="1292" 
d="M839 -24q-41 0 -72 19q-26 16 -26 37q0 25 35 42q232 111 232 391q0 158 -94.5 291t-267.5 133q-174 0 -268.5 -133.5t-94.5 -290.5q0 -280 233 -391q35 -17 35 -42q0 -21 -26 -37q-31 -19 -73 -19q-41 0 -77 18q-295 147 -295 471q0 236 169.5 385.5t396.5 149.5
t396.5 -150.5t169.5 -384.5q0 -322 -292 -470q-38 -19 -81 -19z" />
    <glyph glyph-name="l3" unicode="&#xd32;" horiz-adv-x="1497" 
d="M1295 0h-1093q-102 0 -102 60v585q0 190 155 272.5t300 82.5q169 0 303.5 -88.5t134.5 -264.5v-258q0 -56 -101 -56h-589v-222h891v833q0 56 101 56q102 0 102 -56v-888q0 -56 -102 -56zM790 444v203q0 242 -236 242q-251 0 -251 -244v-201h487z" />
    <glyph glyph-name="lh" unicode="&#xd33;" horiz-adv-x="1367" 
d="M1137 -412h-740q-115 0 -216 51.5t-101 181.5q-1 128 103.5 182.5t213.5 54.5h458q230 0 230 181q0 93 -74 142q-44 29 -110 29q-81 0 -81 56t81 56q77 0 122 38q50 42 50 107q0 110 -97 166q-95 55 -265 55q-180 0 -277 -48q-101 -50 -131 -126q59 30 138 30
q133 0 221 -71q96 -79 96 -212q0 -109 -81 -188q-98 -95 -255 -95q-175 0 -266 114q-76 94 -76 247q0 144 66 245q89 138 251.5 177t313.5 39q257 0 412 -90q152 -88 152 -243q0 -126 -130 -201q142 -77 142 -227q0 -172 -146 -232.5t-286 -60.5l-458 1q-113 0 -113 -101
q0 -100 113 -100h740q102 0 102 -79t-102 -79zM424 294q128 0 130 166q2 167 -130 167q-129 0 -129 -166q0 -167 129 -167z" />
    <glyph glyph-name="zh" unicode="&#xd34;" horiz-adv-x="1242" 
d="M611 -24q-93 0 -202 49t-108 160q0 52 98 55q102 0 105 -54q7 -99 107 -99q129 0 129 138q0 31 -10 62q-52 -6 -106 -6q-197 0 -370.5 101t-173.5 327q0 144 89 256q25 33 86 33q109 0 109 -54q0 -11 -9 -23q-73 -91 -73 -211q0 -318 342 -318q26 0 39 1
q-61 76 -98.5 140t-37.5 167q0 121 68 199q86 101 245 101q158 0 248 -102q74 -82 74 -211q0 -244 -245 -349q26 -57 26 -114q0 -100 -79 -166q-95 -82 -253 -82zM839 450q120 78 120 234q0 106 -53 165q-35 39 -66 39q-33 0 -62 -35q-49 -57 -49 -152q0 -84 35 -148
q23 -43 75 -103z" />
    <glyph glyph-name="v1" unicode="&#xd35;" horiz-adv-x="1732" 
d="M452 -12q-42 0 -76 17q-296 146 -296 479q0 236 171 376t395 140t395 -140.5t171 -375.5q0 -222 -160 -373h377v833q0 56 101 56q102 0 102 -56v-889q0 -55 -102 -55h-686q-102 0 -102 56q0 23 34 40q232 111 232 388q0 160 -95.5 283t-266.5 123q-172 0 -267 -122.5
t-95 -283.5q0 -289 232 -399q35 -17 35 -42q0 -20 -26 -36q-31 -19 -73 -19z" />
    <glyph glyph-name="z1" unicode="&#xd36;" horiz-adv-x="1918" 
d="M547 -24q-217 0 -342 145t-125 356q0 387 332 511q30 12 67 12q52 0 81 -25q16 -13 16 -30q0 -30 -46 -47q-124 -44 -186 -170.5t-62 -250.5q0 -112 64.5 -251t200.5 -139q146 0 165.5 144.5t17.5 245.5q-1 95 7 169.5t64 156.5q133 197 439 197q385 0 538 -302
q60 -119 60 -265q0 -170 -74 -289q-103 -167 -319 -167q-211 0 -315 153q-67 98 -67 229q0 155 92 276q110 141 311 176q-98 78 -226 78q-185 0 -263 -147q-37 -69 -41 -129t-4 -136q0 -208 -65.5 -354.5t-319.5 -146.5zM1445 88q70 -1 127 92q63 102 63 253q0 160 -76 275
q-133 -6 -217 -116q-76 -98 -76 -233q0 -111 53 -190q54 -81 126 -81z" />
    <glyph glyph-name="sh" unicode="&#xd37;" horiz-adv-x="1937" 
d="M319 -12q-38 0 -69 14q-170 80 -170 268q0 150 116.5 226t255.5 76t254 -77t115 -226q0 -89 -43 -158h410l1 244q-168 10 -282 106q-118 101 -118 234q0 131 95.5 196.5t213.5 64.5q296 0 294 -242l-1 -213q89 59 158 174q85 143 85 270q0 55 100 55q103 0 103 -55v-889
q0 -56 -101 -56h-1130q-101 0 -101 56q0 23 28 39q85 48 85 174q0 192 -166 192q-169 0 -169 -192q0 -140 99 -182q38 -17 38 -44q0 -20 -23 -34q-31 -21 -78 -21zM1189 468v246q0 131 -91 131q-50 0 -78 -55t-28 -95q0 -194 197 -227zM1634 111v471q-91 -139 -243 -204
v-267h243z" />
    <glyph glyph-name="s1" unicode="&#xd38;" 
d="M582 1000q197 0 309 -101q105 101 291 101q285 0 367 -229q26 -71 31 -145.5t5 -149.5q0 -64 4 -133.5t26 -131.5q45 -124 151 -124q87 0 140 66.5t78 137.5q34 101 33 185q-1 121 -57.5 249t-181.5 172q-45 16 -45 46q0 17 17 31q32 26 81 26q38 0 71 -14
q317 -133 317 -510q0 -120 -41 -225q-109 -275 -412 -275q-251 0 -337 186q-34 73 -40 154t-7 160q-1 69 -4 138.5t-27 135.5q-50 139 -169 139q-108 0 -146.5 -81.5t-38.5 -172.5v-603q0 -56 -101 -56q-102 0 -102 56v603q0 254 -212 254q-185 0 -264 -201
q-35 -85 -35 -212q0 -115 49 -233.5t166 -166.5q40 -17 40 -45q0 -18 -21 -33q-31 -22 -78 -22q-39 0 -68 13q-291 125 -291 487q0 155 52 262q125 262 450 262z" />
    <glyph glyph-name="h1" unicode="&#xd39;" horiz-adv-x="2105" 
d="M1653 -6q-42 0 -73 19q-26 16 -26 36q0 25 35 42q235 111 233 395q0 157 -95 283.5t-268 126.5q-171 0 -266.5 -122t-95.5 -283q0 -278 232 -389q35 -16 35 -40q0 -56 -100 -56h-657q-102 0 -102 56q0 24 29 39q85 47 85 174q0 192 -167 192q-169 0 -169 -192
q0 -139 99 -182q38 -17 38 -44q0 -20 -22 -34q-31 -21 -78 -21q-38 0 -69 14q-173 81 -171 268q0 149 116.5 225.5t255.5 76.5t254.5 -77t115.5 -226q0 -88 -44 -158h274q-159 151 -159 374q0 236 171.5 375.5t394.5 139.5q225 0 395.5 -142.5t170.5 -377.5
q0 -327 -295 -475q-36 -17 -77 -17z" />
    <glyph glyph-name="rh_half" unicode="&#xd3a;" horiz-adv-x="1256" 
d="M827 -24q-101 0 -101 56v301h-544q-102 0 -102 56q0 9 9 23l644 933q25 36 94 36q14 0 36 -4q66 -13 66 -52q0 -10 -7 -20l-593 -860h745q102 0 102 -56t-102 -56h-145v-301q0 -56 -102 -56z" />
    <glyph glyph-name="verticalbarvirama" unicode="&#xd3b;" horiz-adv-x="352" 
d="M178 1682q80 0 80 -70l-26 -442q0 -70 -54 -70q-51 0 -55 70l-26 442q-4 70 81 70z" />
    <glyph glyph-name="circularvirama" unicode="&#xd3c;" horiz-adv-x="318" 
d="M137.004 999.548q-91.9707 0 -160.789 50.4043q-68.8193 50.4043 -68.8193 141.992t68.502 141.685q68.502 50.0977 160.472 50.0977q92.6055 0 161.107 -50.4043t68.502 -141.992q0 -90.9736 -68.502 -141.378t-160.473 -50.4043zM137.004 1066.55
q102.119 0 102.119 124.781q0 125.396 -102.119 125.396q-102.753 0 -102.753 -125.396q0 -124.781 102.753 -124.781z" />
    <glyph glyph-name="avagraha" unicode="&#xd3d;" horiz-adv-x="1439" 
d="M360 -393q-130 0 -235 69t-105 216q0 51 16 99q14 46 100 46q102 0 102 -54q0 -2 -3 -14q-12 -36 -12 -76q0 -174 135 -174q52 0 96 51q86 101 119 348.5t46 382.5q16 152 49.5 403.5t133.5 367.5q98 115 277 115q130 0 235 -70t105 -216q0 -47 -16 -98q-15 -45 -98 -45
q-104 0 -104 53q0 2 3 14q12 38 12 76q0 174 -135 174q-52 0 -96 -51q-85 -101 -117.5 -348t-46.5 -381q-16 -153 -50 -404.5t-134 -368.5q-98 -115 -277 -115z" />
    <glyph glyph-name="a2" unicode="&#xd3e;" horiz-adv-x="930" 
d="M426 -24q-160 0 -269 103q-97 92 -97 205q0 54 97 54q101 0 105 -53q5 -83 68 -149q46 -49 96 -49q83 -1 145 94q76 115 76 307q0 196 -81 310q-63 90 -140 90q-56 0 -100 -46q-59 -64 -63 -150q-3 -58 -104 -55q-98 3 -98 55q0 119 93 207q107 101 272 101
q215 0 328 -163q96 -137 96 -349q0 -209 -88 -344q-111 -168 -336 -168z" />
    <glyph glyph-name="i1" unicode="&#xd3f;" horiz-adv-x="399" 
d="M198 -24q-102 0 -102 56v1087q0 151 -83 151q-91 0 -82 -125l2 -31q3 -50 -109 -50q-94 0 -94 62q0 255 283 255q286 0 286 -262v-1087q0 -56 -101 -56z" />
    <glyph glyph-name="i2" unicode="&#xd40;" horiz-adv-x="416" 
d="M214 -24q-102 0 -102 56v1086q0 109 -60 143q16 -31 15 -60q-1 -73 -63 -115q-60 -42 -166 -42t-167 43t-61 118q0 93 102 142q69 34 217 34q136 0 261.5 -47t125.5 -216v-1086q0 -56 -102 -56zM-163 1138q66 0 66 69t-66 69t-66 -69t66 -69z" />
    <glyph glyph-name="u1" unicode="&#xd41;" horiz-adv-x="640" 
d="M280 -424q-280 0 -280 259q0 196 192 247q127 239 127 503q0 117 -36 198q-42 92 -125 108q-67 13 -67 52q0 56 99 56q160 0 258 -137q74 -105 74 -279q0 -257 -124 -511q162 -62 162 -237q0 -259 -280 -259zM280 -318q53 0 75 55.5t22 97.5q0 152 -97 152
q-53 0 -75 -55.5t-22 -96.5q0 -42 22 -97.5t75 -55.5z" />
    <glyph glyph-name="u2" unicode="&#xd42;" horiz-adv-x="842" 
d="M314 -596q-128 0 -226 47q-30 14 -30 37q0 18 23 32q26 16 67 16q35 0 59 -12q46 -23 107 -23q158 0 232 110q49 74 49 150q0 105 -52 161q18 -38 18 -98q0 -253 -279 -253q-282 0 -282 253q0 214 206 267q121 244 121 487q0 138 -43 219q-42 80 -118 95q-67 13 -67 53
q1 55 98 55q172 0 268 -150q64 -101 64 -268q0 -235 -109 -481q322 -51 322 -344q0 -174 -135.5 -263.5t-292.5 -89.5zM282 -329q53 0 75 55.5t22 97.5q0 41 -22 98.5t-75 57.5q-52 0 -74.5 -57.5t-22.5 -98.5q0 -42 22 -97.5t75 -55.5z" />
    <glyph glyph-name="r1" unicode="&#xd43;" horiz-adv-x="809" 
d="M810 -161q0 -188 -159 -274q-94 -53 -243 -51q-141 2 -237 52q-141 76 -141 190q0 119 122.5 176t253.5 57q98 0 167 -29q-25 48 -61.5 91.5t-68.5 86.5q-100 133 -135 319q-18 98 -18 216q0 105 17 275q6 52 102 52q100 0 100 -55q0 -3 -0.5 -6t-0.5 -7
q-6 -65 -11 -130.5t-5 -131.5q0 -110 16 -197q31 -171 122 -293q56 -76 118.5 -158.5t61.5 -182.5zM408 -369q56 0 118 28t62 96q0 123 -179 123q-180 0 -180 -124q0 -123 179 -123z" />
    <glyph glyph-name="r2" unicode="&#xd44;" horiz-adv-x="690" 
d="M810 -172q0 -178 -158 -262q-100 -52 -243 -52q-139 0 -243 52q-136 70 -136 204q0 212 236 212q91 0 143 -46q52 46 152 46q-25 42 -57 79t-61 76q-102 138 -134 319q-18 101 -18 219q0 113 16 273q6 52 101 52q101 0 101 -54q0 -7 -1 -11q-15 -163 -15 -262
q0 -112 16 -201q32 -181 121 -292q63 -78 121.5 -161.5t58.5 -190.5zM409 -373q213 0 213 160q0 92 -71 90q-60 0 -60 -120q0 -44 -82 -44q-77 0 -77 44q0 120 -63 120q-69 0 -69 -102q0 -84 70 -116t139 -32z" />
    <glyph glyph-name="e1" unicode="&#xd46;" horiz-adv-x="1334" 
d="M938 -24q-40 0 -70 17q-29 17 -29 39q0 24 30 40q207 110 207 396q0 422 -410 422q-341 0 -382 -349q83 76 208 76q160 0 257 -101q81 -84 81 -213q0 -157 -109 -246q-100 -81 -245 -81q-135 0 -233 79q-163 130 -163 405q0 257 171.5 398.5t414.5 141.5
q244 0 426 -138.5t182 -393.5q0 -328 -252 -470q-39 -22 -84 -22zM481 87q80 0 117 70t37 137q0 68 -36 137.5t-118 69.5t-118.5 -69.5t-36.5 -137.5t36.5 -137.5t118.5 -69.5z" />
    <glyph glyph-name="e2" unicode="&#xd47;" horiz-adv-x="1021" 
d="M611 -24q-531 0 -531 513q0 511 531 511q137 0 222 -45q129 -68 128 -198q-2 -220 -267 -220q-257 0 -257 215q0 57 25 104q-98 -52 -139 -158.5t-41 -209.5t41 -209t139 -159q-25 47 -25 104q0 215 257 215q265 0 267 -220q1 -130 -128 -198q-85 -45 -222 -45zM695 649
q73 0 75 106q3 112 -75 112q-75 0 -75 -107q0 -111 75 -111zM695 109q78 0 75 112q-2 106 -75 106q-75 0 -75 -111q0 -107 75 -107z" />
    <glyph glyph-name="ai1" unicode="&#xd48;" horiz-adv-x="2665" 
d="M2249 -20q-40 0 -70 17q-29 17 -29 39q0 24 30 40q207 110 207 396q0 422 -410 422q-341 0 -382 -349q83 76 208 76q160 0 257 -101q81 -84 81 -213q0 -157 -109 -246q-100 -81 -245 -81q-135 0 -233 79q-163 130 -163 405q0 257 171.5 398.5t414.5 141.5
q244 0 426 -138.5t182 -393.5q0 -328 -252 -470q-39 -22 -84 -22zM1792 91q80 0 117 70t37 137q0 68 -36 137.5t-118 69.5t-118.5 -69.5t-36.5 -137.5t36.5 -137.5t118.5 -69.5zM938 -24q-40 0 -70 17q-29 17 -29 39q0 24 30 40q207 110 207 396q0 422 -410 422
q-341 0 -382 -349q83 76 208 76q160 0 257 -101q81 -84 81 -213q0 -157 -109 -246q-100 -81 -245 -81q-135 0 -233 79q-163 130 -163 405q0 257 171.5 398.5t414.5 141.5q244 0 426 -138.5t182 -393.5q0 -328 -252 -470q-39 -22 -84 -22zM481 87q80 0 117 70t37 137
q0 68 -36 137.5t-118 69.5t-118.5 -69.5t-36.5 -137.5t36.5 -137.5t118.5 -69.5z" />
    <glyph glyph-name="o1" unicode="&#xd4a;" horiz-adv-x="2606" 
d="M1414 423q-102 0 -102 55t102 55h449q102 0 102 -55t-102 -55h-449zM938 -17q-40 0 -70 17q-29 17 -29 39q0 24 30 40q207 110 207 396q0 422 -410 422q-341 0 -382 -349q83 76 208 76q160 0 257 -101q81 -84 81 -213q0 -157 -109 -246q-100 -81 -245 -81q-135 0 -233 79
q-163 130 -163 405q0 257 171.5 398.5t414.5 141.5q244 0 426 -138.5t182 -393.5q0 -328 -252 -470q-39 -22 -84 -22zM481 94q80 0 117 70t37 137q0 68 -36 137.5t-118 69.5t-118.5 -69.5t-36.5 -137.5t36.5 -137.5t118.5 -69.5zM2102 -20q-160 0 -269 103q-97 92 -97 205
q0 54 97 54q101 0 105 -53q5 -83 68 -149q46 -49 96 -49q83 -1 145 94q76 115 76 307q0 196 -81 310q-63 90 -140 90q-56 0 -100 -46q-59 -64 -63 -150q-3 -58 -104 -55q-98 3 -98 55q0 119 93 207q107 101 272 101q215 0 328 -163q96 -137 96 -349q0 -209 -88 -344
q-111 -168 -336 -168z" />
    <glyph glyph-name="o2" unicode="&#xd4b;" horiz-adv-x="2175" 
d="M961 421q-102 0 -102 55t102 55h449q102 0 102 -55t-102 -55h-449zM611 -24q-531 0 -531 513q0 511 531 511q137 0 222 -45q129 -68 128 -198q-2 -220 -267 -220q-257 0 -257 215q0 57 25 104q-98 -52 -139 -158.5t-41 -209.5t41 -209t139 -159q-25 47 -25 104
q0 215 257 215q265 0 267 -220q1 -130 -128 -198q-85 -45 -222 -45zM695 649q73 0 75 106q3 112 -75 112q-75 0 -75 -107q0 -111 75 -111zM695 109q78 0 75 112q-2 106 -75 106q-75 0 -75 -111q0 -107 75 -107zM1671 -18q-160 0 -269 103q-97 92 -97 205q0 54 97 54
q101 0 105 -53q5 -83 68 -149q46 -49 96 -49q83 -1 145 94q76 115 76 307q0 196 -81 310q-63 90 -140 90q-56 0 -100 -46q-59 -64 -63 -150q-3 -58 -104 -55q-98 3 -98 55q0 119 93 207q107 101 272 101q215 0 328 -163q96 -137 96 -349q0 -209 -88 -344
q-111 -168 -336 -168z" />
    <glyph glyph-name="uni0D4C" unicode="&#xd4c;" horiz-adv-x="3000" 
d="M1441 274q-102 0 -102 55t102 55h449q102 0 102 -55t-102 -55h-449zM2221 -27q-172 0 -319 75q-42 20 -42 47q0 20 29 37q31 17 73 17q39 0 71 -16q91 -49 188 -49q183 0 307 101q170 140 170 401q0 87 -38 193.5t-151 106.5q-122 0 -122 -168v-211q0 -55 -101 -55
q-102 0 -102 55v206q0 173 -133 173q-156 0 -154 -210q0 -87 41 -149q7 -10 7 -20q0 -38 -67 -51q-17 -4 -39 -4q-70 0 -100 52q-42 71 -42 172q0 321 354 321q155 0 234 -82q72 82 224 82q391 0 391 -411q0 -295 -204 -463q-89 -73 -211 -111q-120 -39 -264 -39zM938 -24
q-40 0 -70 17q-29 17 -29 39q0 24 30 40q207 110 207 396q0 422 -410 422q-341 0 -382 -349q83 76 208 76q160 0 257 -101q81 -84 81 -213q0 -157 -109 -246q-100 -81 -245 -81q-135 0 -233 79q-163 130 -163 405q0 257 171.5 398.5t414.5 141.5q244 0 426 -138.5
t182 -393.5q0 -328 -252 -470q-39 -22 -84 -22zM481 87q80 0 117 70t37 137q0 68 -36 137.5t-118 69.5t-118.5 -69.5t-36.5 -137.5t36.5 -137.5t118.5 -69.5z" />
    <glyph glyph-name="xx" unicode="&#xd4d;" horiz-adv-x="102" 
d="M-99 1085q-153 0 -245 86q-76 71 -76 167q0 48 100 48t100 -48q0 -158 121 -158t121 158q0 48 100 48t100 -48q0 -96 -76 -167q-92 -86 -245 -86z" />
    <glyph glyph-name="dotreph" unicode="&#xd4e;" horiz-adv-x="57" 
d="M153 1325q102 0 102 -103q0 -102 -102 -102q-103 0 -103 102q0 103 103 103z" />
    <glyph glyph-name="mlpara" unicode="&#xd4f;" horiz-adv-x="2298" 
d="M1204 -486h-28q-190 0 -404.5 59.5t-363.5 180.5q-328 264 -328 706q0 345 248 518q29 21 79 21q38 0 63 -11q39 -15 39 -45q0 -18 -22 -34q-203 -141 -203 -449q0 -365 236 -598q121 -118 307 -177t355 -59h20q194 0 391 76t300 242q122 195 122 424q0 182 -55 318
q-80 202 -270 202q-213 0 -213 -250v-606q0 -55 -101 -55t-101 55v578q0 279 -297 279q-196 0 -295 -197q-35 -69 -46 -150q85 75 211 75q157 0 253 -101q81 -84 81 -213q0 -158 -109 -246q-97 -80 -245 -80q-135 0 -233 78q-162 130 -162 401q0 156 61 275q137 269 484 269
q101 1 210 -22t188 -91q136 113 314 113q325 0 450 -263q78 -164 78 -370q0 -290 -172 -516q-137 -181 -377 -259t-465 -78zM833 88q80 0 117 69.5t37 136.5q0 68 -36.5 137.5t-117.5 69.5t-118 -69.5t-37 -137.5t36.5 -137t118.5 -69z" />
    <glyph glyph-name="m1cil" unicode="&#xd54;" horiz-adv-x="1253" 
d="M1052 0h-851q-101 0 -101 56v514q0 183 131 299q70 62 173 96q-85 61 -85 168q0 133 100 190.5t215 57.5q237 0 333 -177q4 -8 4 -17q0 -56 -98 -56q-78 0 -100 40q-53 96 -140 96q-112 0 -112 -134q0 -114 180 -136q202 -24 320 -128q132 -116 132 -299v-514
q0 -56 -101 -56zM950 111v459q0 229 -198 297q93 -85 93 -232q1 -312 -290 -524h395zM303 111q341 167 341 525q0 62 -30.5 139t-108.5 78q-52 0 -102 -43q-100 -87 -100 -240v-459z" />
    <glyph glyph-name="y1cil" unicode="&#xd55;" horiz-adv-x="1994" 
d="M1631 916q119 -187 119 -367q0 -172 -80 -308q-153 -264 -489 -264q-129 0 -234 35q-112 -36 -242 -36q-314 0 -486 192q-139 155 -139 394q0 161 70 277q96 161 302 161q163 0 237 -115q94 115 258 115q168 0 283 -115q117 -116 117 -307q0 -163 -75 -299
q-61 -113 -162 -186q36 -6 71 -6q188 2 296 187q71 121 71 275q1 149 -107 326q-35 58 -63.5 118t-28.5 141q0 132 96.5 189.5t212.5 57.5q235 0 331 -175q5 -7 5 -17q0 -55 -99 -55q-77 0 -99 39q-54 96 -138 96q-111 0 -111 -132q0 -88 84 -221zM948 161q81 58 132 153
q65 122 65 264q0 149 -65 235q-56 76 -133 76q-105 0 -145 -107.5t-40 -201.5q0 -138 54 -255q46 -101 132 -164zM705 87q45 0 83 7q-97 73 -154 182q-72 138 -72 304q0 105 -10 171q-20 138 -100 138q-58 0 -110 -85q-59 -99 -59 -241q0 -214 119 -346q115 -130 303 -130z
" />
    <glyph glyph-name="zhcil" unicode="&#xd56;" horiz-adv-x="1242" 
d="M619 -24q-116 0 -220.5 62t-104.5 192q0 55 27 116q-241 115 -241 367q0 137 90 252q26 34 92 34q102 0 102 -56q0 -10 -9 -22q-72 -93 -72 -208q0 -157 111 -245q107 143 172 333q20 56 40 137t20 154q0 44 -10 77q-28 99 -117 99q-86 0 -140 -96q-22 -39 -97 -39
q-101 0 -101 54q0 7 5 17q96 177 333 177q160 0 239 -76q74 -69 77 -186q2 -63 -11 -119q10 1 37 1q149 0 243 -101q78 -85 78 -212q0 -241 -245 -348q26 -54 26 -114q0 -134 -104 -192t-220 -58zM839 453q121 78 121 237q0 99 -53 158q-34 39 -66 39t-65 -36
q-49 -56 -49 -150q0 -113 112 -248zM564 398q24 -4 50 -4q17 0 51 2q-20 27 -50 79q0 1 -23 -34.5t-28 -42.5zM616 87q128 0 128 131q0 34 -14 71q-51 -6 -116 -6q-52 0 -107 8q-13 -39 -13 -77q2 -127 122 -127z" />
    <glyph glyph-name="au2" unicode="&#xd57;" horiz-adv-x="1343" 
d="M584 -24q-172 0 -319 75q-42 20 -42 47q0 20 29 37q31 17 73 17q39 0 71 -16q91 -49 188 -49q183 0 307 101q170 140 170 401q0 87 -38 193.5t-151 106.5q-122 0 -122 -168v-211q0 -55 -101 -55q-102 0 -102 55v206q0 173 -133 173q-156 0 -154 -210q0 -87 41 -149
q7 -10 7 -20q0 -38 -67 -51q-17 -4 -39 -4q-70 0 -100 52q-42 71 -42 172q0 321 354 321q155 0 234 -82q72 82 224 82q391 0 391 -411q0 -295 -204 -463q-89 -73 -211 -111q-120 -39 -264 -39z" />
    <glyph glyph-name="arakaani" unicode="&#xd58;" horiz-adv-x="2421" 
d="M1528 1388q519 0 730 -447q83 -178 83 -372q0 -249 -144 -421t-400 -172q-195 0 -315 116q-115 -116 -294 -116q-176 0 -292 117q-119 -116 -315 -116q-324 0 -450 261q-51 106 -51 249q0 371 287 498q33 15 73 15q50 0 77 -22q20 -16 20 -33q0 -28 -40 -45
q-114 -46 -164.5 -173t-50.5 -240q0 -111 35 -199q81 -200 264 -200q213 0 213 257v599q0 56 101 56q103 0 103 -56v-599q0 -85 43.5 -171t146.5 -86q105 0 149.5 84.5t44.5 171.5v599q0 56 101 56q102 0 102 -56v-599q0 -257 212 -257q182 0 262 165t80 317q0 181 -77 344
q-172 365 -534 365q-147 0 -256 -74q-30 -21 -78 -21q-37 0 -64 12q-38 17 -38 45q0 19 22 34q167 114 414 114z" />
    <glyph glyph-name="aramaa" unicode="&#xd59;" horiz-adv-x="1964" 
d="M912 -24q-150 0 -261 85.5t-111 244.5q0 146 108 221t239 75q93 0 201 -35q-22 89 -72 158q-120 164 -314 164q-223 0 -340 -173q-80 -116 -80 -277q0 -246 191 -371q24 -16 24 -35q0 -27 -37 -43q-31 -14 -63 -14q-50 0 -96 32q-221 158 -221 431q0 194 106 334
q170 227 516 227q332 0 502 -234q80 -111 99 -261q32 -3 68 -3q33 0 48 1q-85 63 -85 162q0 116 92.5 173.5t192.5 57.5q103 0 194 -57.5t91 -173.5q0 -153 -187 -227q-121 -49 -302 -49q-61 0 -108 4q-9 -172 -107.5 -294.5t-287.5 -122.5zM1619 545q92 0 90 120
q0 120 -90 120t-90 -120t90 -120zM912 87q106 0 149.5 133t43.5 212q-48 20 -107 39.5t-111 18.5q-144 -1 -144 -184q0 -68 44 -143.5t125 -75.5z" />
    <glyph glyph-name="muunnukaani" unicode="&#xd5a;" horiz-adv-x="2081" 
d="M897 -24q-101 0 -101 56v598q0 259 -214 259q-185 0 -264 -200q-35 -85 -35 -200q0 -114 50 -240t165 -173q40 -17 40 -45q0 -19 -20 -33q-30 -22 -79 -22q-39 0 -68 13q-291 124 -291 499q0 141 52 251q124 261 450 261q208 0 324 -111q135 110 428 110q142 0 283.5 -24
t231.5 -104q132 -117 132 -301v-514q0 -56 -102 -56h-695q-108 0 -108 56q0 29 45 46q143 52 246.5 214.5t103.5 313.5q0 259 -231 259q-242 0 -242 -283v-574q0 -56 -101 -56zM1778 112v458q0 154 -101 242q-36 32 -95 54q90 -84 90 -237q0 -305 -291 -517h397z" />
    <glyph glyph-name="orumaa" unicode="&#xd5b;" horiz-adv-x="1732" 
d="M1280 1012q42 0 76 -17q296 -146 296 -479q0 -236 -171 -376t-395 -140t-395 140.5t-171 375.5q0 222 160 373h-377v-833q0 -56 -101 -56q-102 0 -102 56v889q0 55 102 55h686q102 0 102 -56q0 -23 -34 -40q-232 -111 -232 -388q0 -160 95.5 -283t266.5 -123
q172 0 267 122.5t95 283.5q0 289 -232 399q-35 17 -35 42q0 20 26 36q31 19 73 19z" />
    <glyph glyph-name="rantumaa" unicode="&#xd5c;" horiz-adv-x="2854" 
d="M2303 -24q-192 0 -285 98q-106 112 -104 404q1 79 0 168.5t-47 157.5q-56 85 -146 85q-89 0 -146 -84q-47 -72 -47 -159t1 -169q1 -112 -7.5 -213.5t-101.5 -186.5q-111 -101 -287 -101q-181 0 -291 106q-87 83 -96.5 185t-8.5 211q2 101 -19.5 256t-167.5 155
q-87 0 -161 -85q-107 -121 -107 -320q0 -118 58 -238.5t173 -170.5q38 -17 38 -44q0 -20 -23 -34q-31 -21 -77 -21q-38 0 -69 14q-302 135 -302 494q0 252 158 400q125 116 313 116q261 0 326 -151.5t63 -369.5q-1 -78 2 -163.5t51 -151.5q56 -77 140 -77q87 0 141 77
q47 68 50 151.5t2 162.5q-1 110 5 215.5t89 190.5q113 116 301 116q192 0 304 -118q82 -85 87 -190.5t4 -213.5q-1 -65 6.5 -157.5t47.5 -157.5q46 -76 134 -76q82 0 155 78q113 123 113 327q0 308 -231 409q-38 17 -38 44q0 19 23 34q32 21 77 21q38 0 69 -14
q302 -135 302 -494q0 -268 -176 -416q-119 -100 -295 -100z" />
    <glyph glyph-name="muunnumaa" unicode="&#xd5d;" horiz-adv-x="3892" 
d="M1244 837q109 163 345 163q247 0 333 -164q58 -112 56 -357q0 -78 3 -163.5t51 -151.5q54 -77 140 -77t140 77q48 68 51 151.5t2 162.5q-1 89 1.5 185t54.5 174q108 163 339 163q192 0 304 -118q82 -85 87 -190.5t4 -213.5q-1 -64 5.5 -155.5t45.5 -156.5q47 -79 137 -79
q81 0 153 77q115 124 115 328q0 308 -231 409q-38 17 -38 44q0 20 23 34q32 21 77 21q38 0 69 -14q302 -135 302 -494q0 -264 -172 -412q-120 -104 -299 -104q-200 0 -292 105q-99 112 -97 397q0 79 -1 168.5t-46 157.5q-56 85 -146 85q-114 0 -166 -122q-29 -67 -28 -143
t2 -147q1 -112 -7.5 -213.5t-101.5 -186.5q-111 -101 -287 -101q-180 0 -292 106q-86 83 -95.5 185t-8.5 211q1 57 -2 139t-29 151q-46 121 -157 121q-116 0 -171 -122q-29 -66 -28 -142.5t1 -147.5q1 -112 -7 -214t-101 -186q-111 -101 -287 -101q-185 0 -297 111
q-111 -105 -290 -105q-206 0 -319 132q-10 11 -10 23q0 36 59 50q22 5 43 5q66 0 92 -32q58 -67 134 -67q96 0 144 83t48 165v603q0 56 101 56q102 0 102 -56v-603q0 -83 47.5 -168.5t145.5 -85.5q85 0 141 77q48 67 50.5 152t1.5 164q-1 89 2 184t54 173z" />
    <glyph glyph-name="naalumaa" unicode="&#xd5e;" horiz-adv-x="2580" 
d="M912 -24q-150 0 -261 85.5t-111 244.5q0 146 114 221t247 75q79 0 187 -35q-22 89 -72 158q-120 164 -314 164q-223 0 -340 -173q-80 -116 -80 -277q0 -246 191 -371q24 -16 24 -35q0 -27 -37 -43q-31 -14 -63 -14q-51 0 -96 32q-221 157 -221 431q0 194 106 334
q170 227 512 227q337 0 506 -234q79 -109 98 -262q24 -6 39 -6q188 0 188 209q0 152 -122 208q-30 14 -30 36q1 45 82 45l543 -2q82 0 82 -44q0 -21 -38 -38q-112 -54 -112 -205q0 -215 203 -215q200 0 200 215q0 160 -127 209q-35 14 -35 38q0 13 15 25q26 20 66 20
q28 0 47 -8q197 -76 197 -284q0 -153 -113 -229.5t-250 -76.5q-136 0 -251 76.5t-115 229.5q0 112 72 198h-225q74 -85 74 -198q0 -140 -102 -226t-236 -86q-24 0 -47 3q-18 -422 -395 -422zM912 87q106 0 149.5 133t43.5 212q-105 59 -204 59q-158 0 -158 -185
q0 -68 44 -143.5t125 -75.5z" />
    <glyph glyph-name="ml_ii_archaic" unicode="&#xd5f;" horiz-adv-x="2664" 
d="M1555 -24q-212 0 -318 153q-66 98 -66 229q0 158 92 276q110 143 311 176q-100 79 -233 79q-223 0 -341 -173q-78 -115 -80 -274q0 -248 191 -374q24 -16 24 -35q0 -27 -36 -43q-33 -14 -64 -14q-50 0 -96 32q-221 157 -221 434q0 189 106 331q172 227 517 227
q391 0 545 -303q60 -119 60 -270q0 -164 -74 -284q-104 -167 -317 -167zM360 238q-280 0 -280 250t280 250t280 -250t-280 -250zM2304 238q-280 0 -280 250t280 250t280 -250t-280 -250zM1555 88q67 0 125 91q64 103 64 248q0 163 -77 281q-133 -8 -218 -117
q-76 -98 -76 -233q0 -112 54 -190q54 -80 128 -80zM360 341q97 0 97 147t-97 147t-97 -147t97 -147zM2304 341q97 0 97 147t-97 147t-97 -147t97 -147z" />
    <glyph glyph-name="ml_rr" unicode="&#xd60;" horiz-adv-x="1557" 
d="M774 -412q-163 0 -394.5 77.5t-231.5 287.5q0 108 85.5 176t179.5 100q-70 23 -124 56q-209 128 -209 366q0 349 328 349q156 0 252 -95q81 -79 81 -187q0 -134 -96 -212q-87 -71 -228 -71q-53 0 -104 18q62 -88 186 -128q107 -34 275 -34q178 0 285 34q122 38 185 128
q-51 -18 -104 -18q-141 0 -228 71q-96 78 -96 211q0 110 81 188q96 95 250 95q142 0 226 -78q104 -94 104 -271q0 -238 -209 -366q-54 -33 -124 -56q95 -32 180 -100t85 -176q0 -208 -237.5 -286.5t-397.5 -78.5zM409 551q130 0 130 166q0 167 -130 167t-130 -168
q0 -165 130 -165zM1148 551q130 0 130 166q0 167 -130 167t-130 -165q0 -168 130 -168zM774 -300q115 0 273.5 54t158.5 196q0 141 -163.5 186t-268.5 45q-106 0 -264.5 -45t-158.5 -185q0 -141 154.5 -196t268.5 -55zM664.593 133.4q73.1963 0 113.396 -31.7979
q40.1982 31.7979 113.395 31.7979q122.396 0 167.993 -92.3955q18.5996 -37.7988 18.5996 -85.7969q0 -132.595 -104.996 -176.393q-12.5986 -5.39941 -30.5986 -5.39941q-22.1992 0 -34.1982 8.39941q-7.7998 5.39941 -7.7998 11.999q0 10.2002 15.5996 16.1992
q76.1963 31.1992 76.1963 145.795q0 37.1982 -11.999 67.1973q-28.7988 68.9971 -88.7969 68.9971q-70.7969 0 -70.7969 -85.1973v-212.391q0 -20.999 -42.5977 -20.999q-42.5986 0 -42.5986 20.999v212.391q0 85.1973 -70.7969 85.1973q-59.998 0 -88.7969 -68.9971
q-11.999 -29.999 -11.999 -67.1973q0 -114.596 76.1963 -145.795q15.5996 -5.99902 15.5996 -16.1992q0 -6.59961 -7.7998 -11.999q-11.999 -8.39941 -34.1982 -8.39941q-17.999 0 -30.5986 5.39941q-104.996 43.1982 -104.996 176.393q0 47.998 18.5996 85.7969
q45.5977 92.3955 167.993 92.3955z" />
    <glyph glyph-name="ml_ll" unicode="&#xd61;" horiz-adv-x="2407" 
d="M1610 -24q-212 0 -316 153q-67 98 -67 229q0 155 92 276q110 142 311 176q-106 80 -236 80q-270 0 -270 -287v-571q0 -56 -101 -56t-101 56v571q0 285 -297 285q-194 0 -295 -198q-36 -70 -45 -151q82 76 206 76q160 0 257 -102q81 -84 81 -210q0 -157 -108 -245
q-100 -81 -246 -81q-136 0 -232 78q-163 133 -163 402q0 153 61 272q138 271 484 271q100 0 212 -29t185 -103q137 132 372 132q305 0 475 -196q229 -48 343.5 -217.5t114.5 -385.5q0 -272 -162.5 -442.5t-438.5 -170.5q-227 0 -375 117q-19 15 -19 31q0 28 44 46
q28 10 59 10q52 0 82 -23q87 -69 209 -69q202 0 300.5 159t98.5 337q0 256 -145 402q21 -81 21 -168q0 -167 -74 -287q-101 -167 -317 -167zM1608 87q71 0 127 92q64 104 64 247q0 163 -76 281q-132 -6 -218 -116q-75 -99 -75 -233q0 -113 53 -190q54 -81 125 -81zM480 88
q154 0 154 202q0 68 -36 138t-118 70q-80 0 -117 -70t-37 -138q0 -202 154 -202z" />
    <glyph glyph-name="l1" unicode="&#xd62;" horiz-adv-x="99" 
d="M-344 -636q-139 0 -203 91q-40 58 -40 133q0 89 56 161q64 81 185 103q-61 44 -129 44q-152 0 -152 -149v-348q0 -35 -72 -35q-70 0 -70 35v347q0 149 -171 149q-105 0 -165 -113q-16 -31 -24 -69q47 28 111 28q105 0 165 -60q48 -49 48 -125q0 -92 -66 -143
q-62 -49 -153 -49q-90 -2 -154 48q-97 76 -97 236q0 88 36 157q84 157 299 159q157 2 241 -61q84 61 224 61q200 0 304 -126q70 -85 70 -214q0 -91 -44 -161q-63 -99 -199 -99zM-344 -567q36 0 66 49q34 60 34 142q0 99 -43 164q-70 -7 -114 -68q-41 -55 -41 -132
q0 -53 17 -93q27 -62 81 -62zM-1024 -567q81 2 81 119t-82 117t-82 -118q0 -120 83 -118z" />
    <glyph glyph-name="l2" unicode="&#xd63;" horiz-adv-x="150" 
d="M-376.477 -712.238q-162.559 0 -242.304 103.517q-51.375 66.3037 -51.375 154.936q0 104.869 70.5439 186.734q84.3467 96.0732 238.471 119.077q-81.2793 54.126 -180.962 54.126q-207.031 0 -207.031 -194.177v-386.324q0 -37.8887 -77.4453 -37.8887
t-77.4453 37.8887v386.324q0 192.824 -227.735 192.824q-148.756 0 -226.201 -133.962q-27.6045 -47.3604 -34.5059 -102.163q62.877 51.4199 157.958 51.4199q122.686 0 197.063 -69.0107q62.1094 -56.832 62.1094 -142.081q0 -106.222 -82.8125 -165.761
q-76.6787 -54.8027 -188.629 -54.8027q-104.282 0 -177.894 52.7734q-124.986 89.9844 -124.986 271.982q0 103.517 46.7734 184.028q105.816 183.352 371.124 183.352q76.6787 0 162.559 -19.6201q85.8799 -19.6211 141.855 -69.6875q105.049 89.3076 285.243 89.3076
q233.87 0 364.223 -132.608q175.594 -32.4756 263.391 -147.154q87.7969 -114.68 87.7969 -260.82q0 -184.028 -124.603 -299.384q-124.603 -115.356 -336.234 -115.356q-174.061 0 -287.545 79.1592q-14.5684 10.1484 -14.5684 20.9746q0 18.9434 33.7383 31.1221
q21.4697 6.76562 45.2402 6.76562q39.873 0 62.876 -15.5615q66.7109 -46.6836 160.259 -46.6836q154.891 0 230.418 107.575q75.5283 107.576 75.5283 228.006q0 173.203 -111.184 271.983q16.1025 -54.8027 16.1025 -113.665q0 -112.987 -56.7422 -194.177
q-77.4453 -112.988 -243.07 -112.988zM-378.01 -637.138q54.4414 0 97.3809 62.2441q49.0742 70.3643 49.0742 167.114q0 110.282 -58.2754 190.117q-101.216 -4.05859 -167.159 -78.4824q-57.5088 -66.9805 -57.5088 -157.642q0 -76.4531 40.6396 -128.55
q41.4062 -54.8018 95.8486 -54.8018zM-1242.94 -636.461q118.085 0 118.085 136.668q0 46.0068 -27.6045 93.3672t-90.4805 47.3604q-61.3428 0 -89.7139 -47.3604t-28.3711 -93.3672q0 -136.668 118.085 -136.668z" />
    <glyph glyph-name="ml_0" unicode="&#xd66;" horiz-adv-x="1133" 
d="M566 -24q-226 0 -346 152t-120 360t120 360t346 152q227 0 347 -152t120 -360t-120 -360t-347 -152zM566 87q142 0 203 144.5t61 256.5t-61 256.5t-203 144.5q-141 0 -202 -144.5t-61 -256.5t61 -256.5t202 -144.5z" />
    <glyph glyph-name="ml_1" unicode="&#xd67;" horiz-adv-x="1508" 
d="M669 -412h-276q-117 0 -215 65t-98 195q0 120 100 191.5t217 71.5h95v494q0 191 134.5 293t316.5 102q179 0 322 -106.5t143 -294.5v-544q0 -55 -101 -55h-905q-118 0 -118 -130q0 -124 109 -124h276q101 0 101 -79t-101 -79zM1206 111v488q0 290 -265 290
q-247 0 -247 -284v-494h512z" />
    <glyph glyph-name="ml_2" unicode="&#xd68;" horiz-adv-x="1583" 
d="M452 -12q-42 0 -76 17q-296 146 -296 479q0 236 171 376t395 140t395 -143t171 -378q0 -217 -160 -368h349q102 0 102 -56q0 -55 -102 -55h-557q-102 0 -102 56q0 23 34 40q232 110 232 383q0 161 -94.5 286t-267.5 125q-172 0 -267 -122.5t-95 -283.5q0 -289 232 -399
q35 -17 35 -42q0 -20 -26 -36q-31 -19 -73 -19z" />
    <glyph glyph-name="ml_3" unicode="&#xd69;" horiz-adv-x="2052" 
d="M896 -24q-101 0 -101 56v608q0 249 -213 249q-183 0 -264 -201q-35 -87 -35 -199q0 -114 50 -240t165 -173q40 -17 40 -45q0 -18 -21 -33q-31 -22 -78 -22q-39 0 -68 13q-291 124 -291 500q0 139 52 249q125 262 450 262q203 0 314 -103q111 103 314 103
q219 0 347.5 -144t128.5 -350q0 -245 -149 -395h353q102 0 102 -56t-102 -56h-557q-105 0 -105 57q0 27 40 43q113 47 164 170.5t51 236.5q0 115 -66.5 249t-206.5 134q-212 0 -212 -249v-608q0 -56 -102 -56z" />
    <glyph glyph-name="ml_4" unicode="&#xd6a;" horiz-adv-x="1382" 
d="M397 -24q-51 0 -97 33q-220 164 -220 459q-1 228 155 369.5t377 163.5v324q0 56 101 56q102 0 102 -56v-327q487 -66 487 -546q0 -182 -99 -328.5t-300 -146.5q-291 0 -291 347v561q-329 -67 -329 -417q0 -268 191 -401q22 -15 22 -34q0 -27 -38 -44q-29 -13 -61 -13z
M903 87q113 0 154.5 139t41.5 224q0 350 -284 429v-555q0 -41 14.5 -139t73.5 -98z" />
    <glyph glyph-name="ml_5" unicode="&#xd6b;" horiz-adv-x="1952" 
d="M872 -402q-356 0 -574 226t-218 579q0 399 258 636.5t649 237.5q377 0 631 -244.5t254 -616.5q0 -248 -119 -453q-28 -49 -102 -49q-102 0 -102 56q0 8 5 18q113 188 113 428q0 293 -181 521t-499 228q-324 0 -514.5 -224t-190.5 -535q0 -253 146 -474.5t434 -221.5
q181 0 306.5 137.5t125.5 313.5q0 224 -176 261q-46 9 -129 9q-101 0 -101 57q0 56 101 56q73 0 120 12q132 34 132 148q0 94 -74 144q-64 44 -162 44q-180 0 -265.5 -144t-85.5 -302q0 -239 143 -388q12 -12 12 -26q0 -34 -54 -49q-22 -7 -49 -7q-61 0 -100 43
q-154 172 -154 427q0 558 553 558q173 0 295 -71q143 -81 143 -229t-145 -212q198 -92 198 -331q0 -256 -190.5 -409.5t-433.5 -153.5z" />
    <glyph glyph-name="ml_6" unicode="&#xd6c;" horiz-adv-x="2420" 
d="M1527 -412q-246 0 -413 114q-22 15 -22 34q0 28 38 45q27 12 64 12q47 0 78 -21q109 -74 255 -74q362 0 534 365q77 163 77 344q0 152 -79.5 317t-262.5 165q-212 0 -212 -257v-599q0 -56 -102 -56q-101 0 -101 56v599q0 87 -44.5 171.5t-149.5 84.5q-103 0 -146.5 -85.5
t-43.5 -171.5v-599q0 -56 -102 -56q-101 0 -101 56v599q0 257 -213 257q-185 0 -264 -200q-35 -85 -35 -199q0 -113 50.5 -239.5t164.5 -173.5q40 -17 40 -45q0 -17 -20 -33q-29 -22 -77 -22q-40 0 -73 15q-287 127 -287 498q0 143 51 249q126 261 450 261q196 0 315 -116
q114 117 291 117q179 0 294 -116q120 116 315 116q256 0 400 -172t144 -421q0 -197 -83 -372q-210 -447 -730 -447z" />
    <glyph glyph-name="ml_7" unicode="&#xd6d;" horiz-adv-x="1456" 
d="M642 -412q-215 0 -397 111q-27 17 -27 37q0 25 33 42q29 15 68 15q43 0 75 -19q119 -74 248 -74q128 0 241 70q119 74 194 195q97 158 97 354q0 278 -152 436q-132 135 -344 135q-353 0 -394 -359q84 78 207 78q160 0 258 -104q80 -86 80 -213q0 -168 -108 -256
q-100 -82 -245 -82q-136 0 -233 80q-163 134 -163 415q0 260 175.5 405.5t422.5 145.5q334 0 520 -191q178 -181 178 -493q0 -214 -108 -387q-89 -145 -234 -234q-174 -107 -392 -107zM480 67q80 0 117 72t37 139q0 69 -36 140.5t-118 71.5q-81 0 -117.5 -71.5t-36.5 -139.5
q0 -70 35.5 -141t118.5 -71z" />
    <glyph glyph-name="ml_8" unicode="&#xd6e;" horiz-adv-x="1732" 
d="M1104 -412q-215 0 -397 110q-26 16 -26 37q0 25 33 42q30 14 67 14q45 0 76 -18q118 -73 247 -73q189 0 277 143q47 74 47 157h-584q-102 0 -102 56q0 23 34 40q235 112 232 393q-1 155 -96.5 278t-265.5 123q-172 0 -267 -121.5t-95 -282.5q0 -291 232 -401
q35 -17 35 -42q0 -20 -26 -36q-31 -19 -73 -19t-76 17q-296 146 -296 481q0 236 171 375t395 139q226 0 394 -142t172 -369q3 -225 -160 -378h377v833q0 56 101 56q102 0 102 -56v-916q0 -128 -58 -221q-72 -118 -205 -168.5t-265 -50.5z" />
    <glyph glyph-name="ml_9" unicode="&#xd6f;" horiz-adv-x="1892" 
d="M1812 447q0 -172 -107.5 -321.5t-293.5 -149.5q-198 0 -237.5 95.5t-39.5 256.5v543q-137 -60 -137 -233v-606q0 -56 -101 -56q-102 0 -102 56v606q0 250 -212 250q-187 0 -264 -196q-35 -85 -35 -198q0 -115 50 -242.5t165 -175.5q39 -17 39 -45q0 -17 -20 -33
q-29 -22 -78 -22q-39 0 -68 13q-151 65 -221 207t-70 298q0 142 52 249q122 257 450 257q207 0 319 -112q91 85 233 105v332q0 56 101 56t101 -56v-329q476 -68 476 -549zM1411 88q104 1 152 140.5t47 218.5q0 136 -65.5 262t-208.5 167v-193.5t-0.5 -72.5t-0.5 -344
q0 -179 76 -178z" />
    <glyph glyph-name="ml_10" unicode="&#xd70;" horiz-adv-x="1918" 
d="M410 -412q-227 0 -323 138q-7 10 -7 21q0 56 100 56q71 0 96 -36q43 -65 134 -65q131 0 179 166q16 58 16 117q-247 45 -347 253q-52 105 -52 249q0 375 291 500q29 13 68 13q47 0 78 -22q21 -15 21 -33q0 -28 -40 -44q-115 -48 -165 -174t-50 -241q0 -113 35 -198
q80 -201 264 -201q212 0 212 249v608q0 56 102 56q101 0 101 -56v-608q0 -249 213 -249q184 0 264 201q35 85 35 199q0 115 -50 241t-165 173q-40 16 -40 44q0 18 21 33q31 22 78 22q39 0 68 -13q291 -126 291 -499q0 -140 -52 -250q-125 -262 -450 -262q-203 0 -314 103
q-82 -75 -214 -95q0 -93 -31 -172q-93 -224 -367 -224z" />
    <glyph glyph-name="ml_100" unicode="&#xd71;" horiz-adv-x="1834" 
d="M931 -412q-236 0 -403 114q-23 16 -23 35q0 27 38 44q27 12 64 12q48 0 79 -21q104 -72 245 -72q372 0 543 363q77 163 77 350q0 149 -59 274q-96 202 -282 202q-213 0 -213 -257v-599q0 -56 -101 -56q-102 0 -102 56v599q0 257 -212 257q-183 0 -264 -201
q-35 -87 -35 -198q0 -115 50 -240.5t165 -173.5q40 -17 40 -44q0 -18 -21 -33q-29 -22 -77 -22q-40 0 -73 15q-287 126 -287 498q0 139 52 249q125 261 450 261q195 0 314 -115q119 115 314 115q321 0 467 -263q77 -142 77 -324q0 -201 -84 -378q-211 -447 -739 -447z" />
    <glyph glyph-name="ml_1000" unicode="&#xd72;" horiz-adv-x="2551" 
d="M1478 -24q-150 0 -260.5 85.5t-110.5 244.5q0 146 108 221t239 75q93 0 200 -35q-23 91 -71 158q-119 164 -316 164q-270 0 -270 -284v-573q0 -55 -101 -55t-101 55v597q0 259 -213 259q-185 0 -264 -200q-35 -85 -35 -199q0 -115 50 -240t165 -173q40 -17 40 -44
q0 -18 -21 -33q-30 -23 -78 -23q-37 0 -68 14q-291 125 -291 498q0 145 52 250q125 260 450 260q208 0 324 -111q138 113 361 113q334 0 504 -234q80 -110 98 -261q33 -3 69 -3q33 0 48 1q-85 63 -85 162q0 116 92 173.5t192 57.5q103 0 194.5 -57.5t91.5 -173.5
q0 -153 -187 -227q-121 -49 -302 -49q-62 0 -109 4q-9 -172 -107.5 -294.5t-287.5 -122.5zM2185 545q90 0 90 120t-90 120q-89 0 -89 -120t89 -120zM1478 87q107 0 150 133t44 212q-48 20 -107 39.5t-111 18.5q-144 -1 -144 -184q0 -68 44 -143.5t124 -75.5z" />
    <glyph glyph-name="kaal" unicode="&#xd73;" horiz-adv-x="1446" 
d="M566 -24q-229 0 -357 152q-109 129 -109 344q0 198 114 340q130 164 356 164h715q101 0 101 -55q0 -56 -101 -56h-715q-93 0 -170 -97q-100 -125 -98 -296q0 -190 91 -298q74 -88 173 -88q90 0 158 75q97 104 97 298q0 138 -55 242q-5 10 -5 18q0 52 104 52q75 0 96 -40
q63 -120 63 -271q0 -220 -119 -349q-123 -135 -339 -135z" />
    <glyph glyph-name="ara" unicode="&#xd74;" horiz-adv-x="1661" 
d="M1193 -24q-204 0 -285 164q-42 83 -42 214q0 149 68 282q30 60 67.5 110.5t75.5 105.5q-128 45 -291 45q-93 -1 -197.5 -24.5t-175.5 -88.5q-110 -101 -129 -239q83 76 207 76q161 0 258 -102q80 -84 80 -210q0 -164 -108 -252q-98 -81 -245 -81q-135 0 -233 79
q-163 131 -163 408q0 258 216 413q103 74 235 102.5t257 28.5q181 0 354 -47q56 112 56 176q0 133 -106 133q-88 0 -144 -97q-22 -39 -97 -39q-101 0 -101 54q0 7 5 17q97 177 337 177q112 0 210 -57.5t98 -185.5q0 -107 -81 -245q142 -90 199 -197q63 -117 63 -263
q0 -156 -66 -272q-105 -185 -322 -185zM1193 88q50 0 88 50t56 90q42 91 42 207q0 101 -34 183q-29 72 -112 148q-31 -46 -60.5 -89t-52.5 -94q-52 -113 -52 -232q0 -89 19 -150q38 -113 106 -113zM481 88q80 0 116.5 71t36.5 138q0 68 -36.5 137.5t-117.5 69.5t-117.5 -70
t-36.5 -138q0 -69 36.5 -138.5t118.5 -69.5z" />
    <glyph glyph-name="mukkaal" unicode="&#xd75;" horiz-adv-x="2040" 
d="M1572 -24q-210 0 -291 179q-37 81 -37 179q0 169 70 306q34 65 76.5 120.5t82.5 116.5q-46 12 -85 12q-263 0 -263 -280v-578q0 -55 -101 -55t-101 55v578q0 280 -298 280q-196 0 -295 -197q-36 -70 -45 -151q82 76 206 76q160 0 258 -101q80 -84 80 -209
q0 -163 -108 -250q-100 -81 -240 -81q-139 -2 -238 79q-163 130 -163 405q0 152 61 271q139 269 484 269q249 0 399 -127q149 127 364 127q74 0 147 -16q42 86 42 156q0 129 -111 129q-83 0 -138 -97q-22 -39 -94 -39q-104 0 -104 55q0 7 5 17q97 176 331 176
q113 0 213 -58.5t100 -182.5q0 -100 -69 -227q141 -87 202 -231q48 -114 48 -245q0 -167 -77 -291q-105 -170 -311 -170zM1572 88q82 0 138 131q48 108 48 218q2 103 -35 200q-29 78 -97 148q-34 -49 -69 -97.5t-60 -103.5q-51 -114 -51 -250q0 -71 19 -131
q39 -115 107 -115zM481 87q80 0 116.5 71t36.5 139q0 67 -36.5 135t-116.5 68q-81 0 -118 -69t-37 -137t36.5 -137.5t118.5 -69.5z" />
    <glyph glyph-name="maakaani" unicode="&#xd76;" horiz-adv-x="2436" 
d="M320 -18q-39 0 -70 14q-170 80 -170 268q0 149 116.5 225.5t255.5 76.5t254.5 -77t115.5 -226q0 -88 -44 -158h524v459q0 183 132 299q148 131 395 131q246 0 395 -131q132 -116 132 -299v-514q0 -56 -102 -56h-1647q-102 0 -102 56q0 22 29 39q85 47 85 174
q0 192 -167 192q-169 0 -169 -192q0 -140 99 -182q38 -17 38 -44q0 -18 -23 -34q-31 -21 -77 -21zM2153 105v459q0 229 -198 297q91 -84 93 -232q1 -309 -290 -524h395zM1506 105q341 166 341 525q0 62 -30.5 139t-108.5 78q-54 0 -102 -43q-100 -86 -100 -240v-459z" />
    <glyph glyph-name="arakkaal" unicode="&#xd77;" horiz-adv-x="3076" 
d="M319 -18q-38 0 -69 14q-170 78 -170 268q0 149 116 225.5t255 76.5t254.5 -77t115.5 -226q0 -89 -43 -158h273q-146 147 -146 388q0 135 52 245q122 256 450 256q196 0 316 -104q118 104 330 104q308 0 464 -199q39 -50 63 -111q18 -44 26 -100l40 -2q94 -5 174 45
q30 18 75 18q40 0 68 -15q33 -17 33 -42q0 -22 -27 -38q-142 -86 -320 -81l-39 1q-4 -45 -11 -73q-66 -274 -353 -274q-130 0 -237.5 71.5t-107.5 213.5q0 131 104 194t217 63q74 0 167 -25q-20 63 -58 109q-103 132 -276 132q-233 0 -233 -223v-477q0 -57 -101 -57t-101 57
v453q0 249 -213 249q-186 0 -264 -195q-35 -87 -35 -195q0 -115 50 -233t165 -166q40 -17 40 -43q0 -57 -99 -57h-658q-101 0 -101 56q0 23 28 39q85 48 85 174q0 192 -166 192q-169 0 -169 -192q0 -140 99 -182q38 -17 38 -44q0 -18 -23 -34q-31 -21 -78 -21zM2246 237
q63 0 101.5 61.5t50.5 113.5q11 46 11 93q-38 12 -90.5 29t-96.5 16q-118 -1 -118 -142q0 -171 142 -171z" />
    <glyph glyph-name="muntaani" unicode="&#xd78;" horiz-adv-x="4150" 
d="M2929 763q-54 126 -169 126q-112 0 -166 -122q-28 -67 -27 -143t1 -147q2 -112 -6.5 -213.5t-101.5 -186.5q-113 -101 -288 -101q-179 0 -291 106q-86 83 -95.5 185t-8.5 211q1 56 -2.5 138t-28.5 150q-46 123 -157 123q-116 0 -171 -122q-29 -66 -28 -142.5t1 -147.5
q1 -112 -7 -214t-101 -186q-111 -101 -287 -101q-185 0 -297 111q-111 -105 -290 -105q-206 0 -319 132q-10 11 -10 23q0 36 59 50q22 5 43 5q66 0 92 -32q58 -67 134 -67q96 0 144 83t48 165v603q0 56 101 56q102 0 102 -56v-603q0 -83 47.5 -168.5t145.5 -85.5
q85 0 141 77q48 67 50.5 152t1.5 164q-1 89 1.5 184t54.5 173q109 163 345 163q248 0 334 -166q57 -112 55 -355q0 -78 3 -163.5t50 -151.5q56 -77 140 -77q87 0 141 77q48 68 51 151.5t2 162.5q-1 89 1.5 185t54.5 174q108 163 338 163q189 0 301 -115q75 70 192 92.5
t213 22.5q119 0 250 -25.5t222 -105.5q132 -117 132 -298v-516q0 -55 -102 -55h-715q-108 0 -108 55q0 30 45 47q149 54 259.5 211t110.5 317q0 249 -199 249q-122 0 -166 -109q-37 -89 -37 -179v-130q0 -56 -101 -56q-102 0 -102 56v132q0 107 -26 170zM3867 111v460
q0 151 -101 239q-40 35 -95 56q90 -83 90 -237q0 -304 -291 -518h397z" />
    <glyph glyph-name="datemark" unicode="&#xd79;" horiz-adv-x="2176" 
d="M1875 425q1 -183 -97 -322t-298 -139q-144 0 -258 85.5t-114 239.5q0 188 128 256.5t294 68.5h112q-22 64 -59 116q-117 169 -314 169q-272 0 -272 -290v-588q0 -57 -101 -57t-101 57v611q0 265 -213 265q-183 0 -264 -205q-35 -90 -35 -203q0 -115 49.5 -244.5
t165.5 -178.5q40 -17 40 -45q0 -19 -21 -34q-30 -23 -78 -23q-37 0 -68 14q-151 66 -221 209.5t-70 300.5q0 145 52 255q126 267 450 267q208 0 324 -113q137 115 363 115q332 0 502 -240q51 -69 77 -158h166q102 0 102 -57t-102 -57h-144q5 -38 5 -75zM1479 77
q104 0 148.5 134t44.5 215q0 44 -5 74h-137q-219 0 -219 -211q0 -70 45 -141t123 -71z" />
    <glyph glyph-name="nhcil" unicode="&#xd7a;" horiz-adv-x="2626" 
d="M2158 -24q-210 0 -291 179q-37 84 -37 186q0 160 71 299q34 65 76.5 120t82.5 116q-45 12 -92 12q-257 -3 -257 -272v-584q0 -56 -101 -56q-102 0 -102 56v608q0 87 -47.5 167.5t-143.5 80.5q-104 0 -148.5 -86t-44.5 -172v-599q0 -55 -101 -55t-101 55v578
q0 279 -297 279q-196 0 -295 -197q-35 -69 -46 -150q83 75 211 75q157 0 253 -101q81 -84 81 -213q0 -157 -109 -245q-100 -81 -244 -81q-136 0 -233 78q-163 131 -163 406q0 151 61 270q137 269 484 269q254 0 389 -119q119 120 303 120q194 0 303 -119q127 119 348 119
q75 0 154 -17q41 90 41 155q0 131 -111 131q-82 0 -138 -96q-22 -40 -95 -40q-103 0 -103 55q0 7 5 17q97 176 331 176q112 0 212.5 -57.5t100.5 -185.5q0 -100 -69 -225q141 -87 202 -230q48 -112 48 -246q0 -167 -76 -290q-106 -171 -312 -171zM2158 88q82 0 138 131
q48 112 48 218q0 108 -35 200q-31 81 -97 147q-34 -49 -68.5 -97t-59.5 -103q-52 -113 -52 -243q0 -80 19 -138q37 -115 107 -115zM480 87q80 0 117 69.5t37 136.5q0 68 -36 137.5t-118 69.5q-81 0 -117.5 -69t-36.5 -137q0 -207 154 -207z" />
    <glyph glyph-name="n1cil" unicode="&#xd7b;" horiz-adv-x="1912" 
d="M1444 -24q-210 0 -291 179q-37 81 -37 186q0 159 71 299q34 65 76.5 120.5t82.5 116.5q-46 12 -85 12q-264 0 -264 -280v-577q0 -56 -101 -56q-102 0 -102 56v612q0 244 -210 244q-188 0 -266 -196q-35 -88 -35 -199q0 -115 50 -242t165 -175q40 -17 40 -45
q0 -18 -21 -33q-31 -22 -78 -22q-39 0 -68 13q-291 125 -291 504q0 143 52 250q122 257 452 257q210 0 323 -118q128 118 354 118q73 0 147 -16q41 88 41 156q0 129 -111 129q-83 0 -138 -97q-22 -39 -99 -39q-99 0 -99 55q0 7 5 17q97 176 331 176q112 0 212.5 -58
t100.5 -183q0 -98 -69 -227q141 -87 202 -231q48 -111 48 -245q0 -167 -76 -290q-106 -171 -312 -171zM1444 88q82 0 138 131q48 112 48 218q0 108 -35 200q-32 83 -97 148q-34 -49 -68.5 -97.5t-59.5 -103.5q-52 -113 -52 -243q0 -80 19 -138q37 -115 107 -115z" />
    <glyph glyph-name="r3cil" unicode="&#xd7c;" horiz-adv-x="1396" 
d="M928 -24q-204 0 -285 164q-43 85 -43 201q0 157 69 295q32 64 73.5 119.5t81.5 113.5q-60 21 -136 21q-184 0 -294.5 -140t-110.5 -313q0 -242 181 -371q22 -15 22 -34q0 -27 -38 -44q-27 -12 -64 -12q-49 0 -78 21q-226 157 -226 440q0 265 179 414.5t429 149.5
q114 0 202 -24q43 90 43 163q0 129 -106 129q-88 0 -144 -97q-22 -39 -94 -39q-104 0 -104 54q0 7 5 17q99 177 337 177q113 0 210.5 -58t97.5 -183q0 -110 -74 -237q140 -89 202 -227q53 -117 53 -252q0 -147 -66 -263q-105 -185 -322 -185zM928 88q50 0 88 50t56 90
q41 89 41 197t-34 195q-33 86 -103 156q-33 -48 -65 -94t-56 -99q-52 -113 -52 -242q0 -83 19 -140q38 -113 106 -113z" />
    <glyph glyph-name="l3cil" unicode="&#xd7d;" horiz-adv-x="2102" 
d="M389 -24q-49 0 -97 28q-212 127 -212 423q0 163 69 294q149 280 492 280q127 0 230 -37q96 33 195 41.5t199 8.5q178 0 326 -46q48 100 48 169q0 132 -108 132q-86 0 -139 -95q-21 -37 -98 -39q-101 0 -101 54q0 7 5 17q97 175 333 175q113 0 211.5 -58t98.5 -186
q0 -108 -81 -248q153 -100 218 -252q44 -102 44 -216q0 -180 -98 -305q-106 -138 -289 -138q-174 0 -260 120q-70 96 -70 243q0 161 78 308q30 57 67 108t75 103q-111 43 -260 43q-153 0 -236 -20q230 -170 230 -475q0 -144 -59 -249q-100 -181 -329 -181q-227 0 -327 180
q-59 105 -59 250q0 304 228 475q-40 7 -72 7q-193 2 -297 -194q-62 -115 -62 -275q0 -98 38 -199t132 -149q32 -17 32 -41t-26 -38q-30 -18 -69 -18zM871 89q79 0 136 102q50 90 50 217q0 264 -186 405q-184 -140 -184 -405q0 -128 50 -218q54 -101 134 -101zM1635 89
q60 0 118 93q67 110 67 239q1 194 -146 341q-78 -106 -105 -161q-62 -124 -62 -260q0 -78 26 -151q37 -101 102 -101z" />
    <glyph glyph-name="lhcil" unicode="&#xd7e;" horiz-adv-x="1905" 
d="M1442 -24q-200 0 -283 153q-50 90 -50 212q0 156 75 306q34 68 73 120t79 112q-47 11 -98 11q-182 0 -261 -148q-37 -69 -41 -129t-4 -136q0 -208 -65.5 -354.5t-319.5 -146.5q-217 0 -342 145t-125 356q0 387 332 511q30 12 67 12q52 0 81 -25q16 -13 16 -30
q0 -30 -46 -47q-124 -44 -186 -170.5t-62 -250.5q0 -112 64.5 -251t200.5 -139q146 -1 165.5 143.5t17.5 246.5q-1 95 7 169.5t64 156.5q133 197 437 199q84 0 161 -16q43 84 43 154q0 129 -111 129q-86 0 -137 -96q-21 -38 -97 -38q-102 0 -102 53q0 7 5 17q97 176 331 176
q172 0 260 -100q54 -60 54 -141q0 -95 -70 -219q138 -85 199 -228q51 -117 51 -253q0 -189 -93 -319q-102 -145 -290 -145zM1444 87q54 0 111 90q68 112 68 267q0 106 -40 208q-31 79 -90 139q-36 -52 -71 -103t-61 -110q-49 -114 -49 -237q0 -82 21 -146q36 -108 111 -108z
" />
    <glyph glyph-name="k1cil" unicode="&#xd7f;" horiz-adv-x="1925" 
d="M1508 -24q-164 0 -246 101q-108 -101 -299 -101q-192 0 -300 101q-82 -101 -244 -101q-160 0 -259 96q-81 78 -81 186q0 120 82 200q104 103 307 103h64q9 153 65 254q105 185 366 185q275 0 374 -203q33 50 58 92q29 48 62 118t33 128q0 134 -109 134q-86 0 -140 -96
q-21 -38 -99 -38q-99 0 -99 54q0 7 5 17q97 175 331 175q113 0 213 -58t100 -188q0 -92 -49 -178.5t-106 -167.5q-41 -58 -78 -114t-54 -114h52q203 0 307 -103q82 -80 82 -200q0 -108 -81 -186q-99 -96 -257 -96zM1191 561q-7 116 -56.5 221.5t-171.5 105.5
q-124 0 -172.5 -107t-56.5 -220h457zM1508 88q42 0 81 39q54 51 54 131q0 90 -56 145q-46 46 -130 46h-62q-3 -68 -14 -127q-4 -20 -4 -47q0 -93 52 -148q35 -39 79 -39zM419 88q40 0 77 39q52 56 52 150q0 26 -4 46q-12 72 -13 126h-63q-84 0 -130 -46q-56 -55 -56 -145
q0 -80 54 -131q41 -39 83 -39zM963 88q131 0 178 118.5t51 242.5h-459q5 -126 52.5 -243.5t177.5 -117.5z" />
    <glyph glyph-name="ZWNJ" unicode="&#x200c;" horiz-adv-x="321" 
d="M66 992h159v-989h-159v989z" />
    <glyph glyph-name="ZWJ" unicode="&#x200d;" horiz-adv-x="321" 
d="M148 1003l-134 -208h-104l186 272l-172 248h109l78 -121q4 -6 34 -59l125 180h107l-178 -244l188 -276h-104zM70 879h154v-875h-154v875z" />
    <glyph glyph-name="endash" unicode="&#x2013;" horiz-adv-x="992" 
d="M892 524l-1 -120h-791l1 120h791z" />
    <glyph glyph-name="emdash" unicode="&#x2014;" horiz-adv-x="1431" 
d="M1331 572v-120h-1231v120h1231z" />
    <glyph glyph-name="quoteleft" unicode="&#x2018;" horiz-adv-x="322" 
d="M150 1527q35 0 35 -14q0 -6 -11 -10q-92 -37 -92 -144q14 2 20 2q120 0 120 -120q0 -119 -120 -119q-139 0 -139 153q0 165 133 237q28 15 54 15z" />
    <glyph glyph-name="quoteright" unicode="&#x2019;" horiz-adv-x="322" 
d="M72 1217q-35 0 -35 14q0 6 11 10q92 37 92 144q-14 -2 -20 -2q-120 0 -120 120q0 119 120 119q139 0 139 -153q0 -165 -133 -237q-28 -15 -54 -15z" />
    <glyph glyph-name="quotesinglbase" unicode="&#x201a;" horiz-adv-x="322" 
d="M72 -158q-35 0 -35 14q0 6 11 10q92 37 92 144q-14 -2 -20 -2q-120 0 -120 120q0 119 120 119q139 0 139 -153q0 -165 -133 -237q-28 -15 -54 -15z" />
    <glyph glyph-name="quotedblleft" unicode="&#x201c;" horiz-adv-x="583" 
d="M511 1527q35 0 35 -14q0 -6 -11 -10q-92 -37 -92 -144q14 2 20 2q120 0 120 -120q0 -119 -120 -119q-139 0 -139 153q0 165 133 237q28 15 54 15zM250 1524q35 0 35 -14q0 -6 -11 -10q-92 -37 -92 -144q14 2 20 2q120 0 120 -120q0 -119 -120 -119q-139 0 -139 153
q0 165 133 237q28 15 54 15z" />
    <glyph glyph-name="quotedblright" unicode="&#x201d;" horiz-adv-x="583" 
d="M72 1216q-35 0 -35 14q0 6 11 10q92 37 92 144q-14 -2 -20 -2q-120 0 -120 120q0 119 120 119q139 0 139 -153q0 -165 -133 -237q-28 -15 -54 -15zM333 1219q-35 0 -35 14q0 6 11 10q92 37 92 144q-14 -2 -20 -2q-120 0 -120 120q0 119 120 119q139 0 139 -153
q0 -165 -133 -237q-28 -15 -54 -15z" />
    <glyph glyph-name="quotedblbase" unicode="&#x201e;" horiz-adv-x="583" 
d="M72 -145q-35 0 -35 14q0 6 11 10q92 37 92 144q-14 -2 -20 -2q-120 0 -120 120q0 119 120 119q139 0 139 -153q0 -165 -133 -237q-28 -15 -54 -15zM333 -142q-35 0 -35 14q0 6 11 10q92 37 92 144q-14 -2 -20 -2q-120 0 -120 120q0 119 120 119q139 0 139 -153
q0 -165 -133 -237q-28 -15 -54 -15z" />
    <glyph glyph-name="bullet" unicode="&#x2022;" horiz-adv-x="510" 
d="M255 500q-175 0 -175 175t175 175t175 -175t-175 -175z" />
    <glyph glyph-name="ellipsis" unicode="&#x2026;" horiz-adv-x="1268" 
d="M1000 244q119 0 119 -121q0 -119 -119 -119q-121 0 -121 119q0 121 121 121zM610 244q119 0 119 -121q0 -119 -119 -119q-121 0 -121 119q0 121 121 121zM221 244q119 0 119 -121q0 -119 -119 -119q-121 0 -121 119q0 121 121 121z" />
    <glyph glyph-name="zero_super" unicode="&#x2070;" horiz-adv-x="510" 
d="M255 1000q-118 0 -188 98q-67 95 -67 240q0 133 58 228q68 111 197 111q126 0 197 -111q58 -93 58 -228q0 -145 -67 -240q-70 -98 -188 -98zM255 1072q44 0 79 66q41 77 41 200q0 111 -36 190q-36 77 -84 77t-84 -77q-37 -80 -37 -190q0 -120 42 -200q35 -66 79 -66z" />
    <glyph glyph-name="four_super" unicode="&#x2074;" horiz-adv-x="551" 
d="M369 1000q-66 0 -66 37v130h-237q-66 0 -66 36q0 7 5 14l302 435q17 25 62 25q66 0 66 -37v-401h50q66 0 66 -36t-66 -36h-50v-130q0 -37 -66 -37zM303 1239v256l-176 -256h176z" />
    <glyph glyph-name="five_super" unicode="&#x2075;" horiz-adv-x="485" 
d="M485 1214q0 -214 -245 -214q-157 0 -220 112q-20 34 -20 54q0 35 64 35q58 0 65 -30q24 -100 111 -100q115 2 115 143q0 144 -113 144q-58 0 -93 -53q-20 -30 -60 -30q-69 3 -69 34q0 7 1 10l40 300q4 34 65 34h273q65 0 65 -36q0 -35 -65 -35h-212l-22 -162q38 9 77 9
q243 0 243 -215z" />
    <glyph glyph-name="six_super" unicode="&#x2076;" horiz-adv-x="503" 
d="M261 1000q-205 0 -249 208q-14 62 -12 128q2 103 30 174q67 167 242 167q184 0 218 -152q9 -40 -64 -40q-58 0 -66 31q-22 89 -88 89q-83 0 -122 -114q-14 -37 -17 -84q54 34 128 34q242 0 242 -220q0 -221 -242 -221zM261 1072q110 0 110 149q0 148 -110 148t-110 -148
q0 -149 110 -149z" />
    <glyph glyph-name="seven_super" unicode="&#x2077;" horiz-adv-x="500" 
d="M214 1000q-63 0 -63 35q0 162 64 330q42 109 121 217h-271q-65 0 -65 35q0 36 65 36h370q19 0 41 -9q24 -9 24 -25q0 -9 -7 -17q-104 -127 -151 -251q-51 -133 -61 -316q-1 -35 -67 -35z" />
    <glyph glyph-name="eight_super" unicode="&#x2078;" horiz-adv-x="501" 
d="M483 1497q0 -93 -85 -142q103 -55 103 -161q0 -99 -80.5 -146.5t-169.5 -47.5q-90 0 -170.5 47.5t-80.5 146.5q0 106 103 161q-85 49 -85 142q0 180 233 180q232 0 232 -180zM352 1497q0 108 -101 108q-102 0 -102 -108t102 -108q101 0 101 108zM369 1194q0 122 -118 122
q-119 0 -119 -122t119 -122q118 0 118 122z" />
    <glyph glyph-name="nine_super" unicode="&#x2079;" horiz-adv-x="503" 
d="M242 1677q205 0 249 -208q14 -62 12 -128q-2 -103 -30 -174q-67 -167 -242 -167q-184 0 -218 152q-9 40 64 40q58 0 66 -31q22 -89 88 -89q83 0 122 114q14 37 17 84q-54 -34 -128 -34q-242 0 -242 220q0 221 242 221zM242 1605q-110 0 -110 -149q0 -148 110 -148
t110 148q0 149 -110 149z" />
    <glyph glyph-name="euro" unicode="&#x20ac;" horiz-adv-x="1376" 
d="M951 -24q-535 0 -650 520h-120q-101 0 -101 56t101 56h103q-3 36 -3 71q0 24 4 76h-104q-101 0 -101 55q0 56 101 56h121q119 515 649 515q221 0 382 -108q23 -16 23 -35q0 -27 -37 -44q-27 -12 -64 -12q-49 0 -78 20q-100 67 -226 67q-181 0 -292.5 -121t-151.5 -282
h653q102 0 102 -56q0 -55 -102 -55h-672q-4 -35 -4 -76q0 -35 3 -71h619q101 0 101 -56t-101 -56h-600q39 -162 151 -285t294 -123q118 0 215 60q31 20 76 20q37 0 67 -14q35 -17 35 -43q0 -20 -25 -36q-158 -99 -368 -99z" />
    <glyph glyph-name="rupee" unicode="&#x20b9;" horiz-adv-x="1236" 
d="M799 -24q-61 0 -90 30l-542 569q-15 15 -15 30q0 56 101 56q114 0 242.5 35t195.5 136q31 48 37 97h-526q-102 0 -102 56t102 56h511q-14 32 -34 57q-114 147 -374 147h-103q-102 0 -102 56t102 56h832q102 0 102 -56t-102 -56h-285q71 -45 116 -103q38 -49 54 -101h115
q102 0 102 -56t-102 -56h-103q-7 -72 -49 -135q-74 -112 -207.5 -166t-262.5 -70l476 -500q12 -13 12 -26q0 -35 -55 -50q-19 -6 -46 -6z" />
    <glyph glyph-name="uni25CC" unicode="&#x25cc;" horiz-adv-x="1084" 
d="M635 896q-14 0 -34 4q-27 7 -59 7t-59 -7q-13 -3 -32 -3q-71 0 -84 36q-2 8 -2 10q0 31 50 42q63 15 127 15t127 -15q51 -13 51 -42q0 -8 -8 -19q-22 -28 -77 -28zM915 672q-61 -6 -82 32q-21 37 -54 73q-27 30 -64 56q-18 14 -18 28q0 22 33 37q21 9 51 9q41 0 66 -17
q47 -33 82 -71q34 -35 63 -87q5 -7 5 -14q-1 -39 -59 -44zM169 672l-23 2q-59 6 -59 43q0 7 5 15q26 45 63 86q38 41 82 72q26 17 66 17q30 0 51 -9q33 -15 33 -37q0 -14 -18 -28q-37 -26 -64 -56q-33 -36 -54 -73q-21 -38 -82 -32zM959 341q-88 0 -84 45q2 27 6.5 50.5
t4.5 51.5t-4 51.5t-7 50.5q-4 45 80 45q81 0 88 -41q11 -53 11 -106t-11 -106q-8 -41 -84 -41zM209 386q4 -45 -84 -45q-76 0 -84 41q-11 53 -11 106t11 106q8 41 84 41q88 0 84 -45q-3 -27 -7 -50.5t-4 -51.5t4.5 -51.5t6.5 -50.5zM781 69q-28 0 -51 9q-33 15 -33 37
q0 15 18 28q37 26 64 56q33 36 54 73q21 38 82 32l23 -2q59 -5 59 -43q0 -7 -5 -15q-26 -45 -63 -86q-38 -41 -82 -72q-25 -17 -66 -17zM303 69q-40 0 -66 17q-47 33 -82 71q-36 39 -63 87q-5 8 -5 15q0 37 59 43l23 2q61 6 82 -32q21 -37 54 -73q27 -30 64 -56
q18 -13 18 -28q0 -22 -33 -37q-21 -9 -51 -9zM542 -24q-64 0 -127 15q-51 13 -51 42q0 8 8 19q22 28 77 28q14 0 34 -4q27 -7 59 -7t59 7q20 4 34 4q55 0 77 -28q8 -11 8 -19q0 -29 -51 -42q-63 -15 -127 -15z" />
    <glyph glyph-name="r4" horiz-adv-x="638" 
d="M522 -295q-200 0 -302 95q-85 79 -102.5 201t-17.5 230q0 187 38 386q13 70 42 182t71 169q26 34 95 34q99 0 99 -54q0 -10 -6 -22q-66 -124 -100 -311q-37 -198 -37 -384q0 -87 13.5 -200t78.5 -175q41 -39 128 -39q84 0 147 31q29 15 69 15q45 0 74 -19q26 -16 26 -37
q0 -26 -33 -42q-121 -60 -283 -60z" />
    <glyph glyph-name="y2" horiz-adv-x="549" 
d="M241 -517q-107 0 -224 60.5t-117 187.5q0 69 53 124q49 49 113 49q37 0 73 -18q33 -16 33 -37q0 -17 -23 -34q-46 -36 -46 -82q0 -138 138 -138q155 0 155 199q-1 98 -55 167.5t-110 144.5q-101 137 -135 320q-18 100 -18 218q0 113 16 273q4 52 101 52q102 0 102 -55
q0 -6 -1 -10q-6 -66 -11 -132.5t-5 -132.5q0 -110 16 -197q30 -169 122 -294q58 -78 119.5 -164t61.5 -190q0 -311 -358 -311z" />
    <glyph glyph-name="y2u1" horiz-adv-x="539" 
d="M345 -910q-280 0 -280 250t280 250t280 -250t-280 -250zM345 -807q97 0 97 147t-97 147t-97 -147t97 -147zM241 -516q-107 0 -224 60.5t-117 187.5q0 69 53 124q49 49 113 49q37 0 73 -18q33 -16 33 -37q0 -17 -23 -34q-46 -36 -46 -82q0 -138 138 -138q155 0 155 199
q-1 98 -55 167.5t-110 144.5q-101 137 -135 320q-18 100 -18 218q0 113 16 273q4 52 101 52q102 0 102 -55q0 -6 -1 -10q-6 -66 -11 -132.5t-5 -132.5q0 -110 16 -197q30 -169 122 -294q58 -78 119.5 -164t61.5 -190q0 -311 -358 -311z" />
    <glyph glyph-name="y2u2" horiz-adv-x="574" 
d="M386 -1084q-129 0 -226 48q-30 14 -30 36q0 19 23 33q26 16 66 16q33 0 61 -13q45 -22 109 -22q163 0 241 127q42 68 42 136q-2 110 -57 164q19 -47 19 -104q0 -101 -62 -168q-79 -85 -218 -85q-280 0 -280 251q0 147 123 218q81 47 213 47q204 0 307 -100
q97 -94 97 -223q0 -175 -135 -268t-293 -93zM354 -815q97 0 97 152q0 153 -97 153q-52 0 -74.5 -56t-22.5 -97q0 -152 97 -152zM241 -518q-107 0 -224 60.5t-117 187.5q0 69 53 124q49 49 113 49q37 0 73 -18q33 -16 33 -37q0 -17 -23 -34q-46 -36 -46 -82q0 -138 138 -138
q155 0 155 199q-1 98 -55 167.5t-110 144.5q-101 137 -135 320q-18 100 -18 218q0 113 16 273q4 52 101 52q102 0 102 -55q0 -6 -1 -10q-6 -66 -11 -132.5t-5 -132.5q0 -110 16 -197q30 -169 122 -294q58 -78 119.5 -164t61.5 -190q0 -311 -358 -311z" />
    <glyph glyph-name="v2" horiz-adv-x="401" 
d="M200 -210h-398q-102 0 -102 59t102 59h297v1036q0 56 101 56t101 -56v-1094q0 -60 -101 -60z" />
    <glyph glyph-name="k1u1" horiz-adv-x="1928" 
d="M1848 165q0 -108 -101.5 -148.5t-187.5 -40.5q-111 0 -185 51q-26 19 -26 37q0 21 35 38q32 15 64 15q40 0 60.5 -15t55.5 -15q87 0 87 79q0 40 -35 56q-11 5 -37 5q-13 -1 -26 -3t-23 -2q-92 0 -92 55q0 56 89 56q59 0 50 -1q25 2 37 14q13 16 13 40q0 63 -62 63h-169
q-6 -181 -70 -293q-104 -180 -362 -180q-191 0 -299 101q-82 -101 -244 -101q-160 0 -259 95q-81 78 -81 188q0 116 82 196q108 105 306 105h65q9 156 65 256q105 184 365 184q261 0 365 -183q57 -102 66 -257h170q82 0 170 -34t88 -136q0 -65 -61 -104q87 -40 87 -121z
M1192 560q-7 113 -55.5 221t-173.5 108q-124 0 -172 -107t-56 -222h457zM420 87q38 0 77 39q52 55 52 147q0 24 -5 52q-10 58 -13 124h-62q-81 0 -130 -48q-57 -57 -57 -141q0 -82 55 -134q41 -39 83 -39zM963 87q132 0 179 120t51 242h-459q5 -126 52.5 -244t176.5 -118z
" />
    <glyph glyph-name="k1u2" horiz-adv-x="1929" 
d="M1700 -486h-1304q-106 0 -211 38t-105 165q0 132 106 168t210 36h1128q132 0 132 135q0 87 -64 105q-15 4 -31 4q-60 -4 -47 -4q-80 0 -81 55q-1 59 78 57h51q19 2 32 16q24 27 24 72q0 87 -76 87h-146q-7 -181 -71 -291q-105 -181 -361 -181q-193 0 -300 102
q-82 -102 -243 -102t-260 96q-81 78 -81 189t82 191q108 108 307 108h64q9 153 65 254q105 186 366 186q259 0 364 -185q57 -100 66 -255h148q148 0 221 -74q49 -49 49 -128q0 -86 -76 -131q113 -51 113 -181q0 -127 -107 -181.5t-217 -54.5h-1129q-111 0 -111 -67
q0 -71 111 -71h1304q101 0 101 -79t-101 -79zM1192 560q-7 116 -56.5 222t-171.5 106t-171.5 -106t-57.5 -222h457zM420 88q39 0 77 40q52 55 52 147q0 24 -5 52q-11 64 -12 121h-63q-78 0 -130 -51q-57 -55 -57 -135q0 -81 55 -135q41 -39 83 -39zM964 88q130 0 177.5 118
t51.5 242h-459q5 -124 52.5 -242t177.5 -118z" />
    <glyph glyph-name="k1r1" horiz-adv-x="1942" 
d="M966 -486q-124 0 -221 25q-54 14 -121.5 52.5t-67.5 104.5q0 67 69.5 105t124.5 52q93 23 216 23q110 0 197 -20q58 -13 133 -51.5t75 -109.5q288 133 288 436q0 181 -121 272q-61 46 -124 46h-19q-5 -181 -70 -292q-105 -181 -362 -181q-190 0 -299 102
q-82 -102 -243 -102q-160 0 -260 96q-81 78 -81 189t82 191q108 108 307 108h64q9 153 65 254q105 186 365 186t365 -185q57 -100 66 -255h20q142 0 258 -72q190 -117 190 -357q0 -210 -131.5 -344.5t-321.5 -200.5q-81 -29 -174 -48q-124 -24 -269 -24zM1192 560
q-7 118 -57.5 223t-171.5 105t-170.5 -105t-57.5 -223h457zM963 87q109 0 169 104q55 96 61 258h-459q6 -164 61 -258q59 -104 168 -104zM419 88q41 0 78 40q52 55 52 147q0 24 -5 52q-10 60 -13 122h-62q-77 0 -130 -52q-57 -55 -57 -134q0 -82 55 -136q41 -39 82 -39z
M966 -381q217 0 217 77q0 76 -217 76q-222 0 -222 -76q0 -77 222 -77z" />
    <glyph glyph-name="k1r2" horiz-adv-x="1942" 
d="M964 -486q-153 0 -256 37q-152 54 -152 169q0 68 74 114q67 42 175 42q92 0 158 -35q66 35 158 35q107 0 176 -42q74 -47 74 -113q0 -14 -3 -28q125 57 199 151q93 119 93 284q0 80 -28 149q-71 172 -218 172h-19q-5 -181 -70 -292q-105 -181 -362 -181q-190 0 -299 102
q-82 -102 -243 -102q-160 0 -260 96q-81 78 -81 189t82 191q109 109 307 109h64q9 152 65 253q105 186 366 186q259 0 364 -185q57 -100 66 -254h20q309 0 415 -260q33 -81 33 -173q0 -185 -129 -334q-154 -177 -446 -244q-150 -36 -323 -36zM1192 561q-7 116 -57.5 221.5
t-170.5 105.5q-123 0 -172 -106.5t-57 -220.5h457zM420 88q39 0 77 40q52 55 52 150q0 24 -5 52q-11 64 -12 119h-63q-77 0 -130 -52q-57 -55 -57 -134q0 -82 55 -136q41 -39 83 -39zM963 88q131 0 178.5 120t51.5 241h-459q5 -126 53 -243.5t176 -117.5zM962 -387
q122 0 183 27q57 24 57 76q0 63 -81 63q-67 0 -67 -83q0 -51 -91 -51t-91 51q0 83 -66 83q-82 0 -82 -61q0 -52 58 -78q61 -27 180 -27z" />
    <glyph glyph-name="k1l1" horiz-adv-x="1907" 
d="M964 -21q-191 0 -299 101q-83 -101 -244 -101t-260 95q-81 78 -81 188q0 116 82 196q108 105 306 105h65q9 157 65 256q104 184 366 184q260 0 364 -183q57 -100 66 -257h54q179 0 289 -80t110 -221q0 -110 -83 -188q-100 -94 -254 -94q-72 0 -126 18q-55 17 -55 49
q0 25 43 44q26 11 51 11q22 0 40.5 -5.5t42.5 -5.5q59 0 101 56q37 48 39 113q0 72 -43 125q-54 67 -155 67h-52q-8 -185 -71 -293q-104 -180 -361 -180zM1192 563q-8 116 -56 222.5t-172 106.5t-173 -108t-56 -221h457zM420 90q41 0 78 39q50 51 50 148q0 30 -4 51
q-10 58 -13 124h-63q-81 0 -129 -48q-57 -57 -57 -141q0 -82 55 -134q41 -39 83 -39zM964 90q131 0 178.5 119t51.5 243h-461q7 -126 53.5 -244t177.5 -118zM1286 -636q-139 0 -203 91q-40 58 -40 133q0 89 56 161q64 81 185 103q-61 44 -129 44q-152 0 -152 -149v-348
q0 -35 -72 -35q-70 0 -70 35v347q0 149 -171 149q-105 0 -165 -113q-16 -31 -24 -69q47 28 111 28q105 0 165 -60q48 -49 48 -125q0 -92 -66 -143q-62 -49 -153 -49q-90 -2 -154 48q-97 76 -97 236q0 88 36 157q84 157 299 159q157 2 241 -61q84 61 224 61q200 0 304 -126
q70 -85 70 -214q0 -91 -44 -161q-63 -99 -199 -99zM1286 -567q36 0 66 49q34 60 34 142q0 99 -43 164q-70 -7 -114 -68q-41 -55 -41 -132q0 -53 17 -93q27 -62 81 -62zM606 -567q81 2 81 119t-82 117t-82 -118q0 -120 83 -118z" />
    <glyph glyph-name="k1k1" horiz-adv-x="2407" 
d="M1941 -24q-41 0 -72 21q-23 14 -23 34q0 26 37 44q107 49 171 150q70 111 70 256q0 169 -90 279q-104 129 -276 129q-162 0 -266 -116q-73 -83 -95 -213h62q198 0 306 -105q82 -80 82 -196q0 -110 -81 -188q-101 -97 -260 -95q-160 0 -243 101q-108 -101 -299 -101
q-192 0 -300 101q-83 -101 -243 -101q-159 -2 -260 95q-81 78 -81 188q0 116 82 196q108 105 307 105h64q9 158 65 256q104 184 366 184q260 0 365 -185q143 185 428 185q232 0 393 -136q177 -148 177 -383q0 -189 -106 -327q-71 -93 -180 -151q-52 -27 -100 -27zM1192 560
q-7 115 -55.5 222t-172.5 107t-172.5 -106.5t-56.5 -222.5h457zM1507 87q42 0 83 39q55 52 55 135q0 85 -57 140q-49 48 -130 48h-62q-3 -73 -14 -129q-4 -28 -4 -45q0 -93 52 -148q38 -40 77 -40zM420 87q39 0 77 40q52 55 52 149q0 17 -4 45q-11 60 -13 128h-63
q-81 0 -130 -48q-57 -55 -57 -140q0 -83 55 -135q41 -39 83 -39zM964 88q131 0 178 118t51 243h-459q5 -126 52.5 -243.5t177.5 -117.5z" />
    <glyph glyph-name="k1k1u1" horiz-adv-x="2423" 
d="M2006 -24q-73 0 -146 25q-48 17 -48 48q0 14 16 29q29 25 85 25q27 0 49 -7.5t44 -7.5q47 0 86 46q49 57 49 128q0 78 -59 124q-35 28 -73 28h-52q-88 0 -88 54q0 47 86 56q12 2 24.5 1.5t23.5 1.5q40 6 66 31q42 39 42 100q0 94 -64 152q-84 79 -236 79
q-353 0 -414 -329h62q198 0 306 -105q82 -80 82 -196q0 -110 -81 -188q-99 -95 -260 -95t-243 101q-108 -101 -299 -101q-193 0 -299 101q-83 -101 -244 -101t-260 95q-81 78 -81 188q0 116 82 196q108 105 307 105h64q9 158 65 256q104 184 366 184q265 0 368 -191
q156 191 482 191q205 0 332 -76q167 -101 167 -266q0 -114 -103 -182q133 -75 133 -215q0 -95 -67 -173q-63 -76 -173 -101q-44 -11 -97 -11zM1192 560q-7 115 -55.5 222t-172.5 107t-172.5 -106.5t-56.5 -222.5h457zM1507 87q42 0 83 39q55 52 55 134q0 86 -57 141
q-49 48 -130 48h-62q-3 -73 -14 -130q-4 -28 -4 -45q0 -93 52 -148q39 -39 77 -39zM420 87q40 0 77 39q52 55 52 149q0 16 -4 46q-11 60 -13 128h-63q-81 0 -130 -48q-56 -56 -56 -145q0 -79 54 -130q41 -39 83 -39zM964 87q131 0 178 119t51 243h-459q5 -125 52.5 -243.5
t177.5 -118.5z" />
    <glyph glyph-name="k1k1u2" horiz-adv-x="2424" 
d="M2194 -486h-1798q-106 0 -211 38t-105 165q0 132 106 168t210 36h1472q153 0 237 132q43 65 41 156q0 119 -64 173q-33 28 -77 28q12 -1 -35 -1q-102 0 -102 55q0 48 86 56q12 2 25 2t24 1q38 6 65 32q42 39 42 101q0 86 -65 151q-81 82 -247 82q-180 0 -285 -102
q-90 -87 -116 -226h61q195 0 307 -109q82 -80 82 -187q2 -112 -81 -193q-98 -95 -260 -95q-161 0 -244 101q-45 -44 -107 -68q-79 -33 -192 -33q-112 0 -192 33q-60 24 -107 68q-82 -101 -243 -101q-162 0 -260 95q-81 78 -81 189t82 191q110 109 307 109h64q9 152 65 253
q105 186 365 186q266 0 369 -192q156 192 478 192q209 0 336 -77q166 -100 166 -267q0 -113 -102 -184q134 -79 134 -259q0 -150 -82 -248q-129 -155 -394 -155h-1472q-111 0 -111 -67q0 -71 111 -71h1798q102 0 102 -79t-102 -79zM1192 561q-7 116 -57.5 221.5
t-171.5 105.5t-170.5 -105.5t-57.5 -221.5h457zM1507 88q42 0 83 39q54 54 54 136q0 80 -56 134q-53 52 -130 52h-63q-1 -65 -13 -127q-4 -20 -4 -47q0 -92 51 -147q38 -40 78 -40zM420 88q39 0 77 40q52 56 52 150q0 16 -4 46q-11 57 -14 125h-62q-77 0 -130 -52
q-57 -55 -57 -134q0 -82 55 -136q41 -39 83 -39zM963 89q130 0 178 118t52 242h-459q5 -125 52.5 -242.5t176.5 -117.5z" />
    <glyph glyph-name="k1k1r1" horiz-adv-x="2418" 
d="M1377 -464q-166 -22 -410 -22q-125 0 -222 26q-54 14 -121.5 52.5t-67.5 104.5q0 67 69.5 105.5t124.5 51.5q89 23 217 23q105 0 196 -20q58 -13 133 -51t75 -109q0 -28 -15 -52q212 33 359 106q168 83 266 208q155 197 155 454q0 185 -88 316q-108 159 -304 159
q-128 0 -225 -91q-99 -92 -121 -236h61q195 0 306 -110q83 -81 83 -186q2 -114 -81 -193q-100 -96 -260 -96t-244 102q-109 -102 -299 -102t-299 102q-84 -102 -244 -102t-260 96q-83 79 -81 193q0 106 82 186q111 110 307 110h64q9 154 65 253q105 186 366 186
q220 0 329 -133q20 -24 34 -50q32 41 68 69q139 114 353 114q303 0 463 -197q127 -156 127 -390q0 -281 -172 -498q-137 -173 -380 -274q-181 -76 -409 -105zM1192 561q-7 114 -56 220.5t-172 106.5t-172 -105.5t-57 -221.5h457zM964 88q131 0 178 119t51 242h-459
q5 -121 52.5 -241t177.5 -120zM420 88q40 0 78 40q51 52 51 147q0 28 -4 48q-11 58 -14 126h-62q-78 0 -130 -52q-56 -54 -56 -134q0 -83 54 -136q39 -39 83 -39zM1508 88q41 0 82 39q55 54 55 136q0 80 -57 134q-53 52 -130 52h-62q-4 -76 -13 -127q-4 -20 -4 -47
q0 -92 51 -147q38 -40 78 -40zM967 -380q216 0 216 77q0 76 -216 76q-222 0 -222 -76q0 -77 222 -77z" />
    <glyph glyph-name="k1k1r3" horiz-adv-x="2786" 
d="M1401 -486q-220 0 -452.5 42t-426.5 148q-442 243 -442 735q0 363 272 540q31 21 77 21q35 0 66 -14q36 -16 36 -43q0 -20 -24 -36q-224 -145 -224 -468q0 -447 381 -656q163 -89 358 -123t379 -34q188 0 389 42.5t361 145.5q353 229 353 603q0 190 -99 321
q-116 153 -310 151q-127 0 -232 -110q-83 -88 -104 -219h60q196 0 306 -109q82 -80 82 -190t-81 -189q-99 -95 -259 -95q-162 0 -244 101q-108 -101 -299 -101t-299 101q-83 -101 -244 -101q-162 0 -260 95q-83 79 -81 193q0 106 83 186q110 109 306 109h64q9 154 66 254
q105 186 365 186q259 0 364 -183q144 183 410 183q329 0 494 -220q114 -151 114 -363q1 -417 -401 -675q-192 -124 -434.5 -176t-469.5 -52zM1552 560q-7 116 -56.5 222t-171.5 106q-121 0 -171 -105t-58 -223h457zM1867 88q43 0 83 40q55 52 55 135q0 77 -57 134
q-52 52 -129 52h-63q-3 -65 -13 -127q-4 -20 -4 -47q0 -92 51 -147q38 -40 77 -40zM780 88q40 0 78 40q51 54 51 148q0 28 -4 48q-12 61 -13 125h-63q-78 0 -130 -52q-56 -54 -56 -134q0 -82 54 -135q42 -40 83 -40zM1324 89q132 0 179 120t51 239h-460q5 -119 51.5 -239
t178.5 -120z" />
    <glyph glyph-name="k1k1r3u1" horiz-adv-x="2786" 
d="M1401 -486q-220 0 -452.5 42t-426.5 148q-442 243 -442 735q0 363 272 540q31 21 77 21q35 0 66 -14q36 -16 36 -43q0 -20 -24 -36q-224 -145 -224 -468q0 -447 381 -656q163 -89 358 -123t379 -34q188 0 389 42.5t361 145.5q353 229 353 603q0 190 -99 321
q-116 153 -310 151q-127 0 -232 -110q-83 -88 -104 -219h60q196 0 306 -109q82 -80 82 -190t-81 -189q-99 -95 -259 -95q-162 0 -244 101q-108 -101 -299 -101t-299 101q-83 -101 -244 -101q-162 0 -260 95q-83 79 -81 193q0 106 83 186q110 109 306 109h64q9 154 66 254
q105 186 365 186q259 0 364 -183q144 183 410 183q329 0 494 -220q114 -151 114 -363q1 -417 -401 -675q-192 -124 -434.5 -176t-469.5 -52zM1552 560q-7 116 -56.5 222t-171.5 106q-121 0 -171 -105t-58 -223h457zM1867 88q43 0 83 40q55 52 55 135q0 77 -57 134
q-52 52 -129 52h-63q-3 -65 -13 -127q-4 -20 -4 -47q0 -92 51 -147q38 -40 77 -40zM780 88q40 0 78 40q51 54 51 148q0 28 -4 48q-12 61 -13 125h-63q-78 0 -130 -52q-56 -54 -56 -134q0 -82 54 -135q42 -40 83 -40zM1324 89q132 0 179 120t51 239h-460q5 -119 51.5 -239
t178.5 -120zM2370 -634q-280 0 -280 250t280 250t280 -250t-280 -250zM2370 -531q97 0 97 147t-97 147t-97 -147t97 -147z" />
    <glyph glyph-name="k1k1r3u2" horiz-adv-x="2790" 
d="M2392 -821q-129 0 -226 48q-30 14 -30 36q0 19 23 33q26 16 66 16q33 0 61 -13q45 -22 109 -22q163 0 241 127q42 68 42 136q-2 110 -57 164q19 -47 19 -104q0 -101 -62 -168q-79 -85 -218 -85q-280 0 -280 251q0 147 123 218q81 47 213 47q204 0 307 -100
q97 -94 97 -223q0 -175 -135 -268t-293 -93zM2360 -552q97 0 97 152q0 153 -97 153q-52 0 -74.5 -56t-22.5 -97q0 -152 97 -152zM1401 -486q-220 0 -452.5 42t-426.5 148q-442 243 -442 735q0 363 272 540q31 21 77 21q35 0 66 -14q36 -16 36 -43q0 -20 -24 -36
q-224 -145 -224 -468q0 -447 381 -656q163 -89 358 -123t379 -34q188 0 389 42.5t361 145.5q353 229 353 603q0 190 -99 321q-116 153 -310 151q-127 0 -232 -110q-83 -88 -104 -219h60q196 0 306 -109q82 -80 82 -190t-81 -189q-99 -95 -259 -95q-162 0 -244 101
q-108 -101 -299 -101t-299 101q-83 -101 -244 -101q-162 0 -260 95q-83 79 -81 193q0 106 83 186q110 109 306 109h64q9 154 66 254q105 186 365 186q259 0 364 -183q144 183 410 183q329 0 494 -220q114 -151 114 -363q1 -417 -401 -675q-192 -124 -434.5 -176t-469.5 -52z
M1552 560q-7 116 -56.5 222t-171.5 106q-121 0 -171 -105t-58 -223h457zM1867 88q43 0 83 40q55 52 55 135q0 77 -57 134q-52 52 -129 52h-63q-3 -65 -13 -127q-4 -20 -4 -47q0 -92 51 -147q38 -40 77 -40zM780 88q40 0 78 40q51 54 51 148q0 28 -4 48q-12 61 -13 125h-63
q-78 0 -130 -52q-56 -54 -56 -134q0 -82 54 -135q42 -40 83 -40zM1324 89q132 0 179 120t51 239h-460q5 -119 51.5 -239t178.5 -120z" />
    <glyph glyph-name="k1t1" horiz-adv-x="1907" 
d="M964 -24q-191 0 -299 101q-83 -101 -244 -101t-260 95q-81 78 -81 188q0 116 82 196q108 105 306 105h65q9 157 65 256q104 184 366 184q260 0 364 -183q57 -100 66 -257h54q179 0 289 -80t110 -221q0 -110 -83 -188q-100 -94 -254 -94q-72 0 -126 18q-55 17 -55 49
q0 25 43 44q26 11 51 11q22 0 40.5 -5.5t42.5 -5.5q59 0 101 56q37 48 39 113q0 72 -43 125q-54 67 -155 67h-52q-8 -185 -71 -293q-104 -180 -361 -180zM1192 560q-8 116 -56 222.5t-172 106.5t-173 -108t-56 -221h457zM420 87q41 0 78 39q50 51 50 148q0 30 -4 51
q-10 58 -13 124h-63q-81 0 -129 -48q-57 -57 -57 -141q0 -82 55 -134q41 -39 83 -39zM964 87q131 0 178.5 119t51.5 243h-461q7 -126 53.5 -244t177.5 -118zM1001 -636q-93 0 -180 29q-84 29 -132 75q-8 8 -8 15q0 21 34 30q18 5 38 5q43 0 63 -19q29 -29 86 -49
q48 -17 99 -17q53 0 114.5 24.5t61.5 90.5q0 64 -98 64q-34 0 -67.5 -1.5t-66.5 -1.5q-87 0 -147 22q-101 37 -101 141q0 64 46 109q80 81 266 83q94 2 177 -26q77 -26 127 -75q8 -8 8 -15q0 -21 -34 -30q-18 -5 -39 -5q-43 0 -62 18q-35 34 -81 49q-41 15 -96 15
q-98 0 -146 -59q-24 -30 -23 -60q3 -60 99 -60q28 0 56 1.5t56 1.5q101 0 160 -19q110 -36 110 -145q0 -91 -86 -141q-84 -50 -234 -50z" />
    <glyph glyph-name="k1t1u1" horiz-adv-x="1907" 
d="M964 -24q-191 0 -299 101q-83 -101 -244 -101t-260 95q-81 78 -81 188q0 116 82 196q108 105 306 105h65q9 157 65 256q104 184 366 184q260 0 364 -183q57 -100 66 -257h54q179 0 289 -80t110 -221q0 -110 -83 -188q-100 -94 -254 -94q-72 0 -126 18q-55 17 -55 49
q0 25 43 44q26 11 51 11q22 0 40.5 -5.5t42.5 -5.5q59 0 101 56q37 48 39 113q0 72 -43 125q-54 67 -155 67h-52q-8 -185 -71 -293q-104 -180 -361 -180zM1192 560q-8 116 -56 222.5t-172 106.5t-173 -108t-56 -221h457zM420 87q41 0 78 39q50 51 50 148q0 30 -4 51
q-10 58 -13 124h-63q-81 0 -129 -48q-57 -57 -57 -141q0 -82 55 -134q41 -39 83 -39zM964 87q131 0 178.5 119t51.5 243h-461q7 -126 53.5 -244t177.5 -118zM1001 -636q-93 0 -180 29q-84 29 -132 75q-8 8 -8 15q0 21 34 30q18 5 38 5q43 0 63 -19q29 -29 86 -49
q48 -17 99 -17q53 0 114.5 24.5t61.5 90.5q0 64 -98 64q-34 0 -67.5 -1.5t-66.5 -1.5q-87 0 -147 22q-101 37 -101 141q0 64 46 109q80 81 266 83q94 2 177 -26q77 -26 127 -75q8 -8 8 -15q0 -21 -34 -30q-18 -5 -39 -5q-43 0 -62 18q-35 34 -81 49q-41 15 -96 15
q-98 0 -146 -59q-24 -30 -23 -60q3 -60 99 -60q28 0 56 1.5t56 1.5q101 0 160 -19q110 -36 110 -145q0 -91 -86 -141q-84 -50 -234 -50zM1277 -871q-211 0 -211 188t211 188q210 0 210 -188t-210 -188zM1277 -794q72 0 72 111t-72 111q-73 0 -73 -111t73 -111z" />
    <glyph glyph-name="k1t1u2" horiz-adv-x="1907" 
d="M964 -24q-191 0 -299 101q-83 -101 -244 -101t-260 95q-81 78 -81 188q0 116 82 196q108 105 306 105h65q9 157 65 256q104 184 366 184q260 0 364 -183q57 -100 66 -257h54q179 0 289 -80t110 -221q0 -110 -83 -188q-100 -94 -254 -94q-72 0 -126 18q-55 17 -55 49
q0 25 43 44q26 11 51 11q22 0 40.5 -5.5t42.5 -5.5q59 0 101 56q37 48 39 113q0 72 -43 125q-54 67 -155 67h-52q-8 -185 -71 -293q-104 -180 -361 -180zM1192 560q-8 116 -56 222.5t-172 106.5t-173 -108t-56 -221h457zM420 87q41 0 78 39q50 51 50 148q0 30 -4 51
q-10 58 -13 124h-63q-81 0 -129 -48q-57 -57 -57 -141q0 -82 55 -134q41 -39 83 -39zM964 87q131 0 178.5 119t51.5 243h-461q7 -126 53.5 -244t177.5 -118zM1001 -636q-93 0 -180 29q-84 29 -132 75q-8 8 -8 15q0 21 34 30q18 5 38 5q43 0 63 -19q29 -29 86 -49
q48 -17 99 -17q53 0 114.5 24.5t61.5 90.5q0 64 -98 64q-34 0 -67.5 -1.5t-66.5 -1.5q-87 0 -147 22q-101 37 -101 141q0 64 46 109q80 81 266 83q94 2 177 -26q77 -26 127 -75q8 -8 8 -15q0 -21 -34 -30q-18 -5 -39 -5q-43 0 -62 18q-35 34 -81 49q-41 15 -96 15
q-98 0 -146 -59q-24 -30 -23 -60q3 -60 99 -60q28 0 56 1.5t56 1.5q101 0 160 -19q110 -36 110 -145q0 -91 -86 -141q-84 -50 -234 -50zM1310 -996q-95 0 -170 36q-22 11 -22 28q0 14 17 24q20 12 49 12q24 0 46 -10q33 -16 83 -16q112 0 176 88q34 48 35 105q0 87 -43 130
q14 -32 14 -81q0 -77 -46 -126q-59 -64 -163 -64q-210 0 -210 186q0 108 92 157q67 37 162 37q140 -2 227 -75q73 -63 73 -164q0 -97 -63 -165q-94 -102 -257 -102zM1286 -793q72 0 72 113t-72 113q-73 0 -73 -113t73 -113z" />
    <glyph glyph-name="k1t1r3" horiz-adv-x="1907" 
d="M964 -24q-191 0 -299 101q-83 -101 -244 -101t-260 95q-81 78 -81 188q0 116 82 196q108 105 306 105h65q9 157 65 256q104 184 366 184q260 0 364 -183q57 -100 66 -257h54q179 0 289 -80t110 -221q0 -110 -83 -188q-100 -94 -254 -94q-72 0 -126 18q-55 17 -55 49
q0 25 43 44q26 11 51 11q22 0 40.5 -5.5t42.5 -5.5q59 0 101 56q37 48 39 113q0 72 -43 125q-54 67 -155 67h-52q-8 -185 -71 -293q-104 -180 -361 -180zM1192 560q-8 116 -56 222.5t-172 106.5t-173 -108t-56 -221h457zM420 87q41 0 78 39q50 51 50 148q0 30 -4 51
q-10 58 -13 124h-63q-81 0 -129 -48q-57 -57 -57 -141q0 -82 55 -134q41 -39 83 -39zM964 87q131 0 178.5 119t51.5 243h-461q7 -126 53.5 -244t177.5 -118zM1286 -290q110 -36 110 -136q0 -93 -100 -147q-101 -53 -267 -53q-173 0 -293 70q-171 97 -172 275q-2 162 116 241
q20 14 58 14q27 0 46 -8q24 -10 24 -27q0 -11 -13 -20q-88 -59 -88 -200q0 -127 106 -209q87 -67 216 -67q100 0 162 33q61 33 61 82q0 64 -98 64q-34 0 -67.5 -1.5t-66.5 -1.5q-87 0 -147 22q-101 37 -101 141q0 64 46 109q80 81 266 83q94 2 177 -26q77 -26 127 -75
q8 -8 8 -15q0 -21 -34 -30q-18 -5 -39 -5q-43 0 -62 18q-35 34 -81 49q-41 15 -96 15q-98 0 -146 -59q-24 -30 -23 -60q3 -60 99 -60q28 0 56 1.5t56 1.5q101 0 160 -19z" />
    <glyph glyph-name="k1t1r3u1" horiz-adv-x="1907" 
d="M964 -24q-191 0 -299 101q-83 -101 -244 -101t-260 95q-81 78 -81 188q0 116 82 196q108 105 306 105h65q9 157 65 256q104 184 366 184q260 0 364 -183q57 -100 66 -257h54q179 0 289 -80t110 -221q0 -110 -83 -188q-100 -94 -254 -94q-72 0 -126 18q-55 17 -55 49
q0 25 43 44q26 11 51 11q22 0 40.5 -5.5t42.5 -5.5q59 0 101 56q37 48 39 113q0 72 -43 125q-54 67 -155 67h-52q-8 -185 -71 -293q-104 -180 -361 -180zM1192 560q-8 116 -56 222.5t-172 106.5t-173 -108t-56 -221h457zM420 87q41 0 78 39q50 51 50 148q0 30 -4 51
q-10 58 -13 124h-63q-81 0 -129 -48q-57 -57 -57 -141q0 -82 55 -134q41 -39 83 -39zM964 87q131 0 178.5 119t51.5 243h-461q7 -126 53.5 -244t177.5 -118zM1286 -290q110 -36 110 -136q0 -93 -100 -147q-101 -53 -267 -53q-173 0 -293 70q-171 97 -172 275q-2 162 116 241
q20 14 58 14q27 0 46 -8q24 -10 24 -27q0 -11 -13 -20q-88 -59 -88 -200q0 -127 106 -209q87 -67 216 -67q100 0 162 33q61 33 61 82q0 64 -98 64q-34 0 -67.5 -1.5t-66.5 -1.5q-87 0 -147 22q-101 37 -101 141q0 64 46 109q80 81 266 83q94 2 177 -26q77 -26 127 -75
q8 -8 8 -15q0 -21 -34 -30q-18 -5 -39 -5q-43 0 -62 18q-35 34 -81 49q-41 15 -96 15q-98 0 -146 -59q-24 -30 -23 -60q3 -60 99 -60q28 0 56 1.5t56 1.5q101 0 160 -19zM1311 -870q-211 0 -211 188t211 188q210 0 210 -188t-210 -188zM1311 -793q72 0 72 111t-72 111
q-73 0 -73 -111t73 -111z" />
    </font>
</defs>
</svg>
