<svg width="79" height="78" viewBox="0 0 79 78" fill="none" xmlns="http://www.w3.org/2000/svg">
<g filter="url(#filter0_d_125_142)">
<path d="M19.4803 55.9152H26.7078V38.3656L16.3828 30.6232V52.8182C16.3828 54.5319 17.7715 55.9152 19.4803 55.9152Z" fill="#535EB8"/>
<path d="M51.4879 55.9152H58.7154C60.4293 55.9152 61.8129 54.5267 61.8129 52.8182V30.6232L51.4879 38.3656" fill="#535EB8"/>
<path d="M51.4879 24.9456V38.3656L61.8129 30.6232V26.4941C61.8129 22.6642 57.4402 20.4808 54.3789 22.7777" fill="#707CE6"/>
<path d="M26.7078 38.3656L26.7078 24.9454L39.0978 34.2363L51.4879 24.9456V38.3656L39.0978 47.6566" fill="#909AF3"/>
<path d="M16.3828 26.4941V30.6232L26.7078 38.3656L26.7078 24.9454L23.8168 22.7777C20.7503 20.4808 16.3828 22.6642 16.3828 26.4941Z" fill="#707CE6"/>
</g>
<defs>
<filter id="filter0_d_125_142" x="-3.12" y="0" width="84.2533" height="84.24" filterUnits="userSpaceOnUse" color-interpolation-filters="sRGB">
<feFlood flood-opacity="0" result="BackgroundImageFix"/>
<feColorMatrix in="SourceAlpha" type="matrix" values="0 0 0 0 0 0 0 0 0 0 0 0 0 0 0 0 0 0 127 0" result="hardAlpha"/>
<feOffset dy="3.12"/>
<feGaussianBlur stdDeviation="1.56"/>
<feComposite in2="hardAlpha" operator="out"/>
<feColorMatrix type="matrix" values="0 0 0 0 0 0 0 0 0 0 0 0 0 0 0 0 0 0 0.25 0"/>
<feBlend mode="normal" in2="BackgroundImageFix" result="effect1_dropShadow_125_142"/>
<feBlend mode="normal" in="SourceGraphic" in2="effect1_dropShadow_125_142" result="shape"/>
</filter>
</defs>
</svg>
