<?xml version="1.0" standalone="no"?>
<!DOCTYPE svg PUBLIC "-//W3C//DTD SVG 20010904//EN"
 "http://www.w3.org/TR/2001/REC-SVG-20010904/DTD/svg10.dtd">
<svg version="1.0" xmlns="http://www.w3.org/2000/svg"
 width="844.000000pt" height="844.000000pt" viewBox="0 0 844.000000 844.000000"
 preserveAspectRatio="xMidYMid meet">
<metadata>
Created by potrace 1.14, written by Peter Selinger 2001-2017
</metadata>
<g transform="translate(0.000000,844.000000) scale(0.100000,-0.100000)"
fill="#000000" stroke="none">
<path d="M5200 5375 c0 -5 -19 -11 -43 -13 -68 -4 -77 -6 -77 -15 0 -5 -9 -7
-20 -4 -11 3 -18 1 -14 -4 3 -5 -3 -9 -13 -9 -10 0 -27 -7 -37 -15 -10 -8 -23
-12 -27 -9 -5 3 -9 0 -9 -5 0 -6 -9 -11 -20 -11 -12 0 -20 -7 -20 -17 0 -14
-2 -15 -9 -4 -7 11 -10 9 -16 -8 -3 -12 -10 -19 -15 -16 -5 3 -11 1 -15 -5 -4
-6 -11 -7 -17 -4 -7 4 -8 2 -4 -4 4 -7 -3 -14 -19 -18 -14 -3 -25 -13 -25 -21
0 -8 -4 -11 -10 -8 -5 3 -10 1 -10 -5 0 -6 -4 -9 -9 -5 -6 3 -13 -1 -18 -8 -4
-8 -20 -22 -35 -32 -15 -9 -25 -21 -22 -26 3 -5 1 -9 -5 -9 -5 0 -23 -11 -38
-25 -52 -46 -58 -50 -65 -47 -5 1 -7 -1 -7 -5 3 -20 -2 -34 -11 -28 -5 3 -10
1 -10 -5 0 -6 -5 -8 -12 -4 -6 4 -8 3 -5 -3 8 -13 -17 -36 -27 -26 -4 4 -4 -1
0 -11 5 -14 4 -17 -4 -12 -7 4 -12 2 -12 -4 0 -15 -25 -40 -40 -40 -6 0 -8 -4
-5 -10 3 -5 1 -10 -5 -10 -7 0 -9 -7 -6 -16 3 -8 2 -12 -4 -9 -6 4 -17 -1 -26
-9 -8 -9 -13 -16 -9 -16 3 0 0 -6 -7 -14 -7 -8 -16 -12 -20 -9 -4 2 -5 -4 -1
-13 4 -12 3 -15 -5 -10 -7 4 -12 2 -12 -4 0 -6 -11 -21 -25 -34 -13 -13 -22
-26 -18 -29 3 -4 -2 -9 -11 -13 -9 -3 -13 -10 -10 -15 3 -5 -2 -9 -11 -9 -9 0
-14 -4 -10 -9 3 -5 -7 -19 -22 -32 -21 -16 -23 -20 -8 -15 14 5 11 -2 -12 -22
-17 -17 -29 -33 -26 -36 4 -3 0 -6 -7 -6 -7 0 -11 -3 -7 -6 3 -4 1 -12 -6 -20
-32 -36 -38 -46 -40 -64 -1 -10 -6 -18 -11 -17 -6 1 -10 -4 -11 -11 0 -7 -7
-17 -15 -22 -8 -5 -11 -10 -7 -10 5 0 0 -12 -11 -27 -11 -16 -23 -38 -26 -50
-4 -13 -12 -23 -17 -23 -6 0 -7 -5 -4 -10 3 -6 -1 -13 -9 -16 -9 -3 -14 -10
-11 -14 3 -5 -4 -25 -15 -46 -12 -20 -22 -55 -22 -76 0 -31 -5 -41 -22 -48
-31 -12 -39 2 -40 72 -1 35 -5 68 -9 75 -4 6 -9 40 -11 76 -2 35 -6 69 -10 76
-4 6 -1 11 6 11 9 0 9 3 -2 10 -13 9 -13 10 0 10 10 0 11 3 4 8 -13 8 -14 42
-2 42 5 0 6 6 1 13 -11 17 -11 29 0 51 6 13 6 16 -2 12 -14 -9 -14 0 -1 25 8
13 7 19 0 19 -6 0 -8 5 -4 12 5 7 8 30 7 50 -1 21 2 36 5 34 4 -2 7 18 6 45 0
27 3 49 8 49 5 0 4 9 -2 20 -9 16 -8 22 5 26 8 3 15 13 15 21 0 8 -5 11 -12 7
-10 -6 -10 -4 0 7 6 7 12 24 12 37 0 13 4 21 9 18 4 -3 7 6 5 19 -1 14 1 25 6
25 4 0 6 10 2 22 -4 15 -2 19 7 13 10 -5 11 -2 7 13 -4 11 -2 23 4 27 6 3 8
11 5 16 -4 5 -1 9 6 9 7 0 9 3 6 7 -4 3 -2 12 4 20 6 7 8 13 3 13 -4 0 1 7 12
16 10 8 12 12 4 8 -13 -7 -13 -5 -1 9 11 14 11 17 0 17 -12 0 -12 2 -1 9 11 6
10 10 -5 16 -39 17 -54 12 -73 -24 -10 -20 -19 -40 -20 -46 -1 -5 -6 -9 -10
-8 -9 3 -8 -17 3 -34 4 -6 2 -15 -4 -19 -8 -5 -9 -3 -4 7 5 8 4 11 0 6 -14
-12 -34 -78 -22 -70 6 4 7 1 1 -8 -16 -26 -32 -79 -21 -72 6 4 7 1 1 -8 -4 -8
-10 -23 -11 -34 -2 -10 -9 -23 -16 -27 -6 -4 -7 -8 -2 -8 6 0 11 -9 11 -19 0
-11 -5 -17 -10 -14 -5 4 -7 -1 -3 -11 4 -10 2 -26 -3 -36 -7 -13 -7 -21 1 -25
7 -5 4 -14 -8 -28 -12 -14 -13 -18 -3 -12 13 8 13 7 1 -8 -9 -12 -10 -17 -2
-17 8 0 9 -6 3 -17 -4 -10 -8 -25 -7 -33 1 -8 -2 -25 -7 -38 -5 -15 -4 -21 2
-17 13 8 13 -1 0 -26 -7 -13 -7 -19 0 -19 5 0 10 -5 10 -11 0 -5 -6 -7 -12 -3
-9 5 -9 2 1 -9 10 -13 10 -17 1 -17 -9 0 -10 -3 -1 -14 6 -7 10 -24 8 -37 -2
-13 -1 -36 4 -51 5 -19 4 -28 -4 -28 -7 0 -6 -4 3 -10 13 -9 13 -10 0 -10 -11
0 -12 -2 -3 -8 7 -4 13 -27 14 -50 2 -23 7 -42 12 -42 5 0 4 -6 -2 -14 -7 -9
-8 -15 -2 -18 5 -1 12 -14 15 -28 3 -14 9 -42 15 -62 5 -20 6 -40 2 -44 -3 -4
0 -4 7 0 8 5 12 -1 12 -18 0 -14 5 -26 10 -26 6 0 10 -11 10 -25 0 -14 4 -25
9 -25 5 0 11 -10 15 -22 5 -19 8 -21 16 -8 8 13 10 13 10 1 0 -11 4 -10 16 5
8 10 12 12 8 4 -7 -13 -6 -13 10 -1 9 8 15 20 12 28 -3 7 -1 13 5 13 6 0 8 4
5 8 -3 5 4 23 15 41 11 18 15 30 9 26 -6 -3 -7 0 -4 9 3 9 10 16 16 16 5 0 7
4 3 9 -3 5 2 16 10 24 18 19 20 31 3 21 -7 -4 -5 2 5 13 9 11 14 23 10 26 -3
4 -2 7 4 7 9 0 22 25 27 55 1 6 7 9 13 8 7 -2 10 6 8 17 -2 11 0 20 6 20 5 0
9 7 9 15 0 8 4 15 9 15 5 0 12 12 15 26 4 15 17 35 29 46 12 11 15 16 7 12 -8
-5 -5 4 8 20 12 16 19 33 15 40 -4 6 0 5 9 -2 14 -11 16 -10 11 7 -3 13 -1 21
7 21 7 0 10 7 6 16 -3 8 -2 13 3 10 5 -3 15 2 22 11 12 14 12 16 -1 8 -13 -8
-13 -6 -1 8 7 9 18 14 24 10 6 -3 7 -1 3 5 -4 7 -2 12 4 12 6 0 9 4 6 8 -3 5
4 16 15 25 11 10 17 21 15 26 -3 5 4 11 15 14 12 3 18 10 15 16 -4 6 2 16 14
23 11 7 20 21 20 30 0 11 5 15 15 12 10 -4 13 0 10 15 -2 11 -1 20 3 18 10 -3
61 51 54 57 -3 3 0 6 7 6 7 0 11 7 8 14 -4 10 -1 13 7 10 7 -3 16 2 20 11 3 9
11 13 17 9 7 -4 9 -3 5 4 -8 13 111 135 125 127 5 -3 6 1 3 9 -4 10 1 18 12
23 21 8 54 40 48 46 -3 2 2 7 11 11 11 4 14 2 9 -7 -5 -8 -2 -8 9 2 9 7 15 16
13 20 -3 4 4 13 16 20 16 10 19 10 13 -1 -5 -7 7 2 25 20 30 29 43 36 62 33 5
0 7 5 5 11 -1 7 8 14 21 16 12 2 20 8 17 13 -4 5 1 9 9 9 9 0 16 6 16 13 0 8
4 7 10 -3 7 -11 10 -11 10 -2 0 7 5 10 10 7 6 -3 10 1 10 9 0 10 6 13 15 10 8
-4 15 -2 15 4 0 6 11 9 25 8 13 -2 22 1 19 5 -6 10 -5 10 51 14 22 2 40 4 40
5 0 2 10 4 23 5 12 1 22 -3 22 -9 0 -6 5 -4 10 4 9 13 10 13 10 0 0 -13 1 -13
10 0 5 8 10 10 10 4 0 -6 13 -14 30 -17 33 -7 124 -92 132 -125 6 -21 -15 -38
-33 -27 -5 4 -6 0 -4 -7 4 -9 -3 -14 -16 -15 -12 -1 -25 -6 -28 -11 -3 -5 -14
-11 -24 -15 -11 -4 -15 -12 -11 -19 6 -10 4 -10 -8 0 -13 11 -19 8 -38 -15
-12 -15 -18 -22 -15 -15 6 11 3 11 -14 0 -12 -7 -21 -17 -21 -21 0 -5 -7 -7
-14 -4 -11 4 -13 1 -9 -10 4 -10 2 -14 -4 -10 -6 4 -27 -9 -47 -28 -21 -19
-42 -35 -48 -35 -5 0 -7 -7 -4 -16 3 -8 2 -12 -3 -9 -5 3 -24 -9 -43 -27 -18
-17 -24 -25 -13 -17 19 13 19 13 6 -4 -8 -10 -20 -16 -27 -13 -8 3 -11 0 -7
-10 3 -7 0 -14 -6 -14 -6 0 -11 -6 -11 -13 0 -8 -11 -27 -25 -42 -18 -22 -21
-32 -13 -42 7 -9 6 -14 -7 -19 -13 -5 -14 -9 -3 -15 7 -5 8 -9 3 -9 -12 0 -13
-54 -2 -87 4 -11 15 -24 23 -27 8 -3 12 -10 9 -16 -4 -6 7 -13 24 -16 17 -4
31 -12 31 -19 0 -6 10 -11 23 -10 12 1 30 -5 40 -13 13 -12 17 -12 17 -2 0 9
5 7 15 -6 15 -19 15 -19 8 1 -6 18 -5 18 10 7 9 -8 21 -11 26 -8 5 4 12 2 15
-3 3 -4 31 -9 61 -10 31 0 65 -6 77 -12 12 -6 18 -7 14 -1 -3 6 5 9 19 8 14 0
25 -5 25 -11 0 -5 4 -4 9 4 6 9 11 10 15 2 5 -7 15 -7 31 -1 24 9 30 6 25 -15
-1 -5 7 -2 18 8 10 9 22 14 26 10 4 -4 53 -9 109 -11 141 -4 160 -6 176 -16
10 -6 12 -6 7 2 -4 7 -3 12 3 12 5 0 13 -5 16 -10 4 -7 13 -7 26 0 10 6 19 7
19 3 0 -4 23 -9 51 -9 31 -1 55 -7 60 -15 7 -11 9 -11 9 -1 0 10 5 10 20 2 15
-8 20 -8 20 2 0 9 3 9 10 -2 5 -8 10 -12 10 -7 0 4 16 1 35 -8 25 -10 34 -11
29 -2 -4 7 3 3 16 -8 15 -13 21 -15 16 -5 -7 13 -6 13 6 0 7 -8 20 -16 28 -18
8 -2 18 -8 21 -14 3 -5 9 -9 13 -8 11 1 36 -27 29 -34 -4 -3 1 -6 9 -6 12 0
15 -9 12 -44 -5 -50 -27 -100 -39 -88 -5 4 -5 1 -1 -6 5 -8 -2 -20 -18 -33
-15 -12 -23 -26 -19 -34 3 -10 1 -13 -9 -10 -8 3 -21 -2 -29 -12 -12 -16 -12
-17 1 -8 9 6 7 2 -3 -7 -11 -10 -24 -15 -30 -11 -6 3 -7 1 -3 -5 4 -7 2 -12
-4 -12 -6 0 -8 -4 -5 -10 5 -9 -15 -15 -37 -11 -4 0 -4 -7 -1 -16 4 -11 3 -14
-5 -9 -7 4 -12 2 -12 -3 0 -6 -3 -10 -8 -8 -4 1 -9 -2 -11 -8 -6 -16 -41 -37
-54 -32 -6 2 -19 -4 -28 -15 -9 -10 -28 -19 -42 -20 -14 -1 -23 -6 -21 -10 5
-8 -10 -12 -33 -9 -7 1 -13 -3 -13 -9 0 -5 -9 -10 -19 -10 -11 0 -23 -5 -27
-11 -3 -6 -17 -9 -30 -6 -13 2 -21 0 -18 -4 5 -9 -16 -13 -63 -12 -13 0 -23
-3 -23 -6 0 -4 -17 -5 -37 -4 -57 5 -62 6 -58 14 3 4 -1 9 -9 12 -9 3 -13 16
-12 31 2 14 -1 26 -6 26 -5 0 -6 6 -1 13 8 12 9 17 12 38 0 5 5 8 10 4 6 -3 8
4 6 15 -2 11 1 20 6 20 6 0 7 5 4 10 -3 6 -1 10 6 10 7 0 10 3 6 6 -7 7 8 24
38 43 16 10 17 11 2 7 -11 -3 -15 -2 -12 4 3 6 11 10 16 10 12 0 44 30 32 30
-4 0 -1 5 7 11 11 8 12 12 2 16 -6 2 -10 8 -8 12 3 4 -4 13 -16 20 -16 10 -18
10 -12 0 5 -9 2 -11 -9 -6 -9 3 -17 2 -19 -2 -2 -5 -23 -25 -46 -45 -24 -20
-39 -36 -32 -36 6 0 8 -5 5 -10 -4 -6 -11 -8 -16 -5 -5 4 -9 -1 -9 -10 0 -8
-7 -18 -16 -22 -13 -5 -13 -7 -2 -14 8 -5 9 -9 2 -9 -11 0 -29 -46 -26 -62 1
-5 -3 -8 -8 -8 -7 0 -7 -6 0 -20 6 -11 7 -20 1 -20 -12 0 -9 -33 4 -42 6 -5 4
-8 -5 -8 -12 -1 -11 -3 3 -11 9 -5 17 -19 17 -30 0 -11 4 -18 9 -14 5 3 12 -3
15 -13 8 -25 43 -42 91 -45 22 -1 43 -6 47 -12 5 -6 8 -6 8 2 0 6 11 10 25 8
14 -1 25 2 25 7 0 4 14 6 31 3 17 -3 28 -2 25 4 -9 13 31 20 45 7 9 -8 10 -8
6 0 -7 13 19 27 33 19 4 -3 11 2 14 11 3 9 13 14 20 11 8 -3 20 1 26 8 7 8 16
12 21 9 5 -3 9 0 9 6 0 6 5 8 10 5 6 -3 10 -1 10 6 0 8 4 8 16 -1 8 -8 14 -9
13 -4 -3 18 1 37 7 31 8 -7 64 23 64 35 0 4 9 5 20 3 11 -2 19 0 17 4 -3 10
53 61 67 61 6 0 17 9 24 20 7 12 17 18 22 15 5 -3 11 4 15 15 4 11 11 17 17
14 7 -5 9 -1 5 9 -4 11 -1 17 8 17 8 0 15 5 15 11 0 5 5 7 12 3 6 -4 8 -3 4 4
-3 6 -1 14 5 17 5 4 8 14 4 22 -4 13 -3 14 10 3 13 -11 14 -10 9 4 -3 9 -2 16
4 16 9 0 27 47 24 63 -1 4 2 7 8 7 5 0 10 5 10 11 0 5 -6 7 -12 3 -10 -6 -10
-4 -2 7 11 13 12 65 3 98 -9 33 -76 101 -99 101 -6 0 -8 4 -5 10 3 5 0 7 -8 4
-8 -3 -18 0 -22 5 -3 6 -11 9 -16 6 -5 -4 -9 -2 -9 3 0 5 -10 12 -22 15 -13 2
-32 8 -42 12 -15 7 -18 5 -12 -6 4 -8 -2 -3 -13 10 -12 13 -21 19 -21 15 0 -5
-11 -9 -25 -9 -14 0 -25 4 -25 9 0 4 -7 5 -16 2 -12 -5 -15 -2 -10 11 5 15 4
15 -9 -1 -8 -11 -15 -15 -15 -9 0 6 -17 10 -38 10 -21 0 -43 3 -50 7 -7 4 -12
5 -12 1 0 -3 -9 -1 -19 5 -13 6 -22 7 -26 0 -3 -5 -11 -7 -18 -5 -7 2 -34 6
-60 9 -35 4 -46 2 -40 -7 5 -9 3 -9 -8 -1 -8 6 -29 10 -46 9 -19 -1 -33 3 -33
9 0 7 -3 8 -8 1 -6 -9 -27 -12 -34 -5 -2 1 -33 3 -70 4 -37 1 -70 5 -74 8 -3
4 -16 3 -28 -2 -13 -5 -30 -4 -40 2 -15 8 -17 8 -11 -3 6 -11 5 -12 -6 -1 -16
15 -33 16 -23 0 4 -7 3 -8 -5 -4 -12 8 -25 10 -121 21 -30 4 -60 11 -67 16 -7
7 -13 5 -16 -3 -4 -10 -6 -10 -6 0 -1 6 -10 12 -21 12 -11 0 -20 4 -20 10 0 5
-7 7 -15 4 -13 -6 -20 6 -16 29 0 4 -4 7 -10 7 -7 0 -8 5 -3 13 5 6 9 21 9 32
0 11 6 26 13 34 7 7 11 20 8 28 -3 8 -1 11 4 8 6 -3 10 -2 10 2 0 26 151 178
164 165 3 -3 6 0 6 6 0 7 7 12 16 12 9 0 12 5 8 12 -5 8 -2 9 10 5 9 -4 15 -3
12 1 -3 4 4 14 16 21 16 10 19 10 12 -1 -6 -10 -4 -10 9 1 9 7 14 17 11 22 -3
5 1 6 9 3 8 -3 17 2 20 10 4 9 13 13 22 10 8 -3 15 -1 15 6 0 6 5 8 10 5 6 -3
13 0 16 9 3 8 12 12 20 9 8 -3 14 0 14 6 0 6 9 11 20 11 11 0 20 5 20 10 0 6
3 9 8 8 4 -2 27 6 52 16 25 11 48 19 53 18 4 -1 7 2 7 7 0 6 9 8 20 6 11 -2
20 0 20 4 0 8 28 19 68 27 8 1 21 6 30 10 15 6 35 12 69 18 7 1 15 5 19 8 3 4
12 4 20 1 8 -3 14 -1 14 4 0 5 11 10 25 11 48 3 55 5 55 16 0 6 5 4 10 -4 5
-8 10 -10 10 -4 0 6 6 11 13 12 6 1 39 4 72 8 33 3 76 7 95 8 19 0 38 6 42 11
5 6 8 6 8 -1 0 -6 7 -11 15 -11 8 0 15 4 15 9 0 5 9 4 20 -2 15 -8 20 -8 20 2
0 10 2 10 9 -1 5 -7 14 -10 20 -7 6 4 11 2 11 -4 0 -7 7 -10 15 -6 8 3 15 2
15 -2 0 -4 10 -8 22 -9 11 -1 25 -8 29 -15 5 -7 9 -9 9 -4 0 5 8 2 18 -7 10
-10 22 -14 26 -10 4 5 7 4 6 -2 -4 -20 0 -35 11 -35 5 0 7 6 3 13 -5 8 -2 8 9
-2 9 -7 17 -20 17 -27 0 -8 5 -14 11 -14 5 0 7 -5 3 -12 -5 -8 -2 -9 10 -5 9
4 14 3 11 -2 -3 -5 -1 -12 5 -16 6 -4 8 -11 5 -16 -4 -5 -1 -9 5 -9 6 0 9 -4
5 -9 -3 -5 -1 -12 5 -16 5 -3 15 -15 21 -27 9 -16 8 -19 -3 -12 -7 4 -5 -2 6
-14 19 -22 66 -27 63 -7 -1 5 3 9 8 8 6 -1 11 7 11 18 0 10 -5 19 -11 19 -5 0
-3 5 5 10 13 8 12 10 -3 10 -10 0 -16 4 -12 9 3 5 -2 16 -10 25 -9 8 -15 17
-14 18 5 8 -14 48 -23 48 -5 0 -7 7 -4 16 3 8 2 12 -4 9 -6 -3 -10 1 -10 9 0
9 -6 15 -12 13 -7 -1 -12 4 -11 11 2 6 -2 12 -7 12 -6 0 -20 11 -32 25 -12 14
-27 25 -33 25 -6 0 -21 9 -33 21 -12 11 -27 17 -32 14 -6 -4 -13 1 -16 10 -5
12 -9 13 -20 4 -11 -9 -14 -9 -14 0 0 7 -3 10 -7 8 -5 -3 -19 0 -33 6 -36 14
-60 15 -60 3 0 -6 -5 -4 -10 4 -9 13 -10 13 -10 0 0 -12 -2 -12 -9 -2 -9 15
-20 15 -38 0 -9 -7 -13 -7 -13 1 0 8 -5 9 -17 2 -10 -5 -26 -5 -40 0 -13 5
-23 5 -23 1 0 -4 -17 -8 -37 -10 -20 -1 -42 -7 -49 -13 -8 -7 -14 -7 -19 1 -4
7 -11 8 -18 2 -11 -9 -27 -12 -69 -13 -10 0 -18 -4 -18 -9 0 -4 -11 -7 -25 -5
-14 1 -25 -2 -25 -8 0 -5 -8 -3 -17 4 -10 8 -14 9 -10 2 8 -13 -59 -37 -75
-27 -4 3 -8 0 -8 -6 0 -6 -4 -9 -9 -5 -5 3 -15 -1 -23 -8 -7 -7 -22 -12 -33
-12 -11 0 -22 -3 -25 -7 -3 -3 -14 -8 -25 -10 -11 -1 -25 -10 -32 -18 -11 -13
-12 -13 -13 0 -1 13 -2 13 -13 0 -7 -8 -18 -16 -25 -18 -17 -3 -40 20 -34 36
2 6 -4 12 -13 12 -9 0 -14 4 -10 9 3 6 -10 25 -29 44 -19 19 -32 38 -28 42 3
3 -2 3 -13 -1 -15 -6 -17 -4 -12 10 4 9 3 15 -2 11 -5 -3 -17 2 -25 11 -11 10
-16 11 -16 3 0 -8 -5 -7 -17 3 -10 9 -24 13 -30 11 -7 -3 -13 0 -13 5 0 6 -8
9 -17 7 -10 -1 -26 2 -35 7 -13 6 -18 5 -18 -4 0 -9 -3 -9 -10 2 -5 8 -10 11
-10 5z"/>
<path d="M3104 5221 c6 -8 -3 -12 -31 -11 -77 1 -138 -8 -135 -19 2 -9 -3 -9
-17 -1 -12 6 -22 6 -25 1 -4 -5 -17 -8 -31 -6 -14 1 -28 -2 -31 -7 -3 -5 -12
-4 -20 3 -12 10 -13 9 -8 -4 4 -12 -1 -15 -28 -13 -18 2 -36 -1 -39 -6 -3 -5
-20 -10 -38 -10 -18 -1 -36 -8 -41 -17 -5 -9 -10 -11 -10 -6 0 6 -9 11 -19 11
-11 0 -17 -4 -15 -8 3 -4 -1 -9 -8 -9 -7 -1 -23 -3 -35 -4 -13 -1 -29 -8 -38
-15 -8 -7 -15 -9 -15 -5 0 4 -7 2 -15 -5 -8 -7 -15 -9 -15 -5 0 5 -10 0 -22
-11 -12 -10 -18 -13 -14 -6 4 6 2 12 -4 12 -6 0 -13 -6 -16 -14 -3 -8 -15 -11
-30 -8 -14 2 -24 0 -24 -7 0 -7 -4 -9 -10 -6 -5 3 -10 1 -10 -5 0 -6 -4 -8
-10 -5 -5 3 -10 1 -10 -5 0 -6 -5 -8 -12 -4 -6 4 -17 -1 -25 -11 -9 -13 -13
-14 -13 -5 0 9 -5 7 -15 -6 -8 -11 -14 -14 -15 -6 0 8 -7 6 -22 -7 -11 -11
-25 -18 -30 -15 -4 3 -8 0 -8 -7 0 -8 -5 -7 -17 2 -9 8 -14 9 -10 3 4 -7 -3
-14 -18 -18 -14 -4 -23 -11 -20 -16 3 -6 -1 -7 -9 -4 -9 3 -16 1 -16 -5 0 -6
-3 -10 -7 -9 -5 1 -23 -6 -40 -15 -18 -10 -33 -15 -33 -12 0 3 -10 -3 -22 -14
-11 -11 -24 -18 -28 -16 -5 3 -11 -2 -14 -11 -3 -8 -10 -12 -16 -9 -6 3 -13
-1 -16 -9 -3 -9 -12 -16 -20 -16 -8 0 -14 -5 -14 -12 0 -6 -3 -8 -6 -5 -4 4
-15 -3 -25 -15 -13 -14 -19 -17 -19 -7 -1 8 -6 4 -13 -9 -7 -12 -16 -19 -20
-16 -4 4 -7 2 -7 -5 0 -7 -4 -9 -10 -6 -5 3 -10 2 -10 -4 0 -6 -12 -17 -27
-25 -16 -8 -24 -15 -20 -16 12 0 -20 -30 -32 -30 -6 0 -10 -5 -8 -12 1 -7 -4
-12 -10 -13 -7 0 -13 -4 -12 -8 0 -5 -11 -19 -25 -32 -14 -13 -26 -29 -26 -35
0 -5 -5 -10 -11 -10 -6 0 -9 -7 -6 -14 4 -11 1 -13 -10 -9 -11 4 -14 3 -9 -6
5 -7 0 -18 -10 -26 -12 -9 -14 -14 -6 -15 7 0 10 -5 7 -10 -4 -6 -12 -7 -18
-3 -7 4 -5 -2 3 -12 9 -11 10 -16 3 -11 -12 6 -19 -18 -14 -46 0 -5 -5 -8 -12
-8 -8 0 -7 -4 3 -10 13 -9 13 -10 0 -10 -13 0 -13 -1 0 -10 8 -5 11 -10 5 -10
-5 0 -10 -11 -10 -24 0 -15 5 -22 13 -19 8 4 10 0 6 -11 -3 -9 -1 -16 5 -16 6
0 10 -6 9 -12 -2 -7 2 -12 9 -11 8 2 10 -4 6 -14 -4 -10 -2 -14 4 -10 6 4 13
0 17 -8 3 -9 12 -12 22 -8 13 5 15 3 9 -7 -6 -10 -4 -12 8 -7 10 4 16 2 14 -6
-1 -7 8 -12 21 -11 12 0 22 -3 22 -7 0 -5 7 -5 17 -2 10 4 14 2 10 -4 -4 -7 0
-10 10 -9 10 2 32 0 50 -5 18 -4 33 -4 33 0 0 4 13 6 30 3 16 -2 41 -2 54 2
26 6 42 46 23 58 -7 4 -7 8 -2 8 6 0 5 4 -2 8 -6 4 -44 7 -82 6 -39 -1 -71 2
-71 5 0 3 -14 7 -32 8 -17 1 -35 8 -39 14 -5 8 -8 7 -12 -2 -4 -11 -6 -11 -6
-1 -1 7 -5 10 -11 7 -5 -3 -10 1 -10 10 0 9 -4 13 -10 10 -5 -3 -10 1 -10 9 0
9 -4 16 -8 16 -10 0 -9 61 1 78 5 7 3 12 -5 12 -8 0 -7 4 4 11 9 5 15 16 12
24 -4 8 1 18 10 21 9 3 13 10 10 15 -3 5 0 9 6 9 6 0 8 5 5 10 -3 6 1 13 9 16
8 3 18 15 22 26 3 11 12 17 19 14 9 -3 11 2 7 16 -3 12 -1 19 4 16 12 -7 65
47 56 57 -4 5 -1 5 7 0 9 -5 18 -3 25 6 6 8 20 19 31 26 11 6 19 16 18 22 -2
6 0 10 5 9 4 -2 25 8 47 21 22 14 44 24 49 22 5 -1 6 5 2 14 -3 9 -2 14 3 11
5 -3 14 1 21 9 7 8 17 12 22 9 5 -3 16 2 24 12 9 11 12 12 8 4 -5 -10 0 -9 14
4 12 11 22 16 22 12 0 -4 13 2 29 13 15 11 31 18 35 14 3 -3 6 -2 6 4 0 6 11
14 25 17 14 4 25 12 25 19 0 8 4 7 10 -3 7 -11 10 -11 10 -2 0 7 5 10 10 7 6
-3 10 -1 10 5 0 6 5 8 10 5 6 -3 10 -1 10 5 0 6 5 8 10 5 6 -3 10 -1 10 5 0 6
5 8 10 5 6 -3 10 0 10 7 0 10 3 9 10 -2 8 -12 10 -12 16 3 4 10 13 16 20 13 8
-3 14 -1 14 5 0 6 5 7 10 4 6 -3 10 -2 10 4 0 5 11 8 24 7 14 -2 27 3 30 10 3
7 14 11 26 9 11 -2 20 1 20 6 0 6 4 8 9 4 6 -3 14 3 20 12 7 12 10 13 11 4 0
-10 3 -11 13 -2 8 6 17 8 20 4 4 -3 7 -1 7 7 0 10 4 10 17 -1 14 -12 16 -12 8
0 -6 11 -4 13 8 8 10 -4 17 -2 17 4 0 7 11 9 25 7 13 -3 23 -1 22 5 -1 5 12
11 28 13 47 5 64 10 71 17 4 4 14 1 22 -6 13 -10 14 -9 7 2 -6 11 -3 13 13 9
14 -4 20 -2 15 5 -4 6 0 8 10 4 9 -3 19 -2 23 4 4 6 12 5 22 -3 12 -10 14 -10
8 0 -5 9 3 12 28 12 20 0 37 -1 39 -2 1 -1 12 4 24 10 15 8 24 9 28 2 4 -7 11
-7 18 -2 7 5 22 8 35 7 13 -1 25 3 29 8 3 5 9 3 14 -4 5 -8 9 -9 9 -4 0 10 35
11 167 4 27 -1 40 -6 36 -13 -4 -6 1 -5 10 3 9 7 17 9 17 4 0 -6 16 -9 34 -8
19 1 33 -2 31 -6 -3 -4 2 -9 10 -13 8 -3 17 -1 20 5 4 5 13 3 21 -6 9 -8 20
-13 25 -10 5 4 9 1 9 -4 0 -6 7 -11 15 -11 8 0 15 -3 15 -8 0 -4 10 -12 22
-17 12 -6 26 -19 32 -30 6 -10 17 -25 24 -33 7 -7 10 -18 7 -23 -4 -5 -2 -9 3
-9 6 0 12 -18 14 -40 2 -22 0 -40 -3 -40 -4 0 -5 -9 -2 -20 3 -11 0 -26 -6
-33 -6 -8 -8 -17 -4 -20 3 -4 1 -7 -5 -7 -7 0 -11 -6 -10 -12 2 -7 -2 -12 -9
-11 -7 2 -10 -4 -7 -12 4 -8 -1 -17 -10 -21 -9 -3 -16 -12 -16 -20 0 -8 -6
-13 -12 -12 -7 2 -12 -5 -12 -14 1 -11 -5 -15 -17 -13 -10 2 -18 1 -18 -3 3
-17 -2 -32 -8 -30 -16 3 -43 -15 -36 -25 3 -6 1 -7 -6 -3 -7 5 -23 -3 -38 -18
-14 -14 -29 -24 -33 -21 -4 3 -11 -2 -14 -11 -4 -9 -13 -14 -22 -10 -8 3 -12
2 -9 -4 6 -9 -8 -14 -27 -11 -5 0 -8 -4 -8 -10 0 -5 -4 -7 -10 -4 -5 3 -10 1
-10 -5 0 -6 -4 -9 -9 -5 -6 3 -14 -3 -20 -12 -5 -10 -13 -15 -17 -11 -4 5 -13
3 -21 -3 -7 -6 -13 -8 -13 -5 0 4 -7 0 -16 -9 -9 -9 -23 -14 -31 -11 -8 3 -11
1 -8 -4 3 -6 -3 -11 -14 -11 -12 -1 -27 -2 -33 -3 -7 -1 -18 -7 -24 -15 -6 -8
-18 -12 -27 -8 -9 3 -18 -1 -21 -10 -4 -9 -14 -13 -26 -10 -11 3 -20 1 -20 -5
0 -5 -5 -6 -11 -2 -6 3 -15 0 -20 -7 -7 -12 -9 -11 -9 1 0 13 -2 13 -9 1 -8
-13 -40 -20 -103 -24 -9 -1 -14 -5 -11 -11 3 -5 -5 -7 -20 -4 -15 3 -28 1 -29
-4 -4 -11 -38 1 -38 13 0 5 5 9 10 9 6 0 10 5 10 11 0 5 -6 7 -12 3 -9 -5 -8
-2 1 9 8 10 11 20 8 23 -3 4 1 13 9 21 8 9 13 20 11 27 -2 6 2 17 9 24 7 7 10
20 7 29 -5 12 -2 15 10 10 14 -5 15 -2 7 19 -6 15 -6 23 -1 19 12 -7 25 31 15
46 -4 8 -3 9 4 5 8 -5 12 1 12 14 0 12 4 19 8 16 4 -2 9 7 10 21 1 14 7 32 13
39 6 8 8 14 3 14 -4 0 1 7 12 16 10 8 13 13 7 9 -9 -4 -11 -1 -7 9 3 9 9 14
13 12 4 -3 5 14 2 37 -4 28 -11 42 -21 42 -8 0 -18 5 -22 10 -5 6 -8 5 -8 -3
0 -7 -5 -10 -10 -7 -6 4 -9 1 -8 -7 2 -7 -3 -12 -10 -10 -8 1 -11 -2 -7 -8 4
-6 1 -18 -7 -27 -11 -14 -11 -16 2 -8 13 8 13 7 0 -9 -8 -10 -15 -26 -15 -35
0 -9 -6 -15 -13 -13 -8 1 -11 -2 -7 -8 8 -13 -4 -52 -14 -45 -5 2 -6 -7 -3
-22 3 -18 1 -24 -6 -19 -8 5 -10 2 -6 -8 3 -9 1 -16 -6 -16 -6 0 -9 -4 -5 -9
3 -5 1 -12 -5 -16 -6 -4 -8 -11 -5 -16 4 -5 1 -9 -5 -9 -6 0 -8 -5 -5 -10 4
-6 1 -17 -5 -25 -7 -8 -9 -15 -4 -15 5 0 1 -5 -9 -11 -13 -8 -15 -14 -7 -30 9
-15 7 -19 -5 -19 -9 0 -13 -5 -10 -10 4 -6 2 -16 -4 -23 -5 -7 -12 -26 -15
-42 -8 -44 -28 -53 -102 -50 -59 3 -103 23 -87 39 4 3 1 6 -5 6 -6 0 -9 10 -7
22 3 12 -1 28 -7 35 -9 11 -7 12 8 7 10 -4 16 -4 12 1 -4 4 -2 17 4 29 7 11
12 24 13 28 0 3 3 10 8 14 12 12 8 24 -8 24 -7 0 -19 8 -24 18 -6 9 -11 11
-11 5 0 -7 -3 -12 -7 -12 -20 3 -34 -2 -28 -11 3 -6 -1 -13 -9 -16 -9 -3 -14
-10 -11 -14 3 -5 1 -11 -5 -15 -6 -4 -8 -11 -5 -16 4 -5 2 -9 -4 -9 -5 0 -8
-9 -6 -20 2 -11 1 -20 -3 -20 -4 0 -7 -11 -7 -25 0 -14 4 -25 9 -25 4 0 5 -7
2 -15 -3 -9 1 -18 9 -21 8 -4 12 -10 9 -16 -3 -5 8 -22 25 -39 17 -16 31 -24
31 -17 0 10 2 10 8 1 5 -7 20 -14 35 -15 15 -1 27 -6 27 -11 0 -4 8 -3 18 2
11 6 24 6 32 1 9 -6 17 -5 22 3 5 8 8 4 8 -10 0 -13 -5 -23 -10 -23 -6 0 -8
-11 -6 -24 3 -16 -1 -27 -10 -30 -9 -3 -13 -10 -9 -16 3 -5 0 -20 -6 -32 -7
-13 -14 -36 -16 -52 -2 -16 -11 -39 -21 -50 -9 -10 -11 -16 -4 -12 6 4 12 2
12 -3 0 -6 -4 -11 -8 -11 -4 0 -9 -8 -9 -17 -6 -56 -9 -69 -16 -74 -5 -3 -1
-13 8 -23 9 -9 13 -16 8 -17 -4 0 1 -4 12 -8 21 -9 49 5 39 20 -3 5 1 9 9 9
11 0 13 7 9 22 -3 12 -1 19 4 15 5 -3 10 9 11 26 0 17 6 33 12 35 9 3 9 7 0
18 -7 8 -7 14 -1 14 10 0 27 47 23 64 -1 5 6 18 16 29 12 14 13 18 3 12 -12
-7 -13 -6 -3 7 7 8 10 18 6 21 -3 4 0 7 7 7 7 0 11 3 7 6 -3 4 0 19 9 35 8 16
11 29 7 29 -4 0 2 7 13 16 10 8 12 12 4 8 -13 -7 -13 -5 -1 9 7 9 17 15 21 12
5 -3 11 1 13 7 4 10 6 9 6 -1 1 -11 4 -11 16 -1 12 10 15 10 15 -1 0 -12 2
-12 9 0 5 7 21 14 35 14 15 0 29 4 32 9 4 6 10 5 15 -3 7 -11 9 -11 9 -1 0 7
5 10 10 7 6 -3 10 -2 10 4 0 11 19 9 39 -3 9 -6 12 -5 7 2 -7 12 29 27 57 23
9 -1 17 3 17 9 0 7 6 10 14 7 8 -3 16 -1 18 5 2 6 13 12 24 13 24 3 51 12 87
30 20 10 27 11 27 2 0 -7 7 -4 15 7 8 10 21 16 29 13 9 -4 18 -1 22 5 5 7 2 8
-6 3 -9 -5 -11 -4 -6 4 4 6 12 8 18 5 6 -4 13 -3 17 2 3 5 17 15 30 22 19 11
22 11 15 0 -4 -7 3 -4 15 6 12 11 30 21 39 22 9 2 18 8 20 13 2 6 10 11 18 11
8 0 14 5 14 11 0 5 4 8 9 5 5 -3 12 1 15 10 3 8 10 12 16 9 5 -3 10 -1 10 5 0
7 7 10 15 6 9 -3 15 0 15 9 0 8 6 15 14 15 8 0 26 14 40 31 14 17 26 28 26 25
0 -3 13 7 29 22 15 15 27 29 25 30 -6 8 30 40 39 35 6 -4 7 -1 3 6 -5 7 0 18
10 26 12 9 14 14 6 15 -8 0 -5 8 8 22 12 13 19 31 17 40 -3 9 2 19 10 22 10 4
11 10 4 24 -7 13 -7 22 0 29 8 8 7 13 0 17 -6 4 -11 20 -11 37 0 16 -4 29 -9
29 -6 0 -8 9 -6 20 2 11 -1 20 -6 20 -5 0 -13 8 -16 18 -4 9 -13 23 -20 30 -7
8 -10 18 -7 24 4 7 2 8 -4 4 -7 -4 -12 -2 -12 5 0 7 -3 9 -6 6 -4 -4 -15 3
-25 15 -11 11 -19 18 -19 14 0 -4 -7 0 -16 8 -8 9 -20 14 -25 11 -5 -4 -9 1
-9 10 0 9 -4 13 -10 10 -5 -3 -10 -2 -10 3 0 6 -9 8 -20 5 -11 -3 -20 -1 -20
4 0 7 -22 13 -67 16 -7 0 -13 5 -13 11 0 6 -5 4 -10 -4 -5 -8 -10 -10 -10 -5
0 6 -12 12 -27 13 -43 4 -57 7 -72 16 -9 6 -12 5 -8 -1 8 -13 -132 -11 -153 2
-9 5 -11 4 -6 -4z"/>
<path d="M1563 3999 c9 -6 14 -15 11 -21 -4 -7 -2 -8 4 -4 8 4 12 0 12 -11 0
-15 2 -15 9 -4 7 10 2 20 -14 33 -13 10 -27 18 -32 18 -4 0 0 -5 10 -11z"/>
<path d="M1610 3952 c0 -7 5 -12 11 -12 5 0 8 -4 5 -9 -6 -10 43 -65 74 -81
12 -6 18 -16 13 -23 -4 -7 0 -6 10 2 15 12 17 12 11 -3 -3 -9 -1 -16 6 -16 6
0 8 -5 4 -12 -5 -8 -2 -9 9 -5 11 4 17 1 17 -8 0 -15 56 -75 70 -75 5 0 12
-10 15 -21 6 -17 9 -19 16 -8 5 8 9 9 9 3 0 -6 8 -21 19 -32 l18 -22 19 21
c17 19 17 20 -1 13 -14 -6 -16 -4 -10 7 8 12 6 12 -8 1 -14 -12 -16 -11 -12 8
2 13 2 20 -2 17 -3 -3 -14 4 -24 16 -10 12 -18 18 -19 14 0 -4 -6 -2 -14 5 -8
7 -11 18 -8 23 3 6 -3 3 -13 -5 -11 -9 -16 -10 -11 -3 4 7 2 21 -4 30 -10 16
-11 16 -6 1 3 -12 1 -15 -9 -12 -8 3 -14 9 -13 12 2 20 -4 32 -16 32 -7 0 -16
9 -19 20 -3 11 -12 20 -20 20 -9 0 -18 9 -22 19 -4 13 -12 18 -22 14 -10 -4
-14 -2 -10 4 3 5 -9 25 -28 43 -19 19 -35 29 -35 22z m45 -42 c10 -11 16 -20
13 -20 -3 0 -13 9 -23 20 -10 11 -16 20 -13 20 3 0 13 -9 23 -20z"/>
<path d="M5980 3940 c-9 -6 -10 -10 -3 -10 6 0 15 5 18 10 8 12 4 12 -15 0z"/>
<path d="M6475 3919 c-6 -8 -4 -10 6 -5 8 4 5 0 -5 -8 -11 -9 -23 -16 -28 -16
-4 0 -8 -7 -8 -16 0 -8 -4 -12 -10 -9 -5 3 -15 -5 -21 -19 -7 -14 -16 -23 -20
-20 -4 2 -13 -5 -19 -16 -6 -11 -16 -17 -22 -14 -6 4 -8 3 -4 -4 3 -6 -3 -17
-14 -25 -11 -7 -17 -17 -13 -20 6 -6 -11 -11 -29 -8 -5 0 -7 -2 -5 -6 2 -9
-39 -53 -50 -53 -5 0 -8 -6 -8 -12 0 -7 -9 -12 -18 -11 -10 0 -16 -1 -14 -4 7
-6 -97 -111 -105 -106 -5 2 -8 -1 -8 -7 0 -6 -4 -8 -10 -5 -5 3 -10 -1 -10 -9
0 -9 -4 -16 -8 -16 -5 0 -17 -8 -28 -18 -10 -10 -27 -21 -37 -25 -10 -4 -15
-11 -12 -17 3 -5 1 -10 -6 -10 -6 0 -18 -8 -26 -17 -9 -12 -12 -13 -8 -3 4 8
-2 4 -13 -9 -12 -15 -24 -21 -32 -16 -8 5 -11 4 -6 -3 3 -5 -10 -20 -29 -32
-19 -12 -35 -26 -35 -31 0 -5 -3 -8 -7 -8 -19 3 -34 -2 -29 -10 5 -8 -28 -28
-49 -29 -5 0 -12 -9 -16 -19 -3 -10 -10 -18 -15 -19 -18 -1 -64 -28 -64 -37 0
-5 -7 -6 -16 -3 -8 3 -12 2 -9 -3 6 -10 -33 -27 -50 -22 -5 1 -7 -1 -3 -5 10
-9 -50 -46 -63 -39 -5 4 -12 -1 -15 -9 -3 -9 -10 -14 -14 -11 -4 3 -11 -2 -14
-11 -3 -8 -10 -12 -16 -9 -5 3 -10 2 -10 -4 0 -9 -40 -27 -49 -22 -2 2 -7 -1
-10 -6 -3 -4 -15 -15 -25 -23 -18 -13 -19 -13 -12 0 4 8 0 6 -9 -5 -9 -11 -17
-19 -18 -17 -4 7 -57 -11 -57 -19 0 -5 -7 -9 -15 -9 -8 0 -15 -6 -15 -12 0 -9
-3 -8 -10 2 -8 12 -10 12 -16 -3 -3 -9 -10 -15 -14 -12 -5 3 -11 1 -15 -4 -3
-5 -14 -8 -25 -6 -13 3 -18 0 -14 -7 5 -7 1 -9 -9 -5 -11 4 -17 1 -17 -7 0 -8
-11 -12 -30 -11 -16 1 -27 -2 -24 -7 3 -4 -6 -8 -20 -8 -13 0 -26 -4 -28 -10
-1 -5 -15 -11 -30 -12 -16 -1 -28 -6 -28 -11 0 -5 -9 -7 -20 -4 -11 3 -20 1
-20 -4 0 -5 -9 -9 -21 -9 -13 0 -18 -4 -13 -12 6 -10 4 -10 -7 0 -15 14 -33
16 -25 3 3 -5 -3 -11 -14 -14 -11 -3 -18 -1 -15 3 3 5 -12 0 -32 -10 -21 -10
-40 -14 -41 -9 -3 6 -10 5 -18 -2 -8 -7 -17 -9 -21 -5 -3 3 -15 -2 -26 -11
-20 -17 -20 -17 -13 1 5 15 4 17 -8 7 -8 -6 -30 -13 -48 -15 -19 -2 -39 -5
-44 -8 -5 -3 -19 -4 -31 -3 -12 1 -20 -2 -17 -7 7 -11 -3 -10 -28 3 -11 6 -18
7 -14 1 3 -5 -5 -12 -19 -14 -15 -3 -25 -1 -25 6 0 8 -2 8 -8 0 -4 -6 -24 -10
-44 -9 -21 2 -38 -1 -38 -5 0 -11 -34 -7 -42 5 -5 6 -8 5 -8 -4 0 -10 -3 -11
-13 -2 -8 6 -17 8 -21 4 -12 -13 -48 -14 -40 -1 5 7 3 8 -7 2 -21 -13 -82 -14
-98 0 -10 7 -12 7 -8 0 4 -7 -6 -11 -28 -11 -22 0 -32 4 -28 11 3 6 0 6 -7 -1
-9 -8 -19 -9 -31 -3 -12 7 -20 6 -24 0 -4 -6 -11 -7 -17 -4 -12 8 -83 16 -155
18 -22 0 -39 5 -36 10 3 4 -4 5 -16 1 -12 -4 -21 -2 -21 4 0 6 -7 8 -15 5 -8
-4 -22 -1 -30 6 -11 9 -15 9 -15 1 0 -7 -5 -9 -12 -4 -7 4 -20 8 -28 8 -8 0
-20 4 -27 8 -7 4 -23 5 -38 3 -14 -3 -25 0 -25 5 0 5 -10 9 -23 9 -13 0 -29 6
-36 13 -11 10 -12 9 -6 -2 5 -8 -3 -6 -21 5 -17 12 -25 14 -20 6 7 -11 4 -12
-13 -3 -12 7 -27 9 -33 5 -7 -4 -8 -3 -4 4 5 8 -2 11 -23 8 -18 -2 -29 1 -28
8 1 6 -8 11 -20 10 -13 0 -23 4 -23 9 0 6 -3 7 -7 4 -3 -4 -12 -2 -20 5 -7 6
-16 8 -20 5 -3 -4 -14 -2 -25 4 -11 6 -29 12 -40 14 -12 3 -24 8 -27 12 -3 5
-15 9 -26 11 -11 2 -38 12 -60 21 -45 21 -72 31 -81 30 -4 0 -10 4 -13 9 -3 6
-15 12 -26 14 -11 1 -26 10 -33 18 -12 13 -13 13 -6 0 7 -12 5 -13 -8 -3 -8 7
-18 10 -21 6 -4 -3 -7 2 -7 11 0 12 -5 16 -15 12 -8 -3 -21 1 -29 9 -8 8 -21
15 -29 15 -8 0 -20 7 -27 15 -7 8 -16 12 -21 10 -4 -3 -11 1 -16 9 -4 8 -12
15 -18 15 -23 2 -45 13 -41 20 3 4 0 8 -7 8 -24 1 -42 8 -55 23 -12 13 -13 13
-7 0 4 -8 -1 -6 -10 5 -9 11 -23 19 -31 17 -8 -2 -14 4 -14 13 0 9 -4 13 -10
10 -12 -7 -53 19 -43 28 3 4 -4 7 -16 7 -24 0 -54 24 -43 34 3 4 -1 4 -11 0
-11 -4 -19 0 -23 11 -4 9 -12 14 -19 11 -8 -3 -16 2 -19 10 -3 9 -11 12 -18 8
-8 -5 -9 -2 -5 10 6 14 3 16 -13 11 -14 -5 -20 -2 -20 9 0 9 -9 16 -20 16 -12
0 -20 7 -20 18 0 14 -2 15 -10 2 -8 -13 -10 -12 -10 3 0 10 -8 17 -21 17 -11
0 -18 4 -15 9 6 8 -43 36 -57 32 -5 -1 -6 3 -2 8 3 6 -5 15 -17 22 -13 7 -29
21 -36 31 -7 10 -18 16 -23 13 -5 -4 -12 1 -15 9 -3 9 -12 16 -20 16 -8 0 -14
5 -14 11 0 5 -4 7 -10 4 -5 -3 -10 1 -10 9 0 9 -5 16 -11 16 -5 0 -7 -5 -3
-12 4 -7 3 -8 -4 -4 -6 4 -9 13 -6 21 4 10 0 13 -15 10 -14 -2 -18 1 -14 11 3
8 0 14 -6 14 -7 0 -14 -7 -18 -16 -7 -18 15 -36 32 -26 5 3 3 -3 -5 -13 -8
-10 -10 -16 -3 -12 13 8 46 -20 38 -34 -4 -5 2 -6 11 -2 12 4 15 3 10 -6 -4
-6 -4 -11 1 -10 21 4 33 -2 33 -16 0 -8 7 -15 16 -15 8 0 12 -4 9 -10 -4 -6 1
-7 11 -3 14 5 16 3 11 -11 -4 -10 -3 -15 3 -11 6 3 10 1 10 -4 0 -6 5 -11 11
-11 16 0 39 -26 31 -36 -4 -5 2 -2 12 6 13 10 17 10 12 3 -4 -7 -2 -13 3 -13
6 0 11 -7 11 -16 0 -8 5 -12 10 -9 6 3 10 1 10 -6 0 -7 3 -10 6 -6 4 3 15 -4
25 -16 10 -12 18 -18 19 -14 0 4 12 -4 28 -18 15 -14 34 -32 43 -40 9 -8 21
-15 27 -15 7 0 12 -4 12 -9 0 -5 14 -14 30 -21 17 -7 30 -18 30 -26 0 -8 6
-11 17 -7 11 4 14 3 9 -5 -4 -8 0 -12 11 -12 10 0 25 -9 33 -19 7 -11 17 -18
22 -15 4 3 8 0 8 -6 0 -6 4 -8 10 -5 6 3 10 1 10 -4 0 -6 7 -11 16 -11 10 0
14 -6 11 -14 -4 -10 1 -13 19 -11 14 1 24 -3 24 -11 0 -7 5 -16 12 -20 7 -5 9
-2 4 7 -4 8 2 3 14 -11 12 -14 19 -19 15 -12 -6 11 -3 11 14 0 12 -7 21 -17
21 -21 0 -5 7 -7 15 -3 9 3 15 0 15 -10 0 -8 5 -12 10 -9 6 3 10 1 10 -5 0 -6
5 -8 10 -5 6 3 10 1 10 -4 0 -6 7 -11 16 -11 9 0 12 -5 8 -11 -4 -7 -1 -10 7
-7 8 3 25 -4 38 -16 13 -11 21 -15 16 -7 -5 9 1 7 19 -4 14 -10 26 -22 26 -29
0 -6 5 -4 10 4 6 10 10 11 10 3 0 -7 7 -13 15 -13 8 0 15 -4 15 -10 0 -5 9
-10 20 -10 11 0 20 -4 20 -10 0 -5 9 -10 20 -10 11 0 20 -5 20 -11 0 -5 4 -8
9 -4 5 3 15 0 23 -7 7 -7 20 -14 28 -16 8 -2 17 -7 20 -11 3 -5 15 -7 28 -6
13 1 26 -5 31 -12 4 -8 15 -15 24 -17 9 -1 26 -11 39 -22 18 -15 20 -16 9 -1
-12 15 -12 17 3 11 9 -3 16 -11 16 -16 0 -6 7 -8 15 -4 8 3 15 1 15 -5 0 -6 5
-7 10 -4 6 3 10 2 10 -4 0 -5 18 -12 40 -16 22 -4 40 -11 40 -17 0 -6 7 -8 15
-5 8 4 17 2 20 -4 4 -5 11 -7 16 -4 5 4 9 1 9 -5 0 -6 5 -8 10 -5 6 3 10 2 10
-3 0 -5 13 -8 30 -7 17 1 27 -2 23 -8 -4 -6 0 -8 10 -4 10 3 17 3 17 -2 0 -4
6 -8 13 -9 43 -6 57 -9 63 -15 4 -4 20 -7 36 -7 15 0 28 -3 28 -7 0 -5 19 -9
43 -11 23 -1 43 -7 45 -12 2 -4 15 -6 28 -4 14 3 23 1 20 -4 -2 -4 8 -7 25 -6
16 1 29 -3 29 -8 0 -6 6 -5 15 2 9 8 15 9 15 2 0 -6 9 -9 20 -7 11 2 24 -3 30
-13 9 -16 9 -15 10 2 0 14 3 16 13 7 8 -6 17 -8 20 -4 4 3 7 1 7 -7 0 -10 3
-10 15 0 8 7 15 9 15 4 0 -10 2 -10 176 -17 67 -2 126 -7 132 -11 6 -3 13 -3
15 1 3 5 39 8 81 8 42 0 76 4 76 9 0 5 6 3 14 -3 10 -9 16 -9 21 -1 4 6 13 9
20 6 7 -2 18 1 24 7 8 8 11 8 11 -1 0 -8 7 -9 23 -3 12 4 34 8 50 7 15 -1 27
2 27 6 0 4 15 6 34 4 21 -1 32 2 29 7 -4 6 3 8 15 5 12 -4 22 -2 22 2 0 5 8 7
18 5 9 -1 23 3 31 9 12 9 13 8 6 -4 -7 -12 -6 -13 6 -3 8 6 28 13 44 16 17 3
45 10 63 16 17 5 32 7 32 4 0 -3 6 0 13 6 8 6 17 8 20 4 4 -3 7 -1 7 5 0 6 6
9 14 6 8 -3 17 0 21 5 3 6 11 9 16 5 6 -3 20 2 31 13 14 12 18 13 13 3 -7 -12
-6 -13 7 -3 8 7 18 10 21 6 4 -3 7 0 7 7 0 7 3 11 6 7 4 -3 20 1 36 9 16 9 36
13 44 10 9 -3 12 -1 9 4 -3 6 3 10 13 10 11 0 25 7 32 15 9 11 16 12 25 5 10
-8 17 -5 29 12 9 12 16 18 16 13 0 -6 5 -2 11 8 9 15 13 16 27 5 13 -11 15
-11 9 4 -4 12 -1 16 13 13 10 -2 21 4 25 13 5 14 7 14 15 2 7 -10 10 -11 10
-2 0 6 7 12 15 12 9 0 18 6 21 14 3 8 14 13 25 11 11 -2 17 0 14 6 -4 5 3 9
14 9 11 0 27 8 37 18 10 9 21 17 25 17 5 0 16 7 26 15 19 17 27 20 44 20 5 0
7 5 3 12 -5 7 0 9 14 6 22 -6 48 14 38 30 -3 5 6 8 19 6 14 -1 23 2 19 7 -5 8
10 13 29 10 5 -1 6 3 2 9 -3 5 -1 10 5 10 6 0 23 12 37 28 15 15 23 21 19 15
-11 -20 4 -15 22 7 10 10 24 20 32 22 20 4 39 21 33 31 -2 4 2 7 10 7 8 0 24
9 37 20 13 11 27 20 32 20 5 0 6 5 3 10 -6 9 1 12 22 9 3 0 10 6 15 15 5 9 14
13 20 10 7 -4 8 -2 4 4 -4 6 4 16 16 23 13 6 35 24 49 40 15 15 30 25 33 22 3
-4 6 1 6 10 0 11 5 14 17 10 10 -4 14 -2 9 5 -3 6 2 13 12 16 11 4 24 18 31
32 6 14 15 22 21 19 5 -3 12 6 16 21 4 14 9 22 13 17 3 -5 22 7 41 26 19 19
26 28 15 20 -18 -13 -19 -13 -6 4 7 9 20 17 28 17 8 0 11 5 7 12 -5 7 -2 9 8
5 12 -4 15 0 13 18 -1 14 1 22 6 20 12 -8 39 6 39 21 0 8 5 14 11 14 8 0 7 6
-2 17 -9 11 -10 14 -2 9 9 -5 12 0 11 18 -1 15 -6 26 -11 26 -4 0 -3 8 2 18 6
11 6 24 -1 35 -5 10 -7 25 -4 32 3 8 0 17 -6 21 -7 4 -6 10 3 16 11 8 11 11 1
15 -10 4 -10 8 0 21 8 9 8 13 2 9 -8 -5 -12 6 -11 33 1 43 -15 71 -28 49z
m-4385 -389 c0 -5 -5 -10 -11 -10 -5 0 -7 5 -4 10 3 6 8 10 11 10 2 0 4 -4 4
-10z"/>
</g>
</svg>
