<svg width="49" height="48" viewBox="0 0 49 48" fill="none" xmlns="http://www.w3.org/2000/svg">
<g clip-path="url(#clip0_125_150)">
<path d="M24.0059 4.32187C30.4195 4.32187 31.179 4.35 33.7014 4.4625C36.0455 4.56562 37.3113 4.95938 38.1552 5.2875C39.271 5.71875 40.0774 6.24375 40.9119 7.07812C41.7558 7.92188 42.2716 8.71875 42.7029 9.83438C43.0311 10.6781 43.4249 11.9531 43.528 14.2875C43.6405 16.8187 43.6687 17.5781 43.6687 23.9813C43.6687 30.3938 43.6405 31.1531 43.528 33.675C43.4249 36.0188 43.0311 37.2844 42.7029 38.1281C42.2716 39.2438 41.7465 40.05 40.9119 40.8844C40.0681 41.7281 39.271 42.2438 38.1552 42.675C37.3113 43.0031 36.0361 43.3969 33.7014 43.5C31.1697 43.6125 30.4102 43.6406 24.0059 43.6406C17.5924 43.6406 16.8329 43.6125 14.3105 43.5C11.9664 43.3969 10.7006 43.0031 9.85666 42.675C8.74085 42.2438 7.93446 41.7188 7.09995 40.8844C6.25605 40.0406 5.74034 39.2438 5.30901 38.1281C4.98083 37.2844 4.58702 36.0094 4.48387 33.675C4.37136 31.1438 4.34323 30.3844 4.34323 23.9813C4.34323 17.5688 4.37136 16.8094 4.48387 14.2875C4.58702 11.9437 4.98083 10.6781 5.30901 9.83438C5.74034 8.71875 6.26543 7.9125 7.09995 7.07812C7.94384 6.23438 8.74085 5.71875 9.85666 5.2875C10.7006 4.95938 11.9758 4.56562 14.3105 4.4625C16.8329 4.35 17.5924 4.32187 24.0059 4.32187ZM24.0059 0C17.4892 0 16.6735 0.028125 14.1136 0.140625C11.5632 0.253125 9.80978 0.665625 8.29077 1.25625C6.70613 1.875 5.36527 2.69062 4.0338 4.03125C2.69295 5.3625 1.87718 6.70313 1.25833 8.27813C0.6676 9.80625 0.25503 11.55 0.142511 14.1C0.0299914 16.6687 0.00186157 17.4844 0.00186157 24C0.00186157 30.5156 0.0299914 31.3312 0.142511 33.8906C0.25503 36.4406 0.6676 38.1938 1.25833 39.7125C1.87718 41.2969 2.69295 42.6375 4.0338 43.9688C5.36527 45.3 6.70613 46.125 8.2814 46.7344C9.80978 47.325 11.5538 47.7375 14.1043 47.85C16.6641 47.9625 17.4798 47.9906 23.9966 47.9906C30.5133 47.9906 31.3291 47.9625 33.8889 47.85C36.4393 47.7375 38.1927 47.325 39.7118 46.7344C41.287 46.125 42.6279 45.3 43.9593 43.9688C45.2908 42.6375 46.116 41.2969 46.7254 39.7219C47.3162 38.1938 47.7287 36.45 47.8413 33.9C47.9538 31.3406 47.9819 30.525 47.9819 24.0094C47.9819 17.4938 47.9538 16.6781 47.8413 14.1188C47.7287 11.5688 47.3162 9.81563 46.7254 8.29688C46.1347 6.70312 45.319 5.3625 43.9781 4.03125C42.6466 2.7 41.3058 1.875 39.7305 1.26562C38.2021 0.675 36.4581 0.2625 33.9076 0.15C31.3384 0.028125 30.5227 0 24.0059 0Z" fill="#909AF3"/>
<path d="M24.0059 11.6719C17.1985 11.6719 11.6757 17.1938 11.6757 24C11.6757 30.8062 17.1985 36.3281 24.0059 36.3281C30.8134 36.3281 36.3362 30.8062 36.3362 24C36.3362 17.1938 30.8134 11.6719 24.0059 11.6719ZM24.0059 31.9969C19.5896 31.9969 16.0077 28.4156 16.0077 24C16.0077 19.5844 19.5896 16.0031 24.0059 16.0031C28.4223 16.0031 32.0042 19.5844 32.0042 24C32.0042 28.4156 28.4223 31.9969 24.0059 31.9969Z" fill="#909AF3"/>
<path d="M39.7024 11.1843C39.7024 12.778 38.4084 14.0624 36.8237 14.0624C35.2297 14.0624 33.9451 12.7687 33.9451 11.1843C33.9451 9.59053 35.2391 8.30615 36.8237 8.30615C38.4084 8.30615 39.7024 9.5999 39.7024 11.1843Z" fill="#909AF3"/>
</g>
<defs>
<clipPath id="clip0_125_150">
<rect width="48.0082" height="48" fill="white" transform="translate(0.00186157)"/>
</clipPath>
</defs>
</svg>
