<svg width="42" height="41" viewBox="0 0 42 41" fill="none" xmlns="http://www.w3.org/2000/svg">
<g clip-path="url(#clip0_125_145)">
<path d="M37.9741 0H3.03003C1.35611 0 0.00256348 1.32129 0.00256348 2.95488V38.0371C0.00256348 39.6707 1.35611 41 3.03003 41H37.9741C39.648 41 41.0095 39.6707 41.0095 38.0451V2.95488C41.0095 1.32129 39.648 0 37.9741 0ZM12.1685 34.9381H6.08153V15.367H12.1685V34.9381ZM9.12501 12.7004C7.17078 12.7004 5.59297 11.1229 5.59297 9.17695C5.59297 7.23105 7.17078 5.65352 9.12501 5.65352C11.0712 5.65352 12.6491 7.23105 12.6491 9.17695C12.6491 11.1148 11.0712 12.7004 9.12501 12.7004ZM34.9466 34.9381H28.8676V25.4248C28.8676 23.1586 28.8276 20.2357 25.704 20.2357C22.5404 20.2357 22.0598 22.7102 22.0598 25.2646V34.9381H15.9889V15.367H21.8196V18.0416H21.8996C22.7086 16.5041 24.6949 14.8785 27.6502 14.8785C33.8093 14.8785 34.9466 18.9305 34.9466 24.1996V34.9381Z" fill="#909AF3"/>
</g>
<defs>
<clipPath id="clip0_125_145">
<rect width="41.007" height="41" fill="white" transform="translate(0.00256348)"/>
</clipPath>
</defs>
</svg>
