<svg width="26" height="24" viewBox="0 0 26 24" fill="none" xmlns="http://www.w3.org/2000/svg">
<path d="M13.4106 19.6008L18.9546 23.1222C19.6696 23.5733 20.5496 22.9021 20.3406 22.0768L18.7346 15.7604C18.6912 15.5853 18.6981 15.4015 18.7545 15.2302C18.811 15.0589 18.9146 14.907 19.0536 14.792L24.0256 10.6435C24.6746 10.1042 24.3446 9.01484 23.4976 8.95982L17.0076 8.54166C16.8305 8.53135 16.6603 8.46966 16.5177 8.36414C16.3751 8.25861 16.2663 8.11381 16.2046 7.94743L13.7846 1.85113C13.7205 1.67496 13.6038 1.52277 13.4503 1.41523C13.2968 1.30769 13.114 1.25 12.9266 1.25C12.7392 1.25 12.5563 1.30769 12.4028 1.41523C12.2493 1.52277 12.1326 1.67496 12.0686 1.85113L9.64858 7.94743C9.58691 8.11381 9.47812 8.25861 9.33552 8.36414C9.19291 8.46966 9.02267 8.53135 8.84558 8.54166L2.35557 8.95982C1.50857 9.01484 1.17857 10.1042 1.82757 10.6435L6.79958 14.792C6.93855 14.907 7.04223 15.0589 7.09866 15.2302C7.1551 15.4015 7.16201 15.5853 7.11858 15.7604L5.63358 21.6146C5.38058 22.605 6.43658 23.4083 7.28358 22.8691L12.4426 19.6008C12.5873 19.5088 12.7551 19.4599 12.9266 19.4599C13.098 19.4599 13.2659 19.5088 13.4106 19.6008Z" fill="#FFA43C" stroke="#FFA43C" stroke-width="1.33506" stroke-linecap="round" stroke-linejoin="round"/>
</svg>
