<svg width="156" height="120" viewBox="0 0 156 120" fill="none" xmlns="http://www.w3.org/2000/svg">
<path fill-rule="evenodd" clip-rule="evenodd" d="M136.752 61.7016C134.077 87.6434 107.012 100.877 81.4006 105.795C54.2492 111.008 21.7541 110.752 8.9733 86.2363C-3.60362 62.1116 14.8531 35.262 35.2343 17.2401C50.6277 3.6287 72.0643 5.56209 90.8865 13.8056C113.272 23.6098 139.259 37.3918 136.752 61.7016Z" fill="#A998FF" fill-opacity="0.7" stroke="url(#paint0_linear_524_199)" stroke-width="3"/>
<path d="M30.844 49C29.8653 49 29.376 48.7361 29.376 48.2084V43.6747H25.8929C24.9238 43.6747 24.4393 43.4108 24.4393 42.8831C24.4393 42.3554 24.9238 42.0915 25.8929 42.0915H29.376V37.5578C29.376 37.0301 29.8653 36.7662 30.844 36.7662C31.8227 36.7662 32.3121 37.0301 32.3121 37.5578V42.0915H35.7951C36.7642 42.0915 37.2488 42.3554 37.2488 42.8831C37.2488 43.4108 36.7642 43.6747 35.7951 43.6747H32.3121V48.2084C32.3121 48.7361 31.8227 49 30.844 49ZM52.3755 49.0288H41.5954C40.6167 49.0288 40.1273 48.7553 40.1273 48.2084C40.1273 46.3182 40.4535 44.8309 41.106 43.7467C41.5762 42.9695 42.1615 42.3746 42.8619 41.962C43.572 41.5398 44.3204 41.1368 45.1072 40.753C46.3353 40.1581 47.6211 39.4145 48.9644 38.5221C50.3173 37.6202 50.9938 36.4064 50.9938 34.8808C50.9938 32.1078 49.7032 30.7213 47.1221 30.7213C46.1626 30.7213 45.3566 30.9708 44.7042 31.4697C43.6871 32.2469 43.1786 33.3887 43.1786 34.8952V35.1974C43.1786 35.7251 42.694 35.989 41.7249 35.989C40.8325 35.989 40.348 35.7491 40.2712 35.2694C40.2424 35.0679 40.228 34.8664 40.228 34.6649C40.228 32.6019 41.202 31.0475 43.1498 30.0017C44.282 29.3972 45.6061 29.0949 47.1221 29.0949C48.8397 29.0949 50.4037 29.6035 51.8142 30.6205C53.2246 31.628 53.9299 33.0625 53.9299 34.924C53.9299 36.7566 53.1527 38.2055 51.5983 39.2705C50.0439 40.326 48.523 41.2232 47.0358 41.962C46.4505 42.2498 45.8652 42.5569 45.2799 42.8831C44.6946 43.2093 44.2244 43.6651 43.8694 44.2504C43.4088 45.0084 43.1402 46.0591 43.0634 47.4024H52.3755C53.3446 47.4024 53.8291 47.6711 53.8291 48.2084C53.8291 48.7553 53.3446 49.0288 52.3755 49.0288ZM70.8269 42.9263C70.8269 44.9605 70.1217 46.5389 68.7112 47.6615C67.3103 48.7841 65.6503 49.3454 63.7313 49.3454C59.9892 49.3454 57.7056 47.8006 56.8804 44.711C56.842 44.5766 56.8228 44.4807 56.8228 44.4231C56.8132 43.905 57.3026 43.6459 58.2909 43.6459C59.1352 43.6459 59.615 43.8762 59.7301 44.3368C60.2675 46.6012 61.5964 47.7334 63.7169 47.7334C65.0506 47.7334 66.0821 47.2441 66.8113 46.2654C67.5406 45.2771 67.9052 44.1641 67.9052 42.9263C67.9052 41.6885 67.5406 40.5803 66.8113 39.6016C66.0821 38.6133 65.0506 38.1191 63.7169 38.1191C62.2968 38.1191 61.179 38.7428 60.3634 39.9902C60.0468 40.4699 59.5766 40.7098 58.9529 40.7098C57.955 40.7098 57.4561 40.4316 57.4561 39.875C57.4561 39.8175 57.4657 39.7215 57.4849 39.5872L58.737 30.2463C58.8042 29.7282 59.2888 29.4691 60.1907 29.4691H68.7256C69.6947 29.4691 70.1792 29.7378 70.1792 30.2751C70.1792 30.8124 69.6947 31.0811 68.7256 31.0811H61.5436L60.752 37.0397C61.654 36.6847 62.6615 36.5071 63.7745 36.5071C65.6935 36.5071 67.3487 37.0685 68.74 38.1911C70.1313 39.3137 70.8269 40.8921 70.8269 42.9263ZM92.2576 49.3454C91.2789 49.3454 90.7896 49.0816 90.7896 48.5538V35.2982L85.3203 48.7265C85.1572 49.1391 84.6391 49.3454 83.7659 49.3454C82.8928 49.3454 82.365 49.1439 82.1827 48.7409L75.9939 34.9527V48.7841C75.9939 49.1583 75.6149 49.3454 74.8569 49.3454C74.0988 49.3454 73.7198 49.1583 73.7198 48.7841V29.9297C73.7198 29.3924 74.2812 29.1237 75.4038 29.1237C76.2386 29.1237 76.7471 29.3252 76.9294 29.7282L84.1401 45.848L90.732 29.7282C90.9047 29.3252 91.4085 29.1237 92.2432 29.1237C93.2219 29.1237 93.7113 29.3924 93.7113 29.9297V48.5538C93.7113 49.0816 93.2267 49.3454 92.2576 49.3454ZM30.7577 80.3454C29.9133 80.3454 29.3999 80.1439 29.2176 79.7409L23.3886 66.5428C23.3598 66.4661 23.3454 66.4037 23.3454 66.3557C23.3454 65.8664 23.8684 65.6217 24.9142 65.6217C25.7106 65.6217 26.1952 65.8184 26.3679 66.2118L31.1319 76.9919L35.8815 66.0535C36.0062 65.7656 36.3756 65.6217 36.9897 65.6217C37.7573 65.6217 38.1411 65.7992 38.1411 66.1542C38.1411 66.1734 38.1315 66.2214 38.1123 66.2982L32.2833 79.7409C32.1106 80.1439 31.602 80.3454 30.7577 80.3454ZM41.0484 64.3408C40.0601 64.3408 39.566 63.8514 39.566 62.8727C39.566 61.8844 40.0601 61.3903 41.0484 61.3903C42.0271 61.3903 42.5165 61.8844 42.5165 62.8727C42.5165 63.8514 42.0271 64.3408 41.0484 64.3408ZM41.0484 80.3454C40.0697 80.3454 39.5804 80.0768 39.5804 79.5394V66.4133C39.5804 65.876 40.0697 65.6073 41.0484 65.6073C42.0175 65.6073 42.5021 65.876 42.5021 66.4133V79.5394C42.5021 80.0768 42.0175 80.3454 41.0484 80.3454ZM52.0876 80.3454C49.9095 80.3454 48.0721 79.6978 46.5752 78.4024C45.0784 77.0975 44.33 75.3176 44.33 73.0627C44.33 70.7695 45.088 68.956 46.604 67.6223C48.1296 66.279 50.0007 65.6073 52.2172 65.6073C54.3281 65.6073 56.1464 66.1638 57.672 67.2769C59.1976 68.3803 59.9604 70.0355 59.9604 72.2423C59.9604 72.8564 59.4759 73.1635 58.5068 73.1635H47.2373C47.2565 74.5836 47.6883 75.8693 48.5326 77.0207C49.377 78.1721 50.5668 78.7478 52.102 78.7478C53.2055 78.7478 54.2273 78.4504 55.1677 77.8555C56.156 77.2222 56.6933 76.4738 56.7796 75.6102C56.8276 75.1113 57.3026 74.8618 58.2045 74.8618C59.1928 74.8618 59.687 75.1257 59.687 75.6534C59.687 75.9221 59.6054 76.2483 59.4423 76.6321C59.0873 77.4765 58.4108 78.2249 57.4129 78.8774C55.9161 79.8561 54.141 80.3454 52.0876 80.3454ZM57.0099 71.5659C56.7029 68.6586 55.1053 67.2049 52.2172 67.2049C49.6457 67.2049 48.0433 68.6586 47.41 71.5659H57.0099ZM76.2098 80.3454C75.3462 80.3454 74.8473 80.1295 74.7129 79.6978L71.7912 70.0403L68.74 79.669C68.596 80.1199 68.0827 80.3454 67.1999 80.3454C66.3748 80.3454 65.8758 80.1391 65.7031 79.7265L60.3778 66.6004C60.3394 66.5141 60.3202 66.4325 60.3202 66.3557C60.3202 65.8568 60.8288 65.6073 61.8459 65.6073C62.671 65.6073 63.17 65.8136 63.3427 66.2262L67.4734 76.4162L70.6686 66.2694C70.8029 65.8376 71.3211 65.6217 72.223 65.6217C73.0866 65.6217 73.5855 65.8376 73.7198 66.2694L76.7999 76.3874L80.9738 66.0679C81.0985 65.7608 81.4583 65.6073 82.0532 65.6073C82.8304 65.6073 83.219 65.7944 83.219 66.1686C83.219 66.2166 83.1998 66.279 83.1614 66.3557L77.7786 79.6978C77.6059 80.1295 77.0829 80.3454 76.2098 80.3454ZM90.8327 80.3454C89.4127 80.3454 88.0837 80.0336 86.846 79.4099C85.6178 78.7766 84.7926 77.7499 84.3704 76.3299C84.332 76.2147 84.3129 76.1284 84.3129 76.0708C84.3129 75.5431 84.7974 75.2792 85.7665 75.2792C86.6205 75.2792 87.105 75.5047 87.2202 75.9557C87.7191 77.8171 88.9185 78.7478 90.8183 78.7478C91.6147 78.7478 92.392 78.508 93.15 78.0282C93.9176 77.5389 94.3014 76.8432 94.3014 75.9413C94.3014 75.3751 93.884 74.9098 93.0492 74.5452C92.4831 74.2957 91.7395 74.1086 90.8183 73.9839C90.0507 73.8783 89.2975 73.7584 88.5587 73.624C87.8295 73.4897 87.1338 73.2019 86.4718 72.7605C85.2724 71.9641 84.6727 70.9374 84.6727 69.6804C84.6727 68.2028 85.3971 67.1569 86.846 66.5428C88.3044 65.9192 89.6429 65.6073 90.8615 65.6073C92.1089 65.6073 93.3179 65.8856 94.4885 66.4421C95.6687 66.9986 96.4315 67.9149 96.7769 69.1911C96.8057 69.2774 96.8201 69.359 96.8201 69.4358C96.8201 69.9251 96.3355 70.1842 95.3664 70.213C94.5125 70.213 94.0279 69.9827 93.9128 69.5221C93.5386 67.9773 92.5167 67.2049 90.8471 67.2049C90.1275 67.2049 89.4031 67.4064 88.6738 67.8094C87.9446 68.2028 87.58 68.8169 87.58 69.6517C87.58 70.2082 88.0406 70.6687 88.9617 71.0334C89.5854 71.2732 90.329 71.4603 91.1926 71.5947C91.9602 71.7098 92.6942 71.8393 93.3946 71.9833C94.0951 72.1176 94.7763 72.3959 95.4384 72.818C96.6186 73.5665 97.2087 74.5788 97.2087 75.8549C97.2087 77.4477 96.4747 78.5943 95.0066 79.2948C93.5386 79.9952 92.1473 80.3454 90.8327 80.3454Z" fill="url(#paint1_radial_524_199)" fill-opacity="0.93"/>
<defs>
<linearGradient id="paint0_linear_524_199" x1="135.786" y1="68.8088" x2="7.09762" y2="50.8446" gradientUnits="userSpaceOnUse">
<stop stop-color="#4A34AC"/>
<stop offset="1" stop-color="#A08CF9"/>
</linearGradient>
<radialGradient id="paint1_radial_524_199" cx="0" cy="0" r="1" gradientUnits="userSpaceOnUse" gradientTransform="translate(66.535 61.7848) rotate(-157.444) scale(42.7672 33.2348)">
<stop stop-color="#E0E0E0"/>
<stop offset="1" stop-color="white"/>
</radialGradient>
</defs>
</svg>
