<svg width="184" height="154" viewBox="0 0 184 154" fill="none" xmlns="http://www.w3.org/2000/svg">
<path fill-rule="evenodd" clip-rule="evenodd" d="M20.4484 107.697C29.1904 129.321 58.8605 129.492 84.5571 129.756C110.534 130.022 141.986 131.248 152.639 109.054C164.115 85.1463 145.825 61.7678 124.78 45.9555C101.014 28.0977 70.0762 10.423 42.8316 26.5458C14.1103 43.5424 9.11403 79.661 20.4484 107.697Z" fill="#A998FF" fill-opacity="0.7" stroke="url(#paint0_linear_524_200)" stroke-width="3"/>
<path d="M42.2946 58C41.5092 58 41.1165 57.7883 41.1165 57.3648V53.7266H38.3215C37.5438 53.7266 37.155 53.5149 37.155 53.0914C37.155 52.6679 37.5438 52.4561 38.3215 52.4561H41.1165V48.818C41.1165 48.3945 41.5092 48.1828 42.2946 48.1828C43.08 48.1828 43.4726 48.3945 43.4726 48.818V52.4561H46.2677C47.0454 52.4561 47.4342 52.6679 47.4342 53.0914C47.4342 53.5149 47.0454 53.7266 46.2677 53.7266H43.4726V57.3648C43.4726 57.7883 43.08 58 42.2946 58ZM55.3919 58.2772C53.9367 58.2772 52.6316 57.9038 51.4766 57.1569C50.3216 56.41 49.7441 55.2473 49.7441 53.6689C49.7441 53.2377 50.133 53.0221 50.9106 53.0221C51.696 53.0221 52.0887 53.2377 52.0887 53.6689C52.0887 55.8787 53.1898 56.9836 55.3919 56.9836C57.3785 56.9836 58.3717 55.8787 58.3717 53.6689C58.3717 51.9826 57.6095 50.9508 56.0849 50.5736C55.9001 50.5274 55.4112 50.5043 54.6181 50.5043C53.8404 50.5043 53.4516 50.2887 53.4516 49.8575C53.4516 49.4725 53.8173 49.2569 54.5488 49.2107C55.1802 49.1799 55.6499 49.1144 55.9579 49.0143C57.2745 48.5909 57.9329 47.7054 57.9329 46.3579C57.9175 44.3483 56.8857 43.3434 54.8375 43.3434C52.928 43.3434 52.0117 44.4022 52.0887 46.5196L52.1003 46.7853C52.108 47.2087 51.7153 47.4205 50.9222 47.4205C50.1676 47.4205 49.7788 47.2126 49.7557 46.7968V46.4734C49.7557 45.0028 50.2677 43.8978 51.2918 43.1586C52.3236 42.4195 53.5478 42.0499 54.9646 42.0499C56.2813 42.0422 57.4901 42.3964 58.5912 43.1125C59.7 43.8285 60.2582 44.9104 60.2659 46.3579C60.2736 47.8363 59.5537 48.9604 58.1061 49.7304C59.8386 50.5312 60.7048 51.8517 60.7048 53.692C60.7048 55.1549 60.1619 56.2868 59.0763 57.0876C57.9983 57.8807 56.7702 58.2772 55.3919 58.2772ZM68.6163 58.2772C66.4912 58.2772 64.9897 57.3609 64.1119 55.5284C63.2342 53.6958 62.7953 51.9056 62.7953 50.1578C62.7953 48.4099 63.2303 46.6236 64.1004 44.7987C64.9782 42.9662 66.4835 42.0499 68.6163 42.0499C70.7492 42.0499 72.2506 42.9662 73.1207 44.7987C73.9985 46.6236 74.4374 48.4099 74.4374 50.1578C74.4374 51.9056 73.9985 53.6958 73.1207 55.5284C72.2429 57.3609 70.7415 58.2772 68.6163 58.2772ZM68.6163 56.9836C69.9946 56.9836 70.907 56.0943 71.3536 54.3156C71.8002 52.537 72.0235 51.1549 72.0235 50.1693C72.0235 49.176 71.8002 47.7901 71.3536 46.0114C70.907 44.2328 69.9946 43.3434 68.6163 43.3434C67.2458 43.3434 66.3333 44.2328 65.879 46.0114C65.4325 47.7901 65.2092 49.176 65.2092 50.1693C65.2092 51.1549 65.4325 52.537 65.879 54.3156C66.3256 56.0943 67.2381 56.9836 68.6163 56.9836ZM43.4264 83.2656C41.9019 83.2964 40.4928 82.9577 39.1993 82.2493C37.9134 81.5409 37.051 80.409 36.6121 78.8537C36.589 78.7382 36.5775 78.6804 36.5775 78.6804C36.5775 78.2569 36.9702 78.0452 37.7556 78.0452C38.4331 78.0452 38.8181 78.23 38.9105 78.5996C39.5111 80.8556 41.0241 81.9836 43.4495 81.9836C44.4351 81.9836 45.4168 81.691 46.3947 81.1059C47.3726 80.513 47.8615 79.6544 47.8615 78.5303C47.8615 77.7526 47.3764 77.1405 46.4063 76.6939C45.6825 76.3551 44.7624 76.1279 43.6459 76.0124C42.9144 75.9354 42.1637 75.8199 41.3937 75.6659C40.6237 75.512 39.9076 75.2656 39.2455 74.9268C37.7286 74.1337 36.9702 72.9633 36.9702 71.4157C36.9702 69.8449 37.7286 68.7246 39.2455 68.0547C40.77 67.3848 42.1829 67.0499 43.4842 67.0499C44.8163 67.0499 46.0906 67.3502 47.3071 67.9508C48.5237 68.5513 49.3206 69.5292 49.6979 70.8844C49.7287 70.9922 49.7441 71.0692 49.7441 71.1154C49.7441 71.5389 49.3591 71.7506 48.5892 71.7506C47.9039 71.7506 47.515 71.5658 47.4226 71.1962C46.953 69.2944 45.6401 68.3434 43.4842 68.3434C42.5756 68.3434 41.6516 68.5898 40.7123 69.0826C39.7806 69.5677 39.3148 70.3415 39.3148 71.4041C39.3148 72.151 39.8537 72.7593 40.9317 73.229C41.7325 73.5678 42.7296 73.7987 43.9231 73.9219C44.6777 73.9989 45.463 74.1221 46.2792 74.2915C47.0954 74.4609 47.823 74.7497 48.4621 75.1578C49.6171 75.8892 50.1946 76.9826 50.1946 78.4379C50.1946 80.1549 49.4207 81.383 47.8731 82.1222C46.3331 82.8614 44.8509 83.2425 43.4264 83.2656ZM62.5527 83.2772C62.2062 83.2772 61.9252 83.2117 61.7096 83.0808C61.1706 82.7652 60.8318 82.3532 60.6932 81.845C60.2004 82.4225 59.5383 82.8075 58.7067 83C57.8828 83.1848 57.1398 83.2772 56.4776 83.2772C55.4227 83.2772 54.3525 83.0269 53.2668 82.5265C52.1888 82.0183 51.6498 81.1482 51.6498 79.9162C51.6498 78.5149 52.1811 77.6255 53.2437 77.2483C54.3063 76.871 55.4073 76.6823 56.5469 76.6823C56.7933 76.6823 57.0936 76.69 57.4478 76.7054C57.8097 76.7208 58.1485 76.7285 58.4641 76.7285C59.3342 76.7285 59.9541 76.6284 60.3236 76.4282V75.331C60.3236 73.5986 59.3188 72.7323 57.3092 72.7323C56.57 72.7323 55.9117 72.9171 55.3342 73.2867C54.6643 73.7179 54.3294 74.2338 54.3294 74.8344C54.3294 75.2579 53.9367 75.4696 53.1513 75.4696C52.3813 75.4696 51.9963 75.2579 51.9963 74.8344C51.9963 73.9335 52.5122 73.1404 53.544 72.4551C54.568 71.7853 55.8231 71.4503 57.3092 71.4503C58.5026 71.4503 59.6923 71.7429 60.878 72.3281C62.0638 72.9056 62.6567 73.9065 62.6567 75.331V80.3089C62.6567 81.2791 62.9069 81.9066 63.4074 82.1915C63.623 82.3147 63.7308 82.461 63.7308 82.6304C63.7308 82.8229 63.6115 82.9808 63.3728 83.1039C63.1649 83.2194 62.8915 83.2772 62.5527 83.2772ZM56.4776 81.9952C57.3477 81.9952 58.2062 81.7372 59.0532 81.2213C59.9002 80.6978 60.3236 79.9586 60.3236 79.0038V77.895C59.8848 77.972 59.3458 78.0105 58.7067 78.0105C58.3525 78.0105 57.9945 78.0028 57.6326 77.9874C57.2707 77.9643 56.9088 77.9528 56.5469 77.9528C54.8452 77.9528 53.9944 78.6073 53.9944 79.9162C53.9944 81.3022 54.8221 81.9952 56.4776 81.9952ZM70.6491 83.2772C68.0542 83.2618 66.7568 82.1992 66.7568 80.0895V72.7439H65.4633C64.6856 72.7439 64.2967 72.5283 64.2967 72.0971C64.2967 71.6659 64.6856 71.4503 65.4633 71.4503H66.7568V67.6967C66.7568 67.2655 67.1495 67.0499 67.9349 67.0499C68.7203 67.0499 69.113 67.2655 69.113 67.6967V71.4503H71.0533C71.8387 71.4503 72.2314 71.6659 72.2314 72.0971C72.2314 72.5283 71.8387 72.7439 71.0533 72.7439H69.113V80.0895C69.113 81.3522 69.6288 81.9836 70.6606 81.9836C70.8762 81.9836 71.0803 81.9644 71.2728 81.9259C71.4729 81.8797 71.6731 81.8566 71.8733 81.8566C72.6818 81.8566 73.0861 82.0799 73.0861 82.5265C73.0861 82.8268 72.7627 83.0346 72.1159 83.1501C71.6077 83.2348 71.1188 83.2772 70.6491 83.2772ZM75.4306 70.4339C74.6376 70.4339 74.241 70.0412 74.241 69.2559C74.241 68.4628 74.6376 68.0663 75.4306 68.0663C76.216 68.0663 76.6087 68.4628 76.6087 69.2559C76.6087 70.0412 76.216 70.4339 75.4306 70.4339ZM75.4306 83.2772C74.6453 83.2772 74.2526 83.0616 74.2526 82.6304V72.0971C74.2526 71.6659 74.6453 71.4503 75.4306 71.4503C76.2083 71.4503 76.5972 71.6659 76.5972 72.0971V82.6304C76.5972 83.0616 76.2083 83.2772 75.4306 83.2772ZM83.296 83.2772C82.1564 83.2772 81.09 83.0269 80.0967 82.5265C79.1111 82.0183 78.449 81.1944 78.1102 80.0548C78.0794 79.9624 78.064 79.8931 78.064 79.8469C78.064 79.4234 78.4528 79.2117 79.2305 79.2117C79.9158 79.2117 80.3046 79.3926 80.397 79.7545C80.7974 81.2483 81.7599 81.9952 83.2844 81.9952C83.9235 81.9952 84.5472 81.8027 85.1555 81.4177C85.7715 81.025 86.0795 80.4668 86.0795 79.743C86.0795 79.2887 85.7445 78.9153 85.0746 78.6227C84.6203 78.4225 84.0236 78.2723 83.2844 78.1722C82.6684 78.0875 82.064 77.9913 81.4711 77.8835C80.8859 77.7757 80.3277 77.5447 79.7964 77.1905C78.8339 76.5514 78.3527 75.7275 78.3527 74.7189C78.3527 73.5331 78.934 72.6938 80.0967 72.201C81.2671 71.7006 82.3412 71.4503 83.3191 71.4503C84.3201 71.4503 85.2902 71.6736 86.2296 72.1202C87.1767 72.5668 87.7888 73.3021 88.066 74.3262C88.0891 74.3955 88.1006 74.4609 88.1006 74.5225C88.1006 74.9152 87.7118 75.1231 86.9341 75.1462C86.2488 75.1462 85.86 74.9614 85.7676 74.5918C85.4673 73.3522 84.6473 72.7323 83.3075 72.7323C82.73 72.7323 82.1487 72.894 81.5635 73.2174C80.9783 73.5331 80.6857 74.0259 80.6857 74.6958C80.6857 75.1424 81.0553 75.512 81.7945 75.8045C82.295 75.997 82.8917 76.1472 83.5847 76.255C84.2007 76.3474 84.7897 76.4513 85.3518 76.5668C85.9139 76.6746 86.4606 76.8979 86.9919 77.2367C87.939 77.8373 88.4125 78.6496 88.4125 79.6737C88.4125 80.9519 87.8235 81.872 86.6454 82.4341C85.4673 82.9962 84.3508 83.2772 83.296 83.2772ZM92.8707 83.2772C92.0853 83.2772 91.6926 83.0616 91.6926 82.6304V72.7323H90.4337C89.656 72.7323 89.2672 72.5167 89.2672 72.0855C89.2672 71.6544 89.656 71.4388 90.4337 71.4388H91.6926V70.2376C91.6926 68.1279 92.9862 67.0653 95.5733 67.0499C96.0507 67.0499 96.5435 67.0922 97.0517 67.1769C97.6984 67.2924 98.0218 67.5003 98.0218 67.8006C98.0218 68.2472 97.6137 68.4705 96.7976 68.4705C96.6051 68.4705 96.4087 68.4512 96.2085 68.4127C96.016 68.3665 95.812 68.3434 95.5964 68.3434C94.5569 68.3434 94.0372 68.9748 94.0372 70.2376V71.4388H96.0122C96.7976 71.4388 97.1903 71.6544 97.1903 72.0855C97.1903 72.5167 96.7976 72.7323 96.0122 72.7323H94.0372V82.6304C94.0372 83.0616 93.6483 83.2772 92.8707 83.2772ZM100.355 70.4339C99.5618 70.4339 99.1652 70.0412 99.1652 69.2559C99.1652 68.4628 99.5618 68.0663 100.355 68.0663C101.14 68.0663 101.533 68.4628 101.533 69.2559C101.533 70.0412 101.14 70.4339 100.355 70.4339ZM100.355 83.2772C99.5695 83.2772 99.1768 83.0616 99.1768 82.6304V72.0971C99.1768 71.6659 99.5695 71.4503 100.355 71.4503C101.133 71.4503 101.521 71.6659 101.521 72.0971V82.6304C101.521 83.0616 101.133 83.2772 100.355 83.2772ZM109.213 83.2772C107.466 83.2772 105.991 82.7575 104.79 81.718C103.589 80.6708 102.988 79.2425 102.988 77.433C102.988 75.5928 103.596 74.1375 104.813 73.0673C106.037 71.9893 107.539 71.4503 109.317 71.4503C111.011 71.4503 112.47 71.8969 113.695 72.7901C114.919 73.6756 115.531 75.0038 115.531 76.7747C115.531 77.2675 115.142 77.5139 114.365 77.5139H105.321C105.337 78.6535 105.683 79.6852 106.361 80.6092C107.038 81.5332 107.993 81.9952 109.225 81.9952C110.111 81.9952 110.931 81.7565 111.685 81.2791C112.478 80.7709 112.909 80.1703 112.979 79.4773C113.017 79.077 113.398 78.8768 114.122 78.8768C114.915 78.8768 115.312 79.0885 115.312 79.512C115.312 79.7276 115.246 79.9894 115.115 80.2974C114.83 80.975 114.288 81.5755 113.487 82.0991C112.286 82.8845 110.861 83.2772 109.213 83.2772ZM113.163 76.2319C112.917 73.8988 111.635 72.7323 109.317 72.7323C107.254 72.7323 105.968 73.8988 105.46 76.2319H113.163ZM127.335 83.2772C126.557 83.2772 126.168 83.0616 126.168 82.6304V81.9259C125.283 82.8191 124.093 83.2656 122.6 83.2656C118.657 83.2656 116.686 81.2945 116.686 77.3522C116.686 73.4099 118.657 71.4388 122.6 71.4388C124.086 71.4388 125.275 71.8853 126.168 72.7785V67.6967C126.168 67.2655 126.557 67.0499 127.335 67.0499C128.12 67.0499 128.513 67.2655 128.513 67.6967V82.6304C128.513 83.0616 128.12 83.2772 127.335 83.2772ZM122.6 81.9721C123.816 81.9721 124.713 81.46 125.291 80.436C125.876 79.4119 126.168 78.384 126.168 77.3522C126.168 76.3204 125.876 75.2925 125.291 74.2684C124.713 73.2444 123.816 72.7323 122.6 72.7323C121.391 72.7323 120.494 73.2444 119.908 74.2684C119.323 75.2925 119.031 76.3204 119.031 77.3522C119.031 78.384 119.323 79.4119 119.908 80.436C120.494 81.46 121.391 81.9721 122.6 81.9721ZM42.745 109.277C38.6256 109.277 36.5659 107.321 36.5659 103.41C36.5659 101.547 37.1627 100.087 38.3561 99.0326C39.5496 97.9777 41.0511 97.4503 42.8605 97.4503C44.0001 97.4503 45.1435 97.7429 46.2908 98.3281C47.4457 98.9133 48.131 99.8103 48.3466 101.019C48.362 101.112 48.3697 101.173 48.3697 101.204C48.3697 101.627 47.9809 101.839 47.2032 101.839C46.4794 101.839 46.0906 101.643 46.0367 101.25C45.798 99.5716 44.7354 98.7323 42.849 98.7323C41.54 98.7323 40.5544 99.2213 39.8922 100.199C39.2301 101.169 38.899 102.247 38.899 103.433C38.9067 104.588 39.2301 105.639 39.8691 106.586C40.5082 107.525 41.4823 107.995 42.7912 107.995C44.6546 107.995 45.7441 107.152 46.0598 105.466C46.1214 105.081 46.5102 104.888 47.2263 104.888C48.0117 104.888 48.4044 105.1 48.4044 105.524C48.4044 105.493 48.389 105.57 48.3582 105.755C48.081 106.948 47.361 107.833 46.1984 108.411C45.0357 108.988 43.8846 109.277 42.745 109.277ZM51.0261 109.277C50.2408 109.277 49.8481 109.062 49.8481 108.63V93.6967C49.8481 93.2655 50.2408 93.0499 51.0261 93.0499C51.8038 93.0499 52.1927 93.2655 52.1927 93.6967V108.63C52.1927 109.062 51.8038 109.277 51.0261 109.277ZM56.0503 96.4339C55.2572 96.4339 54.8606 96.0412 54.8606 95.2559C54.8606 94.4628 55.2572 94.0663 56.0503 94.0663C56.8356 94.0663 57.2283 94.4628 57.2283 95.2559C57.2283 96.0412 56.8356 96.4339 56.0503 96.4339ZM56.0503 109.277C55.2649 109.277 54.8722 109.062 54.8722 108.63V98.0971C54.8722 97.6659 55.2649 97.4503 56.0503 97.4503C56.8279 97.4503 57.2168 97.6659 57.2168 98.0971V108.63C57.2168 109.062 56.8279 109.277 56.0503 109.277ZM64.9089 109.277C63.161 109.277 61.6865 108.757 60.4853 107.718C59.2842 106.671 58.6836 105.243 58.6836 103.433C58.6836 101.593 59.2919 100.138 60.5084 99.0673C61.7327 97.9893 63.2342 97.4503 65.0128 97.4503C66.7068 97.4503 68.1659 97.8969 69.3902 98.7901C70.6144 99.6756 71.2266 101.004 71.2266 102.775C71.2266 103.268 70.8377 103.514 70.06 103.514H61.0166C61.032 104.653 61.3785 105.685 62.0561 106.609C62.7337 107.533 63.6885 107.995 64.9204 107.995C65.8059 107.995 66.6259 107.756 67.3805 107.279C68.1736 106.771 68.6048 106.17 68.6741 105.477C68.7126 105.077 69.0937 104.877 69.8175 104.877C70.6106 104.877 71.0071 105.089 71.0071 105.512C71.0071 105.728 70.9417 105.989 70.8108 106.297C70.5259 106.975 69.983 107.576 69.1823 108.099C67.9811 108.885 66.5566 109.277 64.9089 109.277ZM68.8589 102.232C68.6125 99.8988 67.3305 98.7323 65.0128 98.7323C62.9493 98.7323 61.6634 99.8988 61.1552 102.232H68.8589ZM82.8686 109.277C82.091 109.277 81.7021 109.062 81.7021 108.63V102.648C81.7021 101.747 81.4557 100.873 80.9629 100.026C80.4702 99.1789 79.6925 98.7554 78.6299 98.7554C77.4903 98.7554 76.6511 99.2174 76.1121 100.141C75.5731 101.058 75.3036 101.997 75.3036 102.96V108.63C75.3036 109.062 74.9148 109.277 74.1371 109.277C73.3517 109.277 72.959 109.062 72.959 108.63V98.1086C72.959 97.6775 73.3517 97.4619 74.1371 97.4619C74.9148 97.4619 75.3036 97.6775 75.3036 98.1086V98.8016C76.1506 97.9007 77.3055 97.4503 78.7685 97.4503C80.3085 97.4503 81.5712 97.9431 82.5568 98.9287C83.5501 99.9065 84.0467 101.142 84.0467 102.636V108.63C84.0467 109.062 83.654 109.277 82.8686 109.277ZM91.8312 109.277C89.2364 109.262 87.939 108.199 87.939 106.089V98.7439H86.6454C85.8677 98.7439 85.4789 98.5283 85.4789 98.0971C85.4789 97.6659 85.8677 97.4503 86.6454 97.4503H87.939V93.6967C87.939 93.2655 88.3316 93.0499 89.117 93.0499C89.9024 93.0499 90.2951 93.2655 90.2951 93.6967V97.4503H92.2354C93.0208 97.4503 93.4135 97.6659 93.4135 98.0971C93.4135 98.5283 93.0208 98.7439 92.2354 98.7439H90.2951V106.089C90.2951 107.352 90.811 107.984 91.8427 107.984C92.0583 107.984 92.2624 107.964 92.4549 107.926C92.6551 107.88 92.8553 107.857 93.0555 107.857C93.8639 107.857 94.2682 108.08 94.2682 108.526C94.2682 108.827 93.9448 109.035 93.298 109.15C92.7898 109.235 92.3009 109.277 91.8312 109.277ZM100.366 109.277C99.2268 109.277 98.1604 109.027 97.1672 108.526C96.1816 108.018 95.5194 107.194 95.1806 106.055C95.1498 105.962 95.1344 105.893 95.1344 105.847C95.1344 105.423 95.5232 105.212 96.3009 105.212C96.9862 105.212 97.375 105.393 97.4674 105.755C97.8678 107.248 98.8303 107.995 100.355 107.995C100.994 107.995 101.618 107.803 102.226 107.418C102.842 107.025 103.15 106.467 103.15 105.743C103.15 105.289 102.815 104.915 102.145 104.623C101.691 104.422 101.094 104.272 100.355 104.172C99.7389 104.088 99.1344 103.991 98.5416 103.883C97.9564 103.776 97.3981 103.545 96.8669 103.191C95.9044 102.551 95.4231 101.728 95.4231 100.719C95.4231 99.5331 96.0045 98.6938 97.1672 98.201C98.3375 97.7006 99.4116 97.4503 100.39 97.4503C101.39 97.4503 102.361 97.6736 103.3 98.1202C104.247 98.5668 104.859 99.3021 105.136 100.326C105.16 100.395 105.171 100.461 105.171 100.523C105.171 100.915 104.782 101.123 104.005 101.146C103.319 101.146 102.93 100.961 102.838 100.592C102.538 99.3522 101.718 98.7323 100.378 98.7323C99.8005 98.7323 99.2191 98.894 98.634 99.2174C98.0488 99.5331 97.7562 100.026 97.7562 100.696C97.7562 101.142 98.1258 101.512 98.865 101.805C99.3654 101.997 99.9622 102.147 100.655 102.255C101.271 102.347 101.86 102.451 102.422 102.567C102.984 102.675 103.531 102.898 104.062 103.237C105.009 103.837 105.483 104.65 105.483 105.674C105.483 106.952 104.894 107.872 103.716 108.434C102.538 108.996 101.421 109.277 100.366 109.277Z" fill="url(#paint1_radial_524_200)" fill-opacity="0.93"/>
<defs>
<linearGradient id="paint0_linear_524_200" x1="16.5269" y1="95.4854" x2="147.549" y2="58.4183" gradientUnits="userSpaceOnUse">
<stop stop-color="#4A34AC"/>
<stop offset="1" stop-color="#A08CF9"/>
</linearGradient>
<radialGradient id="paint1_radial_524_200" cx="0" cy="0" r="1" gradientUnits="userSpaceOnUse" gradientTransform="translate(84.5 74) rotate(-160.017) scale(46.8188 32.986)">
<stop stop-color="#E0E0E0"/>
<stop offset="1" stop-color="white"/>
</radialGradient>
</defs>
</svg>
